<svg xmlns="http://www.w3.org/2000/svg" xmlns:xlink="http://www.w3.org/1999/xlink" width="379" height="290.404" viewBox="0 0 379 290.404">
  <defs>
    <linearGradient id="linear-gradient" x1="0.697" y1="-0.017" x2="0.372" y2="0.54" gradientUnits="objectBoundingBox">
      <stop offset="0" stop-color="#ff9f55"/>
      <stop offset="1" stop-color="#ffd255"/>
    </linearGradient>
    <linearGradient id="linear-gradient-2" x1="0.5" y1="1.192" x2="0.5" y2="0.045" xlink:href="#linear-gradient"/>
    <linearGradient id="linear-gradient-3" x1="0.029" y1="0.842" x2="0.96" y2="0.16" gradientUnits="objectBoundingBox">
      <stop offset="0" stop-color="#00ebcc"/>
      <stop offset="0.49" stop-color="#10b2d3"/>
      <stop offset="0.721" stop-color="#02abe0"/>
      <stop offset="1" stop-color="#07f"/>
    </linearGradient>
    <linearGradient id="linear-gradient-18" x1="0" y1="0.5" x2="1" y2="0.5" xlink:href="#linear-gradient"/>
  </defs>
  <g id="Ativo_1" data-name="Ativo 1" transform="translate(0 -0.08)">
    <g id="Camada_2" data-name="Camada 2" transform="translate(0 0.08)">
      <g id="Слой_1" data-name="Слой 1" transform="translate(0 0)">
        <path id="Path_77251" data-name="Path 77251" d="M371.051,192.053,217.084,346.019l-7.576,7.577-16.174,16.174-37.51,37.51L40.01,291.467,68.183,263.3l34.482,34.481,33.14,33.14,20.019,20.02,20.02-20.02,121.989-122,45.045-45.045Z" transform="translate(-33.714 -138.103)" fill="url(#linear-gradient)"/>
        <path id="Path_77252" data-name="Path 77252" d="M1038.07,1148.6v27.177l-7.576,7.577-16.174,16.174V1148.6Z" transform="translate(-854.7 -967.861)" fill="#e3892b"/>
        <path id="Path_77253" data-name="Path 77253" d="M643.248,460.437v36.009L545,594.691H448.59a10.433,10.433,0,0,1-10.43-10.432V460.437A10.427,10.427,0,0,1,448.59,450H632.816c.173,0,.338,0,.511.013A10.43,10.43,0,0,1,643.248,460.437Z" transform="translate(-369.208 -379.198)" fill="url(#linear-gradient-2)"/>
        <path id="Path_77254" data-name="Path 77254" d="M678.2,352.19v69.865L610.66,489.6H489.17V352.19Z" transform="translate(-412.191 -296.78)" fill="#f2f6ff"/>
        <rect id="Rectangle_2779" data-name="Rectangle 2779" width="189.029" height="16.596" rx="8.298" transform="translate(266.009 72.005) rotate(180)" fill="url(#linear-gradient-3)"/>
        <rect id="Rectangle_2780" data-name="Rectangle 2780" width="26.962" height="6.271" rx="3.136" transform="translate(84.876 60.57)" fill="#f5f7ff"/>
        <path id="Path_77255" data-name="Path 77255" d="M1742.249,1286.73h.01C1742.218,1286.747,1742.213,1286.749,1742.249,1286.73Z" transform="translate(-1468.057 -1084.254)" fill="#323657"/>
        <path id="Path_77256" data-name="Path 77256" d="M1865.48,954.811l18.87-10.553-6.487-.428Z" transform="translate(-1571.916 -795.315)" fill="#d6d6d6"/>
        <path id="Path_77257" data-name="Path 77257" d="M1865.48,962.909l5.807-9.34,4.872-.129Z" transform="translate(-1571.916 -803.413)" fill="#e8e8e8"/>
        <path id="Path_77258" data-name="Path 77258" d="M1880.01,961.97l.379,2.378L1865.48,970.1Z" transform="translate(-1571.916 -810.601)" fill="#c2c2c2"/>
        <path id="Path_77259" data-name="Path 77259" d="M289.911,236.723c-.061-.741-.12-1.49-.172-2.227l.516-.036c.052.733.109,1.481.17,2.22Zm267.18-2.349-.294-.425a21.346,21.346,0,0,0,2.125-1.761l.352.378A21.53,21.53,0,0,1,557.091,234.374Zm-267.523-2.664c-.052-.93-.1-1.868-.134-2.79l.516-.02c.036.919.082,1.855.132,2.782Zm271.67-1.168-.39-.338a24.108,24.108,0,0,0,1.7-2.18l.425.293a24.376,24.376,0,0,1-1.736,2.225Zm-271.893-4.406c-.022-.93-.036-1.87-.044-2.793h.518c0,.919.02,1.857.042,2.784ZM564.41,225.9l-.463-.233a16.839,16.839,0,0,0,1.034-2.541l.493.157a17.535,17.535,0,0,1-1.069,2.609Zm-274.594-5.349H289.3c.009-.932.027-1.871.052-2.793l.516.014C289.843,218.683,289.826,219.619,289.816,220.547Zm276.244-.049-.513-.06a14.169,14.169,0,0,0,.091-1.589c0-.379-.016-.763-.047-1.143l.515-.042c.033.393.049.787.049,1.185a14.476,14.476,0,0,1-.094,1.647Zm-.961-5.481a16.388,16.388,0,0,0-.974-2.564l.472-.222a17,17,0,0,1,1,2.645Zm-275.129-.036-.516-.024c.042-.93.094-1.87.157-2.789l.515.033c-.06.917-.112,1.852-.154,2.779Zm272.8-4.916a24.457,24.457,0,0,0-1.656-2.2l.4-.332a25.376,25.376,0,0,1,1.69,2.252Zm-272.433-.639-.515-.042c.077-.928.165-1.865.261-2.781l.515.053C290.5,207.569,290.409,208.5,290.332,209.426Zm268.906-3.6-.225-.22a20.339,20.339,0,0,0-1.836-1.588l.315-.411a20.912,20.912,0,0,1,1.888,1.629l.228.223ZM290.91,203.892l-.511-.065c.115-.924.241-1.854.375-2.767l.511.074C291.151,202.044,291.025,202.971,290.91,203.892Zm263.986-1.4a25.028,25.028,0,0,0-2.455-1.245l.209-.472a26.061,26.061,0,0,1,2.505,1.27Zm-5.036-2.242c-.834-.283-1.7-.546-2.652-.8l.134-.5c.962.258,1.84.522,2.685.81Zm-5.35-1.454c-.821-.181-1.714-.362-2.727-.556l.1-.508c1.018.2,1.915.378,2.741.56Zm-252.792-.406-.508-.087c.157-.917.315-1.843.5-2.749l.507.1C292.038,196.552,291.873,197.473,291.717,198.387Zm247.328-.65-.832-.15-1.914-.343.091-.508q.961.175,1.914.343l.832.157Zm-5.492-1.013c-.987-.2-1.888-.386-2.737-.581l.115-.5c.85.194,1.74.382,2.722.578Zm-5.453-1.259c-.928-.25-1.832-.518-2.685-.787l.157-.491c.847.274,1.74.54,2.661.787Zm-5.322-1.731c-.881-.346-1.747-.721-2.571-1.113l.222-.472c.814.386,1.668.755,2.538,1.1Zm-230.012-.81-.505-.109c.2-.911.4-1.827.62-2.724l.5.121C293.17,191.1,292.962,192.017,292.767,192.923Zm224.956-1.607c-.812-.464-1.611-.963-2.376-1.484l.291-.426c.752.513,1.541,1,2.342,1.462Zm-4.627-3.147c-.719-.581-1.429-1.2-2.109-1.843l.356-.376c.669.629,1.369,1.245,2.077,1.816Zm-219.029-.655-.5-.132c.238-.9.491-1.8.751-2.691l.5.145C294.556,185.719,294.3,186.621,294.067,187.515Zm214.963-3.187c-.617-.678-1.224-1.4-1.807-2.137l.406-.315c.574.73,1.176,1.44,1.783,2.109Zm-213.4-2.151-.493-.157c.283-.886.582-1.777.886-2.65l.488.17C296.205,180.408,295.909,181.3,295.628,182.177Zm209.936-2.239c-.518-.752-1.028-1.542-1.515-2.351l.442-.266c.483.8.987,1.574,1.5,2.324Zm-208.106-3.01-.483-.184c.329-.869.674-1.744,1.023-2.6l.472.2C298.128,175.191,297.785,176.062,297.458,176.927Zm205.206-1.77c-.43-.8-.851-1.644-1.259-2.5l.472-.222c.4.847.82,1.679,1.246,2.475Zm-203.1-3.377-.472-.208c.375-.851.766-1.706,1.163-2.541l.472.222C300.327,170.083,299.936,170.933,299.563,171.78Zm200.707-1.671c-.354-.839-.7-1.711-1.039-2.593l.483-.183c.332.877.678,1.742,1.031,2.575Zm-198.323-3.35-.46-.234c.42-.828.859-1.659,1.3-2.472l.453.247C302.8,165.107,302.366,165.935,301.948,166.758Zm196.342-1.879c-.293-.862-.581-1.756-.856-2.658l.494-.157c.274.9.56,1.786.851,2.642Zm-193.679-3-.445-.261c.472-.8.954-1.607,1.443-2.394l.439.274C305.559,160.279,305.076,161.08,304.61,161.878Zm192.052-2.334c-.241-.88-.472-1.789-.707-2.7l.5-.124c.225.91.463,1.816.7,2.691ZM307.55,157.159l-.43-.285c.513-.773,1.045-1.548,1.574-2.305l.422.3C308.59,155.62,308.061,156.391,307.55,157.159Zm187.724-3.015c-.246-.878-.53-1.761-.845-2.626l.485-.178c.315.878.609,1.775.858,2.666ZM310.76,152.62l-.412-.315c.559-.741,1.135-1.486,1.714-2.2l.4.323C311.888,151.144,311.316,151.884,310.76,152.62Zm182.622-3.663c-.376-.829-.787-1.663-1.232-2.479l.455-.245c.447.826.867,1.67,1.248,2.518Zm-179.151-.678-.393-.334c.6-.708,1.22-1.416,1.84-2.106l.384.346C315.445,146.872,314.83,147.569,314.232,148.278Zm3.722-4.131-.375-.356c.641-.67,1.3-1.341,1.961-1.992l.362.367C319.245,142.813,318.589,143.477,317.953,144.148Zm172.789-.057c-.486-.768-1.01-1.539-1.556-2.291l.419-.3c.552.76,1.083,1.541,1.574,2.32ZM321.908,140.24l-.353-.378c.677-.629,1.374-1.259,2.071-1.877l.341.387C323.274,138.983,322.581,139.611,321.908,140.24Zm165.589-.629c-.576-.7-1.188-1.408-1.818-2.095l.381-.348c.629.692,1.259,1.4,1.836,2.115Zm-161.42-3.045-.331-.4c.711-.592,1.443-1.182,2.175-1.756l.315.406C327.516,135.389,326.789,135.977,326.077,136.566Zm157.681-1.048c-.648-.639-1.33-1.276-2.025-1.9l.345-.386c.7.629,1.388,1.27,2.046,1.915Zm-153.31-2.381-.315-.415c.741-.549,1.5-1.1,2.261-1.63l.3.423C331.942,132.043,331.185,132.589,330.448,133.137Zm149.165-1.32c-.707-.578-1.443-1.152-2.189-1.711l.315-.414c.751.563,1.493,1.142,2.2,1.731Zm-144.62-1.863-.285-.431c.771-.51,1.561-1.017,2.348-1.508l.272.439C336.546,128.941,335.759,129.446,334.993,129.953Zm140.174-1.47c-.751-.518-1.53-1.035-2.316-1.536l.279-.436c.787.505,1.574,1.024,2.332,1.547ZM339.7,127.014l-.261-.445c.787-.472,1.61-.933,2.425-1.385l.25.452C341.308,126.083,340.5,126.548,339.7,127.014Zm130.772-1.52c-.787-.464-1.6-.927-2.417-1.375l.249-.452c.821.45,1.64.914,2.431,1.382Zm-125.909-1.176-.236-.458c.82-.428,1.659-.853,2.493-1.259l.227.464C346.219,123.468,345.384,123.891,344.567,124.318Zm121.037-1.5c-.815-.414-1.656-.826-2.5-1.224l.22-.472c.848.4,1.693.815,2.518,1.231Zm-116.044-.957-.217-.472c.84-.387,1.7-.771,2.552-1.141l.2.472C351.255,121.1,350.4,121.479,349.56,121.864Zm111.013-1.416c-.839-.368-1.7-.733-2.563-1.084l.2-.472c.866.352,1.731.719,2.576,1.089Zm-105.908-.787-.2-.472c.858-.348,1.731-.692,2.6-1.021l.184.483c-.864.313-1.736.656-2.589,1Zm100.751-1.309c-.859-.326-1.739-.645-2.615-.944l.17-.488c.881.315,1.764.629,2.628.957Zm-95.545-.664-.172-.488c.873-.315,1.763-.612,2.645-.9l.157.491c-.872.282-1.758.584-2.628.892Zm90.292-1.177c-.875-.285-1.77-.562-2.658-.828l.148-.5c.892.268,1.789.548,2.675.831Zm-85-.573-.157-.494c.886-.271,1.788-.535,2.683-.787l.14.5C366.946,115.408,366.048,115.671,365.165,115.938Zm79.667-1.034c-.888-.244-1.794-.482-2.693-.708l.127-.5c.9.228,1.811.472,2.7.713Zm-74.307-.472-.131-.5c.894-.231,1.807-.458,2.713-.672l.12.5c-.9.211-1.813.445-2.7.667Zm68.908-.884c-.9-.206-1.813-.408-2.719-.6l.105-.505c.91.189,1.829.39,2.73.6Zm-63.491-.4-.109-.505c.9-.2,1.825-.386,2.737-.562l.1.507c-.908.173-1.826.36-2.727.557Zm58.04-.736c-.9-.17-1.827-.334-2.741-.486l.085-.51c.917.157,1.843.315,2.752.488Zm-52.576-.329-.088-.508c.908-.157,1.835-.315,2.755-.453l.079.51c-.918.138-1.841.29-2.746.448Zm47.084-.59c-.913-.134-1.841-.263-2.759-.379l.065-.513c.922.118,1.854.245,2.77.381Zm-41.586-.26-.069-.511c.917-.123,1.849-.239,2.77-.346l.06.513c-.917.1-1.846.219-2.76.341Zm36.061-.447c-.919-.1-1.851-.192-2.771-.274l.047-.515c.922.082,1.859.175,2.781.275Zm-30.529-.189-.05-.515c.922-.088,1.857-.17,2.779-.241l.039.515c-.925.074-1.857.15-2.774.231Zm24.988-.315c-.919-.065-1.854-.123-2.779-.17l.027-.516c.928.049,1.866.105,2.789.172Zm-19.447-.12-.03-.516c.922-.054,1.859-.1,2.782-.137l.022.516c-.928.041-1.862.09-2.781.14Zm13.886-.17c-.922-.031-1.857-.055-2.781-.069v-.516c.927.014,1.865.038,2.79.069Zm-8.34-.052-.011-.516c.921-.02,1.859-.031,2.784-.035v.518c-.924,0-1.859.017-2.776.036Z" transform="translate(-243.774 -92.188)" fill="#e0e0e0"/>
        <path id="Path_77260" data-name="Path 77260" d="M2112.249,434.8a16.078,16.078,0,1,0-13.753,29.066q.492.23.99.427a16.077,16.077,0,0,0,12.762-29.494Zm4.021,19.688a12.042,12.042,0,0,1-15.31,6.062q-.373-.148-.741-.315a12.054,12.054,0,1,1,16.051-5.741Z" transform="translate(-1760.506 -365.081)" fill="#f0f0f0"/>
        <path id="Path_77261" data-name="Path 77261" d="M2094.741,481.993l-3.563,1.868a16.1,16.1,0,0,1,2.535-18.491l2.929,2.759a12.078,12.078,0,0,0-1.9,13.864Z" transform="translate(-1760.551 -392.149)" fill="#2273b5"/>
        <path id="Path_77262" data-name="Path 77262" d="M2110.817,576.621l-1.473,3.744q-.5-.2-.99-.428a16.007,16.007,0,0,1-7.365-7.069l3.564-1.868a12,12,0,0,0,5.522,5.3Q2110.444,576.473,2110.817,576.621Z" transform="translate(-1770.364 -481.156)" fill="#4dafff"/>
        <path id="Path_77263" data-name="Path 77263" d="M2158.672,611.532a15.987,15.987,0,0,1-4.592-1.068l1.473-3.744a11.961,11.961,0,0,0,3.443.8Z" transform="translate(-1815.1 -511.255)" fill="#4dafff"/>
        <path id="Path_77264" data-name="Path 77264" d="M1999.342,633.336H1969.32v-.6h29.426V620.02h.6Z" transform="translate(-1659.415 -522.462)" fill="#4dafff"/>
        <rect id="Rectangle_2781" data-name="Rectangle 2781" width="15.803" height="3.58" transform="translate(309.905 104.066)" fill="#e0e0e0"/>
        <rect id="Rectangle_2782" data-name="Rectangle 2782" width="3.136" height="20.799" transform="translate(0 51.832)" fill="#e0e0e0"/>
        <rect id="Rectangle_2783" data-name="Rectangle 2783" width="3.136" height="16.572" transform="translate(7.788 56.057)" fill="#e0e0e0"/>
        <rect id="Rectangle_2784" data-name="Rectangle 2784" width="3.136" height="19.683" transform="translate(15.576 52.947)" fill="#e0e0e0"/>
        <rect id="Rectangle_2785" data-name="Rectangle 2785" width="3.136" height="13.543" transform="translate(23.364 59.088)" fill="#e0e0e0"/>
        <rect id="Rectangle_2786" data-name="Rectangle 2786" width="3.136" height="19.045" transform="translate(31.152 53.585)" fill="#e0e0e0"/>
        <rect id="Rectangle_2787" data-name="Rectangle 2787" width="3.136" height="21.915" transform="translate(38.939 50.714)" fill="#e0e0e0"/>
        <rect id="Rectangle_2788" data-name="Rectangle 2788" width="3.136" height="23.111" transform="translate(46.727 49.518)" fill="#e0e0e0"/>
        <rect id="Rectangle_2789" data-name="Rectangle 2789" width="3.136" height="13.049" transform="translate(0 59.58)" fill="#5d96ff"/>
        <rect id="Rectangle_2790" data-name="Rectangle 2790" width="3.136" height="10.397" transform="translate(7.788 62.232)" fill="#5d96ff"/>
        <rect id="Rectangle_2791" data-name="Rectangle 2791" width="3.136" height="12.349" transform="translate(15.576 60.281)" fill="#5d96ff"/>
        <rect id="Rectangle_2792" data-name="Rectangle 2792" width="3.136" height="8.496" transform="translate(23.364 64.133)" fill="#5d96ff"/>
        <rect id="Rectangle_2793" data-name="Rectangle 2793" width="3.136" height="11.949" transform="translate(31.152 60.682)" fill="#5d96ff"/>
        <rect id="Rectangle_2794" data-name="Rectangle 2794" width="3.136" height="13.749" transform="translate(38.939 58.88)" fill="#5d96ff"/>
        <rect id="Rectangle_2795" data-name="Rectangle 2795" width="3.136" height="14.5" transform="translate(46.727 58.131)" fill="#5d96ff"/>
        <rect id="Rectangle_2796" data-name="Rectangle 2796" width="18.127" height="2.619" transform="translate(52.491 19.381)" fill="#d9d9d9"/>
        <rect id="Rectangle_2797" data-name="Rectangle 2797" width="25.714" height="2.619" transform="translate(52.491 24.222)" fill="#d9d9d9"/>
        <path id="Path_77265" data-name="Path 77265" d="M2277.112,297.7a12.186,12.186,0,1,0-22.949,8.206c.094.258.193.511.3.76a12.186,12.186,0,0,0,22.648-8.97Zm-8.4,12.707a9.127,9.127,0,0,1-11.455-4.957c-.08-.186-.157-.376-.225-.57a9.137,9.137,0,1,1,11.68,5.527Z" transform="translate(-1898.831 -244.047)" fill="#f0f0f0"/>
        <path id="Path_77266" data-name="Path 77266" d="M2259.908,299.109,2257,298.2a12.205,12.205,0,0,1,11.269-8.553l.091,3.05a9.151,9.151,0,0,0-8.449,6.413Z" transform="translate(-1901.824 -244.081)" fill="#1a598c"/>
        <path id="Path_77267" data-name="Path 77267" d="M2257.257,351.283l-2.8,1.223c-.108-.249-.208-.5-.3-.76a12.117,12.117,0,0,1-.158-7.736l2.911.91a9.1,9.1,0,0,0,.12,5.8C2257.1,350.907,2257.177,351.1,2257.257,351.283Z" transform="translate(-1898.828 -289.887)" fill="#2273b5"/>
        <path id="Path_77268" data-name="Path 77268" d="M2261.788,394.48a12.094,12.094,0,0,1-1.888-3.032l2.8-1.218a9.081,9.081,0,0,0,1.416,2.276Z" transform="translate(-1904.267 -328.834)" fill="#4dafff"/>
        <rect id="Rectangle_2798" data-name="Rectangle 2798" width="95.274" height="3.319" transform="translate(112.095 94.423)" fill="#e8e8e8"/>
        <rect id="Rectangle_2799" data-name="Rectangle 2799" width="95.274" height="3.319" transform="translate(112.095 105.237)" fill="#e8e8e8"/>
        <rect id="Rectangle_2800" data-name="Rectangle 2800" width="95.274" height="3.319" transform="translate(112.095 115.668)" fill="#e8e8e8"/>
        <rect id="Rectangle_2801" data-name="Rectangle 2801" width="95.274" height="3.319" transform="translate(112.095 126.482)" fill="#e8e8e8"/>
        <rect id="Rectangle_2802" data-name="Rectangle 2802" width="95.274" height="3.319" transform="translate(112.095 138.63)" fill="#e8e8e8"/>
        <rect id="Rectangle_2803" data-name="Rectangle 2803" width="95.274" height="3.319" transform="translate(112.095 149.443)" fill="#e8e8e8"/>
        <rect id="Rectangle_2804" data-name="Rectangle 2804" width="95.274" height="3.319" transform="translate(112.095 159.875)" fill="#e8e8e8"/>
        <rect id="Rectangle_2805" data-name="Rectangle 2805" width="95.274" height="3.319" transform="translate(112.095 170.689)" fill="#e8e8e8"/>
        <rect id="Rectangle_2806" data-name="Rectangle 2806" width="13.519" height="13.519" rx="6.76" transform="translate(90.247 87.578)" fill="url(#linear-gradient-3)"/>
        <path id="Path_77269" data-name="Path 77269" d="M576.165,851.32h8.152A2.685,2.685,0,0,1,587,854v8.152a2.685,2.685,0,0,1-2.685,2.685h-8.152a2.685,2.685,0,0,1-2.685-2.685V854a2.683,2.683,0,0,1,2.685-2.685Z" transform="translate(-483.233 -721.363)" fill="url(#linear-gradient-3)"/>
        <path id="Path_77270" data-name="Path 77270" d="M592.055,880.008l-3.753-3.259a.738.738,0,1,1,.969-1.114l2.652,2.305,3.777-4.221a.738.738,0,1,1,1.1.984Z" transform="translate(-495.509 -740.023)" fill="#fff"/>
        <rect id="Rectangle_2807" data-name="Rectangle 2807" width="13.519" height="13.519" rx="6.76" transform="translate(90.247 108.684)" fill="url(#linear-gradient-3)"/>
        <path id="Path_77271" data-name="Path 77271" d="M592.055,744.868l-3.753-3.259a.738.738,0,1,1,.969-1.114l2.652,2.3,3.777-4.219a.738.738,0,0,1,1.1.984Z" transform="translate(-495.509 -625.882)" fill="#fff"/>
        <rect id="Rectangle_2808" data-name="Rectangle 2808" width="13.519" height="13.519" rx="6.76" transform="translate(90.247 151.229)" fill="url(#linear-gradient-3)"/>
        <path id="Path_77272" data-name="Path 77272" d="M592.055,1015.228l-3.753-3.259a.738.738,0,0,1,.969-1.114l2.652,2.305,3.777-4.221a.738.738,0,0,1,1.1.984Z" transform="translate(-495.509 -854.355)" fill="#fff"/>
        <path id="Path_77273" data-name="Path 77273" d="M601.851,602.5a3.44,3.44,0,0,1,.035-.5,1.747,1.747,0,0,1,.131-.463,1.486,1.486,0,0,1,.282-.419,1.874,1.874,0,0,1,.472-.354l.393-.211a4.035,4.035,0,0,0,.482-.3,2.018,2.018,0,0,0,.406-.395.8.8,0,0,0,.172-.5.7.7,0,0,0-.275-.589,1,1,0,0,0-.629-.212.928.928,0,0,0-.406.087,1.5,1.5,0,0,0-.315.206,1.322,1.322,0,0,0-.245.269l-.184.263L601,598.553a2.285,2.285,0,0,1,.944-1.086,2.762,2.762,0,0,1,1.457-.389,3.086,3.086,0,0,1,.87.126,2.225,2.225,0,0,1,.777.4,2.092,2.092,0,0,1,.56.71,2.333,2.333,0,0,1,.217,1.051,2.054,2.054,0,0,1-.269,1.092,2.4,2.4,0,0,1-.787.773,5.144,5.144,0,0,1-.486.286,4.5,4.5,0,0,0-.452.263,1.335,1.335,0,0,0-.332.315.681.681,0,0,0-.126.412Zm.035,2.8v-1.715h1.5V605.3Z" transform="translate(-506.423 -506.766)" fill="#fff"/>
        <path id="Path_77274" data-name="Path 77274" d="M814.054,564.379a15.462,15.462,0,0,0-2.368,2.774c-1.12,1.681-4.092,1.769-4.222,4.063s4.043,2.361,6.233,1.618,2.518-2.99,3.846-3.547,2.011-1.013,1.91-2.107a13.257,13.257,0,0,0-.836-2.87,9.071,9.071,0,0,1-1.306.315A10.782,10.782,0,0,1,814.054,564.379Z" transform="translate(-680.393 -475.519)" fill="#252840"/>
        <path id="Path_77275" data-name="Path 77275" d="M861.81,133.9s-.839,4.992-1.515,8.288h0a19.676,19.676,0,0,1-.677,2.729,37.869,37.869,0,0,1-3.7,4.092c-3.383,3.484-7.854,7.868-7.854,7.868l-1.747-3.317s3.97-4.655,6.661-7.761c1.246-1.437,2.219-2.541,2.4-2.7.562-.5,1.215-5.464,2.134-9.551a16.366,16.366,0,0,1,2.763-6.339Z" transform="translate(-713.138 -107.204)" fill="#ffbf55"/>
        <path id="Path_77276" data-name="Path 77276" d="M855.921,248.59c-3.383,3.484-7.854,7.868-7.854,7.868l-1.747-3.317s3.97-4.655,6.661-7.761A5.677,5.677,0,0,1,855.921,248.59Z" transform="translate(-713.138 -206.778)" fill="#eea886"/>
        <path id="Path_77277" data-name="Path 77277" d="M1017.556,555.47s1.149,1.27,1.829,2.046,3.283,2.146,3.3,4.435c.016,2.48-1.92,2.263-3.641,2.172a4.754,4.754,0,0,1-3.844-2.685c-.724-1.405-2.655-1.773-2.79-2.905a7.9,7.9,0,0,1,.894-3.172Z" transform="translate(-853.075 -467.978)" fill="#252840"/>
        <path id="Path_77278" data-name="Path 77278" d="M1018.372,541.92l-.222,2.11s3.594,1.566,4.258.115l-.157-1.881Z" transform="translate(-857.927 -456.653)" fill="#5f8cc9"/>
        <path id="Path_77279" data-name="Path 77279" d="M849.555,555l-.2,1.53a7.536,7.536,0,0,0,4.564-.069l.049-1.358Z" transform="translate(-715.699 -467.674)" fill="#5f8cc9"/>
        <path id="Path_77280" data-name="Path 77280" d="M923.332,141c.124.444-23,0-23,0s6.4-4.656,6.812-5.9-1.629-8.709-1.888-11.137c-.214-1.943-.747-10.638.532-11.96,1.339-1.39,6.161-2.844,6.161-2.844l7.03.261a11.085,11.085,0,0,1,1.989.629c.829.386,5.572,2.076,6.342,4.444s-4.732,9.988-4.732,9.988-.011.341-.027.9h0c-.022.747-.053,1.888-.082,3.119-.038,1.6-.069,3.355-.069,4.641A45.453,45.453,0,0,0,923.332,141Z" transform="translate(-758.648 -91.995)" fill="#ffbf55"/>
        <path id="Path_77281" data-name="Path 77281" d="M836.133,305.088s3.147,4.62,3.19,7.774-1.165,11.9-1.259,13.633-1.717,16.171-1.717,16.171-1.259,1.171-5.036-.3c0,0-.832-13.691-.922-15.159s-.088-8.218-.933-9.195-5.947-4.036-6.62-4.62-12.275,2.194-13.491,2.508c-3.147.817-1.714,6.295-1.018,8.754,1.166,4.11,2.186,18.955,2.186,18.955a10.688,10.688,0,0,1-6,.148s-7.379-26.8-7.615-29.468-.354-7.061,17.83-10.4Z" transform="translate(-671.449 -256.081)" fill="#323657"/>
        <path id="Path_77282" data-name="Path 77282" d="M960.049,11.576s-6.1-1.377-4.708,6.3,2.861,8.282,6.539,6.693,3.352-6.509,3.538-8.921S962,11.66,960.049,11.576Z" transform="translate(-804.828 -9.686)" fill="#eea886"/>
        <path id="Path_77283" data-name="Path 77283" d="M976.11,69.856s2.7,2.866,6.973.261c0,0-.955-6.208-.453-9.233s-5.572,4.686-5.572,4.686c.08.042.134.33.146.741a8.523,8.523,0,0,1-.065,1.231C977.013,68.548,976.7,69.609,976.11,69.856Z" transform="translate(-822.503 -50.723)" fill="#eea886"/>
        <path id="Path_77284" data-name="Path 77284" d="M1006.86,42.5a.779.779,0,0,1,1.528.09c.112,1.015-.609,2.795-1.117,2.623S1006.75,43.438,1006.86,42.5Z" transform="translate(-848.367 -35.329)" fill="#eea886"/>
        <path id="Path_77285" data-name="Path 77285" d="M963.225,9.982s-.157-2.419-1.042-2.494-1.018.9-1.018.9l-.894.179s.283-2.121-.6-2.491-5.717,1.168-6.425.544-.375-4.924.906-5.508,4.819-1.907,7.41-.157c0,0,2.021-.231,2.32,1.4A22.305,22.305,0,0,1,963.225,9.982Z" transform="translate(-802.93 -0.08)" fill="#3a3f47"/>
        <path id="Path_77286" data-name="Path 77286" d="M982.65,85.294c4.406-1.36,4.738-4.011,4.743-4.054-1.451,2.493-4.679,2.823-4.679,2.823A8.523,8.523,0,0,1,982.65,85.294Z" transform="translate(-828.014 -68.468)" fill="#a77860"/>
        <path id="Path_77287" data-name="Path 77287" d="M972.984,107.849s-3.226,6.422-8.44,6.008-.888-6.871-.651-6.924C964.154,106.861,969.239,105.594,972.984,107.849Z" transform="translate(-810.601 -89.765)" fill="#eea886"/>
        <path id="Path_77288" data-name="Path 77288" d="M883.52,298.8s15.97,1.978,25.648.326l-18.491-2.31S890.57,297.292,883.52,298.8Z" transform="translate(-744.484 -250.123)" fill="#ffbf55"/>
        <path id="Path_77289" data-name="Path 77289" d="M953.06,292.2l-1.19.6a5.455,5.455,0,0,0,.922,2.463l1.336-.341S953.85,292.852,953.06,292.2Z" transform="translate(-802.077 -246.23)" fill="#eea886"/>
        <path id="Path_77290" data-name="Path 77290" d="M977.911,159.345a60.375,60.375,0,0,1-6.924,2.9h0c-4.847,1.866-10.312,3.632-10.312,3.632l-1.245-2.667s5.725-3.111,9.6-5.292c1.829-1.029,3.24-1.852,3.44-2.046.629-.593.787-1.542.326-3.2s-1.511-9.27-1.629-10.158.3-3.259,2.518-3.377a6.672,6.672,0,0,1,3.352.508s.557.233.973,5.623S978.474,158.693,977.911,159.345Z" transform="translate(-808.448 -117.245)" fill="#ffbf55"/>
        <path id="Path_77291" data-name="Path 77291" d="M1034.222,177.387h0c-.022.747-.054,1.888-.082,3.119a15.565,15.565,0,0,1-.894-9.626C1033.012,172.315,1034.2,177.316,1034.222,177.387Z" transform="translate(-870.328 -144.002)" fill="#b08439"/>
        <path id="Path_77292" data-name="Path 77292" d="M929.628,193.263h0a19.663,19.663,0,0,1-.677,2.729,28.23,28.23,0,0,1-.074-8.172A46.314,46.314,0,0,0,929.628,193.263Z" transform="translate(-782.471 -158.276)" fill="#b08439"/>
        <path id="Path_77293" data-name="Path 77293" d="M970.987,262.888h0c-4.847,1.866-10.489,3.689-10.489,3.689l-1.069-2.724s5.725-3.111,9.6-5.292C969.021,258.562,970.43,259.248,970.987,262.888Z" transform="translate(-808.448 -217.884)" fill="#eea886"/>
        <path id="Path_77294" data-name="Path 77294" d="M835.69,308.725l-22.7-.335,11.461,5.821Z" transform="translate(-685.053 -259.872)" fill="#5e5853"/>
        <path id="Path_77295" data-name="Path 77295" d="M881.068,316.006l11.239-4.354V310.52l-12.127,4.375Z" transform="translate(-741.669 -261.667)" fill="#91887f"/>
        <path id="Path_77296" data-name="Path 77296" d="M911.134,293.581s-1.416-.22-2.4-.449a4.906,4.906,0,0,0-3.125.554c-.48.488-2.008,3.878-2.3,4.091s.148.685.656.445c0,0,.472,1.484,1.616.928s1.929-1.769,2.532-1.983,4.107-1.292,4.107-1.292S912.039,293.221,911.134,293.581Z" transform="translate(-761.085 -246.968)" fill="#eea886"/>
        <path id="Path_77297" data-name="Path 77297" d="M906.512,295.54a10.812,10.812,0,0,0-1.149.629c-.238.189-1.2.919-1.435,1.087s.353.653,2.076-.093S906.512,295.54,906.512,295.54Z" transform="translate(-761.639 -249.045)" fill="#eea886"/>
        <path id="Path_77298" data-name="Path 77298" d="M733.11,246.657l-6.753-18.437-21.767.356,6.435,16.989Z" transform="translate(-593.711 -192.318)" fill="#6e6760"/>
        <path id="Path_77299" data-name="Path 77299" d="M778.876,270.878c.666,1.328.472,2.774-.447,3.231s-2.191-.252-2.855-1.574-.463-2.774.448-3.231S778.211,269.55,778.876,270.878Z" transform="translate(-653.195 -226.82)" fill="#807066"/>
        <rect id="Rectangle_2809" data-name="Rectangle 2809" width="9.917" height="2.988" rx="1.494" transform="translate(213.529 123.846)" fill="#e0e0e0"/>
        <rect id="Rectangle_2810" data-name="Rectangle 2810" width="9.917" height="2.988" rx="1.494" transform="translate(213.529 131.012)" fill="#e0e0e0"/>
        <rect id="Rectangle_2811" data-name="Rectangle 2811" width="9.917" height="2.988" rx="1.494" transform="translate(213.529 138.179)" fill="#e0e0e0"/>
        <rect id="Rectangle_2812" data-name="Rectangle 2812" width="9.917" height="2.988" rx="1.494" transform="translate(213.529 145.345)" fill="#e0e0e0"/>
        <rect id="Rectangle_2813" data-name="Rectangle 2813" width="9.917" height="2.988" rx="1.494" transform="translate(213.529 152.512)" fill="#e0e0e0"/>
        <rect id="Rectangle_2814" data-name="Rectangle 2814" width="9.917" height="2.988" rx="1.494" transform="translate(213.529 159.678)" fill="#e0e0e0"/>
        <rect id="Rectangle_2815" data-name="Rectangle 2815" width="2.822" height="2.988" rx="1.411" transform="translate(227.541 123.846)" fill="#e0e0e0"/>
        <rect id="Rectangle_2816" data-name="Rectangle 2816" width="2.822" height="2.988" rx="1.411" transform="translate(227.541 131.012)" fill="#e0e0e0"/>
        <rect id="Rectangle_2817" data-name="Rectangle 2817" width="2.822" height="2.988" rx="1.411" transform="translate(227.541 138.179)" fill="#e0e0e0"/>
        <rect id="Rectangle_2818" data-name="Rectangle 2818" width="2.822" height="2.988" rx="1.411" transform="translate(227.541 145.345)" fill="#e0e0e0"/>
        <rect id="Rectangle_2819" data-name="Rectangle 2819" width="2.822" height="2.988" rx="1.411" transform="translate(227.541 152.512)" fill="#e0e0e0"/>
        <rect id="Rectangle_2820" data-name="Rectangle 2820" width="2.822" height="2.988" rx="1.411" transform="translate(227.541 159.678)" fill="#e0e0e0"/>
        <path id="Path_77300" data-name="Path 77300" d="M1442.28,989.647s-4.238-9.6.678-8.812a17.91,17.91,0,0,1,3.393,4.2c1.3,2.135,4.006,7.786,3.906,9.7s-1.46,3.336-2.927,6.4c0,0-3.053,5.7-3.18,6.384l-3.226-1.676s2.734-5.446,4.66-10.229Z" transform="translate(-1213.883 -826.458)" fill="url(#linear-gradient-3)"/>
        <rect id="Rectangle_2821" data-name="Rectangle 2821" width="57.303" height="8.764" transform="translate(188.077 169.048) rotate(9.72)" fill="#f2f6ff"/>
        <rect id="Rectangle_2822" data-name="Rectangle 2822" width="2.754" height="6.652" transform="matrix(0.986, 0.168, -0.168, 0.986, 185.185, 169.624)" fill="#2d3038"/>
        <path id="Path_77301" data-name="Path 77301" d="M1232.863,1503.729h-.8s.268-3.02-.472-3.05-2.574,2.458-3.671,2.844-6.721.71-6.749-.326,2.161-1.453,2.842-1.747,4-3.525,4.589-3.909,1.6-3.061,1.6-3.061l3.147-.14s.178,2.5.368,3.826a11.355,11.355,0,0,1,.129,1.24A23.568,23.568,0,0,1,1232.863,1503.729Z" transform="translate(-1028.997 -1259.193)" fill="#eea886"/>
        <path id="Path_77302" data-name="Path 77302" d="M1371.08,1501.1h-.667v-2.812c-.554.047-2.42,1.813-2.99,2.324s-1.369.488-3.8.642-2.661-1.3-2.277-1.8,1.629-.711,2.277-1.021a41.813,41.813,0,0,0,3.882-3.871,7.1,7.1,0,0,0,1.1-2.633l2.842.247a17.422,17.422,0,0,0,.315,3.284h0a.028.028,0,0,1,0,.011c.028.128.058.253.091.375C1372.263,1497.4,1371.08,1501.1,1371.08,1501.1Z" transform="translate(-1146.99 -1257.163)" fill="#eea886"/>
        <path id="Path_77303" data-name="Path 77303" d="M1286.486,1134.355a28.425,28.425,0,0,0-1.169,3.182c-.094.641-2.609,6.721-3.336,10.819-.436,2.453-1.638,10.134-1.731,11.11-.167,1.671-.954,5.36-1.075,7.067-.068.954-4.767,15.6-5.9,23.249a14.119,14.119,0,0,0,4.734-.137,80.187,80.187,0,0,0,6.416-19.114,77.112,77.112,0,0,1,3.67-13.134c1.068-2.782,7.122-10.655,7.755-11.54s4.59-5.775.842-11.072S1286.486,1134.355,1286.486,1134.355Z" transform="translate(-1072.9 -954.139)" fill="#292c47"/>
        <path id="Path_77304" data-name="Path 77304" d="M1382.641,1150.234c-.343,2.282.017,5.276.733,13.615s-1.259,18.436-1.259,18.436a10.012,10.012,0,0,1-5.325,0c.066-.587,0-20.325,0-22.083s-.505-3.755-.63-5.774a41.359,41.359,0,0,0-1.449-6.5c-.216-.776-.439-1.555-.656-2.31h0c-.121-.423-.241-.839-.357-1.242-1.015-3.519-2.378-17.1-2.378-17.1s7.554-6.09,11.241-.357,1.791,9.9,1.66,10.618S1382.984,1147.956,1382.641,1150.234Z" transform="translate(-1155.52 -947.518)" fill="#292c47"/>
        <path id="Path_77305" data-name="Path 77305" d="M1394.151,1210.42c-.06.129-3.825,8.5-4.795,9.941-.216-.776-.439-1.555-.656-2.31h0S1394.025,1210.6,1394.151,1210.42Z" transform="translate(-1170.165 -1019.953)" fill="#191b2b"/>
        <path id="Path_77306" data-name="Path 77306" d="M1371.08,1517.125h-.667v-2.812c-.554.047-2.42,1.813-2.99,2.324s-1.369.488-3.8.642-2.661-1.3-2.277-1.8,1.629-.711,2.277-1.021c2.6.14,5.775-3.519,7.3-3.511.811,0,.8.453.828.538h0a.028.028,0,0,1,0,.011c.028.127.058.253.091.375C1372.263,1513.431,1371.08,1517.125,1371.08,1517.125Z" transform="translate(-1146.99 -1273.189)" fill="#c6c9cc"/>
        <path id="Path_77307" data-name="Path 77307" d="M1232.863,1523.715h-.8s.268-3.02-.472-3.05-2.574,2.458-3.671,2.844-6.721.71-6.749-.326,2.161-1.453,2.842-1.747c2.32,0,6.093-2.56,7.264-3.078a4.219,4.219,0,0,1,2.436-.206,11.359,11.359,0,0,1,.129,1.24A23.06,23.06,0,0,1,1232.863,1523.715Z" transform="translate(-1028.997 -1279.18)" fill="#c6c9cc"/>
        <path id="Path_77308" data-name="Path 77308" d="M1399.66,930.85s1.207,3.191.269,5.665c0,0,4.424-.288,4.59-.8s-.178-5.3.431-6.712S1399.66,930.85,1399.66,930.85Z" transform="translate(-1179.4 -782.52)" fill="#eea886"/>
        <path id="Union_1" data-name="Union 1" d="M-13913.619-1896.784a25.936,25.936,0,0,0,1.764-4.732,28.156,28.156,0,0,0,.66-3.174,28.787,28.787,0,0,0-.266-10.3,10.248,10.248,0,0,1,.357-1.714c-.253-1.783-.5-3.909-.605-6.192-.2-4.4,2.27-5.576,3.45-5.835s3.8-1.187,3.8-1.187c1.215-.419,4.389-.587,5.228,0s2.444.416,4.42,1.721c.813.538,1.146,1.854,1.242,3.311,1.142,3.373-2.42,17-2.6,18.182s1.781,9.91,1.781,9.91a38.181,38.181,0,0,1-9.761,1.261A33,33,0,0,1-13913.619-1896.784Z" transform="translate(14124.305 2082.827)" fill="url(#linear-gradient-3)"/>
        <path id="Path_77311" data-name="Path 77311" d="M1380.669,859.444c-1.778-.611-6.584-1.259-7.815,6.118s1.449,7.5,4.2,7.294,7.066-5.193,7.4-6.7S1385.744,861.184,1380.669,859.444Z" transform="translate(-1156.553 -723.918)" fill="#eea886"/>
        <path id="Path_77312" data-name="Path 77312" d="M1380.79,859.117s1.468,3.147,3.394,4.236c0,0,1.207,3.336,3.819,4.686,0,0,6.933-4.592,2.91-10.051S1381.245,856.877,1380.79,859.117Z" transform="translate(-1163.5 -720.758)" fill="#0f324f"/>
        <path id="Path_77313" data-name="Path 77313" d="M1399.152,896.414a.905.905,0,0,1,1.66.044c.466,1.053-1.207,2.908-1.665,2.809S1398.561,897.87,1399.152,896.414Z" transform="translate(-1178.638 -754.909)" fill="#eea886"/>
        <path id="Path_77314" data-name="Path 77314" d="M1429.067,873.658c.157-.236,4.743-2.361,5.7,2.08s-3.7,9.6-4.513,11.826.368,7.425.368,7.425a15.322,15.322,0,0,1-3.646-5.417C1426.043,886.531,1425.73,878.861,1429.067,873.658Z" transform="translate(-1201.887 -735.585)" fill="#0f324f"/>
        <path id="Path_77315" data-name="Path 77315" d="M1436.276,876.44a4.633,4.633,0,0,0-1.586,2.866,3.44,3.44,0,0,1,.3-2.2A1.271,1.271,0,0,1,1436.276,876.44Z" transform="translate(-1208.866 -738.518)" fill="#e54242"/>
        <path id="Path_77316" data-name="Path 77316" d="M1350.07,1072.3c.293-1.089.674-3.475.826-4.5h0a2.591,2.591,0,0,0,.777-.9c.23-.719,2.01-9.533,2.01-9.533S1355.567,1065.652,1350.07,1072.3Z" transform="translate(-1137.614 -890.988)" fill="#1d3b54"/>
        <path id="Path_77317" data-name="Path 77317" d="M1260.927,1138.62s-1.914.889-2.361,1.028-1.306-.63-4.477-.858c-.277-.02-.766.23-.651.6a4.961,4.961,0,0,0,2.085,1.522c.59.153,3.377,1.259,4.734.716a5.576,5.576,0,0,0,2.282-2.271Z" transform="translate(-1056.174 -959.452)" fill="#eea886"/>
        <path id="Path_77318" data-name="Path 77318" d="M1299.642,980.83s-3.667,1.454-3.884,6.55a71.852,71.852,0,0,1-.615,8.542,28.167,28.167,0,0,1-1.5,5.849c-.9,1.844-6.792,4.762-6.792,4.762l1.794,2.282s9.261-4.9,9.757-6.406,2.545-11.96,2.708-13.721C1301.241,987.266,1303.115,980.937,1299.642,980.83Z" transform="translate(-1084.343 -826.493)" fill="url(#linear-gradient-3)"/>
        <path id="Path_77319" data-name="Path 77319" d="M834.958,886.016c0,.137-.014.272-.024.409h5.247c.009-.137.014-.272.019-.409Zm-58.518-1.449v.472c.009.664.038,1.322.094,1.977a31.168,31.168,0,0,0,.889,5.448,31.738,31.738,0,0,0,8.389,14.676c.157.157.315.315.472.461.629.6,1.279,1.18,1.958,1.731a31.733,31.733,0,0,0,20.1,7.141h.381a31.9,31.9,0,0,0,29.859-21.715c.25-.749.472-1.506.674-2.279a31.964,31.964,0,0,0,.776-4.221h0c.033-.305.066-.611.09-.922s.052-.592.066-.894c.009-.137.014-.272.019-.409.014-.3.024-.6.028-.9v-.551a31.9,31.9,0,0,0-27.048-31.527c-.3-.047-.592-.09-.894-.127-.329-.038-.658-.074-.988-.1-.3-.028-.6-.052-.894-.071-.686-.047-1.379-.066-2.069-.066-.589,0-1.172.014-1.751.047-.993.052-1.972.157-2.941.3a31.983,31.983,0,0,0-24.617,18.931c-.047.1-.09.212-.132.315s-.085.2-.121.3c-.246.589-.472,1.187-.669,1.788a31.415,31.415,0,0,0-1.215,4.842c-.079.438-.14.88-.2,1.327a1.884,1.884,0,0,1-.024.231v.019a.927.927,0,0,0-.009.113,1.135,1.135,0,0,0-.019.131v.033a.275.275,0,0,0-.009.066.691.691,0,0,0-.009.1c-.009.08-.019.157-.024.241-.047.489-.085.982-.109,1.476,0,.066-.009.137-.009.2l-.014.324C776.445,883.838,776.44,884.2,776.44,884.566Zm7.149,9.924-.123-.315c-.09-.231-.175-.461-.26-.7l-.192-.563c-.047-.142-.094-.283-.137-.425a.036.036,0,0,0-.009-.028.5.5,0,0,1-.024-.079c-.076-.236-.142-.472-.206-.716l-.076-.277c-.071-.255-.132-.513-.194-.773a.562.562,0,0,0-.019-.079c-.052-.241-.1-.472-.157-.721-.024-.1-.042-.2-.06-.3-.057-.3-.109-.607-.157-.913-.085-.537-.146-1.078-.2-1.624-.019-.184-.033-.371-.047-.56h0a1.11,1.11,0,0,0-.009-.178c-.014-.255-.028-.508-.038-.763v-.253c0-.222-.009-.442-.009-.664s0-.414.009-.617a23.266,23.266,0,0,1,.17-2.447,2.353,2.353,0,0,1,.028-.253.017.017,0,0,1,0-.014h0a.009.009,0,0,1,0-.014.172.172,0,0,1,0-.052v-.028a26.465,26.465,0,0,1,3.958-10.9,26.776,26.776,0,0,1,9.673-9.049,25.873,25.873,0,0,1,3.239-1.506c.352-.137.714-.267,1.076-.386A26.007,26.007,0,0,1,806.185,858c.707-.061,1.416-.09,2.137-.09.216,0,.428,0,.644.009.25,0,.494.014.744.024.178.009.357.024.537.038a1.4,1.4,0,0,1,.145.009c.3.019.6.047.894.08l.227.027c.118.014.239.028.357.047s.269.033.4.057c.3.042.6.094.894.146l.08.014c.231.043.461.09.692.142a.07.07,0,0,1,.042.009c.093.019.192.043.286.065.217.047.428.1.64.157a2.635,2.635,0,0,1,.277.071c.245.066.489.132.735.208s.472.14.7.216c.109.033.217.071.315.109.461.157.917.324,1.364.508.121.047.244.1.367.157.189.08.371.157.56.246.157.066.3.132.447.208.22.1.438.206.653.315.245.123.485.249.721.381.272.146.537.3.8.452.546.315,1.073.659,1.591,1.017.22.157.438.305.655.472q.408.29.787.6c.23.183.461.371.686.565s.463.4.688.6a26.6,26.6,0,0,1,8.715,19.716c0,.184,0,.367,0,.551,0,.3-.014.6-.033.9,0,.137-.014.272-.024.409-.024.3-.047.6-.08.894-.085.847-.212,1.681-.376,2.5a25.8,25.8,0,0,1-.674,2.644c-.211.688-.452,1.366-.719,2.024a26.679,26.679,0,0,1-8.512,11.223,27.163,27.163,0,0,1-2.806,1.888,26.506,26.506,0,0,1-13.047,3.619h-.381a26.655,26.655,0,0,1-23.551-14.154c-.118-.227-.234-.452-.348-.678l-.208-.433c-.085-.168-.157-.338-.239-.513l-.076-.168c-.066-.157-.132-.3-.194-.456Z" transform="translate(-654.254 -718.518)" fill="#3f444f"/>
        <circle id="Ellipse_1784" data-name="Ellipse 1784" cx="26.565" cy="26.565" r="26.565" transform="translate(116.516 166.049) rotate(-45)" fill="#b8b8b8" opacity="0.1"/>
        <path id="Path_77320" data-name="Path 77320" d="M854.344,892.878s-34.6-4.3-41.491,32.218h0a26.663,26.663,0,0,1,41.491-32.218Z" transform="translate(-682.319 -746.54)" fill="#869ac2" opacity="0.3"/>
        <path id="Path_77321" data-name="Path 77321" d="M359.64,1155.491l11.56,6.354,11.607-18.269-14.04-4.877Z" transform="translate(-303.045 -959.519)" fill="#292c47"/>
        <path id="Path_77322" data-name="Path 77322" d="M364.29,1157.834l10.811,5.942,10.857-17.084-13.131-4.562Z" transform="translate(-306.963 -962.41)" fill="url(#linear-gradient-3)"/>
        <path id="Path_77323" data-name="Path 77323" d="M339.14,1201.284s2.011-.962,2.894-1.465,3.155-1.193,3.339-1.356,6.734-.568,7.132-.911.787.8-.914,1.176-4.062,1.281-4.191,1.945,1.744.82,1.934,1.366-.054.425-.315.543-2.228-.969-3.091-.661-2.178-.118-2.833.107-3.871,1.308-3.871,1.308Z" transform="translate(-285.771 -1009.056)" fill="#eea886"/>
        <path id="Path_77324" data-name="Path 77324" d="M426.526,1209.192s1.69-1.522,2.507-2.158,2.361-2.508,2.579-2.619,3.158-6.125,3.635-6.365-.452-1.051-1.463.4-2.789,3.327-3.462,3.19-.094-1.962-.535-2.361-.42-.115-.629.093.044,2.477-.581,3.168-.736,2.1-1.207,2.634-2.74,3.147-2.74,3.147Z" transform="translate(-357.807 -1009.157)" fill="#eea886"/>
        <path id="Path_77325" data-name="Path 77325" d="M179.624,1786.184s-.365,2.537-.411,2.919-4.068-.225-4.068-.225l-.326-3.021S179.122,1785.825,179.624,1786.184Z" transform="translate(-147.309 -1504.834)" fill="#424773"/>
        <path id="Path_77326" data-name="Path 77326" d="M175.874,1803.555a11.04,11.04,0,0,0,2.507,2.2c1.232.675,3.169.93,3.9,1.621.526.5,1.915,2.642-3.2,2.6s-7.587.3-8.136-.519.787-6.068.787-6.068A11.073,11.073,0,0,0,175.874,1803.555Z" transform="translate(-143.929 -1519.609)" fill="#292c47"/>
        <path id="Path_77327" data-name="Path 77327" d="M362.744,1786.184s-.367,2.537-.412,2.919-4.066-.225-4.066-.225l-.326-3.021S362.241,1785.825,362.744,1786.184Z" transform="translate(-301.612 -1504.834)" fill="#424773"/>
        <path id="Path_77328" data-name="Path 77328" d="M359.007,1803.555a11.015,11.015,0,0,0,2.505,2.2c1.232.675,5.769,1.213,6.5,1.9.526.5,1.4,2.5-5.8,2.315-5.116-.132-7.587.3-8.134-.519s.787-6.068.787-6.068A10.022,10.022,0,0,0,359.007,1803.555Z" transform="translate(-298.243 -1519.609)" fill="#292c47"/>
        <path id="Path_77329" data-name="Path 77329" d="M179.587,1373.53s-3.777,6-3.5,11.431-1.371,11.353-1.937,17.022c-.629,6.32-3.223,21.284-3.317,24.664s.4,14.177.4,14.177l5.184.118s4.354-26.159,5.483-28.828,6.72-21.7,6.907-23.833S179.587,1373.53,179.587,1373.53Z" transform="translate(-143.942 -1157.395)" fill="#292c47"/>
        <path id="Path_77330" data-name="Path 77330" d="M236.225,1368.807s2.847,14.874,3.223,18.2.629,16.075.815,18.151,1.259,27.168,2.255,30.252H235.89s-5.088-18.24-5.088-26.87-3.934-18.761-6.468-24.456-8.34-5.823-9.9-16.393C214.43,1367.687,234.113,1365.457,236.225,1368.807Z" transform="translate(-180.686 -1151.859)" fill="#292c47"/>
        <path id="Path_77331" data-name="Path 77331" d="M249.557,1050.284s5.073-1.888,7.412,1.967,2.113,11.59-.444,12.541-6.4.455-7.711-1.962-2.491-5.908-2.434-8.243A5.08,5.08,0,0,1,249.557,1050.284Z" transform="translate(-207.606 -884.627)" fill="#eea886"/>
        <path id="Path_77332" data-name="Path 77332" d="M263.737,1120.332a4.39,4.39,0,0,0,.138,2.046c.349.677-6.572.692-6.572.692a45.475,45.475,0,0,0-1.627-6.767C254.611,1113.207,263.737,1120.332,263.737,1120.332Z" transform="translate(-215.369 -939.99)" fill="#eea886"/>
        <path id="Path_77333" data-name="Path 77333" d="M245.683,1057.8s.472.787,2.428.482,4.328-2.9,5.141-3.184.823-.763.823-.763l.508.744.866.055s-.787-2.321.4-3.267-1.235-7.511-7.488-5.325c0,0-4.8,1.323-4.628,4.055S244.608,1056.435,245.683,1057.8Z" transform="translate(-205.375 -881.488)" fill="#3a3f47"/>
        <path id="Path_77334" data-name="Path 77334" d="M269.232,1148.374s-.022-1.289-.606-1.416-6.452-.688-7.166-.406v1.5S262.842,1148.907,269.232,1148.374Z" transform="translate(-220.315 -966.069)" fill="#e2d2ca"/>
        <path id="Path_77335" data-name="Path 77335" d="M298.881,1086.784c-.109-.458-1.273-1.766-1.72-.365s.675,3.287,1.3,3.127S299.16,1087.947,298.881,1086.784Z" transform="translate(-250.312 -914.935)" fill="#eea886"/>
        <path id="Path_77336" data-name="Path 77336" d="M458.7,1255.33h-.009C458.739,1255.346,458.739,1255.347,458.7,1255.33Z" transform="translate(-386.508 -1057.796)" fill="#323657"/>
        <path id="Path_77337" data-name="Path 77337" d="M193.109,1204.982a53.717,53.717,0,0,0,8.416,1.5c5.3.585,18.558-.213,18.642-.839s-2.851-23.334-2.685-24.505.257-5.336.257-5.336a29.287,29.287,0,0,0,2.633,8.34c.508.919,2.2,3.8,3.029,3.147,3.97-3.169,10.119-15.117,10.509-15.217-.327-.142-2.914-1.333-3.276-1.454-.315-.105-3.182,2.927-4.918,4.808-.774.837-1.323,1.446-1.323,1.446-.5-1.127-2.327-8.23-2.894-10.69-1.279-5.544-1.083-5.775-1.083-5.775-3.881-1.174-9.771-3.563-9.771-3.563l-7.772-.315s-7.133,1.574-9.942,2.833c-.266.12-.268,6.364-1,8l2.329,4.915s1.345,9.733,1.626,14.062C196.012,1188.334,193.109,1204.982,193.109,1204.982Z" transform="translate(-161.727 -974.544)" fill="#323657"/>
        <path id="Path_77338" data-name="Path 77338" d="M186.587,1190.695a3.066,3.066,0,0,0,1.731,1.451,2.233,2.233,0,0,0,1.245.124l.3-.055h0l5.327-.987s1.165-13.422-7.277-16.638C187.686,1174.655,184.718,1184.685,186.587,1190.695Z" transform="translate(-156.707 -989.762)" fill="#323657"/>
        <path id="Path_77339" data-name="Path 77339" d="M200.83,1249.789h0a2.233,2.233,0,0,0,1.245.124l.3-.055h0l-.526-6.858Z" transform="translate(-169.226 -1047.406)" fill="#252840"/>
        <path id="Path_77340" data-name="Path 77340" d="M398.21,1278.076l.651,2.757a21.893,21.893,0,0,0,.672-4.2Z" transform="translate(-335.545 -1075.744)" fill="#252840"/>
        <path id="Path_77341" data-name="Path 77341" d="M241.4,1055.6s-6.649-.768-.115,10.336Z" transform="translate(-200.896 -889.486)" fill="#3a3f47"/>
        <path id="Path_77342" data-name="Path 77342" d="M444.4,1147.418l.677-1.161-5.322-1.836-.677,1.155Z" transform="translate(-369.983 -964.339)" fill="#292c47"/>
        <path id="Path_77343" data-name="Path 77343" d="M901,1204.133s1.054-.977.845-1.709a3.122,3.122,0,0,1,.157-1.608c.091-.384.126-1.627.412-1.56.485.116.373,2.1.431,2.518s1.341-.993,1.78-1.068,2.663,2.181,1.671,3.051a14.873,14.873,0,0,1-2.5,1.416,7.541,7.541,0,0,1-.823.7Z" transform="translate(-759.213 -1010.543)" fill="#eea987"/>
        <path id="Path_77344" data-name="Path 77344" d="M922.27,1196.377a29.415,29.415,0,0,1,3.564-2.447c.351.016.472.2.184.439s-3.036,2.469-3.036,2.469,4.293-2.275,4.582-2.326c.17-.03.3.3.157.439s-4.139,2.656-4.139,2.656,4.011-2.117,4.268-2.087a.315.315,0,0,1,.1.574c-.288.176-3.9,2.36-3.9,2.36a18.125,18.125,0,0,1,3.213-1.21c.123.093.3.3-.493.63s-2.507,1.366-2.507,1.366Z" transform="translate(-777.136 -1006.057)" fill="#eea987"/>
        <path id="Path_77345" data-name="Path 77345" d="M759.107,1041.456s7.686-.641,7.475,7.445-1.492,9.3,0,15.013-7.492-3.243-7.492-3.243Z" transform="translate(-639.635 -877.568)" fill="#e8734d"/>
        <path id="Path_77346" data-name="Path 77346" d="M597.053,1776.359s-2.853,4.01-2.461,4.644,3.391.727,5.218,0,1.871-5.424,2.7-7.443c.346-.845-.395-3.339-1.435-3.521a4.228,4.228,0,0,0-2.173.351S599.976,1773.233,597.053,1776.359Z" transform="translate(-500.992 -1491.475)" fill="#363a5e"/>
        <path id="Path_77347" data-name="Path 77347" d="M607.171,1770.051a19.507,19.507,0,0,0-.82,3.338c-.182,1.352-2.033,4.222-1.947,4.586s2.436.692,3.393-.244,1.574-3.659,1.783-5.286a13.638,13.638,0,0,1,.444-2.266S608.09,1769.053,607.171,1770.051Z" transform="translate(-509.289 -1491.169)" fill="#eea886"/>
        <path id="Path_77348" data-name="Path 77348" d="M755.436,1776.436s-2.752,3.944-2.36,4.578,3.393.727,5.22,0,1.87-5.424,2.7-7.443c.346-.845-.393-3.339-1.435-3.52a4.5,4.5,0,0,0-2.261.389S758.36,1773.317,755.436,1776.436Z" transform="translate(-634.534 -1491.486)" fill="#363a5e"/>
        <path id="Path_77349" data-name="Path 77349" d="M765.64,1769.643a27.926,27.926,0,0,1-.565,3.177c-.348,1.317-2.219,4.312-2.131,4.675s2.435.692,3.391-.244,1.7-3.646,1.783-5.286a9.056,9.056,0,0,0-.217-2.711A2.054,2.054,0,0,0,765.64,1769.643Z" transform="translate(-642.88 -1490.691)" fill="#eea886"/>
        <path id="Path_77350" data-name="Path 77350" d="M630.478,1311.6s-2.449,11.887-3.01,14.881-2.142,17.485-2.3,19.949-2.556,11.752-2.442,12.632-3.876,18.328-3.876,18.328a12,12,0,0,0,3.953-.157c.769-.315,6.956-16.052,6.956-20.458,0-6.084,3.4-14.028,3.89-15.413,4.849-13.631,5.738-16.865,6.413-17.686,0,0,.1,1.111.332,2.958.264,2.124,1.416,17.295,1.928,19.29s.113,8.743.4,12.147.8,18.931.8,18.931a8.836,8.836,0,0,0,3.657-.557c.375-.224,1.67-16.681,1.731-20.733s.115-9.634.225-11.385c1.042-16.78,3.6-19.177-.431-31.052C641.136,1291.023,630.478,1311.6,630.478,1311.6Z" transform="translate(-521.464 -1097.904)" fill="#313657"/>
        <path id="Path_77351" data-name="Path 77351" d="M642.781,1790.37v4.2h-.521v-3.243Z" transform="translate(-541.19 -1508.638)" fill="#363a5e"/>
        <path id="Path_77352" data-name="Path 77352" d="M801.272,1790.37v4.2h-.522v-3.243Z" transform="translate(-674.739 -1508.638)" fill="#363a5e"/>
        <path id="Path_77353" data-name="Path 77353" d="M738.88,1132.672a32.2,32.2,0,0,0,1.177-3.369c.024-.085.046-.17.068-.255.06-.233.115-.472.165-.7.028-.134.054-.264.077-.4a5.528,5.528,0,0,0,0-2.592c-.746-2.2,4.672-.677,4.672-.677s-1.05,5.823,0,7.786S738.88,1132.672,738.88,1132.672Z" transform="translate(-622.605 -947.274)" fill="#eea886"/>
        <path id="Path_77354" data-name="Path 77354" d="M686.245,1169.865c.6-.755-3.64-1.018-3.64-1.018l-4.949-.427a44.181,44.181,0,0,0-6.044,1.481c-2.641.914-6.1,5.917-6.1,5.917s4.773,11.206,5.689,14.423-1.037,11.4-1.037,11.4c5.722,3.116,17.022.333,17.022.333S682.679,1174.334,686.245,1169.865Z" transform="translate(-560.781 -984.562)" fill="url(#linear-gradient-3)"/>
        <path id="Path_77355" data-name="Path 77355" d="M803.588,1233.56s-.222.472-.833,2.32a37.089,37.089,0,0,1-.3-7.9A19.522,19.522,0,0,0,803.588,1233.56Z" transform="translate(-676.106 -1034.75)" fill="#cfbeb8"/>
        <path id="Path_77356" data-name="Path 77356" d="M744.713,1167.251,738.89,1172l.6-5S742.884,1166.269,744.713,1167.251Z" transform="translate(-622.613 -983.145)" fill="#eea886"/>
        <path id="Path_77357" data-name="Path 77357" d="M754.828,1189.651c-.8,3.324,3.251,13.722,3.251,13.722l-6.841,2.316a1.457,1.457,0,0,1-1.9-1.125c-.771-4.326-2.771-15.925-2.99-21.068-.282-6.389,4.37-13.927,4.37-13.927,8.268,1.416,6,13.927,6,13.927s-.3.787-.7,2.019h0c-.1.315-.208.647-.315,1.005C755.407,1187.448,755.1,1188.522,754.828,1189.651Z" transform="translate(-628.884 -985.531)" fill="#494f80"/>
        <path id="Path_77358" data-name="Path 77358" d="M671.766,1168.692l.1-.272a28.4,28.4,0,0,0-6.386,1.718c-2.153,1.075-6.271,6.627-6.271,6.627l5.388,7.115c0,5.467-1.9,18.292-1.9,18.292l3.745,1.533a.9.9,0,0,0,1.234-.814c.06-3.9.242-15.468.334-19.986.112-5.467,4.014-14.309,4.014-14.309C671.924,1168.631,671.845,1168.669,671.766,1168.692Z" transform="translate(-555.472 -984.562)" fill="#494f80"/>
        <path id="Path_77359" data-name="Path 77359" d="M690.18,1309.886a46.273,46.273,0,0,0,4.694,0c.631-.157,4.849-1.986,5.1-3.791s-9.8,1.618-9.8,1.618Z" transform="translate(-581.569 -1100.13)" fill="#eea886"/>
        <path id="Path_77360" data-name="Path 77360" d="M682,1286.851l-16.487-1.931,7.448,6.06Z" transform="translate(-560.781 -1082.729)" fill="#707070"/>
        <path id="Path_77361" data-name="Path 77361" d="M711.214,1301.319l9.039-3.08v-1.05l-9.343,3Z" transform="translate(-599.036 -1093.068)" fill="#a1a1a1"/>
        <path id="Path_77362" data-name="Path 77362" d="M719.737,1162.55l-3.132,4.97-1.515.957,3.531-4.949Z" transform="translate(-602.559 -979.616)" fill="#fae6de"/>
        <path id="Path_77363" data-name="Path 77363" d="M724.72,1167.52l2.227.957.6-5,.3-.924Z" transform="translate(-610.673 -979.616)" fill="#d6c5be"/>
        <path id="Path_77364" data-name="Path 77364" d="M628.92,1301.965a12.468,12.468,0,0,0,0,2.54s-10.169-1.017-11.116-2.437a6.134,6.134,0,0,1-.914-3.147Z" transform="translate(-519.811 -1094.526)" fill="#494f80"/>
        <path id="Path_77365" data-name="Path 77365" d="M589.209,1217.385l-4.808-17.875-18.281-1.929,5.011,16.453Z" transform="translate(-477.032 -1009.134)" fill="#a1a1a1"/>
        <path id="Path_77366" data-name="Path 77366" d="M798.074,1204.115c.917-.755,1.456-1.032,2.562-1.984,1.718-1.481,3.917-3.355,3.917-3.355l2.09,3.069s-5.053,4.441-7.739,7.081h0s-3.4,3.649-4.158,3.327-3.462-4.249-5.634-8.026-3.133-6.186-3.24-7.831,5.335-2.436,5.335-2.436l4.262,9.308a13.521,13.521,0,0,0,1.146,1.731S797.572,1204.452,798.074,1204.115Z" transform="translate(-662.2 -1006.083)" fill="#494f80"/>
        <path id="Path_77367" data-name="Path 77367" d="M720.069,1046.314a6.521,6.521,0,0,0-7.5,5.168,15.8,15.8,0,0,0,.2,2.5c.209,1.113-1.116,4.173-.883,4.359a6.932,6.932,0,0,0,1.25.5s.721,3.591,1.94,3.7a10.145,10.145,0,0,0,8.592-4.376C726.335,1054.106,727.758,1047.573,720.069,1046.314Z" transform="translate(-599.841 -881.608)" fill="#eea886"/>
        <path id="Path_77368" data-name="Path 77368" d="M716.33,1047.458a17.312,17.312,0,0,0,5.9,3.256c3.037.781,4.645,4.192,4.645,4.192s5.373-5.36,2.131-10.561S716.335,1041.464,716.33,1047.458Z" transform="translate(-603.604 -877.584)" fill="#e8734d"/>
        <path id="Path_77369" data-name="Path 77369" d="M757.39,1097.852s3.18,8.34,2.807,10.355a10.715,10.715,0,0,1,4.5.63C764.7,1108.828,763.282,1093.926,757.39,1097.852Z" transform="translate(-638.202 -924.544)" fill="#e8734d"/>
        <path id="Path_77370" data-name="Path 77370" d="M740.554,1169.026l-1.684.807,5.722-5.673Z" transform="translate(-622.597 -980.973)" fill="#d6c5be"/>
        <path id="Path_77371" data-name="Path 77371" d="M753.608,1164.16l-4.038,4.866,2.209,1.972,2.384-5.826Z" transform="translate(-631.613 -980.973)" fill="#fae6de"/>
        <path id="Path_77372" data-name="Path 77372" d="M750.158,1140.14a7.011,7.011,0,0,1-3.368,2.36c.06-.233.115-.472.165-.7.028-.134.054-.264.077-.4A11.33,11.33,0,0,0,750.158,1140.14Z" transform="translate(-629.27 -960.733)" fill="#a77860"/>
        <path id="Path_77373" data-name="Path 77373" d="M631.076,1250.342c.508.957.5,1.956-.019,2.232s-1.352-.275-1.86-1.232-.5-1.956.019-2.233S630.568,1249.385,631.076,1250.342Z" transform="translate(-529.865 -1052.493)" fill="#828282"/>
        <path id="Path_77374" data-name="Path 77374" d="M778.76,1170.426a6.335,6.335,0,0,1,6.877,4.853S778.865,1174.551,778.76,1170.426Z" transform="translate(-656.209 -986.227)" fill="#494f80"/>
        <g id="Group_3560" data-name="Group 3560" transform="translate(211.653 30.332)">
          <rect id="Rectangle_2823" data-name="Rectangle 2823" width="83.451" height="96.924" rx="37.89" fill="#f5f5f5" opacity="0.9"/>
        </g>
        <path id="Path_77375" data-name="Path 77375" d="M1445.151,372.529a21.326,21.326,0,0,0-40.162,14.363c.157.452.337.9.526,1.33a21.326,21.326,0,0,0,39.636-15.693Zm-14.7,22.237a15.973,15.973,0,0,1-20.045-8.676c-.142-.324-.272-.658-.4-1a15.99,15.99,0,1,1,20.44,9.672Z" transform="translate(-1182.837 -305.994)" fill="url(#linear-gradient-3)"/>
        <path id="Path_77376" data-name="Path 77376" d="M1415.016,375l-5.1-1.591a21.359,21.359,0,0,1,19.721-14.966l.157,5.336A16.017,16.017,0,0,0,1415.006,375Z" transform="translate(-1188.046 -306.131)" fill="#1a598c"/>
        <path id="Path_77377" data-name="Path 77377" d="M1410.389,466.286l-4.9,2.128c-.189-.433-.364-.878-.526-1.33a21.245,21.245,0,0,1-.278-13.534l5.1,1.591a15.925,15.925,0,0,0,.208,10.15C1410.116,465.628,1410.247,465.962,1410.389,466.286Z" transform="translate(-1182.816 -386.274)" fill="#2273b5"/>
        <path id="Path_77378" data-name="Path 77378" d="M1418.3,541.9a21.224,21.224,0,0,1-3.3-5.313l4.894-2.131a15.849,15.849,0,0,0,2.479,3.981Z" transform="translate(-1192.326 -454.452)" fill="#3788cc"/>
        <path id="Path_77379" data-name="Path 77379" d="M1716.919,526.522a8.824,8.824,0,1,0-7.554,15.949c.179.085.36.157.543.234a8.822,8.822,0,0,0,7-16.184Zm2.2,10.8a6.609,6.609,0,0,1-8.4,3.327c-.135-.055-.272-.113-.406-.176a6.609,6.609,0,1,1,8.813-3.147Z" transform="translate(-1436.114 -446.961)" fill="url(#linear-gradient-3)"/>
        <path id="Path_77380" data-name="Path 77380" d="M1707.332,552.431l-1.956,1.024a8.83,8.83,0,0,1,1.391-10.145l1.607,1.514A6.622,6.622,0,0,0,1707.332,552.431Z" transform="translate(-1436.158 -457.824)" fill="#1a598c"/>
        <path id="Path_77381" data-name="Path 77381" d="M1716.131,604.312l-.807,2.046c-.183-.071-.364-.15-.543-.234a8.775,8.775,0,0,1-4.041-3.879l1.956-1.024a6.594,6.594,0,0,0,3.029,2.908C1715.864,604.2,1716,604.257,1716.131,604.312Z" transform="translate(-1441.527 -506.621)" fill="#2273b5"/>
        <path id="Path_77382" data-name="Path 77382" d="M1654.993,639.52H1638.52v-.327h16.146V632.97h.327Z" transform="translate(-1380.672 -533.374)" fill="#e2f3fe"/>
        <rect id="Rectangle_2824" data-name="Rectangle 2824" width="14.742" height="1.964" rx="0.982" transform="translate(221.874 98.411)" fill="url(#linear-gradient-3)"/>
        <rect id="Rectangle_2825" data-name="Rectangle 2825" width="8.671" height="1.964" transform="translate(257.848 102.411)" fill="#4aafff"/>
        <rect id="Rectangle_2826" data-name="Rectangle 2826" width="7.056" height="1.508" transform="translate(218.535 38.652)" fill="#4aafff"/>
        <rect id="Rectangle_2827" data-name="Rectangle 2827" width="10.946" height="1.508" transform="translate(247.948 44.33)" fill="#4aafff"/>
        <rect id="Rectangle_2828" data-name="Rectangle 2828" width="6.683" height="1.508" transform="translate(233.795 44.33)" fill="#4aafff"/>
        <rect id="Rectangle_2829" data-name="Rectangle 2829" width="13.239" height="1.508" transform="translate(218.535 44.33)" fill="#4aafff"/>
        <rect id="Rectangle_2830" data-name="Rectangle 2830" width="10.454" height="1.508" transform="translate(227.739 38.652)" fill="#4aafff"/>
        <rect id="Rectangle_2831" data-name="Rectangle 2831" width="2.872" height="1.508" transform="translate(242.57 44.33)" fill="#4aafff"/>
        <rect id="Rectangle_2832" data-name="Rectangle 2832" width="7.81" height="1.508" transform="translate(251.086 38.737)" fill="#4aafff"/>
        <rect id="Rectangle_2833" data-name="Rectangle 2833" width="6.66" height="1.508" transform="translate(261.682 44.33)" fill="#4aafff"/>
        <rect id="Rectangle_2834" data-name="Rectangle 2834" width="8.279" height="1.508" transform="translate(240.765 38.737)" fill="#4aafff"/>
        <rect id="Rectangle_2835" data-name="Rectangle 2835" width="21.087" height="21.087" rx="10.544" transform="translate(242.836 115.273)" fill="#fff"/>
        <rect id="Rectangle_2836" data-name="Rectangle 2836" width="1.995" height="8.391" rx="0.998" transform="translate(252.381 121.621)" fill="url(#linear-gradient-3)"/>
        <rect id="Rectangle_2837" data-name="Rectangle 2837" width="1.995" height="8.391" rx="0.998" transform="translate(257.574 124.82) rotate(90)" fill="url(#linear-gradient-3)"/>
        <path id="Path_77383" data-name="Path 77383" d="M1937.043,126.825l-17.817-17.815-8.457,8.457L1910.3,117l8.926-8.927,18.286,18.286Z" transform="translate(-1609.683 -91.076)" fill="url(#linear-gradient-18)"/>
      </g>
    </g>
  </g>
</svg>
