<svg xmlns="http://www.w3.org/2000/svg" xmlns:xlink="http://www.w3.org/1999/xlink" width="20" height="20" viewBox="0 0 20 20">
  <defs>
    <clipPath id="clip-path">
      <rect id="Rectangle_993" data-name="Rectangle 993" width="20" height="20" transform="translate(905 392)" fill="#fff" stroke="#707070" stroke-width="1"/>
    </clipPath>
  </defs>
  <g id="_Acesso" data-name=" Acesso" transform="translate(-905 -392)" clip-path="url(#clip-path)">
    <g id="team" transform="translate(905 392)">
      <g id="Group_935" data-name="Group 935">
        <path id="Path_4676" data-name="Path 4676" d="M17.641,14.495a2.344,2.344,0,1,0-3.486,0,4.1,4.1,0,0,0-.71.431L10.586,12.1V9.414h2.93a.586.586,0,0,0,.586-.586V7.656a4.149,4.149,0,0,0-2.359-3.748,2.344,2.344,0,1,0-3.486,0A4.149,4.149,0,0,0,5.9,7.656V8.828a.586.586,0,0,0,.586.586h2.93V12.1L6.555,14.926a4.1,4.1,0,0,0-.71-.431,2.344,2.344,0,1,0-3.486,0A4.149,4.149,0,0,0,0,18.242v1.172A.586.586,0,0,0,.586,20H7.617a.586.586,0,0,0,.586-.586V18.242a4.145,4.145,0,0,0-.823-2.485L10,13.168l2.62,2.59a4.145,4.145,0,0,0-.823,2.485v1.172a.586.586,0,0,0,.586.586h7.031A.586.586,0,0,0,20,19.414V18.242A4.149,4.149,0,0,0,17.641,14.495ZM4.1,11.758A1.172,1.172,0,1,1,2.93,12.93,1.173,1.173,0,0,1,4.1,11.758Zm2.93,7.07H1.172v-.586A2.953,2.953,0,0,1,4.1,15.273a2.953,2.953,0,0,1,2.93,2.969ZM10,1.172A1.172,1.172,0,1,1,8.828,2.344,1.173,1.173,0,0,1,10,1.172ZM7.07,8.242V7.656a2.93,2.93,0,1,1,5.859,0v.586ZM15.9,11.758a1.172,1.172,0,1,1-1.172,1.172A1.173,1.173,0,0,1,15.9,11.758Zm2.93,7.07H12.969v-.586a2.93,2.93,0,1,1,5.859,0Z"/>
      </g>
    </g>
  </g>
</svg>
