<svg xmlns="http://www.w3.org/2000/svg" width="26.881" height="26.881" viewBox="0 0 26.881 26.881">
  <path id="Icon_ionic-ios-alert" data-name="Icon ionic-ios-alert" d="M16.815,3.375a13.44,13.44,0,1,0,13.44,13.44A13.438,13.438,0,0,0,16.815,3.375Zm1.111,7.082-.2,7.437a.925.925,0,0,1-.911.956h0a.925.925,0,0,1-.911-.956l-.2-7.437A1.113,1.113,0,0,1,16.815,9.32h0A1.113,1.113,0,0,1,17.927,10.457ZM16.815,23.148a1.19,1.19,0,1,1,1.234-1.189A1.2,1.2,0,0,1,16.815,23.148Z" transform="translate(-3.375 -3.375)" fill="#f9dc48"/>
</svg>
