<svg xmlns="http://www.w3.org/2000/svg" viewBox="0 0 267.95 268.33"><defs><style>.cls-1{fill:#fff;}</style></defs><g id="Camada_2" data-name="Camada 2"><g id="Camada_1-2" data-name="Camada 1"><path class="cls-1" d="M1.13,131.4c11.25-11.25,22.26-22.29,33.34-33.25a12.49,12.49,0,0,0,3.71-9c-.08-15.57,0-31.15,0-47.14A3.86,3.86,0,0,1,42,38.17h.26c16.1,0,32.19-.07,48.29.07A8.2,8.2,0,0,0,97,35.48C108.35,24,119.77,12.64,131.16,1.25l.13-.14a3.86,3.86,0,0,1,5.4,0,.57.57,0,0,0,.11.11c11.39,11.4,22.82,22.75,34.1,34.25a8.63,8.63,0,0,0,6.87,2.77c15.84-.12,31.69-.06,47.53-.06H226A3.86,3.86,0,0,1,229.82,42v.38c0,15.73-.07,31.47.08,47.21a13.57,13.57,0,0,0,3.36,8.1c11,11.24,22.19,22.35,33.56,33.72a3.87,3.87,0,0,1,0,5.43l-.2.2c-11.19,11.2-22.43,22.36-33.52,33.65a13.06,13.06,0,0,0-3.24,7.83c-.14,15.73-.08,31.46-.08,47.19v.6A3.86,3.86,0,0,1,226,230.2h-.43c-15.69,0-31.39-.07-47.08.09a13.54,13.54,0,0,0-8.13,3.37c-11.21,11-22.3,22.19-33.62,33.53a3.87,3.87,0,0,1-5.45,0l-.19-.2c-11.3-11.31-22.65-22.56-33.83-34a9,9,0,0,0-7.19-2.9c-15.84.13-31.69.06-47.53.06H42a3.86,3.86,0,0,1-3.86-3.86v-.53c0-16-.06-32,0-48a8.23,8.23,0,0,0-2.64-6.56C24.08,160,12.74,148.51,1.37,137.11l-.26-.27A3.86,3.86,0,0,1,1.13,131.4Zm33.93,0a3.86,3.86,0,0,0-.05,5.44l.2.2c7.92,7.95,15.9,15.84,23.73,23.88A12.57,12.57,0,0,1,62,168.36c.14,11.24.07,22.47.07,33.71v.27A3.86,3.86,0,0,0,66,206.2c11.31,0,22.27-.08,33.21.08a14.73,14.73,0,0,1,8.55,3.51c5.4,5.11,10.61,10.44,15.8,15.77,2.49,2.55,4.87,5.19,7.36,7.94a3.87,3.87,0,0,0,5.6.13c8.19-8.21,15.91-15.81,23.36-23.68a11.41,11.41,0,0,1,9.44-3.83c10.85.23,21.7.08,32.55.08H202a3.87,3.87,0,0,0,3.86-3.87c0-12,0-23.47-.06-35a7.39,7.39,0,0,1,2.49-5.85c8.27-8.15,16.43-16.41,24.62-24.64l0,0a3.85,3.85,0,0,0-.06-5.41c-8.41-8.4-16.67-16.6-24.79-24.95a8.41,8.41,0,0,1-2.13-5.12c-.24-6.87-.1-13.75-.1-20.62V66A3.86,3.86,0,0,0,202,62.18h-.59c-11.08,0-22.17.07-33.26-.07A12.62,12.62,0,0,1,160.66,59c-8-7.83-15.88-15.82-23.8-23.75-.07-.07-.14-.13-.2-.2a3.87,3.87,0,0,0-5.43.05c-8.11,8.11-16,15.95-23.78,24a9.65,9.65,0,0,1-7.83,3.16c-11.1-.16-22.2-.06-33.3-.06H66A3.86,3.86,0,0,0,62.1,66c0,6.53,0,12.79,0,19s1.67,13.48-.61,18.91S53,113.5,48.39,118.1C44,122.53,39.57,126.92,35.06,131.39Z"/><path class="cls-1" d="M93.24,139.58l10.5-10.48a3.86,3.86,0,0,1,5.49,0l9,9.22a3.86,3.86,0,0,0,5.51,0l33.7-33.95a3.86,3.86,0,0,1,5.48,0L174.31,116a3.85,3.85,0,0,1,0,5.44l-49.6,49.68a3.84,3.84,0,0,1-5.45,0l-26-26.1A3.85,3.85,0,0,1,93.24,139.58Z"/></g></g></svg>