<svg xmlns="http://www.w3.org/2000/svg" xmlns:xlink="http://www.w3.org/1999/xlink" width="20" height="20" viewBox="0 0 20 20">
  <defs>
    <clipPath id="clip-path">
      <rect id="Rectangle_1002" data-name="Rectangle 1002" width="20" height="20" transform="translate(950 348)" fill="#fff" stroke="#707070" stroke-width="1"/>
    </clipPath>
  </defs>
  <g id="Mask_Group_31" data-name="Mask Group 31" transform="translate(-950 -348)" clip-path="url(#clip-path)">
    <path id="folder" d="M19.767,7.05a1.671,1.671,0,0,0-1.437-.783H16.843V3.538A1.219,1.219,0,0,0,15.6,2.344H8.321a.041.041,0,0,1-.021,0L7,.516A1.252,1.252,0,0,0,5.977,0H1.239A1.219,1.219,0,0,0,0,1.194V14.286a1.248,1.248,0,0,0,1.269,1.223H16.01a.585.585,0,0,0,.524-.325h0l3.3-6.634a1.533,1.533,0,0,0-.07-1.5ZM1.239,1.172H5.977a.085.085,0,0,1,.066.026L7.349,3.023a1.194,1.194,0,0,0,.972.492H15.6a.084.084,0,0,1,.067.026V6.267H5.066a1.676,1.676,0,0,0-1.524.944L1.172,12.285V1.2a.084.084,0,0,1,.067-.026Zm17.55,6.855-3.141,6.309H1.507L4.6,7.708a.508.508,0,0,1,.462-.269H18.33a.508.508,0,0,1,.44.228.355.355,0,0,1,.018.36Zm0,0" transform="translate(950 350.246)"/>
  </g>
</svg>
