<svg xmlns="http://www.w3.org/2000/svg" width="21.97" height="21.97" viewBox="0 0 21.97 21.97">
  <path id="Icon_metro-cancel" data-name="Icon metro-cancel" d="M13.556,1.928A10.985,10.985,0,1,0,24.54,12.913,10.985,10.985,0,0,0,13.556,1.928Zm0,19.91a8.925,8.925,0,1,1,8.925-8.925,8.925,8.925,0,0,1-8.925,8.925ZM16.988,7.42l-3.433,3.433L10.123,7.42,8.063,9.48,11.5,12.913,8.063,16.346l2.06,2.06,3.433-3.433,3.433,3.433,2.06-2.06-3.433-3.433L19.048,9.48Z" transform="translate(-2.571 -1.928)" fill="#2cabe0"/>
</svg>
