<svg xmlns="http://www.w3.org/2000/svg" xmlns:xlink="http://www.w3.org/1999/xlink" width="20" height="20" viewBox="0 0 20 20">
  <defs>
    <clipPath id="clip-path">
      <rect id="Rectangle_974" data-name="Rectangle 974" width="20" height="20" transform="translate(788 416)" fill="#fff" stroke="#707070" stroke-width="1"/>
    </clipPath>
  </defs>
  <g id="Cliente" transform="translate(-788 -416)" clip-path="url(#clip-path)">
    <path id="search_1_" data-name="search (1)" d="M8.242,16.484a8.242,8.242,0,1,1,8.242-8.242A8.252,8.252,0,0,1,8.242,16.484Zm0-14.922a6.68,6.68,0,1,0,6.68,6.68A6.687,6.687,0,0,0,8.242,1.562Zm.075,7.031a2.461,2.461,0,1,1,2.461-2.461A2.464,2.464,0,0,1,8.317,8.594Zm0-3.359a.9.9,0,1,0,.9.9A.9.9,0,0,0,8.317,5.234ZM10.7,12.774a.782.782,0,0,1-.755-.584,1.577,1.577,0,0,0-1.529-1.174H7.981a1.577,1.577,0,0,0-1.529,1.174A.781.781,0,1,1,4.941,11.8,3.14,3.14,0,0,1,7.981,9.453h.437A3.14,3.14,0,0,1,11.459,11.8a.782.782,0,0,1-.757.979Zm9.07,7a.781.781,0,0,0,0-1.1l-3.516-3.5a.781.781,0,0,0-1.1,1.108l3.516,3.5a.781.781,0,0,0,1.1,0Z" transform="translate(788 416)"/>
  </g>
</svg>
