<svg xmlns="http://www.w3.org/2000/svg" width="26.881" height="26.881" viewBox="0 0 26.881 26.881">
  <path id="Icon_ionic-ios-close-circle" data-name="Icon ionic-ios-close-circle" d="M16.815,3.375a13.44,13.44,0,1,0,13.44,13.44A13.438,13.438,0,0,0,16.815,3.375Zm3.405,18.306-3.405-3.405L13.41,21.681a1.033,1.033,0,1,1-1.46-1.46l3.405-3.405L11.95,13.41a1.033,1.033,0,1,1,1.46-1.46l3.405,3.405,3.405-3.405a1.033,1.033,0,1,1,1.46,1.46l-3.405,3.405,3.405,3.405a1.037,1.037,0,0,1,0,1.46A1.026,1.026,0,0,1,20.221,21.681Z" transform="translate(-3.375 -3.375)" fill="#e61b41"/>
</svg>
