<svg xmlns="http://www.w3.org/2000/svg" xmlns:xlink="http://www.w3.org/1999/xlink" width="20" height="20" viewBox="0 0 20 20">
  <defs>
    <clipPath id="clip-path">
      <rect id="Rectangle_995" data-name="Rectangle 995" width="20" height="20" transform="translate(905 480)" fill="#fff" stroke="#707070" stroke-width="1"/>
    </clipPath>
  </defs>
  <g id="_Complexidade" data-name=" Complexidade" transform="translate(-905 -480)" clip-path="url(#clip-path)">
    <g id="toy" transform="translate(905 480)">
      <g id="Group_936" data-name="Group 936">
        <path id="Path_4677" data-name="Path 4677" d="M19.486,8.757,11.243.514a1.76,1.76,0,0,0-2.486,0L.514,8.757a1.76,1.76,0,0,0,0,2.486l8.243,8.243a1.76,1.76,0,0,0,2.486,0l8.243-8.243A1.76,1.76,0,0,0,19.486,8.757Zm-9.9-7.414a.587.587,0,0,1,.829,0L14.122,5.05l-.807.807L12.9,5.442a1.758,1.758,0,0,0-2.486,2.486l.414.414L10,9.171,8.757,7.928a.586.586,0,0,0-.829,0L7.1,8.757a.586.586,0,1,1-.829-.829L7.1,7.1a.586.586,0,0,0,0-.829L5.879,5.05ZM1.343,10.414a.587.587,0,0,1,0-.829L5.05,5.879l.807.807L5.442,7.1A1.758,1.758,0,0,0,7.928,9.586l.414-.414L9.171,10,7.928,11.243a.586.586,0,0,0,0,.829l.829.829a.586.586,0,0,1-.829.829L7.1,12.9a.586.586,0,0,0-.829,0L5.05,14.122Zm9.072,8.243a.587.587,0,0,1-.829,0L5.879,14.95l.807-.807.414.414a1.758,1.758,0,0,0,2.486-2.486l-.414-.414L10,10.829l1.243,1.243a.586.586,0,0,0,.829,0l.829-.829a.586.586,0,0,1,.829.829L12.9,12.9a.586.586,0,0,0,0,.829l1.221,1.221Zm8.243-8.243L14.95,14.121l-.807-.807.414-.414a1.758,1.758,0,0,0-2.486-2.486l-.414.414L10.829,10l1.243-1.243a.586.586,0,0,0,0-.829L11.243,7.1a.586.586,0,1,1,.829-.829L12.9,7.1a.586.586,0,0,0,.829,0L14.95,5.879l3.707,3.707A.587.587,0,0,1,18.657,10.414Z"/>
      </g>
    </g>
  </g>
</svg>
