<svg xmlns="http://www.w3.org/2000/svg" width="19.141" height="20" viewBox="0 0 19.141 20">
  <g id="clipboard" transform="translate(-0.43)">
    <g id="Group_872" data-name="Group 872">
      <g id="Group_871" data-name="Group 871">
        <path id="Path_4614" data-name="Path 4614" d="M18.789,14.492a.781.781,0,0,0,.781-.781V10.117a2.346,2.346,0,0,0-2.344-2.344H15.7V4.687a3.129,3.129,0,0,0-3.125-3.125H10.721A2.263,2.263,0,0,0,8.567,0h-1A2.263,2.263,0,0,0,5.411,1.562H3.555A3.129,3.129,0,0,0,.43,4.687V16.875A3.129,3.129,0,0,0,3.555,20H6.992a.781.781,0,1,0,0-1.562H3.555a1.564,1.564,0,0,1-1.562-1.562V4.687A1.564,1.564,0,0,1,3.555,3.125h.078v2.3a.781.781,0,0,0,.781.781H11.8a.781.781,0,0,0,.781-.781v-2.3a1.564,1.564,0,0,1,1.562,1.562V7.773H11.6a2.346,2.346,0,0,0-2.343,2.343v7.54A2.346,2.346,0,0,0,11.6,20l5.625,0a2.346,2.346,0,0,0,2.344-2.343.781.781,0,1,0-1.562,0,.782.782,0,0,1-.782.781l-5.625,0a.782.782,0,0,1-.781-.781v-7.54a.782.782,0,0,1,.781-.781h5.625a.782.782,0,0,1,.781.781v3.594A.781.781,0,0,0,18.789,14.492ZM11.016,4.648H5.2V3.125h.82a.781.781,0,0,0,.758-.592L6.883,2.1a.7.7,0,0,1,.683-.533h1A.7.7,0,0,1,9.25,2.1l.109.437a.781.781,0,0,0,.758.592h.9Z"/>
        <path id="Path_4615" data-name="Path 4615" d="M15.664,10.9h-2.5a.781.781,0,1,0,0,1.562h2.5a.781.781,0,1,0,0-1.562Z"/>
        <path id="Path_4616" data-name="Path 4616" d="M15.664,13.633h-2.5a.781.781,0,1,0,0,1.562h2.5a.781.781,0,1,0,0-1.562Z"/>
      </g>
    </g>
  </g>
</svg>
