<svg xmlns="http://www.w3.org/2000/svg" xmlns:xlink="http://www.w3.org/1999/xlink" width="20" height="20" viewBox="0 0 20 20">
  <defs>
    <clipPath id="clip-path">
      <rect id="Rectangle_978" data-name="Rectangle 978" width="20" height="20" transform="translate(788 524)" fill="#fff" stroke="#707070" stroke-width="1"/>
    </clipPath>
  </defs>
  <g id="Dados_Bancarios" data-name="Dados Bancarios" transform="translate(-788 -524)" clip-path="url(#clip-path)">
    <g id="bank" transform="translate(788 524)">
      <g id="Group_893" data-name="Group 893">
        <path id="Path_4635" data-name="Path 4635" d="M18.791,7.457a1.174,1.174,0,0,0,1.172-1.172V4.767a1.167,1.167,0,0,0-.735-1.087L10.439.086a1.167,1.167,0,0,0-.875,0L.771,3.68A1.167,1.167,0,0,0,.036,4.767V6.285A1.174,1.174,0,0,0,1.208,7.457h.7v8.831h-.7A1.174,1.174,0,0,0,.036,17.46v1.368A1.174,1.174,0,0,0,1.208,20H18.791a1.174,1.174,0,0,0,1.172-1.172V17.46a1.174,1.174,0,0,0-1.172-1.172h-.7V7.457h.7Zm0,10c0,1.4,0,1.368,0,1.368H1.208V17.46ZM3.084,16.288V7.457H4.412v8.831Zm2.5,0V7.457H8.164v8.831Zm3.751,0V7.457h1.328v8.831Zm2.5,0V7.457h2.579v8.831Zm3.751,0V7.457h1.328v8.831Zm-14.379-10c0-1.635,0-1.517,0-1.519L10,1.173l8.787,3.593c.006,0,0-.112,0,1.519H1.208Z"/>
      </g>
      <g id="Group_894" data-name="Group 894">
        <path id="Path_4636" data-name="Path 4636" d="M10,2.534a.586.586,0,0,0-.586.586v1.25a.586.586,0,0,0,1.172,0V3.12A.586.586,0,0,0,10,2.534Z"/>
      </g>
    </g>
  </g>
</svg>
