<svg xmlns="http://www.w3.org/2000/svg" xmlns:xlink="http://www.w3.org/1999/xlink" width="20" height="20" viewBox="0 0 20 20">
  <defs>
    <clipPath id="clip-path">
      <rect id="Rectangle_979" data-name="Rectangle 979" width="20" height="20" transform="translate(788 560)" fill="#fff" stroke="#707070" stroke-width="1"/>
    </clipPath>
  </defs>
  <g id="Empresa" transform="translate(-788 -560)" clip-path="url(#clip-path)">
    <path id="work_1_" data-name="work (1)" d="M19.418,2.344H14.1V1.758A1.76,1.76,0,0,0,12.344,0H7.656A1.76,1.76,0,0,0,5.9,1.758v.586H.586A.587.587,0,0,0,0,2.93V15.82a1.76,1.76,0,0,0,1.758,1.758H18.242A1.76,1.76,0,0,0,20,15.82V2.94a.569.569,0,0,0-.582-.6ZM7.07,1.758a.587.587,0,0,1,.586-.586h4.688a.587.587,0,0,1,.586.586v.586H7.07ZM18.6,3.516l-1.82,5.459a.585.585,0,0,1-.556.4h-3.3V8.789a.586.586,0,0,0-.586-.586H7.656a.586.586,0,0,0-.586.586v.586h-3.3a.585.585,0,0,1-.556-.4L1.4,3.516ZM11.758,9.375v1.172H8.242V9.375Zm7.07,6.445a.587.587,0,0,1-.586.586H1.758a.587.587,0,0,1-.586-.586V6.54l.935,2.8a1.755,1.755,0,0,0,1.667,1.2h3.3v.586a.586.586,0,0,0,.586.586h4.688a.586.586,0,0,0,.586-.586v-.586h3.3a1.755,1.755,0,0,0,1.667-1.2l.935-2.8Zm0,0" transform="translate(788 561.211)"/>
  </g>
</svg>
