<svg xmlns="http://www.w3.org/2000/svg" xmlns:xlink="http://www.w3.org/1999/xlink" width="20" height="20" viewBox="0 0 20 20">
  <defs>
    <clipPath id="clip-path">
      <rect id="Rectangle_976" data-name="Rectangle 976" width="20" height="20" transform="translate(788 504)" fill="#fff" stroke="#707070" stroke-width="1"/>
    </clipPath>
  </defs>
  <g id="Endereço" transform="translate(-788 -504)" clip-path="url(#clip-path)">
    <g id="pin" transform="translate(788 504)">
      <g id="Group_886" data-name="Group 886">
        <g id="Group_885" data-name="Group 885">
          <path id="Path_4631" data-name="Path 4631" d="M10,0A7.033,7.033,0,0,0,4.018,10.729L9.6,19.723a.586.586,0,0,0,.5.277h0a.586.586,0,0,0,.5-.285l5.439-9.082A7.033,7.033,0,0,0,10,0Zm5.034,10.032-4.945,8.257L5.014,10.111a5.863,5.863,0,1,1,10.019-.079Z"/>
        </g>
      </g>
      <g id="Group_888" data-name="Group 888">
        <g id="Group_887" data-name="Group 887">
          <path id="Path_4632" data-name="Path 4632" d="M10,3.516a3.516,3.516,0,1,0,3.516,3.516A3.52,3.52,0,0,0,10,3.516Zm0,5.867a2.352,2.352,0,1,1,2.348-2.352A2.353,2.353,0,0,1,10,9.383Z"/>
        </g>
      </g>
    </g>
  </g>
</svg>
