<svg xmlns="http://www.w3.org/2000/svg" xmlns:xlink="http://www.w3.org/1999/xlink" width="20" height="20" viewBox="0 0 20 20">
  <defs>
    <clipPath id="clip-path">
      <rect id="Rectangle_1000" data-name="Rectangle 1000" width="20" height="20" transform="translate(905 609)" fill="#1e1e1e" stroke="#707070" stroke-width="1"/>
    </clipPath>
  </defs>
  <g id="_Senioridade" data-name=" Senioridade" transform="translate(-905 -609)" clip-path="url(#clip-path)">
    <g id="watch_1_" data-name="watch (1)" transform="translate(905 609)">
      <g id="Group_942" data-name="Group 942">
        <g id="Group_941" data-name="Group 941">
          <path id="Path_4680" data-name="Path 4680" d="M19.51,7.028a.586.586,0,0,0-1.119.349A8.742,8.742,0,0,1,18.828,10,8.8,8.8,0,0,1,2.967,15.273H4.141a.586.586,0,0,0,0-1.172H1.8a.586.586,0,0,0-.586.586v2.344a.586.586,0,0,0,1.172,0V16.42A9.938,9.938,0,0,0,19.51,7.028Z" fill="#1e1e1e"/>
        </g>
      </g>
      <g id="Group_944" data-name="Group 944">
        <g id="Group_943" data-name="Group 943">
          <path id="Path_4681" data-name="Path 4681" d="M18.2,2.383a.586.586,0,0,0-.586.586V3.58a9.938,9.938,0,0,0-17.124,9.4.586.586,0,0,0,1.118-.351A8.742,8.742,0,0,1,1.172,10,8.8,8.8,0,0,1,17.033,4.727H15.859a.586.586,0,0,0,0,1.172H18.2a.586.586,0,0,0,.586-.586V2.969A.586.586,0,0,0,18.2,2.383Z" fill="#1e1e1e"/>
        </g>
      </g>
      <g id="Group_946" data-name="Group 946">
        <g id="Group_945" data-name="Group 945">
          <path id="Path_4682" data-name="Path 4682" d="M10,3.555A6.445,6.445,0,1,0,16.445,10,6.454,6.454,0,0,0,10,3.555Zm4.118,9.735-.389-.389a.586.586,0,0,0-.829.829l.389.389a5.248,5.248,0,0,1-2.7,1.122v-.553a.586.586,0,0,0-1.172,0v.553a5.249,5.249,0,0,1-2.7-1.122l.389-.389a.586.586,0,0,0-.829-.829l-.389.389a5.248,5.248,0,0,1-1.122-2.7h.553a.586.586,0,0,0,0-1.172H4.759a5.248,5.248,0,0,1,1.122-2.7l.389.389A.586.586,0,1,0,7.1,6.271L6.71,5.882a5.249,5.249,0,0,1,2.7-1.122v.553a.586.586,0,0,0,1.172,0V4.759a5.249,5.249,0,0,1,2.7,1.122l-.389.389a.586.586,0,0,0,.829.829l.389-.389a5.249,5.249,0,0,1,1.122,2.7h-.553a.584.584,0,1,0,0,1.168h.553A5.261,5.261,0,0,1,14.118,13.29Z" fill="#1e1e1e"/>
        </g>
      </g>
      <g id="Group_948" data-name="Group 948">
        <g id="Group_947" data-name="Group 947">
          <path id="Path_4683" data-name="Path 4683" d="M11.172,9.414h-.586V7.656a.586.586,0,0,0-1.172,0V10a.586.586,0,0,0,.586.586h1.172a.586.586,0,0,0,0-1.172Z" fill="#1e1e1e"/>
        </g>
      </g>
    </g>
  </g>
</svg>
