<svg xmlns="http://www.w3.org/2000/svg" width="20" height="20" viewBox="0 0 20 20">
  <g id="Group_1036" data-name="Group 1036" transform="translate(-950.53 -512)">
    <g id="Path_1516" data-name="Path 1516" transform="translate(947.53 509)" fill="none" stroke-linecap="round" stroke-linejoin="round">
      <path d="M23,13A10,10,0,1,1,13,3,10,10,0,0,1,23,13Z" stroke="none"/>
      <path d="M 13.00001525878906 4.499996185302734 C 8.313085556030273 4.499996185302734 4.499996185302734 8.313085556030273 4.499996185302734 13.00001525878906 C 4.499996185302734 17.68693542480469 8.313085556030273 21.50002479553223 13.00001525878906 21.50002479553223 C 17.68693542480469 21.50002479553223 21.50002479553223 17.68693542480469 21.50002479553223 13.00001525878906 C 21.50002479553223 8.313085556030273 17.68693542480469 4.499996185302734 13.00001525878906 4.499996185302734 M 13.00001525878906 2.999996185302734 C 18.52287483215332 2.999996185302734 23.00002479553223 7.477155685424805 23.00002479553223 13.00001525878906 C 23.00002479553223 18.52287483215332 18.52287483215332 23.00002479553223 13.00001525878906 23.00002479553223 C 7.477155685424805 23.00002479553223 2.999996185302734 18.52287483215332 2.999996185302734 13.00001525878906 C 2.999996185302734 7.477155685424805 7.477155685424805 2.999996185302734 13.00001525878906 2.999996185302734 Z" stroke="none" fill="#1e1e1e"/>
    </g>
    <path id="Path_1517" data-name="Path 1517" d="M18,9v6l4,2" transform="translate(942.531 507)" fill="none" stroke="#1e1e1e" stroke-linecap="round" stroke-linejoin="round" stroke-width="1.5"/>
  </g>
</svg>
