<svg xmlns="http://www.w3.org/2000/svg" width="20.561" height="14.487" viewBox="0 0 20.561 14.487">
  <g id="back" transform="translate(0.311 -2.756)">
    <g id="Group_882" data-name="Group 882">
      <path id="Path_4627" data-name="Path 4627" d="M15.033,7.059H1.41l2.864-3.21a.505.505,0,0,0-.754-.673L.295,6.791a1.16,1.16,0,0,0,0,1.545l3.226,3.616a.505.505,0,0,0,.754-.673L1.41,8.069H15.033a3.957,3.957,0,0,1,0,7.914H12.627a.505.505,0,1,0,0,1.01h2.405a4.967,4.967,0,1,0,0-9.935Z" stroke="#000" stroke-width="0.5"/>
    </g>
  </g>
</svg>
