<svg xmlns="http://www.w3.org/2000/svg" xmlns:xlink="http://www.w3.org/1999/xlink" width="20" height="20" viewBox="0 0 20 20">
  <defs>
    <clipPath id="clip-path">
      <rect id="Rectangle_964" data-name="Rectangle 964" width="20" height="20" transform="translate(521 671)" fill="#2cabe0"/>
    </clipPath>
  </defs>
  <g id="timesheet" transform="translate(-521 -671)" clip-path="url(#clip-path)">
    <g id="watch" transform="translate(521 671)">
      <g id="Group_858" data-name="Group 858">
        <g id="Group_857" data-name="Group 857">
          <path id="Path_4570" data-name="Path 4570" d="M17.906,14.87a.781.781,0,0,0-1.093.161c-.142.19-.293.377-.451.555a.781.781,0,1,0,1.171,1.035c.186-.211.366-.432.534-.657A.781.781,0,0,0,17.906,14.87Z" fill="#2cabe0"/>
          <path id="Path_4571" data-name="Path 4571" d="M19.213,11.206a.781.781,0,0,0-.93.6c-.051.232-.112.464-.181.691a.781.781,0,1,0,1.493.461c.083-.269.155-.544.215-.82A.781.781,0,0,0,19.213,11.206Z" fill="#2cabe0"/>
          <path id="Path_4572" data-name="Path 4572" d="M14.146,17.372c-.207.116-.422.224-.638.322a.781.781,0,1,0,.643,1.424c.256-.116.511-.244.757-.381a.781.781,0,1,0-.762-1.364Z" fill="#2cabe0"/>
          <path id="Path_4573" data-name="Path 4573" d="M9.219,3.75V9.676L6.354,12.541a.781.781,0,0,0,1.1,1.1l3.094-3.094A.781.781,0,0,0,10.781,10V3.75a.781.781,0,0,0-1.562,0Z" fill="#2cabe0"/>
          <path id="Path_4574" data-name="Path 4574" d="M19.219,1.68a.781.781,0,0,0-.781.781V4.63A10,10,0,1,0,10,20h.039c.282,0,.566-.012.845-.035a.781.781,0,1,0-.13-1.557c-.236.02-.477.03-.715.03H10A8.438,8.438,0,1,1,17.263,5.7H15.115a.781.781,0,0,0,0,1.563H17.5A2.485,2.485,0,0,0,18.8,6.9a.78.78,0,0,0,.07-.045A2.5,2.5,0,0,0,20,4.766v-2.3A.781.781,0,0,0,19.219,1.68Z" fill="#2cabe0"/>
        </g>
      </g>
    </g>
  </g>
</svg>
