<svg xmlns="http://www.w3.org/2000/svg" width="15.855" height="20" viewBox="0 0 15.855 20">
  <g id="exam" transform="translate(-2.073)">
    <g id="Group_869" data-name="Group 869">
      <g id="Group_868" data-name="Group 868">
        <path id="Path_4610" data-name="Path 4610" d="M17.146,13.75a.781.781,0,0,0,.781-.781V3.125A3.129,3.129,0,0,0,14.8,0H5.2A3.129,3.129,0,0,0,2.072,3.125v13.75A3.129,3.129,0,0,0,5.2,20H14.8a3.129,3.129,0,0,0,3.125-3.125.781.781,0,0,0-1.562,0A1.564,1.564,0,0,1,14.8,18.438H5.2a1.564,1.564,0,0,1-1.563-1.562V3.125A1.564,1.564,0,0,1,5.2,1.563h9.6a1.564,1.564,0,0,1,1.563,1.563v9.844A.781.781,0,0,0,17.146,13.75Z"/>
        <path id="Path_4611" data-name="Path 4611" d="M8.709,13.242a.781.781,0,0,0,.781-.781V9.141a2.344,2.344,0,0,0-4.687,0v3.32a.781.781,0,0,0,1.563,0V11.328H7.927v1.133A.781.781,0,0,0,8.709,13.242ZM6.365,9.766V9.141a.781.781,0,0,1,1.563,0v.625Z"/>
        <path id="Path_4612" data-name="Path 4612" d="M12.849,12.344a.781.781,0,0,0,.781-.781v-.781h.781a.781.781,0,0,0,0-1.562h-.781V8.438a.781.781,0,0,0-1.562,0v.781h-.781a.781.781,0,0,0,0,1.563h.781v.781A.781.781,0,0,0,12.849,12.344Z"/>
      </g>
    </g>
  </g>
</svg>
