<svg xmlns="http://www.w3.org/2000/svg" width="20" height="19.999" viewBox="0 0 20 19.999">
  <g id="eraser" transform="translate(0 -0.001)">
    <g id="Group_862" data-name="Group 862">
      <path id="Path_4584" data-name="Path 4584" d="M20,6.818a2.328,2.328,0,0,0-.688-1.658L14.831.685a2.347,2.347,0,0,0-3.313,0L.687,11.525a2.344,2.344,0,0,0,0,3.317l4.483,4.473A2.336,2.336,0,0,0,6.826,20h.035v0H18.4V18.437H9.359l9.954-9.96A2.328,2.328,0,0,0,20,6.818ZM7.378,18.208a.782.782,0,0,1-1.1,0L1.792,13.736a.781.781,0,0,1,0-1.106L6.936,7.482l5.586,5.579ZM18.208,7.372l-4.581,4.584L8.04,6.377,12.623,1.79a.782.782,0,0,1,1.1,0l4.481,4.475a.781.781,0,0,1,0,1.106Z"/>
    </g>
  </g>
</svg>
