<svg xmlns="http://www.w3.org/2000/svg" width="17.924" height="20" viewBox="0 0 17.924 20">
  <g id="document" transform="translate(-1.038)">
    <g id="Group_865" data-name="Group 865">
      <g id="Group_864" data-name="Group 864">
        <path id="Path_4598" data-name="Path 4598" d="M13.768,8.594a.781.781,0,0,0-.781-.781H4.94a.781.781,0,0,0,0,1.563h8.047A.781.781,0,0,0,13.768,8.594Z"/>
        <path id="Path_4599" data-name="Path 4599" d="M4.94,10.938a.781.781,0,0,0,0,1.563H9.827a.781.781,0,0,0,0-1.562Z"/>
        <path id="Path_4600" data-name="Path 4600" d="M6.776,18.438H4.163A1.564,1.564,0,0,1,2.6,16.875V3.125A1.564,1.564,0,0,1,4.163,1.563h9.605A1.564,1.564,0,0,1,15.33,3.125v4.8a.781.781,0,0,0,1.563,0v-4.8A3.129,3.129,0,0,0,13.768,0H4.163A3.129,3.129,0,0,0,1.038,3.125v13.75A3.129,3.129,0,0,0,4.163,20H6.776a.781.781,0,0,0,0-1.562Z"/>
        <path id="Path_4601" data-name="Path 4601" d="M18.277,11.311a2.346,2.346,0,0,0-3.314,0l-4.289,4.28a.781.781,0,0,0-.2.326l-.934,3.075a.781.781,0,0,0,.956.98l3.153-.873A.781.781,0,0,0,14,18.9l4.28-4.272A2.346,2.346,0,0,0,18.277,11.311Zm-5.239,6.336-1.586.439.464-1.528L14.81,13.67l1.105,1.105Zm4.134-4.126-.151.151-1.1-1.1.151-.151a.781.781,0,0,1,1.105,1.1Z"/>
        <path id="Path_4602" data-name="Path 4602" d="M12.987,4.688H4.94a.781.781,0,0,0,0,1.563h8.047a.781.781,0,0,0,0-1.562Z"/>
      </g>
    </g>
  </g>
</svg>
