<svg xmlns="http://www.w3.org/2000/svg" xmlns:xlink="http://www.w3.org/1999/xlink" width="20" height="20" viewBox="0 0 20 20">
  <defs>
    <clipPath id="clip-path">
      <rect id="Rectangle_365" data-name="Rectangle 365" width="20" height="20" transform="translate(783 578)" fill="#fff"/>
    </clipPath>
  </defs>
  <g id="tag2" transform="translate(-783 -578)" clip-path="url(#clip-path)">
    <g id="Icon_awesome-tags" data-name="Icon awesome-tags" transform="translate(785.27 580.52)" fill="none" stroke-linecap="round">
      <path d="M15.215,6.9,8.741.43A1.467,1.467,0,0,0,7.7,0H1.467A1.467,1.467,0,0,0,0,1.467V7.7A1.467,1.467,0,0,0,.43,8.741L6.9,15.215a1.467,1.467,0,0,0,2.074,0l6.237-6.237a1.467,1.467,0,0,0,0-2.074ZM3.422,4.889A1.467,1.467,0,1,1,4.889,3.422,1.467,1.467,0,0,1,3.422,4.889Z" fill="#fff" stroke="none"/>
      <path d="M 1.466718673706055 3.814697265625e-06 C 0.6566581726074219 3.814697265625e-06 -1.9073486328125e-06 0.6566638946533203 -1.9073486328125e-06 1.466723442077637 L -1.9073486328125e-06 7.703893661499023 C -1.9073486328125e-06 8.092884063720703 0.1545286178588867 8.465953826904297 0.4295883178710938 8.741013526916504 L 6.904007911682129 15.21543312072754 C 7.190388679504395 15.50182342529297 7.565760612487793 15.64503002166748 7.941125392913818 15.64503002166748 C 8.316490173339844 15.64503002166748 8.691848754882813 15.50183868408203 8.97825813293457 15.21543312072754 L 15.21542835235596 8.978263854980469 C 15.78821849822998 8.405473709106445 15.78821849822998 7.47679328918457 15.21542835235596 6.904013633728027 L 8.741018295288086 0.4295930862426758 C 8.465957641601563 0.1545333862304688 8.092887878417969 3.814697265625e-06 7.703898429870605 3.814697265625e-06 L 1.466718673706055 3.814697265625e-06 M 3.422348022460938 4.889073371887207 C 2.612288475036621 4.889073371887207 1.955628395080566 4.232403755187988 1.955628395080566 3.422353744506836 C 1.955628395080566 2.612293243408203 2.612288475036621 1.955623626708984 3.422348022460938 1.955623626708984 C 4.23240852355957 1.955623626708984 4.889068603515625 2.612293243408203 4.889068603515625 3.422353744506836 C 4.889068603515625 4.232403755187988 4.23240852355957 4.889073371887207 3.422348022460938 4.889073371887207 M 1.466718673706055 -1.499997138977051 L 7.703898429870605 -1.499997138977051 C 8.496337890625 -1.499997138977051 9.241338729858398 -1.191407203674316 9.801677703857422 -0.6310663223266602 L 16.27608871459961 5.843353271484375 C 16.83642768859863 6.403683662414551 17.14501762390137 7.148693084716797 17.14501762390137 7.941133499145508 C 17.14501762390137 8.733573913574219 16.83642768859863 9.478583335876465 16.27608871459961 10.0389232635498 L 10.03891849517822 16.27609443664551 C 9.478548049926758 16.8364429473877 8.733548164367676 17.14503288269043 7.941128253936768 17.14503288269043 C 7.148677825927734 17.14503288269043 6.403668403625488 16.83643341064453 5.843328475952148 16.27607345581055 L -0.6310720443725586 9.801673889160156 C -1.191411018371582 9.2413330078125 -1.500000953674316 8.496334075927734 -1.500000953674316 7.703893661499023 L -1.500000953674316 1.466723442077637 C -1.500000953674316 -0.1691265106201172 -0.1691312789916992 -1.499997138977051 1.466718673706055 -1.499997138977051 Z" stroke="none" fill="#fff"/>
    </g>
  </g>
</svg>
