<svg id="name" xmlns="http://www.w3.org/2000/svg" width="20" height="16.667" viewBox="0 0 20 16.667">
  <path id="Path_4586" data-name="Path 4586" d="M17.708,16.667H2.292A2.294,2.294,0,0,1,0,14.375V3.958A2.293,2.293,0,0,1,2.292,1.667h5a.625.625,0,1,1,0,1.25h-5A1.043,1.043,0,0,0,1.25,3.958V14.375a1.043,1.043,0,0,0,1.042,1.042H17.708a1.043,1.043,0,0,0,1.042-1.042V3.958a1.043,1.043,0,0,0-1.042-1.042h-5a.625.625,0,0,1,0-1.25h5A2.293,2.293,0,0,1,20,3.958V14.375A2.294,2.294,0,0,1,17.708,16.667Zm0,0"/>
  <path id="Path_4587" data-name="Path 4587" d="M11.875,4.583H8.125A1.46,1.46,0,0,1,6.667,3.125V1.458A1.46,1.46,0,0,1,8.125,0h3.75a1.46,1.46,0,0,1,1.458,1.458V3.125A1.46,1.46,0,0,1,11.875,4.583ZM8.125,1.25a.208.208,0,0,0-.208.208V3.125a.208.208,0,0,0,.208.208h3.75a.208.208,0,0,0,.208-.208V1.458a.208.208,0,0,0-.208-.208Zm0,0"/>
  <path id="Path_4588" data-name="Path 4588" d="M6.25,10A2.083,2.083,0,1,1,8.333,7.917,2.086,2.086,0,0,1,6.25,10Zm0-2.917a.833.833,0,1,0,.833.833A.835.835,0,0,0,6.25,7.083Zm0,0"/>
  <path id="Path_4589" data-name="Path 4589" d="M9.375,14.167a.625.625,0,0,1-.625-.625v-.417a1.043,1.043,0,0,0-1.042-1.042H4.792A1.043,1.043,0,0,0,3.75,13.125v.417a.625.625,0,0,1-1.25,0v-.417a2.294,2.294,0,0,1,2.292-2.292H7.708A2.294,2.294,0,0,1,10,13.125v.417A.625.625,0,0,1,9.375,14.167Zm0,0"/>
  <path id="Path_4590" data-name="Path 4590" d="M16.875,7.5H12.292a.625.625,0,0,1,0-1.25h4.583a.625.625,0,0,1,0,1.25Zm0,0"/>
  <path id="Path_4591" data-name="Path 4591" d="M16.875,10.833H12.292a.625.625,0,0,1,0-1.25h4.583a.625.625,0,1,1,0,1.25Zm0,0"/>
  <path id="Path_4592" data-name="Path 4592" d="M16.875,14.167H12.292a.625.625,0,0,1,0-1.25h4.583a.625.625,0,0,1,0,1.25Zm0,0"/>
</svg>
