<svg xmlns="http://www.w3.org/2000/svg" xmlns:xlink="http://www.w3.org/1999/xlink" width="20" height="20" viewBox="0 0 20 20">
  <defs>
    <clipPath id="clip-path">
      <rect id="Rectangle_348" data-name="Rectangle 348" width="20" height="20" transform="translate(841 652)" fill="#fff"/>
    </clipPath>
  </defs>
  <g id="client" transform="translate(-841 -652)" clip-path="url(#clip-path)">
    <g id="hand-shake" transform="translate(841 652)">
      <g id="Group_836" data-name="Group 836">
        <g id="Group_835" data-name="Group 835">
          <path id="Path_4533" data-name="Path 4533" d="M14.727,5.9H12.383a1.757,1.757,0,0,0-1.657,2.344H9.314A1.758,1.758,0,0,0,7.656,5.9H5.313A5.3,5.3,0,0,0,0,11.172v2.344a5.3,5.3,0,0,0,5.313,5.273h9.414A5.279,5.279,0,0,0,20,13.516V11.172A5.279,5.279,0,0,0,14.727,5.9Zm-3.555,9.375H7.656a.586.586,0,0,0,0,1.172H10a.586.586,0,0,1,0,1.172H5.313a4.126,4.126,0,0,1-4.141-4.1V11.172a4.126,4.126,0,0,1,4.141-4.1H7.656a.586.586,0,0,1,0,1.172H5.313a.586.586,0,0,0,0,1.172h5.859a.586.586,0,0,1,0,1.172H7.656a.586.586,0,0,0,0,1.172h3.516a.586.586,0,0,1,0,1.172H7.656a.586.586,0,0,0,0,1.172h3.516a.586.586,0,0,1,0,1.172Zm7.656-1.758a4.106,4.106,0,0,1-4.1,4.1h-3.07a1.753,1.753,0,0,0-.023-1.234,1.756,1.756,0,0,0,.847-2.868,1.754,1.754,0,0,0,0-2.344,1.754,1.754,0,0,0,.348-1.758h1.312V10a4.075,4.075,0,0,0,1.2,2.9.586.586,0,1,0,.829-.829A2.909,2.909,0,0,1,15.313,10V8.828a.586.586,0,0,0-.586-.586H12.383a.586.586,0,0,1,0-1.172h2.344a4.106,4.106,0,0,1,4.1,4.1Z" fill="#28a1d4" stroke="#28a1d4" stroke-width="0.039"/>
        </g>
      </g>
      <g id="Group_838" data-name="Group 838">
        <g id="Group_837" data-name="Group 837">
          <path id="Path_4534" data-name="Path 4534" d="M10,1.211a.586.586,0,0,0-.586.586V3.555a.586.586,0,0,0,1.172,0V1.8A.586.586,0,0,0,10,1.211Z" fill="#28a1d4" stroke="#28a1d4" stroke-width="0.039"/>
        </g>
      </g>
      <g id="Group_840" data-name="Group 840">
        <g id="Group_839" data-name="Group 839">
          <path id="Path_4535" data-name="Path 4535" d="M15.141,2.554a.586.586,0,0,0-.829,0L13.14,3.726a.586.586,0,0,0,.829.829l1.172-1.172A.586.586,0,0,0,15.141,2.554Z" fill="#28a1d4" stroke="#28a1d4" stroke-width="0.039"/>
        </g>
      </g>
      <g id="Group_842" data-name="Group 842">
        <g id="Group_841" data-name="Group 841">
          <path id="Path_4536" data-name="Path 4536" d="M6.9,3.726,5.727,2.554a.586.586,0,1,0-.829.829L6.07,4.555A.586.586,0,0,0,6.9,3.726Z" fill="#28a1d4" stroke="#28a1d4" stroke-width="0.039"/>
        </g>
      </g>
    </g>
  </g>
</svg>
