<svg xmlns="http://www.w3.org/2000/svg" width="20.3" height="12.8" viewBox="0 0 20.3 12.8">
  <g id="hand-shake" transform="translate(0.15 -95.854)">
    <g id="Group_1020" data-name="Group 1020" transform="translate(2.916 96.888)">
      <g id="Group_1019" data-name="Group 1019" transform="translate(0 0)">
        <path id="Path_4704" data-name="Path 4704" d="M87.518,126.344a13.438,13.438,0,0,0-3.153-3.052c-.757-.612-1.472-1.19-1.927-1.646a.417.417,0,0,0-.436-.1c-.281.1-.454.18-.591.241a1.378,1.378,0,0,1-.559.153.417.417,0,0,0-.305.182,1.274,1.274,0,0,1-1.607.669c-.13-.043-.153-.1-.166-.152a2.755,2.755,0,0,1,.921-1.787c1.354-1.355,2.053-1.694,3.527-1.035,1.673.748,3.35,1.334,3.367,1.34a.417.417,0,1,0,.274-.787c-.017-.006-1.66-.58-3.3-1.314-1.911-.854-2.959-.292-4.457,1.207a3.385,3.385,0,0,0-1.144,2.569,1.031,1.031,0,0,0,.716.751,2.085,2.085,0,0,0,2.448-.838,2.1,2.1,0,0,0,.626-.2c.078-.035.17-.076.292-.125.477.447,1.12.968,1.8,1.516a13.938,13.938,0,0,1,2.927,2.764.488.488,0,0,1-.124.626.459.459,0,0,1-.513.1.417.417,0,0,0-.651.387.5.5,0,0,1-.319.469.64.64,0,0,1-.649.015.417.417,0,0,0-.7.266.792.792,0,0,1-.492.638.439.439,0,0,1-.478-.074.422.422,0,0,0-.381-.1.416.416,0,0,0-.292.263c-.016.042-.052.142-.442.142a2.4,2.4,0,0,1-1.021-.349c-.293-.192-2.127-1.561-3.711-2.887-.222-.187-.607-.589-.947-.944-.3-.315-.577-.6-.719-.721a.417.417,0,1,0-.538.637c.129.109.379.373.655.661.372.388.756.79,1.014,1.007,1.552,1.3,3.417,2.7,3.788,2.946a3.2,3.2,0,0,0,1.479.485,1.434,1.434,0,0,0,.946-.278,1.3,1.3,0,0,0,.947-.01,1.641,1.641,0,0,0,.868-.8,1.611,1.611,0,0,0,1.046-.151,1.414,1.414,0,0,0,.7-.727,1.363,1.363,0,0,0,.956-.343A1.325,1.325,0,0,0,87.518,126.344Z" transform="translate(-74.642 -118.658)" stroke="#000" stroke-width="0.3"/>
      </g>
    </g>
    <g id="Group_1022" data-name="Group 1022" transform="translate(4.167 97.67)">
      <g id="Group_1021" data-name="Group 1021" transform="translate(0 0)">
        <path id="Path_4705" data-name="Path 4705" d="M110.833,138.663h-3.75a.417.417,0,1,0,0,.833h3.75a.417.417,0,0,0,0-.833Z" transform="translate(-106.666 -138.663)" stroke="#000" stroke-width="0.3"/>
      </g>
    </g>
    <g id="Group_1024" data-name="Group 1024" transform="translate(15.032 103.502)">
      <g id="Group_1023" data-name="Group 1023" transform="translate(0 0)">
        <path id="Path_4706" data-name="Path 4706" d="M386.792,288.162a.416.416,0,0,0-.578-.113l-1.218.818a.417.417,0,0,0,.233.763.413.413,0,0,0,.232-.071l1.218-.818A.417.417,0,0,0,386.792,288.162Z" transform="translate(-384.811 -287.977)" stroke="#000" stroke-width="0.3"/>
      </g>
    </g>
    <g id="Group_1026" data-name="Group 1026" transform="translate(11.251 103.086)">
      <g id="Group_1025" data-name="Group 1025" transform="translate(0 0)">
        <path id="Path_4707" data-name="Path 4707" d="M291.191,279.907c-.3-.235-1.633-1.6-2.458-2.461a.417.417,0,0,0-.6.577c.214.223,2.1,2.193,2.543,2.539a.415.415,0,0,0,.257.089.421.421,0,0,0,.328-.159A.416.416,0,0,0,291.191,279.907Z" transform="translate(-288.016 -277.317)" stroke="#000" stroke-width="0.3"/>
      </g>
    </g>
    <g id="Group_1028" data-name="Group 1028" transform="translate(10 104.337)">
      <g id="Group_1027" data-name="Group 1027" transform="translate(0 0)">
        <path id="Path_4708" data-name="Path 4708" d="M258.766,311.512c-.5-.4-1.753-1.732-2.037-2.04a.417.417,0,1,0-.614.564c.015.016,1.512,1.632,2.13,2.127a.417.417,0,0,0,.521-.651Z" transform="translate(-256.005 -309.337)" stroke="#000" stroke-width="0.3"/>
      </g>
    </g>
    <g id="Group_1030" data-name="Group 1030" transform="translate(8.334 105.169)">
      <g id="Group_1029" data-name="Group 1029" transform="translate(0 0)">
        <path id="Path_4709" data-name="Path 4709" d="M216.112,332.825c-.594-.5-1.81-1.8-2.048-2.049a.417.417,0,0,0-.609.569c.342.366,1.505,1.6,2.119,2.118a.417.417,0,0,0,.537-.638Z" transform="translate(-213.343 -330.644)" stroke="#000" stroke-width="0.3"/>
      </g>
    </g>
    <g id="Group_1032" data-name="Group 1032" transform="translate(0 96.003)">
      <g id="Group_1031" data-name="Group 1031" transform="translate(0 0)">
        <path id="Path_4710" data-name="Path 4710" d="M4.87,96.951c-.714-.677-3.57-.9-4.428-.947A.416.416,0,0,0,0,96.42v7.5a.417.417,0,0,0,.417.417h2.5a.416.416,0,0,0,.4-.288A43.686,43.686,0,0,0,5,97.289.414.414,0,0,0,4.87,96.951ZM2.613,103.5H.833V96.867a12.659,12.659,0,0,1,3.309.591A43.722,43.722,0,0,1,2.613,103.5Z" transform="translate(0 -96.003)" stroke="#000" stroke-width="0.3"/>
      </g>
    </g>
    <g id="Group_1034" data-name="Group 1034" transform="translate(14.182 96.837)">
      <g id="Group_1033" data-name="Group 1033" transform="translate(0 0)">
        <path id="Path_4711" data-name="Path 4711" d="M368.448,117.33a13,13,0,0,0-5.162.872.415.415,0,0,0-.223.259.42.42,0,0,0,.046.338,55.4,55.4,0,0,1,2.438,6.558.417.417,0,0,0,.4.306h2.5a.417.417,0,0,0,.417-.417v-7.5A.416.416,0,0,0,368.448,117.33Zm-.417,7.5H366.26c-.4-1.287-1.562-4.642-2.213-6.028a13.571,13.571,0,0,1,3.984-.633Z" transform="translate(-363.046 -117.33)" stroke="#000" stroke-width="0.3"/>
      </g>
    </g>
  </g>
</svg>
