<svg xmlns="http://www.w3.org/2000/svg" xmlns:xlink="http://www.w3.org/1999/xlink" width="20" height="20" viewBox="0 0 20 20">
  <defs>
    <clipPath id="clip-path">
      <rect id="Rectangle_351" data-name="Rectangle 351" width="20" height="20" transform="translate(521 560)" fill="#2cabe0" stroke="#2cabe0" stroke-width="5"/>
    </clipPath>
  </defs>
  <g id="dash" transform="translate(-521 -560)" clip-path="url(#clip-path)">
    <g id="dashboard" transform="translate(521.922 560.922)">
      <path id="Path_4548" data-name="Path 4548" d="M7,6.052H1.324A1.325,1.325,0,0,1,0,4.728v-3.4A1.325,1.325,0,0,1,1.324,0H7A1.325,1.325,0,0,1,8.322,1.324v3.4A1.325,1.325,0,0,1,7,6.052ZM1.324,1.135a.189.189,0,0,0-.189.189v3.4a.189.189,0,0,0,.189.189H7a.189.189,0,0,0,.189-.189v-3.4A.189.189,0,0,0,7,1.135Zm0,0" fill="#2cabe0" stroke="#2cabe0" stroke-width="0.5"/>
      <path id="Path_4549" data-name="Path 4549" d="M7,18.924H1.324A1.325,1.325,0,0,1,0,17.6V9.657A1.325,1.325,0,0,1,1.324,8.333H7A1.325,1.325,0,0,1,8.322,9.657V17.6A1.325,1.325,0,0,1,7,18.924ZM1.324,9.468a.189.189,0,0,0-.189.189V17.6a.189.189,0,0,0,.189.189H7a.189.189,0,0,0,.189-.189V9.657A.189.189,0,0,0,7,9.468Zm0,0" transform="translate(0 -0.768)" fill="#2cabe0" stroke="#2cabe0" stroke-width="0.5"/>
      <path id="Path_4550" data-name="Path 4550" d="M17.831,19.385H12.157a1.325,1.325,0,0,1-1.324-1.324v-3.4a1.325,1.325,0,0,1,1.324-1.324h5.674a1.325,1.325,0,0,1,1.324,1.324v3.4A1.325,1.325,0,0,1,17.831,19.385Zm-5.674-4.917a.189.189,0,0,0-.189.189v3.4a.189.189,0,0,0,.189.189h5.674a.189.189,0,0,0,.189-.189v-3.4a.189.189,0,0,0-.189-.189Zm0,0" transform="translate(-0.999 -1.229)" fill="#2cabe0" stroke="#2cabe0" stroke-width="0.5"/>
      <path id="Path_4551" data-name="Path 4551" d="M17.831,10.591H12.157a1.325,1.325,0,0,1-1.324-1.324V1.324A1.325,1.325,0,0,1,12.157,0h5.674a1.325,1.325,0,0,1,1.324,1.324V9.267A1.325,1.325,0,0,1,17.831,10.591ZM12.157,1.135a.189.189,0,0,0-.189.189V9.267a.189.189,0,0,0,.189.189h5.674a.189.189,0,0,0,.189-.189V1.324a.189.189,0,0,0-.189-.189Zm0,0" transform="translate(-0.999)" fill="#2cabe0" stroke="#2cabe0" stroke-width="0.5"/>
    </g>
  </g>
</svg>
