<svg xmlns="http://www.w3.org/2000/svg" width="19.297" height="20" viewBox="0 0 19.297 20">
  <g id="pdf" transform="translate(-0.352)">
    <path id="Path_4594" data-name="Path 4594" d="M4.99,8.164H3.75a.586.586,0,0,0-.586.588L3.173,13.2a.586.586,0,1,0,1.172,0V11.851l.645,0a1.843,1.843,0,1,0,0-3.685Zm0,2.513-.649,0c0-.249,0-.518,0-.673,0-.133,0-.41,0-.671H4.99a.671.671,0,1,1,0,1.341Z"/>
    <path id="Path_4595" data-name="Path 4595" d="M9.974,8.164H8.75a.586.586,0,0,0-.586.587s.009,4.306.009,4.322a.586.586,0,0,0,.586.584h0c.037,0,.91,0,1.259-.01A2.484,2.484,0,0,0,12.3,10.911c0-1.643-.937-2.746-2.331-2.746ZM10,12.476c-.152,0-.413,0-.657.006,0-.509,0-2.617-.006-3.146h.637c1.076,0,1.159,1.205,1.159,1.575,0,.769-.35,1.552-1.133,1.565Z"/>
    <path id="Path_4596" data-name="Path 4596" d="M16.167,9.291a.586.586,0,0,0,0-1.172H14.375a.586.586,0,0,0-.586.586v4.42a.586.586,0,0,0,1.172,0V11.459h1.063a.586.586,0,0,0,0-1.172H14.961v-1Z"/>
    <path id="Path_4597" data-name="Path 4597" d="M17.891,5.664h-.43V5.5a2.918,2.918,0,0,0-.8-2.016L14.224.914A2.942,2.942,0,0,0,12.1,0H4.3A1.76,1.76,0,0,0,2.539,1.758V5.664h-.43A1.76,1.76,0,0,0,.352,7.422v7.031a1.76,1.76,0,0,0,1.758,1.758h.43v2.031A1.76,1.76,0,0,0,4.3,20H15.7a1.76,1.76,0,0,0,1.758-1.758V16.211h.43a1.76,1.76,0,0,0,1.758-1.758V7.422A1.76,1.76,0,0,0,17.891,5.664ZM3.711,1.758A.587.587,0,0,1,4.3,1.172h7.8a1.765,1.765,0,0,1,1.276.548l2.434,2.567A1.751,1.751,0,0,1,16.289,5.5v.167H3.711ZM16.289,18.242a.587.587,0,0,1-.586.586H4.3a.587.587,0,0,1-.586-.586V16.211H16.289Zm2.188-3.789a.587.587,0,0,1-.586.586H2.109a.587.587,0,0,1-.586-.586V7.422a.587.587,0,0,1,.586-.586H17.891a.587.587,0,0,1,.586.586Z"/>
  </g>
</svg>
