<svg id="portfolio_1_" data-name="portfolio (1)" xmlns="http://www.w3.org/2000/svg" width="20" height="20" viewBox="0 0 20 20">
  <g id="Group_870" data-name="Group 870">
    <path id="Path_4613" data-name="Path 4613" d="M19.219,16.094a.781.781,0,0,0-.781.781,1.564,1.564,0,0,1-1.562,1.563H3.125a1.564,1.564,0,0,1-1.562-1.562V9.829l.042.033.051.035,3.032,1.934v1.02a.781.781,0,0,0,1.563,0v-1.14l.6-.338.008,0a6.388,6.388,0,0,1,6.327-.037l.567.333v1.186a.781.781,0,0,0,1.563,0v-1.02L18.344,9.9l.051-.035.042-.033v3.1a.781.781,0,1,0,1.563,0V6.25a3.128,3.128,0,0,0-3.125-3.125H13.513V2.344A2.346,2.346,0,0,0,11.169,0H8.831A2.346,2.346,0,0,0,6.487,2.344v.781H3.125A3.129,3.129,0,0,0,0,6.25V16.875A3.129,3.129,0,0,0,3.125,20h13.75A3.129,3.129,0,0,0,20,16.875.781.781,0,0,0,19.219,16.094ZM8.05,2.344a.782.782,0,0,1,.781-.781h2.338a.782.782,0,0,1,.781.781v.781H8.05ZM1.563,6.25A1.564,1.564,0,0,1,3.125,4.688h13.75A1.564,1.564,0,0,1,18.438,6.25v.9c0,.382,0,.713-.96,1.443l-2.812,1.794-.7-.409-.011-.006a7.94,7.94,0,0,0-3.906-1.029h-.043a7.94,7.94,0,0,0-3.934,1.069l-.7.4L2.523,8.6c-.96-.731-.96-1.061-.96-1.443Z"/>
  </g>
</svg>
