<svg xmlns="http://www.w3.org/2000/svg" width="18" height="20" viewBox="0 0 18 20">
  <g id="Group_883" data-name="Group 883" transform="translate(-792.5 -383.5)">
    <path id="Path_4628" data-name="Path 4628" d="M9.167,15.833a5,5,0,1,1,5-5A5.007,5.007,0,0,1,9.167,15.833Zm0-7a2,2,0,1,0,2,2A2,2,0,0,0,9.167,8.833Zm0,0" transform="translate(792.333 377.667)" fill="#a5b5ba"/>
    <path id="Path_4629" data-name="Path 4629" d="M19,18.833a1.5,1.5,0,0,1-1.5-1.5v-1a2.5,2.5,0,0,0-2.5-2.5H8a2.5,2.5,0,0,0-2.5,2.5v1a1.5,1.5,0,0,1-3,0v-1a5.5,5.5,0,0,1,5.5-5.5h7a5.5,5.5,0,0,1,5.5,5.5v1A1.5,1.5,0,0,1,19,18.833Zm0,0" transform="translate(790 384.666)" fill="#a5b5ba"/>
  </g>
</svg>
