<svg xmlns="http://www.w3.org/2000/svg" xmlns:xlink="http://www.w3.org/1999/xlink" width="20" height="20" viewBox="0 0 20 20">
  <defs>
    <clipPath id="clip-path">
      <rect id="Rectangle_346" data-name="Rectangle 346" width="20" height="20" transform="translate(841 578)" fill="#2cabe0"/>
    </clipPath>
  </defs>
  <g id="home" transform="translate(-841 -578)" clip-path="url(#clip-path)">
    <path id="home-run" d="M17.9,7.991h0L10.4.5A1.691,1.691,0,0,0,8.009.5L.518,7.986l-.008.008a1.691,1.691,0,0,0,1.125,2.882l.052,0h.3v5.515a1.982,1.982,0,0,0,1.98,1.979H6.9a.538.538,0,0,0,.538-.538V13.51a.9.9,0,0,1,.9-.9h1.729a.9.9,0,0,1,.9.9v4.324a.538.538,0,0,0,.538.538h2.932a1.982,1.982,0,0,0,1.98-1.979V10.878H16.7a1.692,1.692,0,0,0,1.2-2.887Zm-.762,1.63a.611.611,0,0,1-.435.18h-.815a.538.538,0,0,0-.538.538v6.053a.9.9,0,0,1-.9.9H12.049V13.51a1.982,1.982,0,0,0-1.98-1.98H8.34a1.982,1.982,0,0,0-1.98,1.98V17.3H3.966a.9.9,0,0,1-.9-.9V10.339A.538.538,0,0,0,2.525,9.8H1.7a.614.614,0,0,1-.423-1.049h0L8.77,1.257a.615.615,0,0,1,.869,0l7.492,7.492,0,0a.616.616,0,0,1,0,.869Zm0,0" transform="translate(841.795 578.814)" fill="#2cabe0" stroke="#2cabe0" stroke-width="0.5"/>
  </g>
</svg>
