<svg xmlns="http://www.w3.org/2000/svg" width="20" height="19.98" viewBox="0 0 20 19.98">
  <g id="cake" transform="translate(0 -0.01)">
    <g id="Group_863" data-name="Group 863">
      <path id="Path_4593" data-name="Path 4593" d="M19.219,18.428h-.781v-1.8a.781.781,0,0,0-1.562,0v1.8H3.125V17.139H14.1a.781.781,0,0,0,0-1.562H3.125V14.453A3.476,3.476,0,0,0,4.956,13.4a.565.565,0,0,1,.466-.2h0A.584.584,0,0,1,5.9,13.4a2.385,2.385,0,0,0,1.8,1h.029A2.419,2.419,0,0,0,9.539,13.4a.567.567,0,0,1,.481-.2.588.588,0,0,1,.462.209,2.385,2.385,0,0,0,1.8,1h.029A2.419,2.419,0,0,0,14.121,13.4a.578.578,0,0,1,.46-.2h.012a.579.579,0,0,1,.471.209,2.9,2.9,0,0,0,2.006,1.009h.04a2.5,2.5,0,0,0,2.538-2.331,4.141,4.141,0,0,0-1.3-3.036,4.442,4.442,0,0,0-3.074-1.2H10.781V6.047a2.347,2.347,0,0,0,1.563-2.209,4.6,4.6,0,0,0-.892-2.248c-.4-.674-.8-1.23-.817-1.254a.781.781,0,0,0-1.271,0c-.017.023-.414.58-.817,1.254a4.6,4.6,0,0,0-.892,2.248A2.348,2.348,0,0,0,9.219,6.047V7.842H4.727A4.242,4.242,0,0,0,.391,12.08a2.243,2.243,0,0,0,1.172,2.083v4.265H.781a.781.781,0,0,0,0,1.563H19.219a.781.781,0,0,0,0-1.562ZM9.893,2.385,10,2.209l.1.167a4.105,4.105,0,0,1,.68,1.462.781.781,0,0,1-1.562,0A4.061,4.061,0,0,1,9.893,2.385ZM2.784,12.92a1.262,1.262,0,0,1-.455-.119.687.687,0,0,1-.376-.721A2.666,2.666,0,0,1,4.727,9.4H15.273a2.717,2.717,0,0,1,2.813,2.676.6.6,0,0,1-.331.547,1.492,1.492,0,0,1-.662.222H17.07a1.41,1.41,0,0,1-.811-.453,2.2,2.2,0,0,0-3.33-.01c-.285.336-.509.456-.624.456h-.029c-.1,0-.323-.117-.6-.446a2.152,2.152,0,0,0-1.619-.765,2.13,2.13,0,0,0-1.712.755c-.285.336-.509.456-.624.456H7.694c-.1,0-.323-.117-.6-.446a2.146,2.146,0,0,0-1.662-.765H5.422a2.135,2.135,0,0,0-1.658.755,1.891,1.891,0,0,1-.952.534Z"/>
    </g>
  </g>
</svg>
