<svg xmlns="http://www.w3.org/2000/svg" width="21.382" height="21.37" viewBox="0 0 21.382 21.37">
  <path id="pen_1_" data-name="pen (1)" d="M17.856.783a2.778,2.778,0,0,0-3.925,0l-.983.988L2.488,12.225l-.022.022c-.005.005-.005.011-.011.011-.011.017-.028.033-.039.05s-.006.006-.006.011-.016.028-.028.044-.005.011-.011.017-.011.028-.017.044-.005.005-.005.011L.028,19.415a.546.546,0,0,0,.133.566.559.559,0,0,0,.394.161.655.655,0,0,0,.178-.028l6.973-2.326c.005,0,.005,0,.011-.005a.2.2,0,0,0,.05-.022.02.02,0,0,0,.011-.005c.016-.011.039-.022.055-.034s.033-.028.05-.039.011-.006.011-.011.017-.011.022-.022L19.36,6.207a2.778,2.778,0,0,0,0-3.925ZM7.529,16.483,3.665,12.619l9.671-9.671L17.2,6.812ZM3.121,13.647,6.5,17.022,1.427,18.71ZM18.578,5.43l-.589.594L14.125,2.159l.594-.594a1.665,1.665,0,0,1,2.354,0l1.51,1.51a1.671,1.671,0,0,1-.005,2.354Zm0,0" transform="translate(0.512 0.727)" fill="#a5b5bb" stroke="#a5b5bb" stroke-width="1"/>
</svg>
