<svg xmlns="http://www.w3.org/2000/svg" xmlns:xlink="http://www.w3.org/1999/xlink" width="20" height="20" viewBox="0 0 20 20">
  <defs>
    <clipPath id="clip-path">
      <rect id="Rectangle_959" data-name="Rectangle 959" width="20" height="20" transform="translate(521 523)" fill="#fff"/>
    </clipPath>
    <clipPath id="clip-path-2">
      <rect id="Rectangle_958" data-name="Rectangle 958" width="20" height="20" transform="translate(31 18)" fill="#fff" stroke="#707070" stroke-width="1"/>
    </clipPath>
  </defs>
  <g id="controledeacesso2" transform="translate(-521 -523)" clip-path="url(#clip-path)">
    <g id="Mask_Group_24" data-name="Mask Group 24" transform="translate(490 505)" clip-path="url(#clip-path-2)">
      <g id="adjust_1_" data-name="adjust (1)" transform="translate(31 18)">
        <g id="Group_852" data-name="Group 852">
          <g id="Group_851" data-name="Group 851">
            <path id="Path_4545" data-name="Path 4545" d="M3.333,6.667a3.335,3.335,0,0,0,3.228-2.5H19.167a.833.833,0,0,0,0-1.667H6.562A3.334,3.334,0,1,0,3.333,6.667Zm0-5A1.667,1.667,0,1,1,1.667,3.333,1.667,1.667,0,0,1,3.333,1.667Z" fill="#fff"/>
            <path id="Path_4546" data-name="Path 4546" d="M16.667,18.667a3.335,3.335,0,0,0-3.228,2.5H.833a.833.833,0,0,0,0,1.667h12.6a3.334,3.334,0,1,0,3.228-4.167Zm0,5A1.667,1.667,0,1,1,18.333,22,1.667,1.667,0,0,1,16.667,23.667Z" transform="translate(0 -5.333)" fill="#fff"/>
            <path id="Path_4547" data-name="Path 4547" d="M19.167,11.833H13.228a3.334,3.334,0,0,0-6.457,0H.833a.833.833,0,1,0,0,1.667H6.772a3.334,3.334,0,0,0,6.457,0h5.938a.833.833,0,0,0,0-1.667ZM10,14.333a1.667,1.667,0,1,1,1.667-1.667A1.667,1.667,0,0,1,10,14.333Z" transform="translate(0 -2.667)" fill="#fff"/>
          </g>
        </g>
      </g>
    </g>
  </g>
</svg>
