<svg xmlns="http://www.w3.org/2000/svg" width="16.179" height="19.849" viewBox="0 0 16.179 19.849">
  <g id="Group_881" data-name="Group 881" transform="translate(-721.25 -459.25)">
    <g id="Icon_feather-file-plus" data-name="Icon feather-file-plus" transform="translate(716 457)">
      <path id="Path_4621" data-name="Path 4621" d="M15.174,3H7.835A1.835,1.835,0,0,0,6,4.835V19.514a1.835,1.835,0,0,0,1.835,1.835H18.844a1.835,1.835,0,0,0,1.835-1.835V8.5Z" fill="none" stroke="#000" stroke-linecap="round" stroke-linejoin="round" stroke-width="1.5"/>
      <path id="Path_4622" data-name="Path 4622" d="M21,3V8.5h5.5" transform="translate(-5.826)" fill="none" stroke="#000" stroke-linecap="round" stroke-linejoin="round" stroke-width="1.5"/>
    </g>
    <path id="Path_4623" data-name="Path 4623" d="M6.25,10A2.083,2.083,0,1,1,8.333,7.917,2.086,2.086,0,0,1,6.25,10Zm0-2.917a.833.833,0,1,0,.833.833A.835.835,0,0,0,6.25,7.083Zm0,0" transform="translate(723 461.667)"/>
    <path id="Path_4624" data-name="Path 4624" d="M9.375,14.167a.625.625,0,0,1-.625-.625v-.417a1.043,1.043,0,0,0-1.042-1.042H4.792A1.043,1.043,0,0,0,3.75,13.125v.417a.625.625,0,0,1-1.25,0v-.417a2.294,2.294,0,0,1,2.292-2.292H7.708A2.294,2.294,0,0,1,10,13.125v.417A.625.625,0,0,1,9.375,14.167Zm0,0" transform="translate(723 461.667)"/>
  </g>
</svg>
