<svg xmlns="http://www.w3.org/2000/svg" width="20.75" height="23.714" viewBox="0 0 20.75 23.714">
  <path id="Icon_awesome-trash" data-name="Icon awesome-trash" d="M20.009,1.482H14.451L14.015.616a1.112,1.112,0,0,0-1-.616H7.726a1.1,1.1,0,0,0-.991.616L6.3,1.482H.741A.741.741,0,0,0,0,2.223V3.705a.741.741,0,0,0,.741.741H20.009a.741.741,0,0,0,.741-.741V2.223A.741.741,0,0,0,20.009,1.482ZM2.464,21.63a2.223,2.223,0,0,0,2.219,2.084H16.067a2.223,2.223,0,0,0,2.219-2.084l.982-15.7H1.482Z" fill="#e61b41"/>
</svg>
