<svg xmlns="http://www.w3.org/2000/svg" width="284.343" height="61.875" viewBox="0 0 284.343 61.875"><defs><style>.a{fill:#201e1e;}.b{fill:#2cabe0;fill-rule:evenodd;}.c{fill:#2aabe0;}</style></defs><path class="a" d="M195.455,313.206h5.31v10.322s-.205,1.738,1.738,1.533l48.025.016s1.738.392,1.635-1.346V300.74h5.206v27.794a1.523,1.523,0,0,1-1.736,1.738H197.387a1.588,1.588,0,0,1-1.941-1.741Z" transform="translate(-176.374 -268.419)"/><path class="a" d="M257.4,139.944h-5.31v-8.95s.205-1.736-1.736-1.533l-48.027-.016s-1.738-.392-1.635,1.346l-.073,21.5h-5.147v-26.3a1.526,1.526,0,0,1,1.738-1.738h58.244a1.588,1.588,0,0,1,1.941,1.741Z" transform="translate(-176.391 -124.227)"/><path class="a" d="M702.452,197.058H691.31V158.016q7.12-.342,10.263-.346,5.784,0,8.956,2.492a8.532,8.532,0,0,1,3.172,7.128,7.22,7.22,0,0,1-2.025,4.957,8.649,8.649,0,0,1-4.479,2.8q4.638,1.117,6.757,3.7a10.787,10.787,0,0,1,2.12,7.035,10.035,10.035,0,0,1-3.772,8.209A15.119,15.119,0,0,1,702.452,197.058Zm-5.81-34.777V173.5q1.679.161,4.158.161,7.57,0,7.569-6.156,0-5.411-6.958-5.411Q698.748,162.094,696.642,162.281Zm0,15.352v14.9q2.747.266,4.212.266,5.01,0,7.324-1.879t2.3-5.984q0-3.811-2.2-5.621t-7.35-1.805Z" transform="translate(-581.442 -151.546)"/><path class="a" d="M831.72,185.17V153h5.065v31.311a4.875,4.875,0,0,0,1.318,3.611,4.677,4.677,0,0,0,3.452,1.318v4.53Q831.72,193.776,831.72,185.17Z" transform="translate(-696.142 -147.732)"/><path class="a" d="M894.995,216.91v18.2q0,6.61,5.731,6.61a7.887,7.887,0,0,0,4.578-1.439,6.907,6.907,0,0,0,2.746-3.331V216.91h5.065v28.541h-5.059v-3.944a7.877,7.877,0,0,1-3.424,3.078,10.5,10.5,0,0,1-5.026,1.4q-4.691,0-7.183-2.69t-2.492-7.648V216.91Z" transform="translate(-743.694 -199.939)"/><path class="a" d="M1045.418,229.3h-20.574q0,5.013,2.747,7.7a8.6,8.6,0,0,0,6.237,2.346,10.64,10.64,0,0,0,7.251-2.532l2.132,3.651a9.507,9.507,0,0,1-3.6,2.025,19.43,19.43,0,0,1-6.775,1.119,12.635,12.635,0,0,1-9.143-3.651q-4.186-4.028-4.184-10.818,0-7.062,4.29-11.327a12.486,12.486,0,0,1,9.091-3.81q6.1,0,9.567,3.437a11.718,11.718,0,0,1,3.36,8.769A11.325,11.325,0,0,1,1045.418,229.3Zm-12.29-11.034a8,8,0,0,0-8.156,7.357h15.806a7.2,7.2,0,0,0-1.919-5.118,7.485,7.485,0,0,0-5.728-2.239Z" transform="translate(-849.547 -197.562)"/><path class="a" d="M1155.346,193.854l1.948-4.905a13.254,13.254,0,0,0,3.717,1.831,12.905,12.905,0,0,0,3.984.732,7.213,7.213,0,0,0,5.011-1.707,5.566,5.566,0,0,0,1.894-4.343,6.823,6.823,0,0,0-1.053-3.662q-1.054-1.69-5.292-3.69l-3.146-1.465a12.567,12.567,0,0,1-5.585-4.424,11.44,11.44,0,0,1-1.585-6.156,9.48,9.48,0,0,1,3.093-7.247,11.2,11.2,0,0,1,7.943-2.878q6.476,0,9.009,2.1l-1.573,4.638a12.242,12.242,0,0,0-3.25-1.492,13.023,13.023,0,0,0-4.052-.72,5.813,5.813,0,0,0-4.279,1.545,5.339,5.339,0,0,0-1.558,3.97,6.457,6.457,0,0,0,.56,2.719,5.663,5.663,0,0,0,1.558,2.053,23.129,23.129,0,0,0,4.092,2.318l3.2,1.52a10.923,10.923,0,0,1,7.223,11.193,9.528,9.528,0,0,1-3.532,7.462q-3.532,3.067-9.45,3.063A15.627,15.627,0,0,1,1155.346,193.854Z" transform="translate(-960.424 -150.133)"/><path class="a" d="M1295.939,193.243V175.308a7.489,7.489,0,0,0-1.575-5.035,5.515,5.515,0,0,0-4.424-1.84,7.276,7.276,0,0,0-3.692,1.08,8.624,8.624,0,0,0-2.836,2.518v21.213h-5.063V153h5.063v14.843a7.553,7.553,0,0,1,3.266-2.624,10.846,10.846,0,0,1,4.651-1.053,8.883,8.883,0,0,1,7.1,2.985q2.573,2.985,2.564,8.154V193.24Z" transform="translate(-1060.992 -147.732)"/><path class="a" d="M1408.818,197.3V173.023H1404.9v-4.265h8.991V197.3Zm2.772-39.328a3.038,3.038,0,0,1,2.227.916,3,3,0,0,1,.915,2.2,3.19,3.19,0,1,1-3.146-3.118Z" transform="translate(-1164.369 -151.787)"/><path class="a" d="M1474.921,157.566a8.881,8.881,0,0,0-2.88-.533,4.819,4.819,0,0,0-3.825,1.758,6.61,6.61,0,0,0-1.505,4.451,8.689,8.689,0,0,0,.134,1.492h5.81V169h-5.8v24.276h-5.065V169h-4.158v-4.265h4.158q0-5.462,2.692-8.582a8.916,8.916,0,0,1,7.117-3.113,15.8,15.8,0,0,1,4.744.8Z" transform="translate(-1207.444 -147.764)"/><path class="a" d="M1547.736,185.593h-3.306v-4h3.306v-5.969l5.063-1.946V181.6h7.837v4H1552.8v14.178q0,3.6,1.212,5.116a4.709,4.709,0,0,0,3.906,1.52,9.37,9.37,0,0,0,4.028-.985l.747,4.45a28.016,28.016,0,0,1-6.9.8,7.491,7.491,0,0,1-5.718-2.518,9,9,0,0,1-2.331-6.356Z" transform="translate(-1278.35 -164.625)"/><path class="b" d="M92.5,244.9c12.817,4.554,25.518,3.129,38.211-.613,8.934-2.626,17.677-5.922,26.853-7.718a50.234,50.234,0,0,1,36.33,6.284l1.307.807-2.157-.324c-15.079-2.957-29.48.328-43.8,4.655-8.057,2.439-16.082,5.089-24.436,6.466-12.3,2.027-23.438-.057-32.721-8.972l-.793-.981Z" transform="translate(-91.29 -215.152)"/><path class="c" d="M947.54,405.974a.582.582,0,0,1,.038.161.113.113,0,0,1-.035.092.207.207,0,0,1-.119.04c-.055,0-.13.009-.224.009h-.223a.463.463,0,0,1-.126-.022.135.135,0,0,1-.062-.042.475.475,0,0,1-.038-.068l-.5-1.423h-2.424l-.478,1.4a.229.229,0,0,1-.037.07.158.158,0,0,1-.066.049.34.34,0,0,1-.121.029,2.018,2.018,0,0,1-.205.009,1.673,1.673,0,0,1-.214-.011.223.223,0,0,1-.117-.042.12.12,0,0,1-.031-.093.581.581,0,0,1,.039-.159l1.955-5.418a.255.255,0,0,1,.048-.081.2.2,0,0,1,.086-.049.755.755,0,0,1,.143-.026h.463a.848.848,0,0,1,.152.026.2.2,0,0,1,.09.051.261.261,0,0,1,.051.084Zm-2.51-4.781h0l-1,2.906h2.027Z" transform="translate(-786.684 -349.831)"/><path class="c" d="M990.332,404.687a1.706,1.706,0,0,1-.07.507,1.444,1.444,0,0,1-.5.732,1.735,1.735,0,0,1-.4.234,2.3,2.3,0,0,1-.478.141,3.107,3.107,0,0,1-.584.048h-1.523a.316.316,0,0,1-.192-.053.292.292,0,0,1-.092-.245v-5.2a.292.292,0,0,1,.092-.245.318.318,0,0,1,.2-.07h1.326a3.094,3.094,0,0,1,.857.1,1.528,1.528,0,0,1,.549.287,1.193,1.193,0,0,1,.335.465,1.619,1.619,0,0,1,.112.621,1.563,1.563,0,0,1-.049.4,1.264,1.264,0,0,1-.146.35,1.2,1.2,0,0,1-.242.286,1.285,1.285,0,0,1-.337.207,1.467,1.467,0,0,1,.447.165,1.366,1.366,0,0,1,.608.732A1.58,1.58,0,0,1,990.332,404.687Zm-1.166-2.6a1.191,1.191,0,0,0-.059-.383.716.716,0,0,0-.183-.291.832.832,0,0,0-.328-.183,1.841,1.841,0,0,0-.535-.064h-.8v1.888h.88a1.237,1.237,0,0,0,.485-.079.857.857,0,0,0,.306-.211.816.816,0,0,0,.183-.311A1.189,1.189,0,0,0,989.166,402.085Zm.351,2.655a1.159,1.159,0,0,0-.084-.46.869.869,0,0,0-.242-.333,1.04,1.04,0,0,0-.4-.205,2.178,2.178,0,0,0-.6-.07h-.927v2.055h1.124a1.533,1.533,0,0,0,.463-.064,1.044,1.044,0,0,0,.348-.183.852.852,0,0,0,.236-.308,1.019,1.019,0,0,0,.083-.439Z" transform="translate(-822.573 -349.941)"/><path class="c" d="M1014.7,406.09a.111.111,0,0,1-.019.064.118.118,0,0,1-.062.042.636.636,0,0,1-.121.027,1.3,1.3,0,0,1-.183.011,1.37,1.37,0,0,1-.183-.011.638.638,0,0,1-.121-.027.117.117,0,0,1-.062-.042.112.112,0,0,1-.018-.064v-5.6a.1.1,0,0,1,.02-.064.127.127,0,0,1,.068-.042.683.683,0,0,1,.121-.027,1.241,1.241,0,0,1,.183-.011,1.332,1.332,0,0,1,.183.011.647.647,0,0,1,.121.027.119.119,0,0,1,.062.042.105.105,0,0,1,.018.064Z" transform="translate(-844.988 -349.789)"/><path class="c" d="M1029.337,400.989a1.232,1.232,0,0,1,0,.15.382.382,0,0,1-.027.108.125.125,0,0,1-.044.062.111.111,0,0,1-.059.016.4.4,0,0,1-.183-.084,2.68,2.68,0,0,0-.337-.183,3.136,3.136,0,0,0-.507-.183,2.553,2.553,0,0,0-.7-.086,2.057,2.057,0,0,0-.866.183,1.88,1.88,0,0,0-.648.487,2.176,2.176,0,0,0-.408.733,2.961,2.961,0,0,0-.141.928,2.916,2.916,0,0,0,.156.991,2.127,2.127,0,0,0,.43.732,1.8,1.8,0,0,0,.656.451,2.215,2.215,0,0,0,.835.152,2.368,2.368,0,0,0,.549-.064,2.122,2.122,0,0,0,.515-.2v-1.7H1027.2a.124.124,0,0,1-.115-.077.555.555,0,0,1-.038-.238.947.947,0,0,1,0-.147.3.3,0,0,1,.029-.1.156.156,0,0,1,.047-.055.113.113,0,0,1,.068-.018h1.852a.272.272,0,0,1,.1.018.262.262,0,0,1,.09.053.222.222,0,0,1,.062.1.4.4,0,0,1,.024.145v2.223a.459.459,0,0,1-.042.2.344.344,0,0,1-.17.152,3.436,3.436,0,0,1-.339.141,4,4,0,0,1-.427.132,4.143,4.143,0,0,1-.447.081,3.668,3.668,0,0,1-.447.027,3.239,3.239,0,0,1-1.207-.211,2.441,2.441,0,0,1-.9-.6,2.617,2.617,0,0,1-.562-.928,3.585,3.585,0,0,1-.194-1.209,3.542,3.542,0,0,1,.211-1.256,2.739,2.739,0,0,1,.59-.959,2.6,2.6,0,0,1,.916-.615,3.078,3.078,0,0,1,1.183-.22,3.248,3.248,0,0,1,.626.059,4.4,4.4,0,0,1,.52.137,2.071,2.071,0,0,1,.383.172,1.127,1.127,0,0,1,.214.15.329.329,0,0,1,.082.135A.833.833,0,0,1,1029.337,400.989Z" transform="translate(-853.695 -349.609)"/><path class="c" d="M1074.282,403.332a4.069,4.069,0,0,1-.194,1.324,2.358,2.358,0,0,1-.566.936,2.308,2.308,0,0,1-.915.549,3.974,3.974,0,0,1-1.282.183h-1.234a.31.31,0,0,1-.2-.07.286.286,0,0,1-.094-.245v-5.2a.286.286,0,0,1,.094-.245.309.309,0,0,1,.2-.07h1.32a3.647,3.647,0,0,1,1.282.2,2.324,2.324,0,0,1,.875.562,2.4,2.4,0,0,1,.536.89A3.55,3.55,0,0,1,1074.282,403.332Zm-.815.031a3.244,3.244,0,0,0-.117-.881,1.908,1.908,0,0,0-.366-.7,1.677,1.677,0,0,0-.633-.463,2.481,2.481,0,0,0-.987-.167h-.795v4.528h.8a2.793,2.793,0,0,0,.941-.139,1.56,1.56,0,0,0,.641-.429,1.868,1.868,0,0,0,.385-.723,3.658,3.658,0,0,0,.134-1.031Z" transform="translate(-890.628 -349.907)"/><path class="c" d="M1101.68,405.99a.6.6,0,0,1,.038.161.109.109,0,0,1-.033.092.206.206,0,0,1-.119.04c-.057,0-.13.009-.223.009h-.224a.463.463,0,0,1-.126-.022.122.122,0,0,1-.062-.042.26.26,0,0,1-.039-.068l-.5-1.419h-2.424l-.478,1.4a.22.22,0,0,1-.035.069.156.156,0,0,1-.066.049.364.364,0,0,1-.121.029c-.068.006-.137.01-.205.009a1.69,1.69,0,0,1-.214-.011.216.216,0,0,1-.117-.042.12.12,0,0,1-.033-.093.588.588,0,0,1,.038-.159l1.958-5.418a.249.249,0,0,1,.046-.081.232.232,0,0,1,.086-.05.8.8,0,0,1,.145-.026h.461a.839.839,0,0,1,.154.026.209.209,0,0,1,.089.051.225.225,0,0,1,.05.084Zm-2.511-4.781h0l-1.005,2.906h2.029Z" transform="translate(-912.6 -349.847)"/><path class="c" d="M1125.791,400.833a.86.86,0,0,1,0,.148.277.277,0,0,1-.029.1.14.14,0,0,1-.049.057.11.11,0,0,1-.064.018H1124v5.056a.1.1,0,0,1-.083.106.608.608,0,0,1-.119.028,1.32,1.32,0,0,1-.183.011,1.363,1.363,0,0,1-.183-.011.6.6,0,0,1-.121-.028.121.121,0,0,1-.064-.042.125.125,0,0,1-.019-.064v-5.056h-1.648a.107.107,0,0,1-.064-.018.122.122,0,0,1-.048-.057.361.361,0,0,1-.029-.1.85.85,0,0,1-.011-.148.892.892,0,0,1,.011-.152.42.42,0,0,1,.029-.106.127.127,0,0,1,.048-.059.122.122,0,0,1,.064-.016h4.058a.125.125,0,0,1,.064.016.142.142,0,0,1,.049.059.321.321,0,0,1,.03.106,1,1,0,0,1,.009.152Z" transform="translate(-932.804 -349.913)"/><path class="c" d="M1147.54,405.99a.591.591,0,0,1,.038.161.115.115,0,0,1-.035.092.208.208,0,0,1-.119.04c-.057,0-.13.009-.223.009h-.224a.469.469,0,0,1-.126-.022.133.133,0,0,1-.062-.042.264.264,0,0,1-.039-.068l-.5-1.419h-2.425l-.478,1.4a.223.223,0,0,1-.036.069.161.161,0,0,1-.066.049.339.339,0,0,1-.121.029,2.048,2.048,0,0,1-.205.009,1.691,1.691,0,0,1-.214-.011.223.223,0,0,1-.117-.042.12.12,0,0,1-.031-.093.517.517,0,0,1,.039-.159l1.955-5.418a.224.224,0,0,1,.048-.081.208.208,0,0,1,.084-.05.809.809,0,0,1,.145-.026h.461a.843.843,0,0,1,.154.026.213.213,0,0,1,.09.051.228.228,0,0,1,.049.084Zm-2.51-4.781h0l-1.005,2.906h2.029Z" transform="translate(-950.063 -349.847)"/><path class="c" d="M1188.91,405.212v.126a.572.572,0,0,1-.016.1.29.29,0,0,1-.029.071.444.444,0,0,1-.063.077,1.45,1.45,0,0,1-.183.137,2.155,2.155,0,0,1-.357.183,3.163,3.163,0,0,1-.493.15,2.839,2.839,0,0,1-.606.06,2.663,2.663,0,0,1-1.026-.183,2.061,2.061,0,0,1-.778-.558,2.506,2.506,0,0,1-.5-.916,4.576,4.576,0,0,1,.013-2.545,2.824,2.824,0,0,1,.526-.961,2.236,2.236,0,0,1,.809-.6,2.677,2.677,0,0,1,1.535-.159,3.142,3.142,0,0,1,.441.119,2.162,2.162,0,0,1,.366.167,1.309,1.309,0,0,1,.218.156.464.464,0,0,1,.079.093.283.283,0,0,1,.029.073.645.645,0,0,1,.018.1,1.018,1.018,0,0,1,0,.139,1.2,1.2,0,0,1,0,.154.374.374,0,0,1-.027.106.146.146,0,0,1-.042.062.1.1,0,0,1-.062.02.335.335,0,0,1-.183-.088,3.235,3.235,0,0,0-.293-.194,2.447,2.447,0,0,0-.434-.194,1.912,1.912,0,0,0-.615-.088,1.607,1.607,0,0,0-.709.156,1.5,1.5,0,0,0-.549.458,2.251,2.251,0,0,0-.352.732,4.031,4.031,0,0,0,0,1.974,1.994,1.994,0,0,0,.344.711,1.437,1.437,0,0,0,.549.434,1.8,1.8,0,0,0,.733.146,1.95,1.95,0,0,0,.608-.086,2.336,2.336,0,0,0,.445-.183,3.135,3.135,0,0,0,.3-.183.368.368,0,0,1,.183-.086.11.11,0,0,1,.055.013.1.1,0,0,1,.035.053.418.418,0,0,1,.02.1A1.44,1.44,0,0,1,1188.91,405.212Z" transform="translate(-984.48 -349.618)"/><path class="c" d="M1216.322,402.963a4.513,4.513,0,0,1-.167,1.282,2.666,2.666,0,0,1-.5.965,2.163,2.163,0,0,1-.831.614,2.948,2.948,0,0,1-1.168.214,3.016,3.016,0,0,1-1.137-.2,2,2,0,0,1-.793-.57,2.434,2.434,0,0,1-.466-.928,4.778,4.778,0,0,1-.154-1.282,4.393,4.393,0,0,1,.169-1.253,2.573,2.573,0,0,1,.5-.958,2.2,2.2,0,0,1,.833-.608,3.313,3.313,0,0,1,2.289-.02,2.034,2.034,0,0,1,.8.564,2.416,2.416,0,0,1,.472.915A4.558,4.558,0,0,1,1216.322,402.963Zm-.82.055a4.566,4.566,0,0,0-.088-.916,2.1,2.1,0,0,0-.293-.732,1.408,1.408,0,0,0-.549-.489,1.843,1.843,0,0,0-.846-.183,1.734,1.734,0,0,0-.848.183,1.605,1.605,0,0,0-.549.505,2.066,2.066,0,0,0-.306.732,4.1,4.1,0,0,0-.094.886,4.938,4.938,0,0,0,.086.945,2.142,2.142,0,0,0,.287.747,1.387,1.387,0,0,0,.55.487,1.863,1.863,0,0,0,.851.172,1.757,1.757,0,0,0,.855-.183,1.535,1.535,0,0,0,.549-.511,2.184,2.184,0,0,0,.3-.747A4.3,4.3,0,0,0,1215.5,403.019Z" transform="translate(-1006.061 -349.529)"/><path class="c" d="M1252.679,406.2a.109.109,0,0,1-.018.064.115.115,0,0,1-.064.042.674.674,0,0,1-.119.027,1.287,1.287,0,0,1-.183.011,1.337,1.337,0,0,1-.183-.011.625.625,0,0,1-.121-.027.125.125,0,0,1-.062-.042.108.108,0,0,1-.018-.064v-5.072h0l-2.055,5.1a.159.159,0,0,1-.038.053.218.218,0,0,1-.072.039.483.483,0,0,1-.114.022,1.3,1.3,0,0,1-.156,0,1.364,1.364,0,0,1-.163-.009.648.648,0,0,1-.112-.024.228.228,0,0,1-.069-.038.126.126,0,0,1-.035-.049l-1.979-5.094h0V406.2a.125.125,0,0,1-.019.064.127.127,0,0,1-.066.042.651.651,0,0,1-.121.027,1.342,1.342,0,0,1-.183.011,1.287,1.287,0,0,1-.183-.011.612.612,0,0,1-.119-.027.113.113,0,0,1-.06-.042.125.125,0,0,1-.015-.064v-5.361a.331.331,0,0,1,.1-.271.348.348,0,0,1,.225-.081h.476a1.083,1.083,0,0,1,.256.026.571.571,0,0,1,.183.086.477.477,0,0,1,.137.148,1.094,1.094,0,0,1,.1.213l1.668,4.222h.022l1.736-4.211a1.141,1.141,0,0,1,.11-.229.566.566,0,0,1,.13-.152.474.474,0,0,1,.157-.081.753.753,0,0,1,.2-.024h.5a.376.376,0,0,1,.13.02.248.248,0,0,1,.107.062.326.326,0,0,1,.07.108.431.431,0,0,1,.028.161Z" transform="translate(-1034.851 -349.904)"/><path class="c" d="M1293.038,402.206a2.067,2.067,0,0,1-.144.789,1.693,1.693,0,0,1-.412.6,1.858,1.858,0,0,1-.659.385,2.861,2.861,0,0,1-.93.134h-.663v2.1a.1.1,0,0,1-.02.064.127.127,0,0,1-.062.042.579.579,0,0,1-.117.027,1.581,1.581,0,0,1-.366,0,.632.632,0,0,1-.121-.027.119.119,0,0,1-.062-.042.111.111,0,0,1-.019-.064v-5.38a.313.313,0,0,1,.1-.258.322.322,0,0,1,.211-.075h1.249a3.008,3.008,0,0,1,.366.015,3.435,3.435,0,0,1,.411.068,1.7,1.7,0,0,1,.483.194,1.512,1.512,0,0,1,.416.35,1.439,1.439,0,0,1,.263.48A1.827,1.827,0,0,1,1293.038,402.206Zm-.817.064a1.215,1.215,0,0,0-.131-.6.945.945,0,0,0-.333-.352,1.138,1.138,0,0,0-.407-.148,2.818,2.818,0,0,0-.406-.031h-.718v2.338h.7a1.622,1.622,0,0,0,.584-.09,1.123,1.123,0,0,0,.39-.249,1.082,1.082,0,0,0,.238-.385,1.43,1.43,0,0,0,.075-.489Z" transform="translate(-1070.068 -349.912)"/><path class="c" d="M1313.32,405.99a.577.577,0,0,1,.038.161.107.107,0,0,1-.033.092.205.205,0,0,1-.119.04c-.057,0-.13.009-.224.009h-.223a.45.45,0,0,1-.126-.022.141.141,0,0,1-.064-.042.337.337,0,0,1-.037-.068l-.5-1.419h-2.425l-.478,1.4a.221.221,0,0,1-.035.07.163.163,0,0,1-.066.049.363.363,0,0,1-.12.029,2.032,2.032,0,0,1-.205.009,1.676,1.676,0,0,1-.214-.011.215.215,0,0,1-.117-.042.118.118,0,0,1-.033-.094.578.578,0,0,1,.038-.159l1.957-5.418a.247.247,0,0,1,.046-.081.232.232,0,0,1,.086-.05.8.8,0,0,1,.145-.026h.462a.84.84,0,0,1,.154.026.214.214,0,0,1,.09.051.237.237,0,0,1,.049.084Zm-2.51-4.781h0l-1.005,2.906h2.029Z" transform="translate(-1085.488 -349.847)"/><path class="c" d="M1345.311,405.946a.348.348,0,0,1-.031.152.306.306,0,0,1-.079.1.322.322,0,0,1-.11.059.465.465,0,0,1-.121.018h-.256a.821.821,0,0,1-.213-.026.476.476,0,0,1-.172-.09.979.979,0,0,1-.163-.183,2.2,2.2,0,0,1-.172-.289l-1.786-3.311c-.093-.172-.183-.352-.282-.538s-.183-.366-.263-.549h0c0,.216.011.436.015.661s0,.45,0,.672v3.521a.114.114,0,0,1-.018.062.14.14,0,0,1-.064.044.656.656,0,0,1-.119.027,1.306,1.306,0,0,1-.183.011,1.279,1.279,0,0,1-.183-.011.582.582,0,0,1-.117-.027.125.125,0,0,1-.062-.044.112.112,0,0,1-.019-.062v-5.38a.3.3,0,0,1,.1-.258.366.366,0,0,1,.223-.075h.381a.985.985,0,0,1,.226.022.483.483,0,0,1,.162.073.655.655,0,0,1,.139.145,1.882,1.882,0,0,1,.143.233l1.368,2.564c.084.156.165.309.244.458s.154.295.225.439l.216.425c.072.141.143.28.213.421h0c0-.236,0-.483-.011-.732s0-.505,0-.742v-3.175a.1.1,0,0,1,.018-.059.166.166,0,0,1,.064-.048.438.438,0,0,1,.119-.029,1.769,1.769,0,0,1,.183-.009,1.714,1.714,0,0,1,.183.009.4.4,0,0,1,.119.029.182.182,0,0,1,.062.048.094.094,0,0,1,.018.059Z" transform="translate(-1112.097 -349.847)"/><path class="c" d="M1372.464,403.974v2.142a.1.1,0,0,1-.081.106.647.647,0,0,1-.121.028,1.344,1.344,0,0,1-.183.011,1.28,1.28,0,0,1-.183-.011.655.655,0,0,1-.121-.028.122.122,0,0,1-.066-.042.132.132,0,0,1-.018-.064v-2.142l-1.648-3.3a.732.732,0,0,1-.06-.163.086.086,0,0,1,.024-.09.2.2,0,0,1,.12-.04,2.039,2.039,0,0,1,.237,0,1.808,1.808,0,0,1,.22,0,.794.794,0,0,1,.132.024.158.158,0,0,1,.075.046.5.5,0,0,1,.048.073l.805,1.677q.114.24.225.5t.229.527h0q.1-.257.214-.511c.073-.17.146-.337.222-.5l.811-1.685a.241.241,0,0,1,.038-.077.154.154,0,0,1,.068-.048.57.57,0,0,1,.119-.024,1.421,1.421,0,0,1,.195,0,2.278,2.278,0,0,1,.254.011.246.246,0,0,1,.128.042.091.091,0,0,1,.026.091.722.722,0,0,1-.062.158Z" transform="translate(-1135.842 -349.816)"/></svg>