<svg xmlns="http://www.w3.org/2000/svg" width="99.413" height="21.633" viewBox="0 0 99.413 21.633"><defs><style>.a{fill:#201e1e;}.b,.c{fill:#2aabe0;}.b{fill-rule:evenodd;}</style></defs><path class="a" d="M195.449,305.1h1.857v3.609s-.072.608.608.536l16.791.006s.608.137.572-.471V300.74h1.82v9.717a.533.533,0,0,1-.607.608H196.124a.555.555,0,0,1-.679-.609Z" transform="translate(-188.777 -289.44)"/><path class="a" d="M217.12,129.722h-1.857v-3.129s.072-.607-.607-.536l-16.791-.006s-.608-.137-.572.471l-.026,7.517h-1.8v-9.2a.534.534,0,0,1,.608-.608h20.364a.555.555,0,0,1,.679.609Z" transform="translate(-188.797 -124.227)"/><path class="a" d="M695.206,171.441h-3.9v-13.65q2.489-.12,3.588-.121a4.961,4.961,0,0,1,3.131.871,2.983,2.983,0,0,1,1.109,2.492,2.524,2.524,0,0,1-.708,1.733,3.024,3.024,0,0,1-1.566.979,4.223,4.223,0,0,1,2.362,1.3,3.772,3.772,0,0,1,.741,2.46,3.508,3.508,0,0,1-1.319,2.87A5.286,5.286,0,0,1,695.206,171.441Zm-2.031-12.159V163.2q.587.056,1.454.056,2.647,0,2.646-2.152,0-1.892-2.433-1.892Q693.91,159.217,693.174,159.282Zm0,5.367v5.209q.96.093,1.472.093a4.048,4.048,0,0,0,2.561-.657,2.528,2.528,0,0,0,.8-2.092,2.4,2.4,0,0,0-.768-1.965,4.064,4.064,0,0,0-2.57-.631Z" transform="translate(-652.897 -155.529)"/><path class="a" d="M831.72,164.247V153h1.771v10.947a1.7,1.7,0,0,0,.461,1.262,1.635,1.635,0,0,0,1.207.461v1.584Q831.72,167.256,831.72,164.247Z" transform="translate(-784.319 -151.158)"/><path class="a" d="M891.7,216.91v6.363q0,2.311,2,2.311a2.758,2.758,0,0,0,1.6-.5,2.415,2.415,0,0,0,.96-1.165V216.91h1.771v9.979h-1.769V225.51a2.754,2.754,0,0,1-1.2,1.076,3.67,3.67,0,0,1-1.757.489,3.254,3.254,0,0,1-2.511-.94,3.79,3.79,0,0,1-.871-2.674v-6.55Z" transform="translate(-838.802 -210.977)"/><path class="a" d="M1028.568,219.348h-7.193a3.6,3.6,0,0,0,.96,2.693,3.006,3.006,0,0,0,2.18.82,3.72,3.72,0,0,0,2.535-.885l.745,1.277a3.325,3.325,0,0,1-1.258.708,6.793,6.793,0,0,1-2.369.391,4.417,4.417,0,0,1-3.2-1.277,5,5,0,0,1-1.463-3.782,5.335,5.335,0,0,1,1.5-3.96,4.365,4.365,0,0,1,3.178-1.332,4.541,4.541,0,0,1,3.345,1.2,4.1,4.1,0,0,1,1.175,3.066A3.969,3.969,0,0,1,1028.568,219.348Zm-4.3-3.858a2.8,2.8,0,0,0-2.852,2.572h5.526a2.519,2.519,0,0,0-.671-1.789,2.617,2.617,0,0,0-2-.783Z" transform="translate(-960.086 -208.253)"/><path class="a" d="M1155.277,169.2l.681-1.715a4.635,4.635,0,0,0,1.3.64,4.512,4.512,0,0,0,1.393.256,2.522,2.522,0,0,0,1.752-.6,1.946,1.946,0,0,0,.662-1.519,2.384,2.384,0,0,0-.368-1.28,4.5,4.5,0,0,0-1.85-1.29l-1.1-.512a4.393,4.393,0,0,1-1.953-1.547,4,4,0,0,1-.554-2.152,3.315,3.315,0,0,1,1.081-2.534,3.915,3.915,0,0,1,2.777-1.006,5.049,5.049,0,0,1,3.15.736l-.55,1.622a4.28,4.28,0,0,0-1.136-.522,4.554,4.554,0,0,0-1.417-.252,2.032,2.032,0,0,0-1.5.54,1.867,1.867,0,0,0-.545,1.388,2.256,2.256,0,0,0,.2.951,1.98,1.98,0,0,0,.545.718,8.1,8.1,0,0,0,1.431.81l1.118.531a3.819,3.819,0,0,1,2.526,3.913,3.331,3.331,0,0,1-1.235,2.609,4.858,4.858,0,0,1-3.3,1.071A5.463,5.463,0,0,1,1155.277,169.2Z" transform="translate(-1087.127 -153.91)"/><path class="a" d="M1284.5,167.07V160.8a2.618,2.618,0,0,0-.551-1.761,1.928,1.928,0,0,0-1.547-.643,2.544,2.544,0,0,0-1.291.378,3.017,3.017,0,0,0-.992.88v7.417h-1.77V153h1.77v5.189a2.642,2.642,0,0,1,1.142-.917,3.792,3.792,0,0,1,1.626-.368,3.106,3.106,0,0,1,2.484,1.044,4.209,4.209,0,0,1,.9,2.851v6.271Z" transform="translate(-1202.356 -151.158)"/><path class="a" d="M1406.27,171.717V163.23h-1.37v-1.491h3.143v9.979Zm.969-13.75a1.062,1.062,0,0,1,.778.32,1.05,1.05,0,0,1,.32.768,1.115,1.115,0,1,1-1.1-1.09Z" transform="translate(-1320.804 -155.805)"/><path class="a" d="M1463.675,154.622a3.1,3.1,0,0,0-1.007-.186,1.685,1.685,0,0,0-1.337.615,2.311,2.311,0,0,0-.526,1.556,3.039,3.039,0,0,0,.047.522h2.031v1.491h-2.028v8.488h-1.771V158.62h-1.454v-1.491h1.454a4.443,4.443,0,0,1,.941-3,3.118,3.118,0,0,1,2.488-1.088,5.522,5.522,0,0,1,1.659.279Z" transform="translate(-1370.159 -151.195)"/><path class="a" d="M1545.586,177.845h-1.156v-1.4h1.156v-2.087l1.77-.681v2.768h2.74v1.4h-2.74V182.8a2.91,2.91,0,0,0,.424,1.789,1.646,1.646,0,0,0,1.366.531,3.276,3.276,0,0,0,1.408-.344l.261,1.556a9.8,9.8,0,0,1-2.414.279,2.619,2.619,0,0,1-2-.88,3.145,3.145,0,0,1-.815-2.222Z" transform="translate(-1451.402 -170.514)"/><path class="b" d="M91.713,238.808c4.481,1.592,8.922,1.094,13.359-.214,3.123-.918,6.18-2.07,9.388-2.7a17.563,17.563,0,0,1,12.7,2.2l.457.282-.754-.113c-5.272-1.034-10.307.115-15.315,1.627a67.607,67.607,0,0,1-8.543,2.26c-4.3.709-8.194-.02-11.44-3.137l-.277-.343Z" transform="translate(-91.29 -228.407)"/><path class="c" d="M944.3,402.349a.2.2,0,0,1,.013.056.04.04,0,0,1-.012.032.072.072,0,0,1-.042.014c-.019,0-.045,0-.078,0H944.1a.163.163,0,0,1-.044-.008.047.047,0,0,1-.022-.015.161.161,0,0,1-.013-.024l-.175-.5H943l-.167.49a.078.078,0,0,1-.013.024.055.055,0,0,1-.023.017.12.12,0,0,1-.042.01.7.7,0,0,1-.072,0,.578.578,0,0,1-.075,0,.078.078,0,0,1-.041-.015.042.042,0,0,1-.011-.033.2.2,0,0,1,.013-.056l.684-1.894a.086.086,0,0,1,.017-.028.07.07,0,0,1,.03-.017.268.268,0,0,1,.05-.009h.162a.3.3,0,0,1,.053.009.069.069,0,0,1,.031.018.092.092,0,0,1,.018.029Zm-.878-1.672h0l-.351,1.016h.709Z" transform="translate(-888.06 -382.72)"/><path class="c" d="M987.833,401.986a.6.6,0,0,1-.024.177.506.506,0,0,1-.175.256.607.607,0,0,1-.14.082.8.8,0,0,1-.167.049,1.084,1.084,0,0,1-.2.017h-.533a.111.111,0,0,1-.067-.019.1.1,0,0,1-.032-.086v-1.818a.1.1,0,0,1,.032-.086.111.111,0,0,1,.069-.024h.464a1.082,1.082,0,0,1,.3.035.535.535,0,0,1,.192.1.419.419,0,0,1,.117.163.566.566,0,0,1,.039.217.544.544,0,0,1-.017.139.441.441,0,0,1-.051.122.419.419,0,0,1-.085.1.448.448,0,0,1-.118.072.511.511,0,0,1,.156.058.478.478,0,0,1,.213.256A.551.551,0,0,1,987.833,401.986Zm-.408-.91a.415.415,0,0,0-.021-.134.252.252,0,0,0-.064-.1.292.292,0,0,0-.115-.064.644.644,0,0,0-.187-.022h-.28v.66h.308a.433.433,0,0,0,.17-.028.3.3,0,0,0,.107-.074.286.286,0,0,0,.064-.109A.413.413,0,0,0,987.426,401.077Zm.123.928a.4.4,0,0,0-.029-.161.3.3,0,0,0-.085-.117.363.363,0,0,0-.14-.072.761.761,0,0,0-.211-.024h-.324v.718h.393a.535.535,0,0,0,.162-.022.366.366,0,0,0,.122-.064.3.3,0,0,0,.083-.108.357.357,0,0,0,.029-.154Z" transform="translate(-929.181 -382.846)"/><path class="c" d="M1014.2,402.356a.039.039,0,0,1-.006.022.041.041,0,0,1-.022.015.217.217,0,0,1-.042.01.45.45,0,0,1-.064,0,.473.473,0,0,1-.064,0,.216.216,0,0,1-.042-.01.041.041,0,0,1-.022-.015.039.039,0,0,1-.006-.022V400.4a.034.034,0,0,1,.007-.022.045.045,0,0,1,.024-.015.238.238,0,0,1,.042-.01.437.437,0,0,1,.064,0,.463.463,0,0,1,.064,0,.227.227,0,0,1,.042.01.041.041,0,0,1,.022.015.037.037,0,0,1,.006.022Z" transform="translate(-954.863 -382.672)"/><path class="c" d="M1026.248,400.43a.418.418,0,0,1,0,.052.134.134,0,0,1-.01.038.044.044,0,0,1-.015.022.039.039,0,0,1-.021.006.141.141,0,0,1-.064-.029.929.929,0,0,0-.118-.064,1.091,1.091,0,0,0-.177-.064.893.893,0,0,0-.245-.03.719.719,0,0,0-.3.064.656.656,0,0,0-.227.17.761.761,0,0,0-.143.256,1.035,1.035,0,0,0-.049.325,1.018,1.018,0,0,0,.055.346.739.739,0,0,0,.15.256.63.63,0,0,0,.229.158.775.775,0,0,0,.292.053.827.827,0,0,0,.192-.022.74.74,0,0,0,.18-.069V401.3h-.472a.043.043,0,0,1-.04-.027.194.194,0,0,1-.013-.083.358.358,0,0,1,0-.051.1.1,0,0,1,.01-.035.054.054,0,0,1,.017-.019.04.04,0,0,1,.024-.006h.647a.1.1,0,0,1,.035.006.091.091,0,0,1,.031.019.077.077,0,0,1,.022.035.14.14,0,0,1,.008.051v.777a.161.161,0,0,1-.015.07.12.12,0,0,1-.06.053,1.193,1.193,0,0,1-.118.049,1.409,1.409,0,0,1-.149.046,1.45,1.45,0,0,1-.156.028,1.281,1.281,0,0,1-.156.01,1.131,1.131,0,0,1-.422-.074.854.854,0,0,1-.314-.209.916.916,0,0,1-.2-.325,1.256,1.256,0,0,1-.068-.423,1.241,1.241,0,0,1,.074-.439.957.957,0,0,1,.206-.335.911.911,0,0,1,.32-.215,1.078,1.078,0,0,1,.414-.077,1.132,1.132,0,0,1,.219.02,1.534,1.534,0,0,1,.182.048.725.725,0,0,1,.134.06.393.393,0,0,1,.075.053.114.114,0,0,1,.029.047A.289.289,0,0,1,1026.248,400.43Z" transform="translate(-964.84 -382.466)"/><path class="c" d="M1071.367,401.485a1.421,1.421,0,0,1-.068.463.823.823,0,0,1-.2.327.807.807,0,0,1-.32.192,1.388,1.388,0,0,1-.448.064h-.432a.109.109,0,0,1-.068-.024.1.1,0,0,1-.033-.086V400.6a.1.1,0,0,1,.033-.086.108.108,0,0,1,.068-.024h.462a1.275,1.275,0,0,1,.448.069.813.813,0,0,1,.306.2.839.839,0,0,1,.188.311A1.241,1.241,0,0,1,1071.367,401.485Zm-.285.011a1.131,1.131,0,0,0-.041-.308.666.666,0,0,0-.128-.246.585.585,0,0,0-.221-.162.868.868,0,0,0-.345-.058h-.278V402.3h.279a.978.978,0,0,0,.329-.049.546.546,0,0,0,.224-.15.654.654,0,0,0,.135-.253,1.275,1.275,0,0,0,.047-.36Z" transform="translate(-1007.157 -382.806)"/><path class="c" d="M1098.44,402.367a.213.213,0,0,1,.013.056.038.038,0,0,1-.012.032.072.072,0,0,1-.042.014c-.02,0-.045,0-.078,0h-.078a.161.161,0,0,1-.044-.008.043.043,0,0,1-.022-.015.093.093,0,0,1-.013-.024l-.176-.5h-.848l-.167.49a.076.076,0,0,1-.012.024.055.055,0,0,1-.023.017.128.128,0,0,1-.042.01q-.036,0-.072,0a.6.6,0,0,1-.075,0,.076.076,0,0,1-.041-.015.042.042,0,0,1-.011-.033.2.2,0,0,1,.013-.056l.684-1.894a.086.086,0,0,1,.016-.028.081.081,0,0,1,.03-.017.277.277,0,0,1,.051-.009h.161a.29.29,0,0,1,.054.009.073.073,0,0,1,.031.018.078.078,0,0,1,.017.029Zm-.878-1.672h0l-.351,1.016h.709Z" transform="translate(-1032.332 -382.738)"/><path class="c" d="M1122.954,400.616a.283.283,0,0,1,0,.052.1.1,0,0,1-.01.035.05.05,0,0,1-.017.02.039.039,0,0,1-.023.006h-.576V402.5a.036.036,0,0,1-.029.037.214.214,0,0,1-.042.01.466.466,0,0,1-.064,0,.48.48,0,0,1-.064,0,.214.214,0,0,1-.042-.01.042.042,0,0,1-.022-.015.045.045,0,0,1-.007-.022V400.73h-.576a.037.037,0,0,1-.022-.006.043.043,0,0,1-.017-.02.126.126,0,0,1-.01-.035.307.307,0,0,1,0-.052.323.323,0,0,1,0-.053.15.15,0,0,1,.01-.037.045.045,0,0,1,.017-.021.043.043,0,0,1,.022-.006h1.419a.044.044,0,0,1,.022.006.051.051,0,0,1,.017.021.109.109,0,0,1,.01.037.336.336,0,0,1,0,.053Z" transform="translate(-1055.481 -382.813)"/><path class="c" d="M1144.3,402.367a.2.2,0,0,1,.013.056.04.04,0,0,1-.012.032.072.072,0,0,1-.042.014c-.02,0-.045,0-.078,0h-.078a.162.162,0,0,1-.044-.008.046.046,0,0,1-.022-.015.1.1,0,0,1-.014-.024l-.175-.5H1143l-.167.49a.08.08,0,0,1-.013.024.056.056,0,0,1-.023.017.119.119,0,0,1-.042.01q-.036,0-.072,0a.593.593,0,0,1-.075,0,.078.078,0,0,1-.041-.015.042.042,0,0,1-.011-.033.179.179,0,0,1,.013-.056l.684-1.894a.079.079,0,0,1,.017-.028.072.072,0,0,1,.029-.017.279.279,0,0,1,.051-.009h.161a.289.289,0,0,1,.054.009.074.074,0,0,1,.031.018.081.081,0,0,1,.017.029Zm-.878-1.672h0l-.352,1.016h.709Z" transform="translate(-1075.256 -382.738)"/><path class="c" d="M1186.165,401.913v.044a.2.2,0,0,1-.006.033.1.1,0,0,1-.01.025.156.156,0,0,1-.022.027.51.51,0,0,1-.064.048.75.75,0,0,1-.125.064,1.11,1.11,0,0,1-.172.052,1,1,0,0,1-.212.021.931.931,0,0,1-.359-.064.722.722,0,0,1-.272-.2.877.877,0,0,1-.173-.32,1.6,1.6,0,0,1,0-.89.987.987,0,0,1,.184-.336.783.783,0,0,1,.283-.211.936.936,0,0,1,.537-.056,1.1,1.1,0,0,1,.154.042.756.756,0,0,1,.128.058.456.456,0,0,1,.076.054.163.163,0,0,1,.028.033.1.1,0,0,1,.01.026.208.208,0,0,1,.006.036.323.323,0,0,1,0,.049.4.4,0,0,1,0,.054.126.126,0,0,1-.01.037.051.051,0,0,1-.015.022.034.034,0,0,1-.021.007.117.117,0,0,1-.064-.031,1.12,1.12,0,0,0-.1-.068.848.848,0,0,0-.152-.068.668.668,0,0,0-.215-.031.562.562,0,0,0-.248.054.524.524,0,0,0-.192.16.791.791,0,0,0-.123.256,1.411,1.411,0,0,0,0,.69.7.7,0,0,0,.12.248.5.5,0,0,0,.192.152.629.629,0,0,0,.256.051.681.681,0,0,0,.212-.03.817.817,0,0,0,.156-.064,1.1,1.1,0,0,0,.1-.064.129.129,0,0,1,.064-.03.038.038,0,0,1,.019,0,.034.034,0,0,1,.012.019.143.143,0,0,1,.007.036A.466.466,0,0,1,1186.165,401.913Z" transform="translate(-1114.691 -382.476)"/><path class="c" d="M1212.93,401.056a1.574,1.574,0,0,1-.058.448.93.93,0,0,1-.174.337.756.756,0,0,1-.291.215,1.031,1.031,0,0,1-.408.075,1.055,1.055,0,0,1-.4-.068.7.7,0,0,1-.277-.2.851.851,0,0,1-.163-.325,1.676,1.676,0,0,1-.054-.448,1.535,1.535,0,0,1,.059-.438.9.9,0,0,1,.175-.335.768.768,0,0,1,.291-.213,1.159,1.159,0,0,1,.8-.007.709.709,0,0,1,.278.2.847.847,0,0,1,.165.32A1.6,1.6,0,0,1,1212.93,401.056Zm-.287.019a1.6,1.6,0,0,0-.031-.32.735.735,0,0,0-.1-.256.493.493,0,0,0-.192-.171.644.644,0,0,0-.3-.064.606.606,0,0,0-.3.064.56.56,0,0,0-.192.177.72.72,0,0,0-.107.256,1.422,1.422,0,0,0-.033.31,1.714,1.714,0,0,0,.03.33.749.749,0,0,0,.1.261.484.484,0,0,0,.192.17.652.652,0,0,0,.3.06.615.615,0,0,0,.3-.064.537.537,0,0,0,.192-.179.767.767,0,0,0,.106-.261A1.5,1.5,0,0,0,1212.643,401.075Z" transform="translate(-1139.417 -382.374)"/><path class="c" d="M1248.563,402.487a.038.038,0,0,1-.006.022.04.04,0,0,1-.022.015.238.238,0,0,1-.042.01.454.454,0,0,1-.064,0,.479.479,0,0,1-.064,0,.221.221,0,0,1-.042-.01.044.044,0,0,1-.022-.015.038.038,0,0,1-.006-.022v-1.773h0l-.718,1.784a.057.057,0,0,1-.013.018.075.075,0,0,1-.025.013.167.167,0,0,1-.04.008.45.45,0,0,1-.054,0,.477.477,0,0,1-.057,0,.225.225,0,0,1-.039-.008.08.08,0,0,1-.024-.013.043.043,0,0,1-.012-.017l-.692-1.781h0v1.773a.043.043,0,0,1-.007.022.044.044,0,0,1-.023.015.23.23,0,0,1-.042.01.479.479,0,0,1-.064,0,.453.453,0,0,1-.064,0,.212.212,0,0,1-.042-.01.039.039,0,0,1-.021-.015.043.043,0,0,1-.005-.022v-1.874a.116.116,0,0,1,.035-.095.121.121,0,0,1,.079-.028h.167a.376.376,0,0,1,.09.009.2.2,0,0,1,.064.03.166.166,0,0,1,.048.052.387.387,0,0,1,.033.074l.583,1.476h.008l.607-1.472a.4.4,0,0,1,.038-.08.2.2,0,0,1,.046-.053.165.165,0,0,1,.055-.028.26.26,0,0,1,.07-.008h.175a.131.131,0,0,1,.045.007.088.088,0,0,1,.037.022.112.112,0,0,1,.024.038.148.148,0,0,1,.01.056Z" transform="translate(-1172.405 -382.803)"/><path class="c" d="M1290.712,401.1a.724.724,0,0,1-.051.276.589.589,0,0,1-.144.209.648.648,0,0,1-.231.134,1,1,0,0,1-.325.047h-.232v.734a.034.034,0,0,1-.007.022.044.044,0,0,1-.022.015.2.2,0,0,1-.041.01.555.555,0,0,1-.128,0,.223.223,0,0,1-.042-.01.042.042,0,0,1-.022-.015.04.04,0,0,1-.007-.022v-1.881a.11.11,0,0,1,.033-.09.112.112,0,0,1,.074-.026H1290a1.059,1.059,0,0,1,.128.005,1.2,1.2,0,0,1,.144.024.6.6,0,0,1,.169.068.527.527,0,0,1,.145.122.5.5,0,0,1,.092.168A.647.647,0,0,1,1290.712,401.1Zm-.286.022a.423.423,0,0,0-.046-.208.329.329,0,0,0-.117-.123.4.4,0,0,0-.142-.052.988.988,0,0,0-.142-.011h-.251v.818h.245a.567.567,0,0,0,.2-.031.391.391,0,0,0,.136-.087.379.379,0,0,0,.083-.134.5.5,0,0,0,.026-.171Z" transform="translate(-1212.755 -382.813)"/><path class="c" d="M1310.08,402.367a.2.2,0,0,1,.013.056.038.038,0,0,1-.012.032.072.072,0,0,1-.042.014c-.02,0-.046,0-.078,0h-.078a.158.158,0,0,1-.044-.008.049.049,0,0,1-.022-.015.116.116,0,0,1-.013-.024l-.176-.5h-.848l-.167.49a.079.079,0,0,1-.012.024.058.058,0,0,1-.023.017.128.128,0,0,1-.042.01.706.706,0,0,1-.072,0,.581.581,0,0,1-.075,0,.074.074,0,0,1-.041-.015.042.042,0,0,1-.011-.033.2.2,0,0,1,.013-.056l.684-1.894a.086.086,0,0,1,.016-.028.078.078,0,0,1,.03-.017.285.285,0,0,1,.051-.009h.161a.292.292,0,0,1,.054.009.074.074,0,0,1,.031.018.081.081,0,0,1,.017.029Zm-.878-1.672h0l-.351,1.016h.709Z" transform="translate(-1230.424 -382.738)"/><path class="c" d="M1342.449,402.352a.122.122,0,0,1-.011.053.1.1,0,0,1-.027.036.113.113,0,0,1-.038.02.16.16,0,0,1-.042.006h-.09a.285.285,0,0,1-.074-.009.166.166,0,0,1-.06-.031.339.339,0,0,1-.057-.064.775.775,0,0,1-.06-.1l-.624-1.157c-.033-.06-.064-.123-.1-.188s-.064-.128-.092-.192h0c0,.076,0,.152.005.231s0,.157,0,.235v1.231a.039.039,0,0,1-.006.022.048.048,0,0,1-.022.015.225.225,0,0,1-.042.01.535.535,0,0,1-.128,0,.2.2,0,0,1-.041-.01.043.043,0,0,1-.022-.015.039.039,0,0,1-.007-.022v-1.881a.1.1,0,0,1,.036-.09.128.128,0,0,1,.078-.026h.133a.344.344,0,0,1,.079.008.169.169,0,0,1,.057.026.23.23,0,0,1,.049.051.66.66,0,0,1,.05.081l.478.9.085.16q.041.078.079.154l.076.149.074.147h0c0-.083,0-.169,0-.256s0-.177,0-.259v-1.11a.033.033,0,0,1,.006-.021.058.058,0,0,1,.022-.017.154.154,0,0,1,.042-.01.616.616,0,0,1,.064,0,.6.6,0,0,1,.064,0,.139.139,0,0,1,.042.01.062.062,0,0,1,.022.017.032.032,0,0,1,.006.021Z" transform="translate(-1260.912 -382.738)"/><path class="c" d="M1370.848,401.637v.749a.036.036,0,0,1-.028.037.231.231,0,0,1-.042.01.478.478,0,0,1-.064,0,.454.454,0,0,1-.064,0,.23.23,0,0,1-.042-.01.043.043,0,0,1-.023-.015.047.047,0,0,1-.006-.022v-.749l-.576-1.152a.263.263,0,0,1-.021-.057.03.03,0,0,1,.008-.031.069.069,0,0,1,.042-.014.718.718,0,0,1,.083,0,.645.645,0,0,1,.077,0,.281.281,0,0,1,.046.008.056.056,0,0,1,.026.016.171.171,0,0,1,.017.026l.282.586q.04.084.079.175t.08.184h0q.036-.09.075-.179c.026-.06.051-.118.078-.176l.283-.589a.091.091,0,0,1,.013-.027.055.055,0,0,1,.024-.017.2.2,0,0,1,.042-.008.506.506,0,0,1,.068,0,.809.809,0,0,1,.089,0,.087.087,0,0,1,.045.015.031.031,0,0,1,.009.032.242.242,0,0,1-.022.055Z" transform="translate(-1288.119 -382.702)"/></svg>