<svg xmlns="http://www.w3.org/2000/svg" width="124.379" height="27.066" viewBox="0 0 124.379 27.066"><defs><style>.a,.b{fill:#fff;}.b{fill-rule:evenodd;}</style></defs><path class="a" d="M195.45,306.193h2.323v4.515s-.09.76.76.67l21.007.007s.76.171.715-.589V300.74h2.277V312.9a.666.666,0,0,1-.759.76H196.295a.7.7,0,0,1-.849-.762Z" transform="translate(-187.103 -286.602)"/><path class="a" d="M222.558,131.1h-2.323v-3.915s.09-.759-.759-.67l-21.008-.007s-.76-.171-.715.589l-.032,9.4h-2.251V125a.668.668,0,0,1,.76-.76h25.478a.7.7,0,0,1,.849.762Z" transform="translate(-187.122 -124.227)"/><path class="a" d="M696.184,174.9H691.31V157.821q3.114-.15,4.489-.151a6.207,6.207,0,0,1,3.917,1.09,3.732,3.732,0,0,1,1.387,3.118,3.159,3.159,0,0,1-.886,2.168,3.784,3.784,0,0,1-1.959,1.225,5.283,5.283,0,0,1,2.956,1.62,4.719,4.719,0,0,1,.927,3.077,4.389,4.389,0,0,1-1.65,3.591A6.614,6.614,0,0,1,696.184,174.9Zm-2.541-15.213v4.907q.734.07,1.819.07,3.311,0,3.311-2.693,0-2.367-3.044-2.367Q694.564,159.605,693.642,159.687Zm0,6.715v6.517q1.2.116,1.842.116a5.064,5.064,0,0,0,3.2-.822A3.163,3.163,0,0,0,699.7,169.6a3,3,0,0,0-.961-2.459,5.085,5.085,0,0,0-3.215-.79Z" transform="translate(-643.251 -154.991)"/><path class="a" d="M831.72,167.072V153h2.215v13.7a2.132,2.132,0,0,0,.577,1.579,2.046,2.046,0,0,0,1.51.577v1.982Q831.72,170.836,831.72,167.072Z" transform="translate(-772.415 -150.695)"/><path class="a" d="M892.145,216.91v7.961q0,2.891,2.507,2.891a3.45,3.45,0,0,0,2-.63,3.021,3.021,0,0,0,1.2-1.457V216.91h2.216v12.484h-2.213v-1.725a3.445,3.445,0,0,1-1.5,1.346,4.593,4.593,0,0,1-2.2.612,4.072,4.072,0,0,1-3.142-1.177,4.742,4.742,0,0,1-1.09-3.346v-8.2Z" transform="translate(-825.963 -209.487)"/><path class="a" d="M1030.843,220.691h-9a4.5,4.5,0,0,0,1.2,3.369,3.76,3.76,0,0,0,2.728,1.026,4.654,4.654,0,0,0,3.172-1.108l.932,1.6a4.158,4.158,0,0,1-1.574.886,8.5,8.5,0,0,1-2.964.489,5.526,5.526,0,0,1-4-1.6,6.259,6.259,0,0,1-1.83-4.732,6.675,6.675,0,0,1,1.877-4.955,5.461,5.461,0,0,1,3.977-1.667,5.682,5.682,0,0,1,4.185,1.5,5.126,5.126,0,0,1,1.47,3.836A4.963,4.963,0,0,1,1030.843,220.691Zm-5.376-4.827a3.5,3.5,0,0,0-3.568,3.218h6.914a3.152,3.152,0,0,0-.839-2.239,3.274,3.274,0,0,0-2.505-.98Z" transform="translate(-945.164 -206.81)"/><path class="a" d="M1155.286,172.525l.852-2.146a5.8,5.8,0,0,0,1.626.8,5.647,5.647,0,0,0,1.743.32,3.155,3.155,0,0,0,2.192-.746,2.434,2.434,0,0,0,.828-1.9,2.983,2.983,0,0,0-.46-1.6,5.635,5.635,0,0,0-2.315-1.614l-1.376-.641a5.5,5.5,0,0,1-2.443-1.935,5,5,0,0,1-.694-2.693,4.146,4.146,0,0,1,1.353-3.17,4.9,4.9,0,0,1,3.475-1.259,6.316,6.316,0,0,1,3.941.92l-.688,2.029a5.352,5.352,0,0,0-1.422-.653,5.7,5.7,0,0,0-1.773-.315,2.543,2.543,0,0,0-1.872.676,2.336,2.336,0,0,0-.682,1.736,2.828,2.828,0,0,0,.245,1.189,2.476,2.476,0,0,0,.682.9,10.12,10.12,0,0,0,1.79,1.014l1.4.665a4.778,4.778,0,0,1,3.16,4.9,4.168,4.168,0,0,1-1.545,3.264,6.078,6.078,0,0,1-4.134,1.34A6.836,6.836,0,0,1,1155.286,172.525Z" transform="translate(-1070.022 -153.4)"/><path class="a" d="M1286.044,170.6v-7.845a3.275,3.275,0,0,0-.689-2.2,2.412,2.412,0,0,0-1.935-.8,3.182,3.182,0,0,0-1.615.473,3.771,3.771,0,0,0-1.241,1.1V170.6h-2.215V153h2.215v6.493a3.3,3.3,0,0,1,1.429-1.148,4.743,4.743,0,0,1,2.034-.461,3.886,3.886,0,0,1,3.108,1.306,5.267,5.267,0,0,1,1.121,3.567V170.6Z" transform="translate(-1183.272 -150.695)"/><path class="a" d="M1406.614,175.171V164.552H1404.9v-1.865h3.933v12.484Zm1.213-17.2a1.328,1.328,0,0,1,.974.4,1.313,1.313,0,0,1,.4.961,1.4,1.4,0,1,1-1.376-1.364Z" transform="translate(-1299.686 -155.263)"/><path class="a" d="M1465.193,155.02a3.885,3.885,0,0,0-1.26-.233,2.108,2.108,0,0,0-1.673.769,2.891,2.891,0,0,0-.658,1.947,3.813,3.813,0,0,0,.058.653h2.541v1.865h-2.537V170.64h-2.215V160.021h-1.819v-1.865h1.819a5.559,5.559,0,0,1,1.177-3.754,3.9,3.9,0,0,1,3.113-1.362,6.909,6.909,0,0,1,2.075.349Z" transform="translate(-1348.192 -150.732)"/><path class="a" d="M1545.876,178.891h-1.446v-1.748h1.446v-2.611l2.215-.851v3.463h3.428v1.748h-3.428v6.2a3.641,3.641,0,0,0,.53,2.238,2.06,2.06,0,0,0,1.709.665,4.1,4.1,0,0,0,1.762-.431l.327,1.946a12.255,12.255,0,0,1-3.02.349,3.277,3.277,0,0,1-2.5-1.1,3.934,3.934,0,0,1-1.02-2.78Z" transform="translate(-1428.04 -169.719)"/><path class="b" d="M91.819,239.631c5.607,1.992,11.162,1.369,16.714-.268,3.908-1.149,7.732-2.59,11.746-3.376a21.974,21.974,0,0,1,15.892,2.749l.572.353-.944-.142c-6.6-1.294-12.9.143-19.161,2.036a84.584,84.584,0,0,1-10.689,2.828c-5.378.887-10.252-.025-14.313-3.925l-.347-.429Z" transform="translate(-91.29 -226.618)"/><path class="a" d="M944.736,402.838a.257.257,0,0,1,.017.07.05.05,0,0,1-.015.04.09.09,0,0,1-.052.018c-.024,0-.057,0-.1,0h-.1a.2.2,0,0,1-.055-.01.058.058,0,0,1-.027-.018.2.2,0,0,1-.017-.03l-.219-.622h-1.06l-.209.613a.1.1,0,0,1-.016.03.069.069,0,0,1-.029.022.149.149,0,0,1-.053.013.891.891,0,0,1-.09,0,.732.732,0,0,1-.094,0,.1.1,0,0,1-.051-.018.052.052,0,0,1-.014-.041.247.247,0,0,1,.017-.07l.855-2.37a.108.108,0,0,1,.021-.035.088.088,0,0,1,.038-.022.329.329,0,0,1,.063-.011h.2a.366.366,0,0,1,.067.011.087.087,0,0,1,.039.022.114.114,0,0,1,.022.037Zm-1.1-2.091h0l-.439,1.271h.887Z" transform="translate(-874.374 -378.28)"/><path class="a" d="M988.171,402.351a.75.75,0,0,1-.03.222.632.632,0,0,1-.219.32.761.761,0,0,1-.175.1,1,1,0,0,1-.209.062,1.36,1.36,0,0,1-.255.021h-.666a.138.138,0,0,1-.084-.023.127.127,0,0,1-.04-.107v-2.275a.127.127,0,0,1,.04-.107.139.139,0,0,1,.086-.03h.58a1.354,1.354,0,0,1,.375.043.667.667,0,0,1,.24.126.524.524,0,0,1,.147.2.708.708,0,0,1,.049.272.679.679,0,0,1-.022.174.553.553,0,0,1-.064.153.525.525,0,0,1-.106.125.562.562,0,0,1-.147.091.64.64,0,0,1,.2.072.6.6,0,0,1,.266.32A.694.694,0,0,1,988.171,402.351Zm-.51-1.138a.518.518,0,0,0-.026-.167.312.312,0,0,0-.08-.127.365.365,0,0,0-.143-.08.807.807,0,0,0-.234-.028h-.35v.826h.385a.539.539,0,0,0,.212-.034.375.375,0,0,0,.134-.092.358.358,0,0,0,.08-.136A.516.516,0,0,0,987.661,401.213Zm.154,1.161a.507.507,0,0,0-.037-.2.38.38,0,0,0-.106-.146.454.454,0,0,0-.175-.09.952.952,0,0,0-.264-.03h-.405v.9h.492a.669.669,0,0,0,.2-.028.457.457,0,0,0,.152-.08.375.375,0,0,0,.1-.135.446.446,0,0,0,.036-.192Z" transform="translate(-914.789 -378.404)"/><path class="a" d="M1014.266,402.86a.048.048,0,0,1-.008.028.052.052,0,0,1-.027.018.276.276,0,0,1-.053.012.581.581,0,0,1-.08,0,.6.6,0,0,1-.08,0,.275.275,0,0,1-.053-.012.051.051,0,0,1-.027-.018.049.049,0,0,1-.008-.028v-2.448a.042.042,0,0,1,.009-.028.056.056,0,0,1,.03-.018.3.3,0,0,1,.053-.012.549.549,0,0,1,.08,0,.57.57,0,0,1,.08,0,.281.281,0,0,1,.053.012.051.051,0,0,1,.027.018.046.046,0,0,1,.008.028Z" transform="translate(-940.03 -378.233)"/><path class="a" d="M1026.665,400.505a.49.49,0,0,1,0,.066.167.167,0,0,1-.012.047.056.056,0,0,1-.019.027.05.05,0,0,1-.026.007.175.175,0,0,1-.08-.037,1.177,1.177,0,0,0-.147-.08,1.371,1.371,0,0,0-.222-.08,1.116,1.116,0,0,0-.307-.038.9.9,0,0,0-.379.08.822.822,0,0,0-.283.213.951.951,0,0,0-.179.32,1.291,1.291,0,0,0-.062.406,1.278,1.278,0,0,0,.068.433.93.93,0,0,0,.188.32.789.789,0,0,0,.287.2.968.968,0,0,0,.365.066,1.034,1.034,0,0,0,.24-.028.929.929,0,0,0,.225-.086V401.6h-.591a.054.054,0,0,1-.05-.034.241.241,0,0,1-.017-.1.51.51,0,0,1,0-.064.139.139,0,0,1,.013-.044.066.066,0,0,1,.021-.024.049.049,0,0,1,.03-.008h.81a.119.119,0,0,1,.044.008.114.114,0,0,1,.039.023.1.1,0,0,1,.027.043.172.172,0,0,1,.01.063v.972a.2.2,0,0,1-.018.088.151.151,0,0,1-.074.066,1.483,1.483,0,0,1-.148.062,1.727,1.727,0,0,1-.186.058,1.792,1.792,0,0,1-.2.035,1.611,1.611,0,0,1-.2.012,1.415,1.415,0,0,1-.528-.092,1.067,1.067,0,0,1-.393-.261,1.141,1.141,0,0,1-.246-.406,1.569,1.569,0,0,1-.085-.529,1.547,1.547,0,0,1,.092-.549,1.2,1.2,0,0,1,.258-.42,1.138,1.138,0,0,1,.4-.269,1.348,1.348,0,0,1,.517-.1,1.429,1.429,0,0,1,.274.026,1.93,1.93,0,0,1,.227.06.9.9,0,0,1,.167.075.478.478,0,0,1,.094.066.142.142,0,0,1,.036.059A.36.36,0,0,1,1026.665,400.505Z" transform="translate(-949.836 -378.03)"/><path class="a" d="M1071.761,401.735a1.785,1.785,0,0,1-.085.579,1.034,1.034,0,0,1-.247.409,1.011,1.011,0,0,1-.4.24,1.738,1.738,0,0,1-.561.08h-.54a.135.135,0,0,1-.086-.03.125.125,0,0,1-.041-.107v-2.275a.125.125,0,0,1,.041-.107.135.135,0,0,1,.086-.03h.578a1.6,1.6,0,0,1,.561.086,1.018,1.018,0,0,1,.383.246,1.048,1.048,0,0,1,.235.389A1.554,1.554,0,0,1,1071.761,401.735Zm-.356.014a1.431,1.431,0,0,0-.051-.385.837.837,0,0,0-.16-.308.734.734,0,0,0-.277-.2,1.086,1.086,0,0,0-.432-.073h-.348v1.981h.349a1.224,1.224,0,0,0,.412-.061.683.683,0,0,0,.28-.187.818.818,0,0,0,.168-.316,1.6,1.6,0,0,0,.058-.451Z" transform="translate(-991.426 -378.365)"/><path class="a" d="M1098.877,402.856a.263.263,0,0,1,.017.07.047.047,0,0,1-.014.04.091.091,0,0,1-.052.018c-.025,0-.057,0-.1,0h-.1a.205.205,0,0,1-.055-.01.053.053,0,0,1-.027-.018.112.112,0,0,1-.017-.03l-.219-.621h-1.06l-.209.613a.1.1,0,0,1-.015.03.069.069,0,0,1-.029.022.16.16,0,0,1-.053.013q-.045,0-.09,0a.742.742,0,0,1-.094,0,.1.1,0,0,1-.051-.018.052.052,0,0,1-.014-.041.249.249,0,0,1,.017-.07l.856-2.37a.107.107,0,0,1,.02-.035.1.1,0,0,1,.038-.022.347.347,0,0,1,.063-.011h.2a.365.365,0,0,1,.067.011.094.094,0,0,1,.039.022.105.105,0,0,1,.022.037Zm-1.1-2.091h0l-.44,1.271h.888Z" transform="translate(-1016.169 -378.298)"/><path class="a" d="M1123.337,400.646a.411.411,0,0,1,0,.065.123.123,0,0,1-.013.044.062.062,0,0,1-.022.025.048.048,0,0,1-.028.008h-.721V403a.045.045,0,0,1-.036.046.267.267,0,0,1-.052.012.576.576,0,0,1-.08,0,.6.6,0,0,1-.08,0,.267.267,0,0,1-.053-.012.053.053,0,0,1-.028-.018.056.056,0,0,1-.008-.028v-2.211h-.721a.047.047,0,0,1-.028-.008.053.053,0,0,1-.021-.025.154.154,0,0,1-.013-.044.361.361,0,0,1,0-.065.38.38,0,0,1,0-.066.18.18,0,0,1,.013-.046.056.056,0,0,1,.021-.026.054.054,0,0,1,.028-.007h1.775a.055.055,0,0,1,.028.007.063.063,0,0,1,.021.026.134.134,0,0,1,.013.046.418.418,0,0,1,0,.067Z" transform="translate(-1038.92 -378.372)"/><path class="a" d="M1144.736,402.856a.259.259,0,0,1,.017.07.05.05,0,0,1-.015.04.091.091,0,0,1-.052.018c-.025,0-.057,0-.1,0h-.1a.206.206,0,0,1-.055-.01.059.059,0,0,1-.027-.018.12.12,0,0,1-.017-.03l-.219-.621h-1.061l-.209.613a.1.1,0,0,1-.016.03.07.07,0,0,1-.029.022.149.149,0,0,1-.053.013c-.03,0-.06,0-.09,0a.744.744,0,0,1-.094,0,.1.1,0,0,1-.051-.018.052.052,0,0,1-.013-.041.225.225,0,0,1,.017-.07l.855-2.37a.1.1,0,0,1,.021-.035.09.09,0,0,1,.037-.022.346.346,0,0,1,.063-.011h.2a.36.36,0,0,1,.067.011.091.091,0,0,1,.039.022.1.1,0,0,1,.022.037Zm-1.1-2.091h0l-.44,1.271h.888Z" transform="translate(-1058.355 -378.298)"/><path class="a" d="M1186.535,402.358v.055a.22.22,0,0,1-.007.042.115.115,0,0,1-.013.031.187.187,0,0,1-.027.034.65.65,0,0,1-.08.06.934.934,0,0,1-.156.08,1.378,1.378,0,0,1-.216.066,1.244,1.244,0,0,1-.265.026,1.165,1.165,0,0,1-.449-.08.9.9,0,0,1-.34-.244,1.1,1.1,0,0,1-.217-.4,2,2,0,0,1,.006-1.113,1.236,1.236,0,0,1,.23-.42.98.98,0,0,1,.354-.264,1.171,1.171,0,0,1,.671-.07,1.375,1.375,0,0,1,.193.052.932.932,0,0,1,.16.073.577.577,0,0,1,.1.068.206.206,0,0,1,.034.041.123.123,0,0,1,.013.032.278.278,0,0,1,.008.045.461.461,0,0,1,0,.061.476.476,0,0,1,0,.067.161.161,0,0,1-.012.046.064.064,0,0,1-.018.027.044.044,0,0,1-.027.009.148.148,0,0,1-.08-.038,1.385,1.385,0,0,0-.128-.085,1.069,1.069,0,0,0-.19-.085.835.835,0,0,0-.269-.038.706.706,0,0,0-.31.068.657.657,0,0,0-.24.2.988.988,0,0,0-.154.32,1.764,1.764,0,0,0,0,.863.871.871,0,0,0,.151.311.629.629,0,0,0,.24.19.787.787,0,0,0,.32.064.852.852,0,0,0,.266-.038,1.025,1.025,0,0,0,.195-.08,1.4,1.4,0,0,0,.131-.08.162.162,0,0,1,.08-.038.048.048,0,0,1,.024.006.043.043,0,0,1,.015.023.207.207,0,0,1,.009.046A.651.651,0,0,1,1186.535,402.358Z" transform="translate(-1097.113 -378.04)"/><path class="a" d="M1213.388,401.313a1.968,1.968,0,0,1-.073.561,1.165,1.165,0,0,1-.218.422.947.947,0,0,1-.364.268,1.291,1.291,0,0,1-.511.094,1.321,1.321,0,0,1-.5-.086.872.872,0,0,1-.347-.249,1.065,1.065,0,0,1-.2-.406,2.092,2.092,0,0,1-.067-.561,1.916,1.916,0,0,1,.074-.548,1.126,1.126,0,0,1,.219-.419.959.959,0,0,1,.364-.266,1.45,1.45,0,0,1,1-.009.89.89,0,0,1,.348.247,1.055,1.055,0,0,1,.206.4A1.985,1.985,0,0,1,1213.388,401.313Zm-.359.024a1.986,1.986,0,0,0-.038-.4.913.913,0,0,0-.128-.32.616.616,0,0,0-.24-.214.805.805,0,0,0-.37-.08.758.758,0,0,0-.371.08.7.7,0,0,0-.24.221.9.9,0,0,0-.134.32,1.776,1.776,0,0,0-.041.388,2.135,2.135,0,0,0,.038.413.936.936,0,0,0,.126.327.605.605,0,0,0,.24.213.815.815,0,0,0,.372.075.771.771,0,0,0,.374-.08.671.671,0,0,0,.24-.223.955.955,0,0,0,.132-.327A1.867,1.867,0,0,0,1213.029,401.337Z" transform="translate(-1121.414 -377.94)"/><path class="a" d="M1249.119,402.989a.049.049,0,0,1-.008.028.05.05,0,0,1-.028.018.3.3,0,0,1-.052.012.567.567,0,0,1-.08,0,.593.593,0,0,1-.08,0,.271.271,0,0,1-.053-.012.055.055,0,0,1-.027-.018.048.048,0,0,1-.008-.028v-2.219h0l-.9,2.231a.07.07,0,0,1-.017.023.094.094,0,0,1-.031.017.212.212,0,0,1-.049.01.576.576,0,0,1-.068,0,.6.6,0,0,1-.071,0,.294.294,0,0,1-.049-.01.1.1,0,0,1-.03-.017.057.057,0,0,1-.015-.022l-.866-2.228h0v2.219a.053.053,0,0,1-.008.028.055.055,0,0,1-.029.018.286.286,0,0,1-.053.012.6.6,0,0,1-.08,0,.568.568,0,0,1-.08,0,.261.261,0,0,1-.052-.012.049.049,0,0,1-.026-.018.053.053,0,0,1-.006-.028v-2.345a.145.145,0,0,1,.043-.119.152.152,0,0,1,.1-.035h.208a.473.473,0,0,1,.112.011.248.248,0,0,1,.08.038.212.212,0,0,1,.06.065.488.488,0,0,1,.042.093l.73,1.847h.01l.759-1.842a.5.5,0,0,1,.048-.1.246.246,0,0,1,.057-.066.207.207,0,0,1,.069-.035.329.329,0,0,1,.088-.01h.219a.166.166,0,0,1,.057.009.108.108,0,0,1,.047.027.14.14,0,0,1,.03.047.183.183,0,0,1,.012.07Z" transform="translate(-1153.836 -378.362)"/><path class="a" d="M1291.026,401.246a.9.9,0,0,1-.063.345.738.738,0,0,1-.18.262.811.811,0,0,1-.288.168,1.249,1.249,0,0,1-.407.059h-.29V403a.043.043,0,0,1-.009.028.056.056,0,0,1-.027.018.253.253,0,0,1-.051.012.692.692,0,0,1-.16,0,.275.275,0,0,1-.053-.012.051.051,0,0,1-.027-.018.048.048,0,0,1-.008-.028v-2.353a.137.137,0,0,1,.042-.113.14.14,0,0,1,.092-.033h.546a1.311,1.311,0,0,1,.16.006,1.517,1.517,0,0,1,.18.03.741.741,0,0,1,.211.085.659.659,0,0,1,.182.153.627.627,0,0,1,.115.21A.8.8,0,0,1,1291.026,401.246Zm-.357.028a.531.531,0,0,0-.058-.26.412.412,0,0,0-.146-.154.5.5,0,0,0-.178-.065,1.245,1.245,0,0,0-.178-.014h-.314V401.8h.306a.709.709,0,0,0,.255-.039.487.487,0,0,0,.171-.109.471.471,0,0,0,.1-.168.624.624,0,0,0,.033-.214Z" transform="translate(-1193.493 -378.372)"/><path class="a" d="M1310.517,402.856a.25.25,0,0,1,.017.07.047.047,0,0,1-.014.04.09.09,0,0,1-.052.018c-.025,0-.057,0-.1,0h-.1a.2.2,0,0,1-.055-.01.063.063,0,0,1-.028-.018.15.15,0,0,1-.016-.03l-.219-.621h-1.061l-.209.613a.1.1,0,0,1-.015.03.072.072,0,0,1-.029.022.16.16,0,0,1-.053.013q-.045,0-.09,0a.751.751,0,0,1-.094,0,.094.094,0,0,1-.051-.018.052.052,0,0,1-.014-.041.249.249,0,0,1,.017-.07l.856-2.37a.111.111,0,0,1,.02-.035.1.1,0,0,1,.038-.022.342.342,0,0,1,.063-.011h.2a.361.361,0,0,1,.067.011.093.093,0,0,1,.039.022.1.1,0,0,1,.021.037Zm-1.1-2.091h0l-.44,1.271h.887Z" transform="translate(-1210.858 -378.298)"/><path class="a" d="M1342.836,402.837a.155.155,0,0,1-.014.066.136.136,0,0,1-.035.046.14.14,0,0,1-.048.026.2.2,0,0,1-.053.008h-.112a.362.362,0,0,1-.093-.011.209.209,0,0,1-.075-.039.434.434,0,0,1-.071-.08.978.978,0,0,1-.075-.126l-.781-1.448c-.041-.075-.08-.154-.123-.236s-.08-.16-.115-.24h0c0,.095,0,.191.006.289s0,.2,0,.294v1.54a.05.05,0,0,1-.008.027.06.06,0,0,1-.028.019.285.285,0,0,1-.052.012.575.575,0,0,1-.08,0,.567.567,0,0,1-.08,0,.253.253,0,0,1-.051-.012.054.054,0,0,1-.027-.019.049.049,0,0,1-.008-.027v-2.353a.13.13,0,0,1,.045-.113.16.16,0,0,1,.1-.033h.166a.427.427,0,0,1,.1.01.21.21,0,0,1,.071.032.28.28,0,0,1,.061.063.815.815,0,0,1,.063.1l.6,1.121c.037.068.072.135.106.2s.067.129.1.192l.094.186.093.184h0c0-.1,0-.211,0-.32s0-.221,0-.324v-1.389a.043.043,0,0,1,.008-.026.074.074,0,0,1,.028-.021.191.191,0,0,1,.052-.013.788.788,0,0,1,.08,0,.745.745,0,0,1,.08,0,.174.174,0,0,1,.052.013.081.081,0,0,1,.027.021.042.042,0,0,1,.008.026Z" transform="translate(-1240.822 -378.298)"/><path class="a" d="M1371.066,401.953v.937a.046.046,0,0,1-.035.046.286.286,0,0,1-.053.012.59.59,0,0,1-.08,0,.561.561,0,0,1-.08,0,.283.283,0,0,1-.053-.012.053.053,0,0,1-.029-.018.056.056,0,0,1-.008-.028v-.937l-.721-1.442a.317.317,0,0,1-.026-.071.038.038,0,0,1,.01-.039.086.086,0,0,1,.053-.018.9.9,0,0,1,.1,0,.8.8,0,0,1,.1,0,.345.345,0,0,1,.058.01.069.069,0,0,1,.033.02.213.213,0,0,1,.021.032l.352.734q.049.1.1.219t.1.231h0q.046-.112.094-.224c.032-.075.064-.147.1-.22l.355-.737a.108.108,0,0,1,.017-.034.068.068,0,0,1,.03-.021.257.257,0,0,1,.052-.01.626.626,0,0,1,.085,0,1.015,1.015,0,0,1,.111,0,.108.108,0,0,1,.056.018.039.039,0,0,1,.011.04.3.3,0,0,1-.027.069Z" transform="translate(-1267.562 -378.263)"/></svg>