<svg xmlns="http://www.w3.org/2000/svg" width="428" height="93.148" viewBox="0 0 428 93.148"><defs><style>.a{fill:#1e1e1e;}.b,.c{fill:#2cabe0;}.c{fill-rule:evenodd;}</style></defs><g transform="translate(-91.286 -124.208)"><g transform="translate(256.665 132.148)"><path class="a" d="M708.083,216.96H691.312V158.193q10.713-.521,15.447-.522,8.706,0,13.481,3.751t4.774,10.731a10.872,10.872,0,0,1-3.048,7.461,13.008,13.008,0,0,1-6.742,4.212q6.982,1.684,10.171,5.576t3.191,10.59a15.106,15.106,0,0,1-5.677,12.356Q717.23,216.961,708.083,216.96Zm-8.745-52.349V181.5q2.526.242,6.258.241,11.394,0,11.4-9.266,0-8.143-10.473-8.143Q702.507,164.331,699.338,164.611Zm0,23.106v22.424q4.13.4,6.338.4,7.544,0,11.014-2.828t3.47-9.006q0-5.736-3.31-8.464T705.8,187.517Z" transform="translate(-691.312 -156.388)"/><path class="a" d="M831.719,201.434V153.015h7.623V200.15a7.344,7.344,0,0,0,1.986,5.436,7.032,7.032,0,0,0,5.2,1.986v6.819Q831.718,214.39,831.719,201.434Z" transform="translate(-793.02 -153.015)"/><path class="a" d="M897.554,216.91v27.4q0,9.95,8.626,9.949a11.868,11.868,0,0,0,6.9-2.166,10.391,10.391,0,0,0,4.133-5.015V216.91h7.623v42.962h-7.623v-5.936q-1.285,2.527-5.156,4.633a15.777,15.777,0,0,1-7.564,2.106q-7.061,0-10.812-4.052T889.93,245.11v-28.2Z" transform="translate(-835.187 -199.299)"/><path class="a" d="M1058.516,237.024h-30.974q0,7.544,4.132,11.593a12.95,12.95,0,0,0,9.389,3.53,16.018,16.018,0,0,0,10.914-3.811l3.21,5.5a14.353,14.353,0,0,1-5.417,3.048,29.284,29.284,0,0,1-10.192,1.685,19.01,19.01,0,0,1-13.76-5.5q-6.3-6.057-6.3-16.286,0-10.63,6.46-17.049A18.766,18.766,0,0,1,1039.659,214q9.187,0,14.4,5.175,5.058,4.974,5.056,13.2A17.047,17.047,0,0,1,1058.516,237.024Zm-18.5-16.607a12.045,12.045,0,0,0-12.277,11.072h23.792a10.842,10.842,0,0,0-2.888-7.7A11.277,11.277,0,0,0,1040.018,220.416Z" transform="translate(-929.056 -197.19)"/><path class="a" d="M1155.4,213.011l2.931-7.382a19.977,19.977,0,0,0,5.6,2.748,19.419,19.419,0,0,0,6,1.1,10.832,10.832,0,0,0,7.543-2.568,8.411,8.411,0,0,0,2.849-6.539,10.254,10.254,0,0,0-1.585-5.516q-1.586-2.546-7.965-5.556l-4.734-2.206q-6.019-2.806-8.406-6.658a17.239,17.239,0,0,1-2.387-9.267,14.277,14.277,0,0,1,4.654-10.911,16.849,16.849,0,0,1,11.957-4.332q9.75,0,13.561,3.169l-2.368,6.98a18.494,18.494,0,0,0-4.893-2.246,19.625,19.625,0,0,0-6.1-1.083,8.75,8.75,0,0,0-6.441,2.327,8.05,8.05,0,0,0-2.347,5.977,9.727,9.727,0,0,0,.843,4.092,8.552,8.552,0,0,0,2.346,3.089,34.985,34.985,0,0,0,6.16,3.49l4.815,2.287q6.018,2.849,8.446,6.8a18.925,18.925,0,0,1,2.427,10.049,14.334,14.334,0,0,1-5.317,11.232q-5.316,4.614-14.223,4.614A23.544,23.544,0,0,1,1155.4,213.011Z" transform="translate(-1027.374 -155.124)"/><path class="a" d="M1304.808,213.588v-27a11.282,11.282,0,0,0-2.368-7.582,8.285,8.285,0,0,0-6.66-2.768,10.963,10.963,0,0,0-5.556,1.624,12.953,12.953,0,0,0-4.273,3.791v31.93h-7.623V153.015h7.623v22.343a11.347,11.347,0,0,1,4.915-3.951,16.363,16.363,0,0,1,7-1.585q6.82,0,10.692,4.493t3.871,12.275v27Z" transform="translate(-1116.533 -153.015)"/><path class="a" d="M1410.8,217.173V180.63h-5.9v-6.418h13.521v42.962Zm4.173-59.208a4.569,4.569,0,0,1,3.351,1.384,4.519,4.519,0,0,1,1.383,3.309,4.724,4.724,0,0,1-4.734,4.733,4.713,4.713,0,1,1,0-9.426Z" transform="translate(-1208.222 -156.601)"/><path class="a" d="M1483.62,159.835a13.349,13.349,0,0,0-4.333-.8,7.251,7.251,0,0,0-5.758,2.648,9.937,9.937,0,0,0-2.267,6.7,13.141,13.141,0,0,0,.2,2.247h8.747v6.418h-8.747v36.543h-7.623V177.044h-6.259v-6.418h6.259q0-8.223,4.051-12.917a13.458,13.458,0,0,1,10.713-4.694,23.8,23.8,0,0,1,7.143,1.2Z" transform="translate(-1246.381 -153.015)"/><path class="a" d="M1549.407,191.614h-4.977V185.6h4.977v-8.986l7.622-2.928V185.6h11.8v6.017h-11.8v21.341q0,5.416,1.826,7.7t5.876,2.287a14.114,14.114,0,0,0,6.061-1.484l1.122,6.7a42.122,42.122,0,0,1-10.39,1.2,11.277,11.277,0,0,1-8.607-3.791,13.527,13.527,0,0,1-3.51-9.567Z" transform="translate(-1309.294 -167.986)"/><g transform="translate(65.807 68.082)"><path class="b" d="M937.571,408.753a.846.846,0,0,1,.058.241.167.167,0,0,1-.051.139.329.329,0,0,1-.18.061,3.293,3.293,0,0,1-.335.013c-.14,0-.252,0-.336-.01a.74.74,0,0,1-.19-.034.2.2,0,0,1-.1-.064.551.551,0,0,1-.058-.1l-.753-2.137h-3.65l-.719,2.11a.356.356,0,0,1-.054.105.267.267,0,0,1-.1.074.6.6,0,0,1-.183.044,2.856,2.856,0,0,1-.309.013,2.491,2.491,0,0,1-.322-.017.323.323,0,0,1-.177-.064.173.173,0,0,1-.048-.139.843.843,0,0,1,.058-.241l2.944-8.154a.353.353,0,0,1,.071-.122.292.292,0,0,1,.129-.074.955.955,0,0,1,.217-.037c.088-.007.2-.01.336-.01s.265,0,.36.01a1.058,1.058,0,0,1,.231.037.3.3,0,0,1,.135.078.369.369,0,0,1,.075.125Zm-3.779-7.2h-.007l-1.513,4.375h3.053Z" transform="translate(-930.071 -400.26)"/><path class="b" d="M979.779,406.757a2.632,2.632,0,0,1-.105.763,2.244,2.244,0,0,1-.3.628,2.179,2.179,0,0,1-.458.489,2.632,2.632,0,0,1-.6.353,3.441,3.441,0,0,1-.719.214,4.817,4.817,0,0,1-.878.071h-2.293a.48.48,0,0,1-.3-.105.436.436,0,0,1-.139-.37v-7.828a.436.436,0,0,1,.139-.37.481.481,0,0,1,.3-.105h1.994a4.639,4.639,0,0,1,1.289.149,2.281,2.281,0,0,1,.838.434,1.794,1.794,0,0,1,.505.7,2.449,2.449,0,0,1,.17.936,2.356,2.356,0,0,1-.075.6,1.985,1.985,0,0,1-.221.526,1.781,1.781,0,0,1-.366.431,1.941,1.941,0,0,1-.506.312,2.125,2.125,0,0,1,.672.247,2.036,2.036,0,0,1,.546.458,2.139,2.139,0,0,1,.37.651A2.4,2.4,0,0,1,979.779,406.757Zm-1.757-3.928a1.776,1.776,0,0,0-.088-.577,1.068,1.068,0,0,0-.277-.438,1.248,1.248,0,0,0-.494-.275,2.791,2.791,0,0,0-.805-.1h-1.2v2.843h1.327a1.886,1.886,0,0,0,.731-.119,1.316,1.316,0,0,0,.46-.319,1.241,1.241,0,0,0,.267-.468A1.831,1.831,0,0,0,978.022,402.829Zm.529,4a1.773,1.773,0,0,0-.125-.692,1.307,1.307,0,0,0-.365-.5,1.621,1.621,0,0,0-.6-.309,3.328,3.328,0,0,0-.911-.105h-1.395v3.093h1.693a2.3,2.3,0,0,0,.7-.1,1.563,1.563,0,0,0,.525-.281,1.3,1.3,0,0,0,.355-.465A1.522,1.522,0,0,0,978.552,406.825Z" transform="translate(-961.887 -400.367)"/><path class="b" d="M1002.578,408.99a.169.169,0,0,1-.027.1.18.18,0,0,1-.095.064,1.007,1.007,0,0,1-.18.041,1.935,1.935,0,0,1-.281.017,1.957,1.957,0,0,1-.278-.017,1,1,0,0,1-.183-.041.18.18,0,0,1-.1-.064.167.167,0,0,1-.027-.1v-8.425a.152.152,0,0,1,.031-.1.2.2,0,0,1,.1-.064,1.1,1.1,0,0,1,.183-.041,1.839,1.839,0,0,1,.268-.017,1.953,1.953,0,0,1,.281.017,1.015,1.015,0,0,1,.18.041.179.179,0,0,1,.095.064.169.169,0,0,1,.027.1Z" transform="translate(-981.748 -400.26)"/><path class="b" d="M1019.26,401.369a1.723,1.723,0,0,1-.014.227.673.673,0,0,1-.041.163.2.2,0,0,1-.068.092.157.157,0,0,1-.088.027.612.612,0,0,1-.271-.129,4.37,4.37,0,0,0-.509-.285,4.8,4.8,0,0,0-.764-.285,3.805,3.805,0,0,0-1.055-.129,3.083,3.083,0,0,0-1.3.265,2.8,2.8,0,0,0-.977.733,3.269,3.269,0,0,0-.614,1.112,4.777,4.777,0,0,0,.02,2.89,3.174,3.174,0,0,0,.648,1.1,2.693,2.693,0,0,0,.987.678,3.339,3.339,0,0,0,1.258.231,3.568,3.568,0,0,0,.824-.1,3.071,3.071,0,0,0,.777-.3v-2.557h-2.035a.185.185,0,0,1-.173-.115.85.85,0,0,1-.057-.36,1.559,1.559,0,0,1,.013-.22.482.482,0,0,1,.044-.149.228.228,0,0,1,.071-.085.178.178,0,0,1,.1-.027h2.788a.431.431,0,0,1,.149.027.413.413,0,0,1,.136.082.353.353,0,0,1,.1.149.644.644,0,0,1,.034.217v3.344a.7.7,0,0,1-.061.305.528.528,0,0,1-.258.227,5.19,5.19,0,0,1-.509.214,5.907,5.907,0,0,1-.645.2,5.624,5.624,0,0,1-.671.122,5.685,5.685,0,0,1-.672.041,4.931,4.931,0,0,1-1.818-.315,3.707,3.707,0,0,1-1.354-.9,3.932,3.932,0,0,1-.845-1.4,5.827,5.827,0,0,1,.024-3.71,4.141,4.141,0,0,1,.889-1.445,3.971,3.971,0,0,1,1.377-.926,4.659,4.659,0,0,1,1.781-.329,4.785,4.785,0,0,1,.943.088,6.017,6.017,0,0,1,.784.207,3.148,3.148,0,0,1,.576.258,1.76,1.76,0,0,1,.323.227.481.481,0,0,1,.122.2A1.253,1.253,0,0,1,1019.26,401.369Z" transform="translate(-989.504 -400.046)"/><path class="b" d="M1064.055,404.756a6.14,6.14,0,0,1-.292,1.991,3.629,3.629,0,0,1-.851,1.411,3.524,3.524,0,0,1-1.374.838,6.024,6.024,0,0,1-1.94.278h-1.859a.479.479,0,0,1-.3-.105.435.435,0,0,1-.139-.37v-7.828a.435.435,0,0,1,.139-.37.48.48,0,0,1,.3-.105h1.988a5.518,5.518,0,0,1,1.926.295,3.516,3.516,0,0,1,1.32.848,3.625,3.625,0,0,1,.807,1.34A5.369,5.369,0,0,1,1064.055,404.756Zm-1.228.047a4.781,4.781,0,0,0-.176-1.326,2.843,2.843,0,0,0-.553-1.062,2.553,2.553,0,0,0-.953-.7,3.753,3.753,0,0,0-1.486-.251h-1.187V408.3h1.2a4.167,4.167,0,0,0,1.418-.21,2.337,2.337,0,0,0,.963-.645,2.8,2.8,0,0,0,.58-1.089A5.5,5.5,0,0,0,1062.827,404.8Z" transform="translate(-1022.237 -400.367)"/><path class="b" d="M1091.717,408.753a.836.836,0,0,1,.058.241.166.166,0,0,1-.051.139.33.33,0,0,1-.18.061,3.309,3.309,0,0,1-.336.013q-.211,0-.335-.01a.744.744,0,0,1-.191-.034.2.2,0,0,1-.095-.064.519.519,0,0,1-.057-.1l-.753-2.137h-3.65l-.719,2.11a.377.377,0,0,1-.054.105.268.268,0,0,1-.1.074.616.616,0,0,1-.184.044,2.844,2.844,0,0,1-.308.013,2.508,2.508,0,0,1-.323-.017.32.32,0,0,1-.176-.064.171.171,0,0,1-.047-.139.831.831,0,0,1,.058-.241l2.944-8.154a.34.34,0,0,1,.071-.122.293.293,0,0,1,.129-.074.96.96,0,0,1,.217-.037c.088-.007.2-.01.336-.01s.265,0,.36.01a1.058,1.058,0,0,1,.23.037.308.308,0,0,1,.136.078.366.366,0,0,1,.074.125Zm-3.779-7.2h-.007l-1.513,4.375h3.053Z" transform="translate(-1041.732 -400.26)"/><path class="b" d="M1115.508,401a1.649,1.649,0,0,1-.013.224.473.473,0,0,1-.044.153.207.207,0,0,1-.075.085.18.18,0,0,1-.1.027h-2.469V409.1a.169.169,0,0,1-.027.1.178.178,0,0,1-.095.064,1.02,1.02,0,0,1-.18.041,1.918,1.918,0,0,1-.281.017,1.943,1.943,0,0,1-.279-.017,1.023,1.023,0,0,1-.183-.041.18.18,0,0,1-.095-.064.167.167,0,0,1-.027-.1v-7.611h-2.469a.182.182,0,0,1-.1-.027.2.2,0,0,1-.071-.085.62.62,0,0,1-.044-.153,1.275,1.275,0,0,1-.017-.224,1.34,1.34,0,0,1,.017-.227.688.688,0,0,1,.044-.159.2.2,0,0,1,.071-.088.186.186,0,0,1,.1-.027h6.105a.183.183,0,0,1,.1.027.208.208,0,0,1,.075.088.521.521,0,0,1,.044.159A1.735,1.735,0,0,1,1115.508,401Z" transform="translate(-1059.642 -400.367)"/><path class="b" d="M1137.57,408.753a.836.836,0,0,1,.058.241.167.167,0,0,1-.051.139.331.331,0,0,1-.18.061,3.29,3.29,0,0,1-.335.013q-.21,0-.336-.01a.735.735,0,0,1-.19-.034.2.2,0,0,1-.1-.064.538.538,0,0,1-.058-.1l-.753-2.137h-3.649l-.719,2.11a.387.387,0,0,1-.055.105.27.27,0,0,1-.1.074.609.609,0,0,1-.183.044,2.85,2.85,0,0,1-.309.013,2.5,2.5,0,0,1-.322-.017.321.321,0,0,1-.176-.064.172.172,0,0,1-.047-.139.826.826,0,0,1,.058-.241l2.944-8.154a.344.344,0,0,1,.071-.122.293.293,0,0,1,.129-.074.953.953,0,0,1,.217-.037c.088-.007.2-.01.335-.01s.264,0,.36.01a1.055,1.055,0,0,1,.231.037.3.3,0,0,1,.135.078.361.361,0,0,1,.075.125Zm-3.778-7.2h-.006l-1.513,4.375h3.053Z" transform="translate(-1074.947 -400.26)"/><path class="b" d="M1178.515,407.747c0,.073,0,.136-.007.19a.774.774,0,0,1-.024.143.459.459,0,0,1-.044.109.58.58,0,0,1-.095.115,1.967,1.967,0,0,1-.284.207,3.407,3.407,0,0,1-.54.272,4.491,4.491,0,0,1-.739.224,4.246,4.246,0,0,1-.913.092,4,4,0,0,1-1.543-.285,3.116,3.116,0,0,1-1.174-.841,3.832,3.832,0,0,1-.746-1.374,6.9,6.9,0,0,1,.02-3.83,4.238,4.238,0,0,1,.79-1.448,3.381,3.381,0,0,1,1.218-.906,4.033,4.033,0,0,1,2.31-.241,4.682,4.682,0,0,1,.665.18,2.958,2.958,0,0,1,.543.251,1.851,1.851,0,0,1,.329.234.813.813,0,0,1,.119.139.492.492,0,0,1,.044.112,1.206,1.206,0,0,1,.027.152,1.866,1.866,0,0,1,.01.211,1.592,1.592,0,0,1-.014.231.64.64,0,0,1-.041.159.243.243,0,0,1-.065.1.142.142,0,0,1-.092.03.51.51,0,0,1-.266-.132,4.256,4.256,0,0,0-.44-.292,3.6,3.6,0,0,0-.655-.292,2.866,2.866,0,0,0-.924-.132,2.407,2.407,0,0,0-1.068.234,2.247,2.247,0,0,0-.822.689,3.359,3.359,0,0,0-.529,1.109,6.089,6.089,0,0,0-.007,2.971,3.059,3.059,0,0,0,.518,1.072,2.166,2.166,0,0,0,.828.651,2.684,2.684,0,0,0,1.112.221,2.94,2.94,0,0,0,.917-.129,3.538,3.538,0,0,0,.668-.288,5.092,5.092,0,0,0,.454-.288.545.545,0,0,1,.28-.129.157.157,0,0,1,.081.02.139.139,0,0,1,.055.078.729.729,0,0,1,.031.159C1178.512,407.557,1178.515,407.643,1178.515,407.747Z" transform="translate(-1105.426 -400.082)"/><path class="b" d="M1206.477,404.444a6.806,6.806,0,0,1-.251,1.92,4.023,4.023,0,0,1-.75,1.455,3.273,3.273,0,0,1-1.252.923,4.443,4.443,0,0,1-1.757.322,4.523,4.523,0,0,1-1.713-.3,3.009,3.009,0,0,1-1.193-.858,3.654,3.654,0,0,1-.7-1.4,7.223,7.223,0,0,1-.231-1.92,6.617,6.617,0,0,1,.251-1.886,3.917,3.917,0,0,1,.753-1.442,3.336,3.336,0,0,1,1.255-.916,4.992,4.992,0,0,1,3.446-.031,3.06,3.06,0,0,1,1.2.851,3.621,3.621,0,0,1,.713,1.384A6.934,6.934,0,0,1,1206.477,404.444Zm-1.235.081a6.875,6.875,0,0,0-.132-1.387,3.188,3.188,0,0,0-.44-1.113,2.13,2.13,0,0,0-.824-.736,2.769,2.769,0,0,0-1.273-.264,2.6,2.6,0,0,0-1.274.285,2.4,2.4,0,0,0-.837.76,3.168,3.168,0,0,0-.46,1.109,6.191,6.191,0,0,0-.139,1.333,7.356,7.356,0,0,0,.128,1.424,3.18,3.18,0,0,0,.434,1.123,2.076,2.076,0,0,0,.816.732,2.807,2.807,0,0,0,1.284.262,2.656,2.656,0,0,0,1.287-.285,2.319,2.319,0,0,0,.84-.77,3.259,3.259,0,0,0,.454-1.123A6.513,6.513,0,0,0,1205.242,404.525Z" transform="translate(-1124.608 -400.028)"/><path class="b" d="M1243.344,409.1a.16.16,0,0,1-.029.1.182.182,0,0,1-.1.064,1.088,1.088,0,0,1-.179.041,1.886,1.886,0,0,1-.282.017,1.935,1.935,0,0,1-.277-.017.974.974,0,0,1-.181-.041.182.182,0,0,1-.094-.064.165.165,0,0,1-.028-.1v-7.645h-.013l-3.094,7.679a.238.238,0,0,1-.057.081.3.3,0,0,1-.109.058.767.767,0,0,1-.169.034,2.282,2.282,0,0,1-.234.01,1.884,1.884,0,0,1-.244-.013.9.9,0,0,1-.17-.037.3.3,0,0,1-.1-.058.18.18,0,0,1-.051-.075l-2.957-7.679h-.007V409.1a.167.167,0,0,1-.028.1.188.188,0,0,1-.1.064,1.082,1.082,0,0,1-.182.041,1.967,1.967,0,0,1-.287.017,1.9,1.9,0,0,1-.279-.017.98.98,0,0,1-.178-.041.167.167,0,0,1-.091-.064.184.184,0,0,1-.024-.1v-8.073a.491.491,0,0,1,.152-.407.524.524,0,0,1,.337-.122H1235a1.626,1.626,0,0,1,.385.041.84.84,0,0,1,.289.129.744.744,0,0,1,.206.224,1.623,1.623,0,0,1,.145.319l2.51,6.356h.034l2.612-6.336a1.861,1.861,0,0,1,.165-.346.9.9,0,0,1,.2-.227.683.683,0,0,1,.238-.122,1.118,1.118,0,0,1,.3-.037h.751a.625.625,0,0,1,.2.03.4.4,0,0,1,.158.1.5.5,0,0,1,.107.163.625.625,0,0,1,.041.241Z" transform="translate(-1150.086 -400.367)"/><path class="b" d="M1282.289,403.067a3.116,3.116,0,0,1-.217,1.188,2.509,2.509,0,0,1-.621.9,2.778,2.778,0,0,1-.99.577,4.29,4.29,0,0,1-1.4.2h-1V409.1a.153.153,0,0,1-.031.1.2.2,0,0,1-.095.064.936.936,0,0,1-.177.041,2.379,2.379,0,0,1-.563,0,1.006,1.006,0,0,1-.179-.041.182.182,0,0,1-.1-.064.17.17,0,0,1-.027-.1V401a.471.471,0,0,1,.142-.387.5.5,0,0,1,.319-.115h1.879q.285,0,.546.024a5.211,5.211,0,0,1,.617.1,2.541,2.541,0,0,1,.726.292,2.294,2.294,0,0,1,.628.526,2.262,2.262,0,0,1,.4.722A2.8,2.8,0,0,1,1282.289,403.067Zm-1.229.1a1.829,1.829,0,0,0-.2-.9,1.4,1.4,0,0,0-.5-.536,1.671,1.671,0,0,0-.61-.224,4.115,4.115,0,0,0-.614-.048h-1.079v3.521h1.052a2.446,2.446,0,0,0,.879-.136,1.648,1.648,0,0,0,.586-.376,1.581,1.581,0,0,0,.36-.576A2.123,2.123,0,0,0,1281.06,403.162Z" transform="translate(-1181.303 -400.367)"/><path class="b" d="M1303.358,408.753a.861.861,0,0,1,.058.241.168.168,0,0,1-.051.139.33.33,0,0,1-.18.061,3.318,3.318,0,0,1-.336.013c-.14,0-.252,0-.335-.01a.733.733,0,0,1-.19-.034.2.2,0,0,1-.1-.064.573.573,0,0,1-.057-.1l-.753-2.137h-3.65l-.719,2.11a.374.374,0,0,1-.054.105.27.27,0,0,1-.1.074.611.611,0,0,1-.183.044,2.841,2.841,0,0,1-.308.013,2.491,2.491,0,0,1-.323-.017.322.322,0,0,1-.176-.064.169.169,0,0,1-.047-.139.813.813,0,0,1,.058-.241l2.944-8.154a.357.357,0,0,1,.072-.122.293.293,0,0,1,.128-.074.963.963,0,0,1,.217-.037q.132-.01.336-.01t.359.01a1.046,1.046,0,0,1,.231.037.3.3,0,0,1,.136.078.352.352,0,0,1,.075.125Zm-3.778-7.2h-.007l-1.512,4.375h3.052Z" transform="translate(-1195.04 -400.26)"/><path class="b" d="M1335.018,408.739a.528.528,0,0,1-.045.23.452.452,0,0,1-.284.244.636.636,0,0,1-.182.027h-.386a1.225,1.225,0,0,1-.319-.037.72.72,0,0,1-.26-.136,1.348,1.348,0,0,1-.246-.268,3.523,3.523,0,0,1-.26-.434l-2.677-4.993q-.211-.387-.423-.811t-.4-.824h-.014q.013.489.02,1t.007,1.01v5.3a.166.166,0,0,1-.029.092.179.179,0,0,1-.1.068,1.03,1.03,0,0,1-.179.041,2.391,2.391,0,0,1-.566,0,.925.925,0,0,1-.175-.041.181.181,0,0,1-.093-.068.168.168,0,0,1-.028-.092v-8.1a.452.452,0,0,1,.154-.387.549.549,0,0,1,.336-.115h.574a1.435,1.435,0,0,1,.34.034.708.708,0,0,1,.245.112.984.984,0,0,1,.21.218,2.971,2.971,0,0,1,.214.349l2.058,3.853q.191.353.367.689t.341.661c.109.217.218.431.324.641s.214.422.318.634h.007q-.013-.536-.017-1.116t0-1.116v-4.762a.149.149,0,0,1,.028-.088.232.232,0,0,1,.1-.071.647.647,0,0,1,.179-.044,2.561,2.561,0,0,1,.29-.013,2.427,2.427,0,0,1,.272.013.6.6,0,0,1,.179.044.227.227,0,0,1,.093.071.151.151,0,0,1,.028.088Z" transform="translate(-1218.601 -400.313)"/><path class="b" d="M1361.216,405.755v3.236a.167.167,0,0,1-.027.1.179.179,0,0,1-.094.064,1,1,0,0,1-.182.041,2.3,2.3,0,0,1-.556,0,1.074,1.074,0,0,1-.182-.041.18.18,0,0,1-.1-.064.167.167,0,0,1-.027-.1v-3.236l-2.483-4.952a1.114,1.114,0,0,1-.091-.244.136.136,0,0,1,.034-.136.319.319,0,0,1,.183-.061q.131-.014.356-.013a3.177,3.177,0,0,1,.329.013,1.116,1.116,0,0,1,.2.037.237.237,0,0,1,.112.068.554.554,0,0,1,.071.112l1.214,2.524q.169.359.338.753t.344.794h.013q.155-.387.321-.77t.334-.756l1.221-2.537a.355.355,0,0,1,.057-.115.23.23,0,0,1,.1-.071.863.863,0,0,1,.18-.037,2.569,2.569,0,0,1,.292-.013,3.4,3.4,0,0,1,.384.017.363.363,0,0,1,.193.065.133.133,0,0,1,.038.136,1.007,1.007,0,0,1-.092.237Z" transform="translate(-1239.671 -400.26)"/></g></g><g transform="translate(91.286 124.208)"><path class="a" d="M195.5,319.507h8v15.535s-.308,2.615,2.615,2.307l72.292.025s2.615.59,2.461-2.025l.007-34.608h7.838v41.837a2.294,2.294,0,0,1-2.615,2.615l-87.673.006a2.391,2.391,0,0,1-2.922-2.621Z" transform="translate(-166.774 -252.086)"/><path class="a" d="M288.716,147.869h-8V134.4s.307-2.615-2.615-2.307l-72.292-.025s-2.615-.59-2.461,2.025l-.111,32.363H195.5l.009-39.592a2.294,2.294,0,0,1,2.615-2.615l87.673-.006a2.391,2.391,0,0,1,2.923,2.621Z" transform="translate(-166.774 -124.208)"/><path class="c" d="M93.11,249.635c19.288,6.855,38.409,4.71,57.516-.924,13.445-3.964,26.609-8.912,40.419-11.617,18.87-3.7,36.908-.928,54.686,9.458l1.967,1.217-3.24-.489c-22.7-4.456-44.393.494-65.942,7.007-12.144,3.671-24.209,7.659-36.782,9.732-18.51,3.053-35.3-.086-49.254-13.5l-1.195-1.477Z" transform="translate(-91.286 -204.851)"/></g></g></svg>