<svg xmlns="http://www.w3.org/2000/svg" width="23.975" height="18.231" viewBox="0 0 23.975 18.231"><defs><style>.a{fill:#a5b5bb;stroke:#f9dc48;}</style></defs><g transform="translate(0.5 -63.5)"><g transform="translate(0 64)"><path class="a" d="M21.06,64H1.915A1.916,1.916,0,0,0,0,65.915v13.4a1.916,1.916,0,0,0,1.915,1.915H21.06a1.916,1.916,0,0,0,1.915-1.915v-13.4A1.916,1.916,0,0,0,21.06,64Zm-19.145.957H21.06a.911.911,0,0,1,.2.04c-1.658,1.517-7.154,6.545-9.077,8.278a.96.96,0,0,1-1.39,0C8.869,71.542,3.373,66.514,1.715,65A.915.915,0,0,1,1.915,64.957ZM.957,79.316v-13.4a.925.925,0,0,1,.054-.265c1.269,1.161,5.1,4.669,7.59,6.931-2.479,2.129-6.315,5.766-7.593,6.985A.923.923,0,0,1,.957,79.316Zm20.1.957H1.915A.916.916,0,0,1,1.7,80.23c1.321-1.26,5.182-4.917,7.617-7l.836.756a1.912,1.912,0,0,0,2.671,0l.836-.757c2.435,2.083,6.295,5.74,7.617,7A.915.915,0,0,1,21.06,80.274Zm.957-.957a.924.924,0,0,1-.051.25c-1.279-1.22-5.115-4.856-7.593-6.985,2.487-2.261,6.321-5.769,7.59-6.931a.925.925,0,0,1,.054.265Z" transform="translate(0 -64)"/></g></g></svg>