<svg xmlns="http://www.w3.org/2000/svg" xmlns:xlink="http://www.w3.org/1999/xlink" width="20" height="20" viewBox="0 0 20 20">
  <defs>
    <clipPath id="clip-path">
      <rect id="Rectangle_987" data-name="Rectangle 987" width="20" height="20" transform="translate(858 466)" fill="#fff" stroke="#707070" stroke-width="1"/>
    </clipPath>
  </defs>
  <g id="Negociação" transform="translate(-858 -466)" clip-path="url(#clip-path)">
    <g id="partnership-handshake" transform="translate(858 466.034)">
      <g id="Group_903" data-name="Group 903">
        <path id="Path_4655" data-name="Path 4655" d="M12.083,12.667A1.584,1.584,0,0,1,11,12.25l-.833-.833a.412.412,0,0,1,.583-.583l.833.833a.874.874,0,0,0,1.083,0,.712.712,0,0,0,0-1.083l-2.5-2.5A.412.412,0,0,1,10.75,7.5l2.5,2.5a1.664,1.664,0,0,1,0,2.25A1.991,1.991,0,0,1,12.083,12.667Z"/>
      </g>
      <g id="Group_904" data-name="Group 904">
        <path id="Path_4656" data-name="Path 4656" d="M2.917,7.083a.458.458,0,0,1-.417-.25c-.083-.25,0-.417.25-.583l3.583-1.5a2.048,2.048,0,0,1,2.25.417l.5.5A.412.412,0,0,1,8.5,6.25L8,5.833a1.305,1.305,0,0,0-1.333-.25l-3.583,1.5H2.917Z"/>
      </g>
      <g id="Group_905" data-name="Group 905">
        <path id="Path_4657" data-name="Path 4657" d="M9,8.75a1.755,1.755,0,0,1-1.083-.417A1.8,1.8,0,0,1,7.5,6.917a1.267,1.267,0,0,1,.833-1.083L11.25,4.417A2.142,2.142,0,0,1,13,4.333l4.333,1.75A.449.449,0,1,1,17,6.917l-4.333-1.75a1.059,1.059,0,0,0-1,0L8.75,6.583a.528.528,0,0,0-.417.5.7.7,0,0,0,.167.583.8.8,0,0,0,.833.167L11.917,6.5a.552.552,0,0,1,.583.167.552.552,0,0,1-.167.583L9.75,8.583A2.433,2.433,0,0,1,9,8.75Z"/>
      </g>
      <g id="Group_906" data-name="Group 906">
        <path id="Path_4658" data-name="Path 4658" d="M10.417,14.25a1.344,1.344,0,0,1-1.083-.5L8.25,12.667a.412.412,0,1,1,.583-.583l1.083,1.083a.874.874,0,0,0,1.083,0,.778.778,0,0,0,0-1.083l-.833-.833a.412.412,0,0,1,.583-.583l.833.833a1.664,1.664,0,0,1,0,2.25A1.645,1.645,0,0,1,10.417,14.25Z"/>
      </g>
      <g id="Group_907" data-name="Group 907">
        <path id="Path_4659" data-name="Path 4659" d="M8.583,15.75A1.755,1.755,0,0,1,7.5,15.333l-1.917-1.75a3.931,3.931,0,0,0-2.667-1,.528.528,0,0,1-.417-.5.394.394,0,0,1,.417-.417,4.821,4.821,0,0,1,3.25,1.25l1.917,1.75a.876.876,0,0,0,1.083,0,.712.712,0,0,0,0-1.083l-.833-.833a.412.412,0,0,1,.583-.583L9.75,13a1.664,1.664,0,0,1,0,2.25A1.645,1.645,0,0,1,8.583,15.75Z"/>
      </g>
      <g id="Group_908" data-name="Group 908">
        <path id="Path_4660" data-name="Path 4660" d="M15.083,12.917a1.835,1.835,0,0,1-.667-.083l-1.583-.5a.4.4,0,1,1,.25-.75l1.583.5a1.164,1.164,0,0,0,1.25-.25L16.833,11a.412.412,0,0,1,.583.583l-.917.833a2.656,2.656,0,0,1-1.417.5Z"/>
      </g>
      <g id="Group_909" data-name="Group 909">
        <path id="Path_4661" data-name="Path 4661" d="M19.583,13.333h-2.5a.394.394,0,0,1-.417-.417v-7.5A.394.394,0,0,1,17.083,5h2.5A.394.394,0,0,1,20,5.417v7.5A.394.394,0,0,1,19.583,13.333ZM17.5,12.5h1.667V5.833H17.5Z"/>
      </g>
      <g id="Group_910" data-name="Group 910">
        <path id="Path_4662" data-name="Path 4662" d="M2.917,13.333H.417A.394.394,0,0,1,0,12.917v-7.5A.394.394,0,0,1,.417,5h2.5a.394.394,0,0,1,.417.417v7.5A.394.394,0,0,1,2.917,13.333ZM.833,12.5H2.5V5.833H.833Z"/>
      </g>
    </g>
  </g>
</svg>
