<svg xmlns="http://www.w3.org/2000/svg" xmlns:xlink="http://www.w3.org/1999/xlink" width="20" height="20" viewBox="0 0 20 20">
  <defs>
    <clipPath id="clip-path">
      <rect id="Rectangle_980" data-name="Rectangle 980" width="20" height="20" transform="translate(788 594)" fill="#fff" stroke="#707070" stroke-width="1"/>
    </clipPath>
  </defs>
  <g id="_Observações" data-name=" Observações" transform="translate(-788 -594)" clip-path="url(#clip-path)">
    <path id="dialogue" d="M20,19.219a.755.755,0,0,1-.781.781,1.018,1.018,0,0,1-.659-.327,2.185,2.185,0,0,0-2.525-.423,7.3,7.3,0,0,1-9.043-2.143.781.781,0,1,1,1.253-.934,5.741,5.741,0,0,0,7.091,1.68,3.726,3.726,0,0,1,3.1-.107v-4.91s0-.005,0-.008a5.709,5.709,0,0,0-2.3-4.624.781.781,0,0,1,.931-1.255A7.277,7.277,0,0,1,20,12.84ZM7.194,14.453A7.137,7.137,0,0,1,3.966,13.7,2.152,2.152,0,0,0,3,13.475a2.608,2.608,0,0,0-1.691.773A.781.781,0,0,1,0,13.672V7.294A7.244,7.244,0,0,1,7.227,0a7.207,7.207,0,0,1,7.226,7.3A7.233,7.233,0,0,1,7.2,14.453H7.194ZM4.666,12.307a5.59,5.59,0,0,0,2.529.584,5.7,5.7,0,0,0,5.7-5.608,5.664,5.664,0,1,0-11.328,0s0,4.917,0,4.917A3.751,3.751,0,0,1,3,11.912a3.711,3.711,0,0,1,1.665.394Zm5.608-6.018a.977.977,0,1,0,.977.977A.977.977,0,0,0,10.273,6.289Zm-3.086,0a.977.977,0,1,0,.977.977A.977.977,0,0,0,7.188,6.289Zm-3.086,0a.977.977,0,1,0,.977.977A.977.977,0,0,0,4.1,6.289Z" transform="translate(788 594)"/>
  </g>
</svg>
