<svg xmlns="http://www.w3.org/2000/svg" width="16.565" height="20" viewBox="0 0 16.565 20">
  <g id="document_1_" data-name="document (1)" transform="translate(-1.717)">
    <g id="Group_874" data-name="Group 874">
      <g id="Group_873" data-name="Group 873">
        <path id="Path_4617" data-name="Path 4617" d="M14.332,4.219H8.789a.781.781,0,1,0,0,1.563h5.543a.781.781,0,0,0,0-1.563Z"/>
      </g>
    </g>
    <g id="Group_876" data-name="Group 876">
      <g id="Group_875" data-name="Group 875">
        <path id="Path_4618" data-name="Path 4618" d="M14.332,7.345H8.789a.781.781,0,1,0,0,1.563h5.543a.781.781,0,0,0,0-1.563Z"/>
      </g>
    </g>
    <g id="Group_878" data-name="Group 878">
      <g id="Group_877" data-name="Group 877">
        <path id="Path_4619" data-name="Path 4619" d="M11.172,10.47H8.789a.781.781,0,1,0,0,1.563h2.383a.781.781,0,1,0,0-1.563Z"/>
      </g>
    </g>
    <g id="Group_880" data-name="Group 880">
      <g id="Group_879" data-name="Group 879">
        <path id="Path_4620" data-name="Path 4620" d="M17.5,10.627a.781.781,0,0,0,.781-.781V3.125A3.129,3.129,0,0,0,15.157,0H7.968A3.129,3.129,0,0,0,4.843,3.123,3.129,3.129,0,0,0,1.717,6.248V16.875A3.129,3.129,0,0,0,4.843,20h7.579a3.129,3.129,0,0,0,3.125-3.125v-.024a3.13,3.13,0,0,0,2.735-3.1.781.781,0,1,0-1.563,0,1.565,1.565,0,0,1-1.562,1.563l-7.189,0h0a1.563,1.563,0,0,1-1.563-1.563V3.125A1.565,1.565,0,0,1,7.968,1.563h7.189A1.565,1.565,0,0,1,16.72,3.125v6.72A.781.781,0,0,0,17.5,10.627Zm-9.533,6.25h6.016a1.565,1.565,0,0,1-1.563,1.562H4.843A1.565,1.565,0,0,1,3.28,16.874V6.248A1.565,1.565,0,0,1,4.843,4.685v9.066a3.125,3.125,0,0,0,3.125,3.125Z"/>
      </g>
    </g>
  </g>
</svg>
