<svg xmlns="http://www.w3.org/2000/svg" xmlns:xlink="http://www.w3.org/1999/xlink" width="20" height="20" viewBox="0 0 20 20">
  <defs>
    <clipPath id="clip-path">
      <rect id="Rectangle_999" data-name="Rectangle 999" width="20" height="20" transform="translate(861 579)" fill="#fff" stroke="#707070" stroke-width="1"/>
    </clipPath>
  </defs>
  <g id="_Perguntas" data-name=" Perguntas" transform="translate(-861 -579)" clip-path="url(#clip-path)">
    <g id="information" transform="translate(861 579)">
      <g id="Group_928" data-name="Group 928">
        <g id="Group_927" data-name="Group 927">
          <path id="Path_4671" data-name="Path 4671" d="M7.321,12.11a2.887,2.887,0,0,0,.961-2.149,2.969,2.969,0,0,0-5.937,0A2.887,2.887,0,0,0,3.3,12.11,5.282,5.282,0,0,0,0,16.992v2.422A.586.586,0,0,0,.586,20h9.453a.586.586,0,0,0,.586-.586V16.992A5.282,5.282,0,0,0,7.321,12.11ZM5.313,8.2a1.758,1.758,0,1,1-1.8,1.758A1.8,1.8,0,0,1,5.313,8.2ZM9.453,18.828H1.172V16.992a4.141,4.141,0,0,1,8.281,0Z"/>
        </g>
      </g>
      <g id="Group_930" data-name="Group 930">
        <g id="Group_929" data-name="Group 929">
          <path id="Path_4672" data-name="Path 4672" d="M14.727,0a5.275,5.275,0,0,0-4.6,7.851L9.483,9.776a.586.586,0,0,0,.7.754l2.176-.544A5.274,5.274,0,1,0,14.727,0Zm0,9.375a4.1,4.1,0,0,1-2.006-.523.586.586,0,0,0-.429-.058l-1.358.34.389-1.167a.586.586,0,0,0-.061-.5,4.1,4.1,0,1,1,3.466,1.908Z"/>
        </g>
      </g>
      <path id="Path_4673" data-name="Path 4673" d="M2.024-1.856a.447.447,0,0,0,.432-.392l.024-.144C3.352-2.568,4.056-2.984,4.056-4v-.016c0-1.064-.784-1.656-1.936-1.656A2.507,2.507,0,0,0,.456-5.1a.559.559,0,0,0-.208.432.567.567,0,0,0,.56.56.614.614,0,0,0,.36-.128,1.485,1.485,0,0,1,.928-.32c.464,0,.736.208.736.568v.016c0,.392-.32.608-1.016.7a.4.4,0,0,0-.368.48l.08.544a.441.441,0,0,0,.432.392ZM1.264-.648v.016a.673.673,0,0,0,.7.68.673.673,0,0,0,.7-.68V-.648a.673.673,0,0,0-.7-.68A.673.673,0,0,0,1.264-.648Z" transform="translate(13 8)"/>
    </g>
  </g>
</svg>
