<svg xmlns="http://www.w3.org/2000/svg" xmlns:xlink="http://www.w3.org/1999/xlink" width="554" height="1080" viewBox="0 0 554 1080"><defs><style>.a{fill:#fff;stroke:#707070;}.b{clip-path:url(#a);}.c{opacity:0.1;mix-blend-mode:luminosity;isolation:isolate;}.av,.d,.f,.i{opacity:0.95;}.d{fill:url(#b);}.e{fill:#96bfe6;}.f{fill:url(#c);}.g{fill:#2cabe0;}.h{fill:#5270ee;}.i{fill:url(#d);}.j{fill:url(#f);}.k{fill:#eea987;}.l{fill:url(#g);}.m{fill:#105774;}.n{fill:#c78d71;}.o{fill:#eea886;}.p{fill:url(#h);}.q{fill:#8e4f3a;}.r{fill:#633029;}.s{fill:#323657;}.t{fill:url(#l);}.u{fill:url(#m);}.v{fill:#e55353;}.w{fill:url(#n);}.x{fill:#a77860;}.y{fill:#ebeeff;}.z{fill:#353a3d;}.aa{fill:#81807e;}.ab{fill:#2d3133;}.ac{fill:#decbc4;}.ad{fill:#495055;}.ae{fill:url(#o);}.af{fill:#d7a085;}.ag{fill:#3c4145;}.ah{fill:#b3a5a0;}.ai{fill:#51565c;}.aj{fill:#f5e2d9;}.ak{fill:#ad9f99;}.al{fill:#69737a;}.am{fill:#181929;}.an{fill:#22243b;}.ao{fill:#292c47;}.ap{fill:#cfbeb6;}.aq{fill:#3a3f47;}.ar{fill:#23263d;}.as{fill:#d44040;}.at{fill:#eddad3;}.au{fill:#8f5c28;}.aw{fill:url(#w);}.ax{fill:url(#y);}.ay{fill:url(#z);}.az{fill:url(#ab);}.ba{fill:url(#ac);}.bb{fill:url(#ae);}.bc{fill:url(#af);}.bd{fill:url(#ag);}</style><clipPath id="a"><rect class="a" width="554" height="1080" transform="translate(1366)"/></clipPath><linearGradient id="b" x1="0.571" y1="1.795" x2="0.493" y2="0.379" gradientUnits="objectBoundingBox"><stop offset="0" stop-color="#d1d7e0"/><stop offset="1" stop-color="#ebebff"/></linearGradient><linearGradient id="c" x1="0.5" y1="1.147" x2="0.5" y2="0.24" xlink:href="#b"/><linearGradient id="d" x1="0.5" y1="2.165" x2="0.5" y2="0.322" xlink:href="#b"/><linearGradient id="f" x1="0.5" x2="0.5" y2="1" gradientUnits="objectBoundingBox"><stop offset="0" stop-color="#1a2257"/><stop offset="0.01" stop-color="#2cabe0"/><stop offset="1" stop-color="#5e60f2"/></linearGradient><linearGradient id="g" x1="0.5" x2="0.5" y2="1" gradientUnits="objectBoundingBox"><stop offset="0" stop-color="#d98b52"/><stop offset="1" stop-color="#b71f1f"/></linearGradient><linearGradient id="h" x1="0.5" x2="0.5" y2="1" gradientUnits="objectBoundingBox"><stop offset="0" stop-color="#16202e"/><stop offset="1" stop-color="#0b274b"/></linearGradient><linearGradient id="l" x1="0.84" y1="0.328" x2="-0.035" y2="1.349" gradientUnits="objectBoundingBox"><stop offset="0" stop-color="#fccca2"/><stop offset="1" stop-color="#e8e077"/></linearGradient><linearGradient id="m" x1="0.304" y1="0.236" x2="0.5" y2="1" gradientUnits="objectBoundingBox"><stop offset="0" stop-color="#1a2257"/><stop offset="0.099" stop-color="#2cabe0"/><stop offset="1" stop-color="#5e60f2"/></linearGradient><linearGradient id="n" x1="0.5" y1="0" x2="0.5" y2="1" xlink:href="#l"/><linearGradient id="o" x1="0.5" x2="0.5" y2="1" gradientUnits="objectBoundingBox"><stop offset="0" stop-color="#eea886"/><stop offset="1" stop-color="#be9785"/></linearGradient><linearGradient id="w" x1="0" y1="0.5" x2="1" y2="0.5" xlink:href="#b"/><linearGradient id="y" x1="0" y1="0.501" x2="1" y2="0.501" xlink:href="#b"/><linearGradient id="z" x1="0" y1="0.5" x2="1" y2="0.5" xlink:href="#b"/><linearGradient id="ab" x1="0" y1="0.5" x2="1" y2="0.5" xlink:href="#b"/><linearGradient id="ac" x1="0" y1="0.5" x2="0.999" y2="0.5" xlink:href="#b"/><linearGradient id="ae" x1="0" y1="0.5" x2="0.999" y2="0.5" xlink:href="#b"/><linearGradient id="af" x1="0" y1="0.5" x2="1" y2="0.5" xlink:href="#b"/><linearGradient id="ag" x1="0" y1="0.5" x2="1" y2="0.5" xlink:href="#b"/></defs><g class="b" transform="translate(-1366)"><g class="c" transform="translate(1006.802 35.352)"><g transform="translate(0)"><rect class="d" width="306.791" height="306.791" rx="58.67" transform="translate(373.767 159.491)"/><rect class="e" width="142.042" height="7.015" transform="translate(456.144 396.439)"/><rect class="e" width="101.804" height="7.015" transform="translate(476.263 418.547)"/><rect class="f" width="419.879" height="492.845" rx="69.12" transform="translate(731.032 265.896)"/><rect class="g" width="33.299" height="6.165" transform="translate(921.408 556.645)"/><rect class="e" width="193.779" height="11.941" transform="translate(794.977 613.163)"/><rect class="e" width="156.699" height="11.941" transform="translate(794.977 670.489)"/><rect class="e" width="91.864" height="11.941" transform="translate(794.977 641.826)"/><path class="g" d="M1732.174,541.65v6.02h35.515V581h6.026V541.65Zm-241.135,39.359h6.032V547.67h35.48v-6.02H1491.01Zm276.65,171.979v33.339h-35.515v6.032h41.541V752.988Zm-270.619,0h-6.031v39.371h41.541V786.31H1497.1Z" transform="translate(-692.723 -226.606)"/><path class="g" d="M1919.195,1123.71a35.515,35.515,0,1,1,35.515-35.515A35.515,35.515,0,0,1,1919.195,1123.71Zm0-64.155a28.64,28.64,0,1,0,28.64,28.64A28.64,28.64,0,0,0,1919.195,1059.555Z" transform="translate(-857.001 -440.401)"/><path class="h" d="M1929.245,1119.418l-16.135-16.135,4.857-4.862,11.279,11.272,15.8-15.8,4.862,4.863Z" transform="translate(-869.313 -457.642)"/><rect class="i" width="206.79" height="177.423" transform="translate(423.77 170.961)"/><rect class="f" width="225.402" height="203.003" rx="48.23" transform="translate(710.698 45.88)"/><rect class="g" width="17.874" height="3.31" transform="translate(813.601 210.489)"/><path class="g" d="M1533.179,142v3.24h19.066v17.891h3.234V142ZM1403.73,163.131h3.24V145.263h19.06V142h-22.3Zm148.515,92.318v17.9h-19.066v3.234h22.3V255.472Zm-145.276,0h-3.24v21.131h22.3v-3.234h-19.06Z" transform="translate(-656.209 -59.407)"/><rect class="g" width="23.876" height="4.42" transform="translate(515.227 362.157)"/><path class="g" d="M1023.539,329v4.327H1049v23.894h4.327V329ZM850.63,357.221h4.327V333.327h25.458V329H850.63ZM1049,480.528v23.905h-25.458v4.322h29.786V480.528Zm-194.04,0H850.63v28.227h29.786v-4.322H854.957Z" transform="translate(-424.813 -137.641)"/><path class="j" d="M1762.323,749.343h-39.83c-2.623-19.072-5.817-40.843-5.817-40.843s-1.611,17.967-3.565,40.843H1553.683c-1.454-20.573-3.205-35.963-3.833-36.283-.919-.454-6.6,17.792-11.324,36.283H1495.38c11.1-47.8,31.8-124.505,43.762-129.124,17.036-6.549,86.5-27.959,86.5-27.959h39.644s70.448,20.1,77,41.948C1747.5,651.645,1758.99,709.07,1762.323,749.343Z" transform="translate(-694.551 -247.779)"/><path class="k" d="M1724.714,370.939s37.015,5.817,31.408,63.748-38.307,53.168-40.494,53.109-32.8,1.059-35.183-69.657C1680.417,418.139,1679.375,365.85,1724.714,370.939Z" transform="translate(-771.973 -155.041)"/><path class="k" d="M1750.791,538.261s-1.012,23.847,1.292,28.977-30.548,21.718-50.6,3.263c0,0,4.839-25.889,3.49-35.067S1750.791,538.261,1750.791,538.261Z" transform="translate(-780.776 -222.559)"/><path class="k" d="M1809.941,451.289s4.071-4.327,5.543.058-6.287,23.964-5.781,24.848c0,0-.739,1.7-1.716.762S1809.941,451.289,1809.941,451.289Z" transform="translate(-825.251 -188.005)"/><path class="k" d="M1676.975,449.981s-3.972-4.4-5.543-.052,5.817,24.086,5.3,24.958c0,0,.709,1.71,1.7.8S1676.975,449.981,1676.975,449.981Z" transform="translate(-768.113 -187.43)"/><path class="l" d="M1753.554,421.234l-5.3,7.084s.152-15.536-.7-17.967-2.152-9.888-2.861-11.633-31.793-10.469-59.24,2.542c0,0,1.2,11.168-1.425,12.162s-1.344,18.194-1.344,18.194l-4.356-4.915s-6.666-44.559-5.019-49.207,6.892-32.572,63.212-15.989c0,0,17.554-3.717,21.079,8.4S1753.554,421.234,1753.554,421.234Z" transform="translate(-768.882 -149.062)"/><path class="k" d="M1752.081,592.481s8.352,1.78-26.6,35.276c0,0-24.79-27.424-23.987-31.99S1752.081,592.481,1752.081,592.481Z" transform="translate(-780.775 -247.802)"/><path class="m" d="M1742.75,624.278l9.539,16.309,28.291-48.038L1768.33,584Z" transform="translate(-798.041 -244.323)"/><path class="m" d="M1716.665,626.759l-23.143-36.829-13.122,8.428,23.528,44.711Z" transform="translate(-771.957 -246.804)"/><path class="m" d="M1729.255,755.185c.285,5.433.407,12.092.425,19.578h-1.309c0-7.451-.146-14.1-.43-19.514-2.146-40.86,7.753-90.579,7.817-102.229l1.28.256C1736.974,664.926,1727.109,714.5,1729.255,755.185Z" transform="translate(-791.719 -273.198)"/><path class="n" d="M1713.45,559.43s8.789,9.306,21.212,6.823,17.944-8.143,17.944-8.143a23.1,23.1,0,0,1-19.27,13.418C1718.975,572.651,1713.45,559.43,1713.45,559.43Z" transform="translate(-785.783 -233.492)"/><path class="o" d="M971.961,316.461h-.087c-.838-.2-2.158-4.211-2.414-5.008-.064-.221-.192-.622-.373-1.163-1.035-3.2-3.49-10.714-2.518-13.587.3-.907.768-1.437,1.384-1.565,1.332-.273,2.85,1.413,2.908,1.489l.029.035v.047c.343,3.158,2.03,18.944,1.3,19.671A.343.343,0,0,1,971.961,316.461Zm-3.7-21.067a1.09,1.09,0,0,0-.244,0c-.506.1-.9.582-1.163,1.355-.913,2.78,1.582,10.47,2.519,13.378.18.582.314.966.372,1.163.617,1.914,1.7,4.653,2.2,4.8h.041c.465-.628-.582-12.214-1.384-19.374-.181-.163-1.314-1.32-2.321-1.32Z" transform="translate(-473.224 -123.462)"/><path class="p" d="M992.482,223.561s20.357-2.14,27.715,17.542,14.256,26.116,15.123,36.457c3.49,41.808,23.027,32.351,17.537,56.454s-9.307,27.75-9.307,27.75l-46.682-9.155-47.287.151s18.5-9.237,14.378-28.913-14.378-51.934-8.585-73.868S980.3,225.236,992.482,223.561Z" transform="translate(-466.21 -93.501)"/><path class="o" d="M1065.815,316.447a.344.344,0,0,1-.245-.1c-.727-.727.96-16.513,1.3-19.671v-.082c.064-.076,1.582-1.745,2.908-1.489.622.128,1.082.657,1.384,1.565.948,2.873-1.483,10.382-2.519,13.587-.18.582-.308.96-.372,1.163-.256.8-1.582,4.81-2.413,5.014Zm1.355-19.694c-.785,7.183-1.85,18.746-1.384,19.374h.041c.494-.122,1.582-2.908,2.2-4.8.058-.215.192-.622.372-1.163.936-2.908,3.432-10.621,2.519-13.378-.262-.8-.651-1.25-1.163-1.355-1.053-.244-2.361,1.094-2.582,1.349Z" transform="translate(-514.66 -123.448)"/><path class="j" d="M1051.122,487.493H1022.04c-6.031-10.993-10.935-19.589-10.935-19.589s-3.92,7.154-6.98,19.589H906.218a84.553,84.553,0,0,1-1.274-20.485s-5.235,9.452-11.307,20.485h-32.9c8.725-16.344,25.086-46.112,28.809-50.021,4.653-4.886,31.723-23.591,51.039-29.693s30.315-.209,30.315-.209a228.685,228.685,0,0,1,38.19,10.848C1016.3,421.291,1036.226,458.1,1051.122,487.493Z" transform="translate(-429.042 -169.442)"/><path class="q" d="M1004.859,243.231s26.988,3.9,23.033,43.733-27.767,36.678-29.355,36.643-23.922.826-25.848-47.782C972.688,275.826,971.787,239.875,1004.859,243.231Z" transform="translate(-475.876 -101.666)"/><path class="q" d="M1026.473,368.133s-1.669,20.724,2.327,26.93-3.414,14.634-18.671,11.755-14.367-11.534-14.367-11.534,4.269-12.8,3.025-23.021S1026.473,368.133,1026.473,368.133Z" transform="translate(-485.526 -153.258)"/><path class="p" d="M999.816,253.143s12.61,13.256,18.467,19.968,6.532,19.677,6.532,19.677,9.888-12.052,5.741-26.086-13.89-41.337-38.6-32.95-25.627,45.31-22.73,63.614C969.222,297.365,980.319,256.953,999.816,253.143Z" transform="translate(-473.945 -97.136)"/><path class="q" d="M1033.186,409.878s-18.712,47.4-30.089,55.64c0,0-14.942-48.346-13.9-55.424C989.2,410.116,1011.747,401.258,1033.186,409.878Z" transform="translate(-482.764 -169.899)"/><path class="p" d="M978.067,392.88s-33.363,29.664-24.708,48.2c7.393,15.809,33.6,6.113,29.268-10.47S978.067,392.88,978.067,392.88Z" transform="translate(-467.191 -164.366)"/><path class="r" d="M1004.37,376.614a23.567,23.567,0,0,0,22.684-2.594,14.611,14.611,0,0,1-11.348,7.329C1007.476,382.262,1004.37,376.614,1004.37,376.614Z" transform="translate(-489.132 -156.476)"/><path class="s" d="M1481.863,190s-11.051,41.645-13.378,51.027c-.686,2.827-2.908,7.713-5.723,13.285a.563.563,0,0,1-.07.128,10.69,10.69,0,0,0-1.035,3.385c-.448,3.49.889,6.206-1.42,10.324l-.419,1.745h-21.9c2.553-7.59,5.817-17.251,8.4-25.01,2.176-6.567,3.9-11.79,4.356-13.3,1.35-4.519,6.317-19.148,10.533-28.855,1.478-3.385,7.149-6.73,12.174-9.149A85.356,85.356,0,0,1,1481.863,190Z" transform="translate(-670.512 -79.489)"/><path class="t" d="M1487.909,55.794s-6.979-45.164,30.426-44.332,36.9,23.167,36.236,45.333-14.995,20.5,1.163,51.33-14,30.827-14,30.827l-23.406-32.165Z" transform="translate(-691.21 -4.79)"/><path class="o" d="M1514.55,18.541s-25.33,4-26.331,40,6.834,43.664,29,36.166,29.163-45.164,29.663-51S1548.716,14.208,1514.55,18.541Z" transform="translate(-691.52 -7.537)"/><path class="u" d="M1542.159,207.038c.093,12.389-14.145,42.023-16.344,51.184-.262,1.064-.541,2.047-.82,2.972h-69.11c-.355-4.269-.7-7.922-.867-9.981-.546-6.765-7.4-21.34-7.171-28.128.239-6.916,3.63-12.883,8.376-20.27,1.477-2.286,3.024-4.612,4.572-6.881,5.031-7.387,10.057-14.093,12.523-16.4a40.3,40.3,0,0,1,5.049-4.019h0a23.5,23.5,0,0,1,5.194-2.734l21.771-3.49s13.575,4.915,21.387,6.735C1526.722,176.014,1541.955,178.247,1542.159,207.038Z" transform="translate(-674.663 -70.824)"/><path class="v" d="M1482.894,180l-12.621,19.892-11.633,18.357c0-.1.8-2.879,2.117-10.929.25-1.53.518-3.245.809-5.171a12.974,12.974,0,0,1,.366-1.693h0c4.984-11.493,20.4-20.16,20.938-20.445Z" transform="translate(-679.181 -75.305)"/><path class="o" d="M1539.224,121.617c-2.2,4.147-4.513,29.885-4.513,29.885s-30.984,11.708-27.814,5.089c1.437-3.007,1.861-6.91,1.89-10.272a49.962,49.962,0,0,0-.343-6.253c-.081-.681-.145-1.07-.145-1.07S1541.417,117.465,1539.224,121.617Z" transform="translate(-699.274 -50.658)"/><path class="w" d="M1504.268,43.934s13,21.166,24.83,29.5,5.817,15,5.817,15,30.873-65,1.518-69.5S1489.082,14.1,1488.25,58.1C1488.267,58.1,1501.6,43.6,1504.268,43.934Z" transform="translate(-691.568 -7.099)"/><path class="x" d="M1527.384,149.15c-4.752,7.015-17.321,8.9-17.321,8.9h0a50.058,50.058,0,0,0-.343-6.253C1517.793,153.355,1527.384,149.15,1527.384,149.15Z" transform="translate(-700.551 -62.399)"/><path class="y" d="M1463.487,200.278h0s-.675,1.39-1.227,6.98l4.566-6.887s8.143-11.685,10.941-14.721a46,46,0,0,1,6.631-5.7S1468.361,187.668,1463.487,200.278Z" transform="translate(-680.695 -75.284)"/><path class="v" d="M1565.287,218.205s19.886-7.8,25.767-8.253c0,0-4-31.938-23.533-28.553S1565.287,218.205,1565.287,218.205Z" transform="translate(-720.841 -75.785)"/><path class="o" d="M1501.58,172.707s-14.6,22.445-9.655,24.429,31.694-2.612,43.041-23.934C1534.989,173.178,1517.982,164.454,1501.58,172.707Z" transform="translate(-692.678 -70.769)"/><path class="s" d="M1577,206.041c-1.018,17.6-6.009,34.317-10.132,49.62-.582,2.222-1.163,4.42-1.71,6.578h-40.488c-.1-6.066-.081-11.423.111-15.89,2.042-48.84,17.507-74.549,17.507-74.549s4.944,1.663,19.194,5.694c9.754,2.757,13.436,15.163,14.774,22.684,0,.031,0,.062,0,.093A53.206,53.206,0,0,1,1577,206.041Z" transform="translate(-706.779 -71.875)"/><path class="s" d="M1483.175,175.28a115.389,115.389,0,0,0-6.02,12.052c-4.8,11-10.789,28.413-11.3,47.6-.157,6.16-1.385,16.14-3.245,28.745h-8.085a128.573,128.573,0,0,0-4.444-25.01c-1.1-3.932-2.123-6.863-2.67-8.725-2.576-8.765,5.66-20.439,8.416-24.621S1465.214,181.963,1483.175,175.28Z" transform="translate(-674.278 -73.33)"/><path class="s" d="M1603.246,265.889H1581.5a28.816,28.816,0,0,0-1.285-6.578c-3.949-14.035-15.64-41.372-15.64-41.372s-17.49-28.587-.913-35.87,23.708,13.075,25.935,21.759c0,.031,0,.062,0,.093C1590.171,206,1600.042,243.618,1603.246,265.889Z" transform="translate(-720.133 -75.525)"/><path class="o" d="M1025.774,1018.067s7.6-.1,10.3-3.03,7.485-5.555,9.015-6.3c2.048-.995,7.719-6.509,8.428-3.816s-9.027,9.516-10.877,11.359,8.091,2.646,9.545,4.432-3.612,20.608-10.237,19.148-12.052-8.143-13.308-8.143a37.411,37.411,0,0,1-4.892-.837Z" transform="translate(-497.239 -420.114)"/><path class="o" d="M1064.116,1031.28s19.776,6.043,20.59,7.753.261,2.966-1.623,2.49-19.357-5.176-19.357-5.176,21.614,11.813,22.585,13c.582.692-.378,3.164-1.425,3.019s-23.265-10.347-23.265-10.347,20.153,11.052,20.66,12.395c.436,1.164-.913,3.269-2.478,2.577s-20.991-9.679-20.991-9.679,14.047,9.2,13.831,10.714c-.133.925-.872,3.088-4.409.582s-12.6-7.346-12.6-7.346Z" transform="translate(-510.577 -431.448)"/><path class="z" d="M940.019,1600.393s6.345,9.492,15.245,11.545,17.664,5.311,17.734,10.929-25.732,8.963-35.916,3.3c-15.2-8.446-16.745-5.9-18.426-10.126s2.024-15.519,1.913-16.868C920.417,1597.52,940.019,1600.393,940.019,1600.393Z" transform="translate(-453.088 -668.818)"/><path class="aa" d="M940.707,1591.607a38.808,38.808,0,0,1,.983,4.682c-.18.1-20.049,2.466-19.45-1.216.489-2.984,1.163-6.223,1.163-6.223Z" transform="translate(-454.766 -664.714)"/><path class="z" d="M725.417,1598.866s4.525,9.079,12.261,12.174c8.265,3.3,14.89,7.1,14.739,12.575s-20.2,11.016-34.794.517c-9.219-6.636-12.139-6.671-13.616-10.847s2.565-15.036,2.513-16.35C706.449,1595.312,725.417,1598.866,725.417,1598.866Z" transform="translate(-363.335 -667.919)"/><path class="aa" d="M727.678,1589.91a43.42,43.42,0,0,1-.227,4.717c-.175.064-19.386,1.669-18.9-1.93a29.775,29.775,0,0,1,1.867-6.317Z" transform="translate(-365.369 -663.681)"/><path class="ab" d="M792.788,1100.416s25.237,96.692,34.846,119.044c8.9,20.712,11.842,49.672,13.069,64.219,1.541,18.3,10.719,89.572,11.8,94.9s-29.664,2.96-29.664,2.96-21.218-123.2-30.024-141.175c-5.88-12-39.988-98.035-43.89-93.062s-8.724,91.16-11.633,105.469-11.76,127.379-11.76,127.379-19.84,2.908-25.139-1.559c0,0-2.414-96.552-.581-123.377.7-10.225-11.982-122.6,4.281-167.837C712.673,1063.459,792.788,1100.416,792.788,1100.416Z" transform="translate(-360.02 -451.546)"/><path class="ac" d="M620.876,914.618c0,1.105,2.088,5.526,5.421,11.889,4.874-9.748,8.724-17.758,9.958-20.7,4.106-9.7,25.272-31.938,25.272-31.938a.191.191,0,0,0,0,.047.067.067,0,0,0,0,.029h0v.093a.311.311,0,0,0,.052.186.843.843,0,0,1,0,.116.592.592,0,0,1,0,.093c1.163,4.292,8.23,31.129,8.486,44.35.291,14.39,4.071,41.017,4.071,41.017h0l4.42.622,9.777,1.378,1.163.163,2.844.4,25.935,3.647,9.2,1.291,1.245.18,5.235.739,14.541,2.042,3.7.517h.035l2.769.39,3.839.541h0c.1-.14,3.734-5.1,3.17-16.123-.355-7.113-1.21-20.479-.855-32.88v-.82h0a88.825,88.825,0,0,1,2.094-18.176,74.506,74.506,0,0,0,1.949-9.673,3.617,3.617,0,0,1,.058-.448c.064-.582.128-1.163.18-1.7a85.3,85.3,0,0,0,.134-15.53h0c.262.582,2.152,7.509,4.653,16.071,4.194,14.483,10.062,33.607,12.563,34.526,3.641,1.338,62.561,18.793,75.281,20.579,1.477.209,2.327.2,2.408-.058s.116-.378.175-.582c1.547-5.095,3.676-13.756,4.013-15.158.035-.122.052-.192.052-.192l-2.28-.687-64.114-19.194L769,827.151c-.582-.489-7.806-3.973-13.064-6.474-5.363-2.553-11.825-6.3-17.676-9.51-2.984-1.629-5.816-3.123-8.248-4.24l-.372-.169h0l-6.718-3.065h0l-1.745-.169c-5.624-.535-23.12-2.175-28.977-2.519-.483,0-.89-.052-1.2-.058s-.466,0-.582,0a72.867,72.867,0,0,0-9.091,3.106h0l-.541.2-.675.256-1.25.483-2.652,1.018-.925.366c-9.481,3.763-20.357,8.416-22.928,10.272-1.7,1.221-7.02,11.237-13.18,23.62-7.934,25.412-17.984,64.312-18.3,73.909C620.876,914.333,620.876,914.478,620.876,914.618Z" transform="translate(-328.69 -335.085)"/><path class="ad" d="M796.236,1086.006s1.954,2.327,2.519,12.214c0,0-80.231-9.359-88.711-13.052,0,0-.332-10.888,1.466-11.08C713.5,1073.884,796.236,1086.006,796.236,1086.006Z" transform="translate(-365.986 -449.356)"/><path class="ae" d="M740.62,775.606c.25,12.593,24.632,19.479,24.632,19.479s10.2-12.8,7.759-14.012c-.954-.477-1.344-2.385-1.466-4.525a44.779,44.779,0,0,1,.14-5.712c.076-.89.145-1.466.145-1.466s-3.49-3.676-7.916-8.05c-7.741-7.66-18.391-17.449-18.409-13.564a3.445,3.445,0,0,0,.093.739C747.472,757.278,740.62,775.606,740.62,775.606Z" transform="translate(-378.788 -312.465)"/><path class="z" d="M740.063,1077.09s-1.745,11.051-1.9,13.918l-3.711-.739s1.024-11.679,1.623-13.639Z" transform="translate(-376.207 -450.421)"/><path class="z" d="M844.05,1091.989s1.407,10.033,1.442,13.826l-3.926-.512s-.8-12.534-1.256-13.843Z" transform="translate(-420.495 -456.625)"/><path class="x" d="M756.77,764.55h0c.047.076,1.082,1.623,2.844,3.845,3.746,4.705,10.784,12.441,18.688,15.547a44.851,44.851,0,0,1,.14-5.712,13.223,13.223,0,0,0,2.426-.291,74.628,74.628,0,0,0-5.3-7.765l-4.891-1.46Z" transform="translate(-385.545 -319.858)"/><path class="ae" d="M742.739,718.231c2.111,4.589,4.112,7.916,4.653,9.23h0a16.354,16.354,0,0,0,2.844,3.845c4.019,4.327,11.487,10.033,18.828,9.835a13.234,13.234,0,0,0,2.425-.291c2.961-.651,6.462-2.024,8.387-5.816,15.21-29.774,4.2-54.127,4.2-54.127s-41.587-11.761-48.1.762C731.443,690.464,737.783,707.454,742.739,718.231Z" transform="translate(-376.196 -282.77)"/><path class="p" d="M779.633,666.04s3.862-.215,4.816-7.532-.965-9.242-.965-9.242-17.164-7.189-23.33-8.143-21.328-1.832-24.883,2.228c0,0-8.631-2.007-10.987,12.331C720.556,678.418,737,700.5,737,700.5s-.146-14.855,3.135-16.821,6.1,2.711,6.1,2.711l6.73,1.227s-10.179-21.98,2.03-22.795S772.642,667.314,779.633,666.04Z" transform="translate(-371.724 -267.886)"/><path class="af" d="M753.682,704.871c-.634-6.543-12.47-9.044-11.68-2.181s6.625,13.448,9.306,13.215S754.2,709.885,753.682,704.871Z" transform="translate(-379.351 -292.269)"/><path class="ag" d="M626.3,928.725c5.153,9.836,13.29,24.307,21.323,38.336-1.059,1.978-2.094,3.932-3.083,5.869a116.894,116.894,0,0,0-6.078,13.564c-1.832,5.124-4.38,18.264.494,20.7l25.662,14.169s.18-.5.523-1.431c.849-2.327,2.693-7.236,5.235-13.622l.721-1.71c.512-1.2,1.251-2.908,2.088-4.886.378-.884.774-1.809,1.163-2.763l1.425-3.327,2.036-4.74,3.117-7.253.262-.582q1.256-2.71,2.565-5.427c1.349-2.8,2.74-5.584,4.159-8.312.14-.279.279-.582.425-.826l.762-1.431.477-.872.1-.192.192-.343c7.416-13.535,15.774-24.853,18.438-41.447q.4-2.408.739-4.775.576-3.952,1.065-7.788c.122-.966.238-1.914.355-2.862,1.338-11.051,2.135-20.939,2.78-27.808,2.007-21.41-11.109-44.594-21.177-58.914a158.725,158.725,0,0,0-10.76-13.75.423.423,0,0,1-.052-.052l-.541.2-.675.256-1.251.483-2.588,1.041-.925.366c-9.748,3.822-30.245,9.469-32.857,11.325-1.495,1.064-4.828,10.836-8.678,23.178-7.934,25.412-12.645,63.73-12.872,73.286v.436C620.876,917.942,622.964,922.362,626.3,928.725Zm38.97-4.781c0,4.775-1.553,10.243-3.944,16.071-.058.146-.116.291-.18.436-1.646-3.49-3.193-6.869-4.583-9.987h0c-3.822-8.55-6.445-15.215-6.59-17.856-.942-16.949,11.545-36.463,11.545-36.463a.068.068,0,0,0,0,.029h0v.093l.052.186a.881.881,0,0,1,0,.116.59.59,0,0,1,0,.093c2.67,10.086,3.728,47.281,3.728,47.281Z" transform="translate(-328.69 -337.304)"/><path class="ah" d="M705.736,1074.757l-73.152,32.572a8.2,8.2,0,0,1-10.83-4.153l-20.026-45a8.2,8.2,0,0,1,4.159-10.83l73.153-32.572a8.2,8.2,0,0,1,10.83,4.159l20.026,45A8.2,8.2,0,0,1,705.736,1074.757Z" transform="translate(-320.384 -424.247)"/><path class="ag" d="M808.18,811.4s3.432,11.423,7.87,39.93h0c.151.96.3,1.931.453,2.908a2.392,2.392,0,0,0,.052.349q.146.983.3,2.007a.472.472,0,0,0,.041.233c.07.46.134.913.2,1.379q.25,1.692.506,3.443c1.977,13.878,4.752,37.492,7.422,61.334h0c2.111,18.793,6.915,38.074,8.445,52.464v.029a98.609,98.609,0,0,0,2,10.818c.111.483.221.966.338,1.46,4.3,18.164,12.645,43.873,12.645,43.873l2.431-2.245,7.218-6.607a5.816,5.816,0,0,0,1.617-6.02c-3.99-12.883-17.566-58.472-20.049-90.526,1.222-11.266,4.339-26.377,3.874-28.552l.087.238c1.431,3.973,3.013,8.294,4.607,12.5h0c4.286,11.3,8.667,21.765,10.469,22.428,4.072,1.495,77,23.015,77.526,20.014.058-.3.116-.628.186-.966s.14-.686.221-1.053c.9-4.112,2.536-10.01,3.676-13.959.169-.581.326-1.163.471-1.628.477-1.646.791-2.693.791-2.693l-61.654-20.241L848.79,830.889c-.611-.483-8.556-4.758-13.814-7.259-5.473-2.611-12.4-5.816-18.548-8.661-2.908-1.361-5.7-2.629-8.032-3.7Z" transform="translate(-407.053 -339.404)"/><path class="ai" d="M727.862,837.534l11.86,6.689-5.072,5.165,13.494,72.85c2.751-17.077,4-33.293,4.938-43.233,3.1-33.1-29.937-70.431-31.99-72.7-1.588.582-3.3,1.262-5.072,1.966Z" transform="translate(-368.497 -337.325)"/><path class="ai" d="M807.86,811s4.432,14.471,9.6,50.6c1.984,13.878,4.758,37.492,7.427,61.334l2.763-68.226L822,848.591l5.019-6.276L816.27,814.839c-2.908-1.361-5.694-2.629-8.032-3.7Z" transform="translate(-406.919 -339.291)"/><path class="aj" d="M723.6,802.348l9.888-6.078s.279,5.392,24.632,19.479L751.2,835.228Z" transform="translate(-371.668 -333.129)"/><path class="aj" d="M789.443,800.94s-.378,5.816-6.474,16.763l13.494,17.589.983-28.5Z" transform="translate(-396.506 -335.083)"/><path class="j" d="M781.552,829.76s-2.611,10.469-1.669,13.378c0,0,5.747,2.094,9.888-.524A46.471,46.471,0,0,0,781.552,829.76Z" transform="translate(-395.129 -347.14)"/><path class="ak" d="M805.251,1067.3c1.466-7.381.07-29.5,0-30.443l-1.25.081c0,.227,1.442,22.893,0,30.117Z" transform="translate(-405.304 -433.783)"/><path class="al" d="M788.347,1083.35s11.807,1.408,15.7,2.385l-.512,13.232-15.46-1.652Z" transform="translate(-398.644 -453.232)"/><path class="j" d="M788.264,849.216s13.162,33.246,11.016,70.46c-2.228,38.586-5.88,52.58-5.88,52.58l-8.143,10.179-3.577-12.511s10.894-49.195,3.862-97.064c-1.274-8.672-3.17-25.109-3.17-25.109Z" transform="translate(-395.967 -354.666)"/><path class="o" d="M715.769,1120.2s2.821,5.647,5.648,6.59,6.945,5.531,6.945,5.531l-19.892,10.47s-5.3-10.353-5.531-16.949S715.769,1120.2,715.769,1120.2Z" transform="translate(-363.023 -468.627)"/><path class="ac" d="M716.785,1121.14l1.32,2.647s-12.633,9.242-16.042,9.829l-1.163-3.531Z" transform="translate(-362.171 -469.042)"/><path class="ag" d="M692.208,1075.517s-9.469,7.829-17.449,11.441L639,1024.281l22.817-12.471S691.58,1070.806,692.208,1075.517Z" transform="translate(-336.275 -423.302)"/><path class="ab" d="M866.069,914.834c.436,8.934.372,16.867.372,16.867h0c0,.047,0,.285.029.687a3.618,3.618,0,0,1,.058-.448c1.431,3.973,3.013,8.294,4.606,12.5a134.866,134.866,0,0,0,.361-13.628c-.64-25.01-8.515-38.161-8.515-38.161C864.789,897.012,865.65,906.377,866.069,914.834Z" transform="translate(-429.979 -373.45)"/><path class="o" d="M1402.18,774.634s-.372-4.6.169-6.747c.936-3.711-.442-9.713,4.217-12.628s18.077,9.307,19.13,12.7-3.961,9.219-14.442,14.1S1402.18,774.634,1402.18,774.634Z" transform="translate(-655.508 -315.785)"/><path class="o" d="M1407.36,739.276a158.481,158.481,0,0,1,10.5-13.762c5.235-6.107,12.6-12.953,14.151-11.633,2.362,1.972-4.316,6.9-9.1,13.3-4.409,5.892-2.536,5.473-2.536,5.473s-.541.093,5.526-5.392c6.526-5.9,13.779-11.958,15.07-10.917,1.6,1.291,1.693,1.588-.32,4.118,1.471-1.2,2.018-.971,2.583-.4,2.908,2.955-5.281,13.116-8.544,17.153,2.53-3.083,4.717-5.072,5.345-2.106.727,3.391-11.552,17.234-15.466,22.62C1420.307,763.577,1407.36,739.276,1407.36,739.276Z" transform="translate(-657.727 -298.591)"/><path class="am" d="M1119.458,1597.525s12.761,7.561,18.536,10.347,28.227,3.606,30.443,5.712,1.407,8.817-2.327,9.5-31,3.152-40.133,1.023-26.133,1.454-29.9.175-1.338-21.608.116-26.174S1119.458,1597.525,1119.458,1597.525Z" transform="translate(-526.659 -667.671)"/><path class="an" d="M1122.8,1584.39l-1.064,8.312s-17.059,3.188-22.224.582l1.28-8.632Z" transform="translate(-528.935 -662.848)"/><path class="ao" d="M1188.982,1070.141c-.18,5.752-1.227,18.24-2.449,31.35-.273,2.908-.581,5.863-.838,8.771-1.7,17.647-3.42,33.968-3.42,33.968-2.158,14.047-6.6,38.435-11.569,56.873h0c-1.431,5.322-2.908,10.149-4.386,14.087a35.68,35.68,0,0,1-4.287,8.619c-10.568,13.506-34.805,133.2-34.805,133.2l-33.089-.256s7.276-81.063,14.593-101.606c8.143-22.951,22.335-53.877,18.816-76.009-2.2-13.89-5.049-58.1-5.049-58.1s-2.763-49.684,10.231-86.083C1135.971,1025.9,1188.982,1070.141,1188.982,1070.141Z" transform="translate(-526.688 -432.473)"/><path class="am" d="M1279.183,1602.706s12.668,7.7,18.408,10.568,28.181,3.95,30.373,6.084,1.3,8.829-2.431,9.469-31.036,2.781-40.133.547-26.174,1.163-29.9-.186-1.082-21.62.43-26.174S1279.183,1602.706,1279.183,1602.706Z" transform="translate(-593.402 -669.758)"/><path class="an" d="M1282.739,1589.739l-1.163,8.294s-17.094,2.984-22.236.3l1.384-8.62Z" transform="translate(-595.801 -665.074)"/><path class="ao" d="M1207.544,1241.375c-.861-26.476-3.2-44.071-10.016-59.362-5.717-12.848-10.615-53.191-10.615-53.191s-15.506-47.27-12.365-85.78c.785-9.62,60.723,14.541,60.723,14.541,1.309,5.607,5.322,23.266,6.742,36.347,8.142,74.775,5.077,123.493,5.077,123.493-4.653,16.513,7.078,146.427,7.078,146.427h-33.735s-8.847-46.217-9.777-74.961C1210.656,1288.906,1207.207,1245.953,1207.544,1241.375Z" transform="translate(-560.151 -435.422)"/><path class="ap" d="M1193.578,791.959s15.7,25.766,20.317,40.133.89,56.186,1.7,64.591c2.512,26.069,6.183,54.767,6.183,54.767l-52.691,33.659a520.033,520.033,0,0,1-17.7-49.6c-8.248-27.506-8.91-52.272-8.835-68.82.239-51.905,28.3-81.214,28.3-81.214Z" transform="translate(-546.941 -328.615)"/><path class="o" d="M1225.79,670.537s10.8,11.563,7.753,14.6c-2.524,2.513,7.41,14.035,8.823,15.972s-4.415,5.147-5.369,6.881-.4,19.875-5.4,21.742-30.245-.11-38.272-5-20.939-33.153-20.031-46.717S1206.788,650.378,1225.79,670.537Z" transform="translate(-559.785 -276.309)"/><path class="o" d="M1225.262,739.925s-.186,1.541-.431,3.932c-.093,1-.215,2.141-.326,3.391-.058.739-.122,1.524-.2,2.327,0,.215-.046.43-.064.646,0,.372-.058.739-.093,1.122-.122,1.745-.244,3.548-.337,5.334-.233,4.607-.262,9.016.233,11.464,1.326,6.724-27.616-21.631-27.616-21.631a331.542,331.542,0,0,0,1.262-46.711C1196.494,675.079,1225.262,739.925,1225.262,739.925Z" transform="translate(-569.482 -290.418)"/><path class="aq" d="M1224.694,665.8s5.107-12.057-10.65-20.427c-18.56-9.859-38.231,14.884-40.843,16.344s-14.459,14.8-2.867,32.49c14.651,22.335,13.878,21.584,13.878,21.584s1.471-16.472,1.373-19.653c-.175-5.817,15.064-6.5,15.064-6.5s-6.259-8.329.7-12.069S1216.447,664.983,1224.694,665.8Z" transform="translate(-556.474 -269.032)"/><path class="o" d="M1203.969,716.059c-1.111-1.559-5.182-8.44-10.417-2.4s8.806,17.344,9.964,17.234S1213.3,729.175,1203.969,716.059Z" transform="translate(-567.791 -297.547)"/><path class="ar" d="M1226.045,1079.749s-2.624-12.325-3.13-14.169l-77.056,12.8.786,9.963S1202.168,1085.018,1226.045,1079.749Z" transform="translate(-548.325 -445.798)"/><path class="j" d="M1129.2,996.58s11.836,51.12-6.706,110.761c-2.262,7.282,51.318-1.163,51.318-1.163Z" transform="translate(-538.519 -416.931)"/><path class="j" d="M1199.839,1014.17s-38.062,8.352-48.747,4.578c0,0-15.559-56.582-20.986-114q-.628-6.665-1.059-13.3h0c-3.03-46.723,8.864-94.121,35.957-105.91.768.518,38.929,34.165,38.2,64.963-.052,2.082-.076,4.176-.093,6.27,0,3.786,0,7.561.088,11.371h0c.238,11.72.965,23.405,2,34.753.1,1.163.221,2.367.331,3.536q.279,2.862.582,5.683.407,3.769.849,7.462C1213.129,970.954,1199.839,1014.17,1199.839,1014.17Z" transform="translate(-541.099 -328.64)"/><path class="as" d="M1248.4,834.912a423.27,423.27,0,0,1,9.888,64.1c2.286,29.885,5.339,51.01,5.339,51.01l4.571,14.8,1.885-14.268s-1.681-38.562-3.92-54.249c-2.251-15.815-3.24-35.893-15.884-61.939Z" transform="translate(-591.224 -349.064)"/><path class="as" d="M1246.146,828.865a4.248,4.248,0,0,0,2.088,1.006c1.221.186,2.972-1.745-3.275-10.021Z" transform="translate(-589.785 -342.994)"/><path class="at" d="M1194.569,778.17s17.722,16.687,28.268,20.357l2.012,15.989-33.659-32.095Z" transform="translate(-567.29 -325.556)"/><path class="j" d="M1196.188,843.048c-6.98-2.484-36.015-16.577-28.291-33.026s27.622-7.7,42.6-1.012c15.7,6.98,52.685,28.5,55.611,26.517s15.7-20.323,18.031-24.429,16.286-30.175,17.606-32.141,21.578,15.123,21.578,15.123-36.445,64.725-46.246,75.031S1196.188,843.048,1196.188,843.048Z" transform="translate(-557.003 -325.82)"/><path class="am" d="M1214.325,1282.109h0c-1.431,5.322-2.908,10.15-4.386,14.087h0l-11.54-68.837C1201.314,1233.886,1214.325,1282.109,1214.325,1282.109Z" transform="translate(-570.306 -513.48)"/><path class="au" d="M1232.852,907.9,1199.46,880.62c8.847,4.74,30.582,14.669,33.3,15.908Q1232.73,902.208,1232.852,907.9Z" transform="translate(-570.75 -368.418)"/><path class="x" d="M1230.406,776.44c-.094,1-.215,2.14-.326,3.391-.058.739-.122,1.524-.2,2.327-11.051-.739-19.619-9.556-20.142-10.1C1214.241,775.637,1230.406,776.44,1230.406,776.44Z" transform="translate(-575.05 -323)"/><g class="av" transform="translate(1017.861 180.953)"><path class="aw" d="M1986.958,335.463h17.531l-5.368-11.133H1981.59Z" transform="translate(-1915.824 -316.641)"/><path class="aw" d="M1972.852,335.463h4.182l-5.368-11.133h-4.176Z" transform="translate(-1909.925 -316.641)"/><path class="ax" d="M1870.876,316.676h71l-2.356-5.566H1868.52Z" transform="translate(-1868.52 -311.11)"/></g><rect class="ay" width="30.082" height="9.068" rx="2.82" transform="translate(610.522)"/><rect class="ay" width="30.082" height="9.068" rx="2.82" transform="translate(610.522 21.742)"/><rect class="az" width="30.082" height="9.068" rx="2.82" transform="translate(610.522 43.477)"/><rect class="ba" width="8.562" height="9.068" rx="2.82" transform="translate(653.029)"/><rect class="ba" width="8.562" height="9.068" rx="2.82" transform="translate(653.029 21.742)"/><rect class="bb" width="8.562" height="9.068" rx="2.82" transform="translate(653.029 43.477)"/><path class="bc" d="M1013.962,885.089h31.472L1035.8,865.11H1004.33Z" transform="translate(-489.115 -361.929)"/><path class="bd" d="M988.642,885.089h7.5l-9.638-19.979h-7.5Z" transform="translate(-478.522 -361.929)"/></g></g></g></svg>