<svg xmlns="http://www.w3.org/2000/svg" xmlns:xlink="http://www.w3.org/1999/xlink" width="866" height="735.703" viewBox="0 0 866 735.703"><defs><style>.a{fill:#e3e7e9;}.b,.bb,.d,.g{opacity:0.95;}.b{fill:url(#a);}.c{fill:#96bfe6;}.d{fill:url(#b);}.e{fill:#2cabe0;}.f{fill:#5270ee;}.g{fill:url(#c);}.h{fill:url(#d);}.i{fill:url(#e);}.j{fill:url(#f);}.k{fill:url(#g);}.l{fill:url(#h);}.m{fill:#fff;}.n{fill:url(#i);}.o{fill:url(#j);}.p{fill:url(#l);}.q{fill:#eea987;}.r{fill:url(#m);}.s{fill:#105774;}.t{fill:#c78d71;}.u{fill:#eea886;}.v{fill:url(#n);}.w{fill:#8e4f3a;}.x{fill:#633029;}.y{fill:#323657;}.z{fill:url(#r);}.aa{fill:url(#s);}.ab{fill:#e55353;}.ac{fill:url(#t);}.ad{fill:#a77860;}.ae{fill:#ebeeff;}.af{fill:#353a3d;}.ag{fill:#81807e;}.ah{fill:#2d3133;}.ai{fill:#decbc4;}.aj{fill:#495055;}.ak{fill:url(#u);}.al{fill:#d7a085;}.am{fill:#3c4145;}.an{fill:#b3a5a0;}.ao{fill:#51565c;}.ap{fill:#f5e2d9;}.aq{fill:#ad9f99;}.ar{fill:#69737a;}.as{fill:#181929;}.at{fill:#22243b;}.au{fill:#292c47;}.av{fill:#cfbeb6;}.aw{fill:#3a3f47;}.ax{fill:#23263d;}.ay{fill:#d44040;}.az{fill:#eddad3;}.ba{fill:#8f5c28;}.bc{fill:url(#ac);}.bd{fill:url(#ae);}.be{fill:url(#af);}.bf{fill:url(#ah);}.bg{fill:url(#ai);}.bh{fill:url(#ak);}.bi{fill:url(#al);}.bj{fill:url(#am);}</style><linearGradient id="a" x1="0.571" y1="1.795" x2="0.493" y2="0.379" gradientUnits="objectBoundingBox"><stop offset="0" stop-color="#d1d7e0"/><stop offset="1" stop-color="#ebebff"/></linearGradient><linearGradient id="b" x1="0.5" y1="1.147" x2="0.5" y2="0.24" xlink:href="#a"/><linearGradient id="c" x1="0.5" y1="2.165" x2="0.5" y2="0.322" xlink:href="#a"/><linearGradient id="d" x1="-34.651" y1="0.5" x2="-33.651" y2="0.5" gradientUnits="objectBoundingBox"><stop offset="0.01" stop-color="#1a2257"/><stop offset="1" stop-color="#5e60f2"/></linearGradient><linearGradient id="e" x1="-17.754" y1="0.5" x2="-16.754" y2="0.5" xlink:href="#d"/><linearGradient id="f" x1="-23.761" y1="0.5" x2="-22.761" y2="0.5" xlink:href="#d"/><linearGradient id="g" x1="-17.099" y1="0.5" x2="-16.099" y2="0.5" xlink:href="#d"/><linearGradient id="h" x1="0.983" y1="0.962" x2="0.233" y2="0.108" gradientUnits="objectBoundingBox"><stop offset="0" stop-color="#1a2257"/><stop offset="0.01" stop-color="#2cabe0"/><stop offset="1" stop-color="#5e60f2"/></linearGradient><linearGradient id="i" x1="0.079" y1="2.027" x2="0.485" y2="0.07" gradientUnits="objectBoundingBox"><stop offset="0" stop-color="#c9c4c1"/><stop offset="1" stop-color="#fff6de"/></linearGradient><linearGradient id="j" x1="-0.105" y1="0.5" x2="0.895" y2="0.5" xlink:href="#i"/><linearGradient id="l" x1="0.5" y1="0" x2="0.5" y2="1" xlink:href="#h"/><linearGradient id="m" x1="0.5" x2="0.5" y2="1" gradientUnits="objectBoundingBox"><stop offset="0" stop-color="#d98b52"/><stop offset="1" stop-color="#b71f1f"/></linearGradient><linearGradient id="n" x1="0.5" x2="0.5" y2="1" gradientUnits="objectBoundingBox"><stop offset="0" stop-color="#16202e"/><stop offset="1" stop-color="#0b274b"/></linearGradient><linearGradient id="r" x1="0.84" y1="0.328" x2="-0.035" y2="1.349" gradientUnits="objectBoundingBox"><stop offset="0" stop-color="#fccca2"/><stop offset="1" stop-color="#e8e077"/></linearGradient><linearGradient id="s" x1="0.304" y1="0.236" x2="0.5" y2="1" gradientUnits="objectBoundingBox"><stop offset="0" stop-color="#1a2257"/><stop offset="0.099" stop-color="#2cabe0"/><stop offset="1" stop-color="#5e60f2"/></linearGradient><linearGradient id="t" x1="0.5" y1="0" x2="0.5" y2="1" xlink:href="#r"/><linearGradient id="u" x1="0.5" x2="0.5" y2="1" gradientUnits="objectBoundingBox"><stop offset="0" stop-color="#eea886"/><stop offset="1" stop-color="#be9785"/></linearGradient><linearGradient id="ac" x1="0" y1="0.5" x2="1" y2="0.5" xlink:href="#a"/><linearGradient id="ae" x1="0" y1="0.501" x2="1" y2="0.501" xlink:href="#a"/><linearGradient id="af" x1="0" y1="0.5" x2="1" y2="0.5" xlink:href="#a"/><linearGradient id="ah" x1="0" y1="0.5" x2="1" y2="0.5" xlink:href="#a"/><linearGradient id="ai" x1="0" y1="0.5" x2="0.999" y2="0.5" xlink:href="#a"/><linearGradient id="ak" x1="0" y1="0.5" x2="0.999" y2="0.5" xlink:href="#a"/><linearGradient id="al" x1="0" y1="0.5" x2="1" y2="0.5" xlink:href="#a"/><linearGradient id="am" x1="0" y1="0.5" x2="1" y2="0.5" xlink:href="#a"/></defs><g transform="translate(-129.949 -222.852)"><path class="a" d="M376.772,0C584.858,0,753.544,21.864,753.544,48.835S584.858,97.67,376.772,97.67,0,75.806,0,48.835,168.687,0,376.772,0Z" transform="translate(188.404 806.885)"/><g transform="translate(129.949 222.852)"><g transform="translate(0)"><rect class="b" width="207.101" height="209.141" rx="58.67" transform="translate(252.313 108.726)"/><rect class="c" width="95.886" height="4.782" transform="translate(307.922 270.255)"/><rect class="c" width="68.723" height="4.782" transform="translate(321.504 285.326)"/><rect class="d" width="283.441" height="335.975" rx="69.12" transform="translate(493.487 181.263)"/><rect class="e" width="22.479" height="4.203" transform="translate(622.001 379.468)"/><rect class="c" width="130.811" height="8.14" transform="translate(536.653 417.997)"/><rect class="c" width="105.78" height="8.14" transform="translate(536.653 457.076)"/><rect class="c" width="62.013" height="8.14" transform="translate(536.653 437.536)"/><path class="e" d="M1653.809,541.65v4.1h23.975v22.72h4.068V541.65Zm-162.78,26.831h4.072V545.754h23.951v-4.1H1491.01ZM1677.784,685.72v22.728h-23.974v4.112h28.042V685.72Zm-182.682,0h-4.072v26.84h28.042v-4.124h-23.951Z" transform="translate(-952.123 -326.883)"/><path class="e" d="M1907.654,1101.1a24.212,24.212,0,1,1,23.974-24.211A24.094,24.094,0,0,1,1907.654,1101.1Zm0-43.735a19.525,19.525,0,1,0,19.333,19.524A19.429,19.429,0,0,0,1907.654,1057.367Z" transform="translate(-1190.616 -635.286)"/><path class="f" d="M1924,1111.293l-10.892-11,3.278-3.315,7.614,7.684,10.668-10.773,3.282,3.315Z" transform="translate(-1208.49 -660.156)"/><rect class="g" width="139.594" height="120.95" transform="translate(286.068 116.545)"/><path class="h" d="M322.875,1226.473c11.622-8.255,25.223-65.776,26.036-100.034.416-17.553,5.552-24.865,10.083-31.324,4.319-6.17,8.077-11.5,5.89-23.719-4.166-23.37,6.785-33.457,6.895-33.556l-1.268-1.459c-.487.432-11.889,10.836-7.519,35.356,2.034,11.427-1.323,16.205-5.572,22.252-4.46,6.344-10.008,14.247-10.44,32.391-.868,36.768-14.775,91.078-25.219,98.492Z" transform="translate(-241.964 -625.449)"/><path class="i" d="M175.077,1330.153c-1.1-2.51-2.23-5.107-3.534-7.846-6.639-14.151-12.521-16.483-22.266-20.345-2.379-.944-5.081-2.014-8.041-3.359-13.958-6.344-11.253-15.67-8.87-23.905.334-1.149.664-2.3.954-3.437,1.229-4.842-1.131-7.272-4.712-10.951a41.184,41.184,0,0,1-8.5-11.5c-2.788-5.88-1.366-9.036.314-10.646,3.534-3.386,11.7-2.776,19.412,1.487a28.211,28.211,0,0,1,6.455,5.611c4.916,5.2,11.029,11.665,26.5,11.737,8.823.043,13.652,1.273,16.153,4.112,2.839,3.223,2.3,8.045,1.571,14.722-.255,2.308-.546,4.925-.722,7.751-1.052,16.871,8.811,29.044,8.909,29.159,5.89,7.086,13.149,21.784,10.016,30.832-1.311,3.795-4.248,6.182-8.728,7.094a24.636,24.636,0,0,1-4.916.539C184.285,1351.2,180.315,1342.136,175.077,1330.153Zm-36.123-88.817c-6.891-3.787-14.272-4.552-17.178-1.776-2.211,2.113-1.178,5.733.094,8.4a38.869,38.869,0,0,0,8.139,10.988c3.738,3.85,6.675,6.891,5.191,12.8-.294,1.158-.632,2.327-.97,3.5-2.375,8.2-4.617,15.948,7.813,21.59,2.917,1.324,5.6,2.379,7.955,3.319,9.816,3.9,16.334,6.475,23.3,21.324,1.3,2.775,2.438,5.369,3.534,7.895,6.015,13.759,9.643,22.066,22.773,19.385,3.765-.769,6.223-2.732,7.3-5.832,2.748-7.974-3.844-21.935-9.679-28.945a46.675,46.675,0,0,1-9.349-30.531c.177-2.875.471-5.519.73-7.851.683-6.174,1.178-10.638-1.088-13.212-2.077-2.355-6.62-3.421-14.728-3.461-16.283-.079-22.714-6.875-27.877-12.339a26.4,26.4,0,0,0-5.984-5.246Z" transform="translate(-118.53 -745.91)"/><path class="j" d="M222.908,1385.97l1.92-.1c-.094-1.8-2.513-44.746-19.585-57.315-18.725-13.786-24.626-28.6-27.438-38.54-3.314-11.713-20.178-14.845-20.892-14.972l-.334,1.911c.161.028,16.393,3.049,19.377,13.6,2.89,10.218,8.952,25.436,28.156,39.571C220.446,1342.152,222.885,1385.534,222.908,1385.97Z" transform="translate(-141.64 -769.479)"/><path class="k" d="M294.31,1167.137c-4.017-2.018-3.871-10.138-3.651-22.431.279-15.535.66-36.8-7.393-56.371-8.552-20.785-.923-26.859,6.455-32.735,8.245-6.578,16.067-12.791,1.088-40.84-6.879-12.883-9.062-21.6-6.875-27.426,2.167-5.757,8.245-8,14.669-10.381,11.1-4.1,23.676-8.747,22.051-32.466-.5-7.272.346-11.745,2.662-14.072,2.517-2.53,6.223-2.256,10.515-1.939,6.486.48,13.833,1.019,20.233-7.41.664-2.106,6.785-20.912,14.1-24.132a5.121,5.121,0,0,1,4.476.024h0c5.053,2.439,7.986,5.333,8.964,8.846,1.7,6.114-2.749,13.005-7.853,20.987-8.065,12.545-17.209,26.76-7.727,43.679,12.541,22.367,5.917,30.2-3.247,41.031-5.253,6.209-11.2,13.243-15.183,24.718-3.2,9.227,2.258,18.029,7.539,26.538,6.62,10.674,13.467,21.712-.946,31.288-23.837,15.836-47.376,67.533-47.611,68.052l-.1.214-.185.147c-4.39,3.474-7.586,5.155-9.993,5.155A4.343,4.343,0,0,1,294.31,1167.137Zm58.8-74.718c12.843-8.533,7.067-17.843.393-28.636-5.261-8.485-11.229-18.1-7.723-28.212,4.1-11.816,10.173-19,15.533-25.337,8.983-10.614,14.92-17.629,3.039-38.814-10.055-17.942-.161-33.33,7.79-45.689,4.877-7.589,9.09-14.139,7.625-19.405-.821-2.946-3.42-5.436-7.943-7.625h0a3.28,3.28,0,0,0-2.882,0c-6.8,2.994-13.036,22.9-13.083,23.1l-.051.163-.1.135c-7.067,9.413-15.344,8.8-21.988,8.327-3.981-.293-7.126-.527-9.031,1.38s-2.556,5.983-2.1,12.561c1.724,25.174-12.172,30.3-23.307,34.424-6.282,2.316-11.677,4.318-13.53,9.247-1.963,5.261.173,13.481,6.769,25.816,15.745,29.484,6.93,36.5-1.59,43.291-7.13,5.678-13.864,11.039-5.87,30.464,8.206,19.94,7.821,41.447,7.539,57.148-.192,10.706-.342,19.187,2.587,20.662,1.712.86,4.994-.595,9.749-4.33C306.82,1156.888,329.365,1108.2,353.112,1092.42Z" transform="translate(-216.289 -540.991)"/><path class="l" d="M199.923,1010.173c12.129-4.2,9.608,19.429,14.736,36.875s57.023,7.621,35.239,51.368,27.551,14.627,12.812,52.8-1.28,79-17.3,68.62-9-58.457-25.659-64.171-19.377-12.375-2.882-27.9-43.222-30.927-28.486-62.3S185.906,1015.026,199.923,1010.173Z" transform="translate(-159.525 -609.337)"/><path class="m" d="M273.617,1300.4c1.527-6.534,14.555-64.043,2.4-71-10.715-6.126-10.452-29.956-8.779-52.462,1.48-19.92-23.853-29.234-24.933-29.619l-.644,1.828c.251.091,25.031,9.207,23.66,27.645-1.716,23.112-1.9,47.636,9.749,54.3,9.231,5.277.73,51.5-3.322,68.865Z" transform="translate(-193.314 -692.401)"/><path class="n" d="M326.165,1481.74,308.845,1548.1H270.139L252.82,1481.74Z" transform="translate(-200.093 -894.221)"/><path class="o" d="M326.165,1481.74s-38.129,7.24-38.129,66.359h-17.9L252.82,1481.74Z" transform="translate(-200.093 -894.221)"/><rect class="d" width="152.159" height="138.389" rx="48.23" transform="translate(479.76 31.276)"/><rect class="e" width="12.066" height="2.256" transform="translate(549.225 143.492)"/><path class="e" d="M1491.115,142v2.209h12.871v12.2h2.183V142Zm-87.385,14.405h2.187V144.224h12.867V142H1403.73Zm100.256,62.933v12.2h-12.871v2.2h15.054V219.354Zm-98.069,0h-2.187v14.405h15.054v-2.2h-12.867Z" transform="translate(-899.112 -85.696)"/><rect class="e" width="16.118" height="3.013" transform="translate(347.806 246.884)"/><path class="e" d="M967.353,329v2.95h17.186v16.289h2.921V329ZM850.63,348.238h2.921V331.95h17.186V329H850.63ZM984.539,432.3v16.3H967.353v2.946H987.46V432.3Zm-130.988,0H850.63V451.54h20.107v-2.946H853.551Z" transform="translate(-563.18 -198.55)"/><path class="p" d="M1675.581,699.344h-26.888c-1.771-13-3.926-27.843-3.926-27.843s-1.088,12.248-2.407,27.843H1534.738c-.982-14.025-2.164-24.516-2.588-24.734-.62-.309-4.457,12.129-7.645,24.734H1495.38c7.492-32.589,21.465-84.876,29.542-88.025,11.5-4.465,58.393-19.06,58.393-19.06h26.762s47.557,13.7,51.978,28.6C1665.572,632.743,1673.331,671.89,1675.581,699.344Z" transform="translate(-954.777 -357.425)"/><path class="q" d="M1710.327,370.828s24.987,3.965,21.2,43.457-25.859,36.245-27.335,36.2-22.141.722-23.75-47.486C1680.424,403,1679.721,367.359,1710.327,370.828Z" transform="translate(-1067.175 -223.649)"/><path class="q" d="M1734.768,536.261s-.683,16.257.872,19.754-20.621,14.805-34.16,2.224c0,0,3.267-17.649,2.356-23.905S1734.768,536.261,1734.768,536.261Z" transform="translate(-1079.954 -321.045)"/><path class="q" d="M1809.241,450.682s2.748-2.95,3.742.04-4.244,16.336-3.9,16.939c0,0-.5,1.158-1.158.519S1809.241,450.682,1809.241,450.682Z" transform="translate(-1144.521 -271.2)"/><path class="q" d="M1675.1,449.353s-2.682-3-3.742-.036,3.926,16.419,3.577,17.014c0,0,.479,1.166,1.147.543S1675.1,449.353,1675.1,449.353Z" transform="translate(-1061.571 -270.371)"/><path class="r" d="M1727.4,400.566l-3.577,4.829s.1-10.591-.471-12.248-1.452-6.741-1.932-7.93-21.462-7.137-39.99,1.733c0,0,.813,7.613-.962,8.291s-.907,12.4-.907,12.4l-2.941-3.35s-4.5-30.376-3.388-33.544,4.653-22.2,42.672-10.9c0,0,11.85-2.534,14.229,5.73S1727.4,400.566,1727.4,400.566Z" transform="translate(-1062.687 -215.025)"/><path class="q" d="M1735.638,592.429s5.638,1.213-17.955,24.048c0,0-16.734-18.7-16.192-21.808S1735.638,592.429,1735.638,592.429Z" transform="translate(-1079.953 -357.459)"/><path class="s" d="M1742.75,611.458l6.439,11.118,19.1-32.747L1760.018,584Z" transform="translate(-1105.02 -352.441)"/><path class="s" d="M1704.881,615.037l-15.623-25.107-8.858,5.745,15.882,30.479Z" transform="translate(-1067.151 -356.019)"/><path class="s" d="M1728.729,722.666c.192,3.7.275,8.243.287,13.346h-.884c0-5.079-.1-9.611-.291-13.3-1.449-27.855,5.234-61.748,5.277-69.69l.864.175C1733.94,661.136,1727.281,694.93,1728.729,722.666Z" transform="translate(-1095.841 -394.094)"/><path class="t" d="M1713.449,559.01s5.933,6.344,14.319,4.651,12.113-5.551,12.113-5.551a15.621,15.621,0,0,1-13.008,9.147C1717.18,568.023,1713.449,559.01,1713.449,559.01Z" transform="translate(-1087.224 -336.816)"/><path class="u" d="M970.137,309.665h-.059c-.565-.139-1.457-2.871-1.629-3.414-.043-.151-.13-.424-.252-.793-.7-2.185-2.356-7.3-1.7-9.262.2-.619.518-.979.935-1.067.9-.186,1.924.963,1.963,1.015l.02.024v.032c.232,2.153,1.37,12.914.88,13.41A.231.231,0,0,1,970.137,309.665Zm-2.5-14.361a.726.726,0,0,0-.165,0c-.342.071-.6.4-.785.924-.616,1.9,1.068,7.137,1.7,9.12.122.4.212.658.251.793.416,1.3,1.151,3.172,1.484,3.271h.028c.314-.428-.393-8.327-.935-13.208-.122-.111-.887-.9-1.567-.9Z" transform="translate(-633.462 -178.096)"/><path class="v" d="M978.541,223.539s13.742-1.459,18.709,11.959,9.624,17.8,10.209,24.853c2.356,28.5,15.544,22.054,11.838,38.485s-6.282,18.917-6.282,18.917L981.5,311.512l-31.921.1s12.49-6.3,9.706-19.71-9.706-35.4-5.8-50.356S970.319,224.681,978.541,223.539Z" transform="translate(-623.279 -134.876)"/><path class="u" d="M1065.677,309.644a.23.23,0,0,1-.165-.071c-.491-.5.648-11.257.88-13.41v-.056c.043-.052,1.068-1.189,1.963-1.015.42.087.73.448.934,1.067.64,1.959-1,7.078-1.7,9.262-.121.4-.208.654-.251.793-.173.547-1.068,3.279-1.629,3.418Zm.915-13.426c-.53,4.9-1.249,12.779-.934,13.208h.028c.334-.083,1.068-1.983,1.484-3.275.039-.147.13-.424.251-.793.632-1.982,2.317-7.24,1.7-9.12-.177-.543-.44-.853-.785-.924-.711-.167-1.594.745-1.743.92Z" transform="translate(-693.617 -178.076)"/><path class="p" d="M989.258,461.24H969.626c-4.072-7.494-7.382-13.354-7.382-13.354a60.637,60.637,0,0,0-4.711,13.354H891.44a58.2,58.2,0,0,1-.86-13.965s-3.534,6.443-7.633,13.965H860.74c5.89-11.142,16.935-31.435,19.448-34.1,3.141-3.331,21.414-16.082,34.454-20.242s20.464-.143,20.464-.143a153.19,153.19,0,0,1,25.781,7.395C965.755,416.11,979.2,441.2,989.258,461.24Z" transform="translate(-569.32 -244.423)"/><path class="w" d="M994.4,243.161s18.219,2.657,15.548,29.813-18.744,25-19.817,24.98-16.149.563-17.449-32.573C972.687,265.381,972.079,240.873,994.4,243.161Z" transform="translate(-637.312 -146.655)"/><path class="w" d="M1016.491,367.559s-1.127,14.128,1.571,18.358-2.3,9.976-12.6,8.013-9.7-7.863-9.7-7.863,2.882-8.723,2.042-15.694S1016.491,367.559,1016.491,367.559Z" transform="translate(-651.322 -221.078)"/><path class="v" d="M989.5,246.471s8.512,9.036,12.466,13.612,4.409,13.414,4.409,13.414,6.675-8.216,3.875-17.783-9.376-28.18-26.06-22.462-17.3,30.888-15.344,43.366C968.847,276.618,976.339,249.068,989.5,246.471Z" transform="translate(-634.509 -140.12)"/><path class="w" d="M1018.876,408.677s-12.631,32.311-20.311,37.93c0,0-10.087-32.958-9.38-37.783C989.185,408.84,1004.4,402.8,1018.876,408.677Z" transform="translate(-647.312 -245.083)"/><path class="v" d="M969.572,392.88S947.05,413.1,952.893,425.738c4.991,10.777,22.679,4.167,19.758-7.137S969.572,392.88,969.572,392.88Z" transform="translate(-624.703 -237.101)"/><path class="x" d="M1004.37,375.788a15.776,15.776,0,0,0,15.313-1.768,9.858,9.858,0,0,1-7.661,5C1006.467,379.638,1004.37,375.788,1004.37,375.788Z" transform="translate(-656.556 -225.719)"/><path class="y" d="M1467.584,190s-7.46,28.39-9.031,34.785a53.443,53.443,0,0,1-3.864,9.056.385.385,0,0,1-.047.087,7.345,7.345,0,0,0-.7,2.308c-.3,2.379.6,4.231-.958,7.038l-.283,1.189H1437.92c1.724-5.174,3.927-11.76,5.67-17.05,1.469-4.477,2.63-8.037,2.941-9.068.911-3.081,4.264-13.053,7.111-19.671,1-2.308,4.826-4.588,8.218-6.237A57.268,57.268,0,0,1,1467.584,190Z" transform="translate(-919.878 -114.664)"/><path class="z" d="M1487.742,41.68s-4.712-30.789,20.539-30.222,24.913,15.793,24.461,30.9-10.123,13.973.785,34.992-9.45,21.015-9.45,21.015l-15.8-21.927Z" transform="translate(-949.926 -6.91)"/><path class="u" d="M1505.967,18.374s-17.1,2.728-17.774,27.268,4.614,29.766,19.577,24.655,19.686-30.789,20.024-34.766S1529.031,15.42,1505.967,18.374Z" transform="translate(-950.377 -10.872)"/><path class="aa" d="M1511.51,195.023c.063,8.446-9.549,28.648-11.033,34.893-.177.726-.365,1.4-.554,2.026H1453.27c-.24-2.91-.471-5.4-.585-6.8-.369-4.611-4.994-14.548-4.841-19.175.161-4.714,2.45-8.783,5.654-13.818,1-1.558,2.042-3.144,3.086-4.691,3.4-5.036,6.789-9.607,8.453-11.181a27.265,27.265,0,0,1,3.408-2.74h0a15.812,15.812,0,0,1,3.506-1.864l14.7-2.379s9.164,3.35,14.437,4.592C1501.09,173.874,1511.373,175.4,1511.51,195.023Z" transform="translate(-925.903 -102.165)"/><path class="ab" d="M1475.013,180l-8.52,13.561-7.853,12.514c0-.067.542-1.963,1.429-7.45.169-1.043.349-2.212.546-3.525a8.944,8.944,0,0,1,.247-1.154h0c3.365-7.835,13.769-13.743,14.135-13.937Z" transform="translate(-932.462 -108.629)"/><path class="u" d="M1528.645,121.448c-1.484,2.827-3.047,20.372-3.047,20.372s-20.916,7.982-18.776,3.469a17.447,17.447,0,0,0,1.276-7,34.344,34.344,0,0,0-.232-4.262c-.055-.464-.1-.73-.1-.73S1530.125,118.617,1528.645,121.448Z" transform="translate(-961.633 -73.074)"/><path class="ac" d="M1499.063,35.35s8.775,14.429,16.762,20.111,3.927,10.226,3.927,10.226,20.841-44.31,1.025-47.378-31.965-3.295-32.526,26.7C1488.261,45.009,1497.261,35.124,1499.063,35.35Z" transform="translate(-950.446 -10.24)"/><path class="ad" d="M1521.644,149.15c-3.208,4.782-11.692,6.071-11.692,6.071h0a34.44,34.44,0,0,0-.232-4.262C1515.17,152.017,1521.644,149.15,1521.644,149.15Z" transform="translate(-963.487 -90.011)"/><path class="ae" d="M1463.089,193.808h0a17.721,17.721,0,0,0-.829,4.758l3.082-4.695s5.5-7.966,7.386-10.036a31.116,31.116,0,0,1,4.476-3.886S1466.378,185.212,1463.089,193.808Z" transform="translate(-934.661 -108.599)"/><path class="ab" d="M1562.991,206.41s13.424-5.317,17.394-5.626c0,0-2.7-21.772-15.886-19.464S1562.991,206.41,1562.991,206.41Z" transform="translate(-992.944 -109.322)"/><path class="u" d="M1498.11,171.577s-9.855,15.3-6.518,16.653,21.395-1.78,29.055-16.316C1520.664,171.9,1509.183,165.951,1498.11,171.577Z" transform="translate(-952.058 -102.086)"/><path class="y" d="M1559.974,195.142c-.687,12-4.056,23.394-6.84,33.826-.393,1.515-.785,3.013-1.155,4.484h-27.331c-.067-4.136-.055-7.787.075-10.833,1.378-33.295,11.818-50.82,11.818-50.82s3.337,1.134,12.957,3.882c6.584,1.879,9.07,10.337,9.973,15.464q0,.032,0,.063A36.7,36.7,0,0,1,1559.974,195.142Z" transform="translate(-972.529 -103.68)"/><path class="y" d="M1471.395,175.28a79,79,0,0,0-4.064,8.216c-3.24,7.5-7.283,19.369-7.625,32.446a192.135,192.135,0,0,1-2.191,19.6h-5.457a88.455,88.455,0,0,0-3-17.05c-.746-2.68-1.433-4.679-1.8-5.948-1.739-5.975,3.821-13.933,5.682-16.784S1459.27,179.836,1471.395,175.28Z" transform="translate(-925.345 -105.78)"/><path class="y" d="M1588.065,238.718h-14.677a19.83,19.83,0,0,0-.868-4.484c-2.666-9.568-10.558-28.2-10.558-28.2s-11.807-19.488-.617-24.452,16,8.913,17.508,14.833c0,.021,0,.042,0,.063C1579.239,197.89,1585.9,223.536,1588.065,238.718Z" transform="translate(-991.916 -108.945)"/><path class="u" d="M1025.116,1013.65s5.128-.071,6.954-2.066a23.991,23.991,0,0,1,6.086-4.294c1.382-.678,5.21-4.437,5.689-2.6s-6.094,6.487-7.342,7.744,5.462,1.8,6.443,3.021-2.439,14.048-6.911,13.053-8.135-5.551-8.984-5.551a25.025,25.025,0,0,1-3.3-.571Z" transform="translate(-668.327 -606.022)"/><path class="u" d="M1061.359,1031.28s13.349,4.12,13.9,5.285.177,2.022-1.1,1.7-13.067-3.529-13.067-3.529,14.59,8.053,15.246,8.862c.393.472-.255,2.157-.962,2.058s-15.705-7.054-15.705-7.054,13.6,7.534,13.947,8.45c.294.793-.616,2.228-1.673,1.757s-14.17-6.6-14.17-6.6,9.482,6.273,9.337,7.3c-.09.631-.589,2.105-2.976.4s-8.508-5.008-8.508-5.008Z" transform="translate(-687.689 -622.371)"/><path class="af" d="M932.934,1599.841s4.284,6.471,10.291,7.871,11.924,3.62,11.972,7.45-17.37,6.11-24.246,2.248c-10.26-5.757-11.3-4.021-12.439-6.9s1.366-10.579,1.292-11.5C919.7,1597.883,932.934,1599.841,932.934,1599.841Z" transform="translate(-604.23 -964.782)"/><path class="ag" d="M934.7,1590.729a26.683,26.683,0,0,1,.663,3.192c-.122.067-13.534,1.681-13.13-.829.33-2.034.785-4.242.785-4.242Z" transform="translate(-606.665 -958.861)"/><path class="af" d="M718.354,1598.116s3.055,6.189,8.277,8.3c5.579,2.252,10.052,4.841,9.95,8.573s-13.636,7.51-23.488.353c-6.223-4.524-8.194-4.548-9.192-7.395s1.732-10.25,1.7-11.146C705.55,1595.693,718.354,1598.116,718.354,1598.116Z" transform="translate(-473.929 -963.484)"/><path class="ag" d="M721.46,1588.787a29.887,29.887,0,0,1-.153,3.216c-.118.044-13.087,1.138-12.757-1.316a20.443,20.443,0,0,1,1.26-4.306Z" transform="translate(-476.882 -957.371)"/><path class="ah" d="M761.258,1093.7s17.036,65.915,23.523,81.153c6.011,14.12,7.994,33.862,8.823,43.778,1.04,12.474,7.236,61.062,7.963,64.694s-20.025,2.018-20.025,2.018-14.324-83.984-20.268-96.24c-3.969-8.18-26.994-66.831-29.628-63.441s-5.889,62.145-7.853,71.9-7.939,86.835-7.939,86.835-13.393,1.982-16.97-1.063c0,0-1.629-65.82-.393-84.107.475-6.971-8.088-83.576,2.89-114.416C707.176,1068.507,761.258,1093.7,761.258,1093.7Z" transform="translate(-469.116 -651.363)"/><path class="ai" d="M620.874,878.437c0,.753,1.41,3.767,3.659,8.1,3.29-6.646,5.889-12.105,6.722-14.112,2.772-6.614,17.06-21.772,17.06-21.772a.13.13,0,0,0,0,.032.046.046,0,0,0,0,.02h0v.063a.214.214,0,0,0,.035.127.556.556,0,0,1,0,.079.393.393,0,0,1,0,.063c.785,2.926,5.556,21.221,5.729,30.234.2,9.81,2.749,27.962,2.749,27.962h0l2.984.424,6.6.94.785.111,1.92.273,17.508,2.486,6.208.88.84.123,3.534.5,9.816,1.392,2.5.353h.024l1.869.266,2.591.369h0c.071-.1,2.521-3.477,2.14-10.991-.24-4.849-.817-13.961-.577-22.414v-.559h0A61.116,61.116,0,0,1,716.98,871a51.234,51.234,0,0,0,1.315-6.594,2.5,2.5,0,0,1,.039-.305c.043-.4.086-.793.122-1.158a58.73,58.73,0,0,0,.09-10.587h0c.177.4,1.453,5.119,3.141,10.956,2.831,9.873,6.793,22.91,8.481,23.537,2.458.912,42.232,12.811,50.819,14.029,1,.143,1.571.139,1.626-.04s.078-.258.118-.4c1.045-3.473,2.482-9.377,2.709-10.333.024-.083.035-.131.035-.131l-1.539-.468-43.281-13.085L720.863,818.81c-.393-.333-5.269-2.708-8.819-4.413-3.62-1.741-7.982-4.294-11.932-6.483-2.014-1.11-3.926-2.129-5.568-2.89l-.251-.115h0l-4.535-2.09h0l-1.178-.115c-3.8-.365-15.607-1.483-19.561-1.717-.326,0-.6-.036-.813-.04s-.314,0-.393,0a48.837,48.837,0,0,0-6.137,2.117h0l-.365.139-.456.174-.844.329-1.79.694-.624.25c-6.4,2.565-13.742,5.737-15.478,7-1.15.833-4.739,7.661-8.9,16.1-5.356,17.323-12.14,43.842-12.352,50.384C620.874,878.242,620.874,878.341,620.874,878.437Z" transform="translate(-423.632 -483.366)"/><path class="aj" d="M768.22,1082.212s1.319,1.586,1.7,8.326c0,0-54.16-6.38-59.885-8.9,0,0-.224-7.422.989-7.554C712.367,1073.948,768.22,1082.212,768.22,1082.212Z" transform="translate(-477.778 -648.204)"/><path class="ak" d="M740.62,766.462c.169,8.584,16.628,13.279,16.628,13.279s6.883-8.723,5.238-9.552c-.644-.325-.907-1.626-.989-3.085a30.819,30.819,0,0,1,.094-3.894c.051-.607.1-1,.1-1s-2.356-2.506-5.344-5.488c-5.226-5.222-12.415-11.9-12.427-9.246a2.376,2.376,0,0,0,.063.5C745.245,753.968,740.62,766.462,740.62,766.462Z" transform="translate(-496.364 -450.736)"/><path class="af" d="M738.239,1076.943s-1.178,7.534-1.284,9.488l-2.5-.5s.691-7.962,1.1-9.3Z" transform="translate(-492.616 -649.74)"/><path class="af" d="M842.835,1091.821s.95,6.84.974,9.425l-2.65-.349s-.542-8.545-.848-9.437Z" transform="translate(-556.912 -658.69)"/><path class="ad" d="M756.77,764.55h0c.031.052.73,1.106,1.92,2.621,2.529,3.208,7.279,8.481,12.615,10.6a30.868,30.868,0,0,1,.094-3.894,8.846,8.846,0,0,0,1.637-.2,50.881,50.881,0,0,0-3.581-5.293l-3.3-1Z" transform="translate(-506.173 -461.401)"/><path class="ak" d="M740.037,704.757c1.425,3.128,2.776,5.4,3.141,6.292h0a11.143,11.143,0,0,0,1.92,2.621c2.713,2.95,7.755,6.84,12.71,6.7a8.851,8.851,0,0,0,1.637-.2,7.761,7.761,0,0,0,5.662-3.965c10.268-20.3,2.835-36.9,2.835-36.9s-28.073-8.017-32.467.519C732.412,685.828,736.692,697.41,740.037,704.757Z" transform="translate(-492.6 -407.901)"/><path class="v" d="M761.469,657.854s2.607-.147,3.251-5.135-.652-6.3-.652-6.3-11.587-4.9-15.749-5.551-14.4-1.249-16.8,1.519c0,0-5.827-1.368-7.417,8.406-2.517,15.5,8.587,30.551,8.587,30.551s-.1-10.127,2.116-11.467,4.119,1.848,4.119,1.848l4.543.837s-6.871-14.984,1.37-15.539S756.75,658.722,761.469,657.854Z" transform="translate(-486.108 -386.43)"/><path class="al" d="M749.875,702.876c-.428-4.461-8.418-6.166-7.884-1.487s4.472,9.167,6.282,9.009S750.224,706.294,749.875,702.876Z" transform="translate(-497.181 -421.603)"/><path class="am" d="M624.533,889.742c3.479,6.705,8.972,16.57,14.394,26.134-.715,1.348-1.414,2.68-2.081,4a80.109,80.109,0,0,0-4.1,9.247c-1.237,3.493-2.957,12.45.334,14.112l17.323,9.659s.122-.341.353-.975c.573-1.586,1.818-4.933,3.534-9.286l.487-1.166c.345-.821.844-1.982,1.41-3.331.255-.6.522-1.233.785-1.883l.962-2.268,1.374-3.231,2.1-4.944.177-.4q.848-1.848,1.732-3.7c.911-1.907,1.849-3.807,2.807-5.666.094-.19.188-.4.287-.563l.514-.976.322-.595.071-.131.13-.234c5.006-9.227,10.648-16.943,12.447-28.255q.267-1.642.5-3.255.389-2.694.719-5.309c.082-.658.161-1.3.24-1.951.9-7.534,1.441-14.274,1.877-18.957,1.355-14.6-7.5-30.4-14.3-40.162a108.073,108.073,0,0,0-7.264-9.373.3.3,0,0,1-.035-.036l-.365.139-.455.174-.844.329-1.747.71-.624.25c-6.581,2.605-20.417,6.455-22.18,7.72-1.009.726-3.259,7.387-5.858,15.8-5.356,17.323-8.536,43.445-8.689,49.96v.3C620.874,882.391,622.283,885.4,624.533,889.742Zm26.307-3.259a30.4,30.4,0,0,1-2.662,10.956c-.039.1-.079.2-.122.3-1.111-2.379-2.156-4.683-3.094-6.808h0c-2.58-5.829-4.35-10.372-4.449-12.173-.636-11.554,7.794-24.857,7.794-24.857a.045.045,0,0,0,0,.02h0v.064l.035.127a.614.614,0,0,1,0,.079.407.407,0,0,1,0,.063c1.8,6.876,2.517,32.232,2.517,32.232Z" transform="translate(-423.632 -486.567)"/><path class="an" d="M671.708,1055.439l-49.382,22.2a5.515,5.515,0,0,1-7.311-2.831L601.5,1044.139a5.612,5.612,0,0,1,2.807-7.383l49.382-22.2a5.515,5.515,0,0,1,7.311,2.835l13.519,30.674A5.613,5.613,0,0,1,671.708,1055.439Z" transform="translate(-411.574 -611.983)"/><path class="am" d="M808.18,811.361s2.317,7.787,5.313,27.22h0q.153.981.306,1.983a1.647,1.647,0,0,0,.035.238l.2,1.368a.324.324,0,0,0,.027.159c.047.313.09.623.134.94q.169,1.154.342,2.347c1.335,9.461,3.208,25.559,5.01,41.812h0c1.425,12.811,4.668,25.955,5.7,35.765v.02a67.863,67.863,0,0,0,1.351,7.375c.075.329.149.658.228,1,2.9,12.383,8.536,29.908,8.536,29.908L837,959.96l4.873-4.5a3.991,3.991,0,0,0,1.092-4.1c-2.693-8.783-11.858-39.861-13.534-61.712.825-7.68,2.929-17.982,2.615-19.464l.059.162c.966,2.708,2.034,5.654,3.11,8.521h0c2.894,7.7,5.85,14.837,7.067,15.289,2.749,1.019,51.981,15.69,52.335,13.644.039-.206.078-.428.126-.658s.094-.468.149-.718c.6-2.8,1.712-6.824,2.481-9.516.114-.4.22-.793.318-1.11.322-1.122.534-1.836.534-1.836l-41.62-13.8-21.014-55.511c-.412-.329-5.776-3.243-9.325-4.948-3.695-1.78-8.371-3.965-12.521-5.9-1.963-.928-3.848-1.792-5.422-2.522Z" transform="translate(-537.397 -489.597)"/><path class="ao" d="M724.014,827.592l8.006,4.56-3.424,3.521,9.109,49.662c1.857-11.641,2.7-22.7,3.333-29.472,2.093-22.561-20.209-48.013-21.6-49.563-1.072.4-2.226.86-3.424,1.34Z" transform="translate(-481.423 -486.597)"/><path class="ao" d="M807.86,811s2.992,9.865,6.478,34.5c1.339,9.461,3.212,25.559,5.014,41.812l1.865-46.51-3.812-4.171,3.388-4.278-7.256-18.731c-1.963-.928-3.844-1.792-5.422-2.522Z" transform="translate(-537.203 -489.434)"/><path class="ap" d="M723.6,800.413l6.675-4.143s.188,3.676,16.628,13.279l-4.669,13.279Z" transform="translate(-486.027 -480.544)"/><path class="ap" d="M787.34,800.94s-.255,3.965-4.37,11.427l9.109,11.99.664-19.429Z" transform="translate(-522.086 -483.362)"/><path class="p" d="M780.943,829.76s-1.763,7.137-1.127,9.12c0,0,3.879,1.427,6.675-.357A31.735,31.735,0,0,0,780.943,829.76Z" transform="translate(-520.086 -500.755)"/><path class="aq" d="M804.844,1057.613c.99-5.032.047-20.111,0-20.753l-.844.055c0,.155.974,15.606,0,20.531Z" transform="translate(-534.859 -625.739)"/><path class="ar" d="M788.26,1083.35s7.971.96,10.6,1.626l-.345,9.02-10.436-1.126Z" transform="translate(-525.189 -653.795)"/><path class="p" d="M786.125,848.749s8.885,22.664,7.437,48.033c-1.5,26.3-3.97,35.844-3.97,35.844l-5.5,6.939-2.415-8.529s7.354-33.536,2.607-66.169c-.86-5.912-2.14-17.117-2.14-17.117Z" transform="translate(-521.302 -511.612)"/><path class="u" d="M711.6,1120.18s1.9,3.85,3.813,4.492,4.688,3.771,4.688,3.771l-13.428,7.137s-3.577-7.058-3.734-11.554S711.6,1120.18,711.6,1120.18Z" transform="translate(-473.475 -676.002)"/><path class="ai" d="M711.623,1121.14l.891,1.8s-8.528,6.3-10.829,6.7l-.785-2.407Z" transform="translate(-472.24 -676.601)"/><path class="am" d="M674.918,1055.239s-6.392,5.337-11.779,7.8L639,1020.311l15.4-8.5S674.494,1052.027,674.918,1055.239Z" transform="translate(-434.644 -610.621)"/><path class="ah" d="M865.065,907.773c.294,6.09.251,11.5.251,11.5h0c0,.032,0,.195.02.468a2.475,2.475,0,0,1,.039-.305c.966,2.708,2.034,5.654,3.11,8.521a92.839,92.839,0,0,0,.244-9.29c-.432-17.05-5.748-26.015-5.748-26.015C864.2,895.624,864.782,902.007,865.065,907.773Z" transform="translate(-570.681 -538.709)"/><path class="u" d="M1402.14,768.326a20.293,20.293,0,0,1,.114-4.6c.632-2.53-.3-6.622,2.847-8.608s12.2,6.344,12.914,8.656-2.674,6.285-9.749,9.611S1402.14,768.326,1402.14,768.326Z" transform="translate(-898.095 -455.526)"/><path class="u" d="M1407.36,731.14a107.933,107.933,0,0,1,7.091-9.381c3.534-4.163,8.5-8.83,9.553-7.93,1.594,1.344-2.913,4.7-6.145,9.068-2.976,4.016-1.712,3.731-1.712,3.731s-.365.063,3.73-3.676c4.405-4.021,9.3-8.152,10.173-7.443,1.08.88,1.143,1.083-.216,2.807.993-.821,1.362-.662,1.743-.273,1.963,2.014-3.565,8.941-5.768,11.693,1.708-2.1,3.184-3.458,3.608-1.435.491,2.311-7.8,11.748-10.441,15.42C1416.1,747.706,1407.36,731.14,1407.36,731.14Z" transform="translate(-901.317 -430.723)"/><path class="as" d="M1111.209,1597.013s8.614,5.155,12.513,7.054,19.055,2.459,20.551,3.894.95,6.011-1.571,6.479-20.928,2.149-27.092.7-17.641.991-20.185.119-.9-14.73.078-17.843S1111.209,1597.013,1111.209,1597.013Z" transform="translate(-711.036 -963.127)"/><path class="at" d="M1115.231,1584.39l-.719,5.666s-11.516,2.173-15,.4l.864-5.884Z" transform="translate(-714.34 -956.17)"/><path class="au" d="M1158.163,1058.552c-.122,3.922-.828,12.435-1.653,21.372-.185,1.983-.393,4-.565,5.979-1.15,12.03-2.308,23.156-2.308,23.156-1.457,9.576-4.457,26.2-7.809,38.771h0c-.966,3.628-1.963,6.919-2.961,9.6a24.424,24.424,0,0,1-2.894,5.876c-7.134,9.207-23.5,90.8-23.5,90.8l-22.337-.174s4.912-55.261,9.851-69.266c5.5-15.646,15.077-36.728,12.7-51.815-1.488-9.469-3.408-39.607-3.408-39.607s-1.865-33.87,6.906-58.683C1122.379,1028.394,1158.163,1058.552,1158.163,1058.552Z" transform="translate(-711.079 -623.85)"/><path class="as" d="M1270.872,1602.133s8.552,5.246,12.427,7.2,19.023,2.693,20.5,4.148.875,6.019-1.641,6.455-20.951,1.9-27.092.373-17.669.793-20.182-.127-.73-14.738.291-17.843S1270.872,1602.133,1270.872,1602.133Z" transform="translate(-807.933 -966.138)"/><path class="at" d="M1275.135,1589.73l-.785,5.654s-11.54,2.034-15.011.2l.935-5.876Z" transform="translate(-811.415 -959.38)"/><path class="au" d="M1196.686,1177.526c-.581-18.049-2.16-30.043-6.761-40.467-3.859-8.759-7.166-36.261-7.166-36.261s-10.468-32.224-8.347-58.477c.53-6.558,40.991,9.913,40.991,9.913a244.285,244.285,0,0,1,4.551,24.778c5.5,50.975,3.427,84.186,3.427,84.186-3.141,11.257,4.778,99.82,4.778,99.82h-22.773s-5.972-31.506-6.6-51.1C1198.786,1209.929,1196.458,1180.647,1196.686,1177.526Z" transform="translate(-759.66 -628.104)"/><path class="av" d="M1177,789.9s10.6,17.565,13.715,27.359.6,38.3,1.151,44.032c1.7,17.771,4.174,37.335,4.174,37.335l-35.569,22.946a356.793,356.793,0,0,1-11.948-33.81c-5.568-18.751-6.015-35.634-5.964-46.915.161-35.384,19.1-55.364,19.1-55.364Z" transform="translate(-740.482 -474.032)"/><path class="u" d="M1208.718,667.328s7.292,7.883,5.234,9.956c-1.7,1.713,5,9.568,5.956,10.888s-2.98,3.509-3.624,4.691-.267,13.549-3.644,14.821-20.417-.075-25.835-3.41-14.135-22.6-13.522-31.847S1195.891,653.585,1208.718,667.328Z" transform="translate(-759.128 -398.58)"/><path class="u" d="M1215.893,725.365s-.126,1.051-.291,2.68c-.063.682-.145,1.459-.22,2.312-.039.5-.082,1.039-.133,1.586,0,.147-.031.293-.043.44,0,.254-.039.5-.063.765-.082,1.19-.165,2.419-.228,3.636a38.448,38.448,0,0,0,.157,7.815c.9,4.584-18.642-14.746-18.642-14.746a228.287,228.287,0,0,0,.852-31.843C1196.473,681.158,1215.893,725.365,1215.893,725.365Z" transform="translate(-773.206 -418.933)"/><path class="aw" d="M1205.406,658.564s3.448-8.22-7.189-13.925c-12.529-6.721-25.808,10.147-27.571,11.142s-9.761,10.091-1.936,22.149c9.89,15.226,9.368,14.714,9.368,14.714s.993-11.229.927-13.4c-.118-3.965,10.169-4.429,10.169-4.429s-4.225-5.678.475-8.228S1199.838,658.005,1205.406,658.564Z" transform="translate(-754.321 -388.084)"/><path class="u" d="M1200.206,714.519c-.75-1.063-3.5-5.753-7.032-1.634s5.945,11.824,6.726,11.749S1206.508,723.461,1200.206,714.519Z" transform="translate(-770.751 -429.217)"/><path class="ax" d="M1199.989,1075.239s-1.771-8.4-2.113-9.659l-52.017,8.723.531,6.792S1183.871,1078.831,1199.989,1075.239Z" transform="translate(-742.491 -643.071)"/><path class="p" d="M1126.994,996.58s7.99,34.849-4.527,75.507c-1.527,4.964,34.642-.793,34.642-.793Z" transform="translate(-728.255 -601.43)"/><path class="p" d="M1176.686,941.4s-25.694,5.694-32.907,3.12c0,0-10.5-38.572-14.166-77.715q-.424-4.544-.715-9.064h0c-2.045-31.851,5.984-64.163,24.273-72.2.518.353,26.279,23.291,25.788,44.286-.036,1.42-.051,2.847-.063,4.274,0,2.581,0,5.155.059,7.752h0c.161,7.989.651,15.955,1.351,23.691.071.793.149,1.614.224,2.411.125,1.3.259,2.593.392,3.874q.275,2.569.573,5.087A174.809,174.809,0,0,1,1176.686,941.4Z" transform="translate(-732.001 -474.069)"/><path class="ay" d="M1248.4,834.736a291.205,291.205,0,0,1,6.675,43.7c1.543,20.372,3.6,34.773,3.6,34.773l3.086,10.087,1.272-9.726s-1.135-26.288-2.646-36.982c-1.519-10.781-2.187-24.468-10.723-42.224Z" transform="translate(-804.771 -503.531)"/><path class="ay" d="M1245.761,826a2.854,2.854,0,0,0,1.41.686c.824.127,2.006-1.189-2.211-6.832Z" transform="translate(-802.681 -494.775)"/><path class="az" d="M1193.471,778.17s11.964,11.376,19.082,13.878l1.358,10.9-22.722-21.879Z" transform="translate(-770.023 -469.621)"/><path class="p" d="M1186.574,822.6c-4.712-1.693-24.312-11.3-19.1-22.514s18.647-5.25,28.761-.69c10.6,4.758,35.565,19.429,37.54,18.077s10.6-13.854,12.172-16.653,10.994-20.571,11.885-21.911,14.567,10.309,14.567,10.309-24.6,44.123-31.219,51.149S1186.574,822.6,1186.574,822.6Z" transform="translate(-755.089 -470.001)"/><path class="as" d="M1209.15,1264.683h0c-.966,3.628-1.963,6.919-2.96,9.6h0l-7.79-46.926C1200.367,1231.809,1209.15,1264.683,1209.15,1264.683Z" transform="translate(-774.402 -740.704)"/><path class="ba" d="M1222,899.216l-22.541-18.6c5.972,3.232,20.645,10,22.482,10.844Q1221.919,895.336,1222,899.216Z" transform="translate(-775.046 -531.449)"/><path class="ad" d="M1223.69,775.046c-.063.682-.146,1.459-.22,2.312-.039.5-.082,1.039-.133,1.586-7.46-.5-13.244-6.515-13.6-6.883C1212.779,774.5,1223.69,775.046,1223.69,775.046Z" transform="translate(-781.289 -465.934)"/><g class="bb" transform="translate(687.112 123.357)"><path class="bc" d="M1985.214,331.919h11.834l-3.624-7.589H1981.59Z" transform="translate(-1937.194 -319.088)"/><path class="bc" d="M1971.11,331.919h2.823l-3.624-7.589h-2.819Z" transform="translate(-1928.631 -319.088)"/><path class="bd" d="M1870.11,314.9h47.926l-1.591-3.795H1868.52Z" transform="translate(-1868.52 -311.11)"/></g><rect class="be" width="20.307" height="6.182" rx="2.82" transform="translate(412.136)"/><rect class="be" width="20.307" height="6.182" rx="2.82" transform="translate(412.136 14.821)"/><rect class="bf" width="20.307" height="6.182" rx="2.82" transform="translate(412.136 29.639)"/><rect class="bg" width="5.78" height="6.182" rx="2.82" transform="translate(440.83)"/><rect class="bg" width="5.78" height="6.182" rx="2.82" transform="translate(440.83 14.821)"/><rect class="bh" width="5.78" height="6.182" rx="2.82" transform="translate(440.83 29.639)"/><path class="bi" d="M1010.832,878.73h21.246l-6.506-13.62H1004.33Z" transform="translate(-656.532 -522.089)"/><path class="bj" d="M985.512,878.73h5.065l-6.506-13.62H979.01Z" transform="translate(-641.153 -522.089)"/></g></g></g></svg>