<svg xmlns="http://www.w3.org/2000/svg" xmlns:xlink="http://www.w3.org/1999/xlink" width="20" height="20" viewBox="0 0 20 20">
  <defs>
    <style>
      .cls-1, .cls-3, .cls-4, .cls-5 {
        fill: none;
      }

      .cls-2 {
        clip-path: url(#clip-path);
      }

      .cls-3, .cls-4 {
        stroke-linecap: round;
      }

      .cls-4, .cls-5 {
        stroke: #1e1e1e;
      }

      .cls-4 {
        stroke-linejoin: round;
        stroke-width: 1.2px;
      }

      .cls-6, .cls-7 {
        stroke: none;
      }

      .cls-7 {
        fill: #1e1e1e;
      }
    </style>
    <clipPath id="clip-path">
      <rect id="Rectangle_1029" data-name="Rectangle 1029" class="cls-1" width="20" height="20"/>
    </clipPath>
  </defs>
  <g id="Group_1042" data-name="Group 1042" transform="translate(-981 -609)">
    <g id="tag2" class="cls-2" transform="translate(981 609)">
      <g id="Icon_awesome-tags" data-name="Icon awesome-tags" class="cls-3" transform="translate(2.278 2.528)">
        <path class="cls-6" d="M15.266,6.927,8.77.431A1.472,1.472,0,0,0,7.729,0H1.472A1.472,1.472,0,0,0,0,1.472V7.729A1.472,1.472,0,0,0,.431,8.77l6.5,6.5a1.472,1.472,0,0,0,2.081,0l6.258-6.258a1.472,1.472,0,0,0,0-2.081Z"/>
        <path class="cls-7" d="M 1.471583366394043 -9.5367431640625e-07 C 0.658843994140625 -9.5367431640625e-07 3.814697265625e-06 0.658839225769043 3.814697265625e-06 1.471578598022461 L 3.814697265625e-06 7.729418754577637 C 3.814697265625e-06 8.119699478149414 0.1550436019897461 8.493999481201172 0.4310140609741211 8.76996898651123 L 6.926883697509766 15.26584911346436 C 7.214208602905273 15.55318927764893 7.590826034545898 15.69686985015869 7.967437267303467 15.69686985015869 C 8.344048500061035 15.69686985015869 8.720653533935547 15.55320358276367 9.008013725280762 15.26584911346436 L 15.26584339141846 9.00800895690918 C 15.8405237197876 8.433319091796875 15.8405237197876 7.501568794250488 15.26584339141846 6.926889419555664 L 8.769973754882813 0.4310188293457031 C 8.494003295898438 0.1550493240356445 8.11970329284668 -9.5367431640625e-07 7.729413986206055 -9.5367431640625e-07 L 1.471583366394043 -9.5367431640625e-07 M 1.471583366394043 -1.500000953674316 L 7.729413986206055 -1.500000953674316 C 8.523143768310547 -1.500000953674316 9.269373893737793 -1.190901756286621 9.830633163452148 -0.6296415328979492 L 16.32650375366211 5.866229057312012 C 17.4851131439209 7.024839401245117 17.4851131439209 8.910038948059082 16.32651329040527 10.06865882873535 L 10.06867408752441 16.32650947570801 C 9.507383346557617 16.88777923583984 8.761163711547852 17.19686889648438 7.967433929443359 17.19686889648438 C 7.173673629760742 17.19686889648438 6.427433967590332 16.88775825500488 5.866184234619141 16.32646942138672 L -0.6296453475952148 9.830629348754883 C -1.190896034240723 9.269378662109375 -1.499997138977051 8.523149490356445 -1.499997138977051 7.729418754577637 L -1.499997138977051 1.471578598022461 C -1.499997138977051 -0.1669511795043945 -0.1669454574584961 -1.500000953674316 1.471583366394043 -1.500000953674316 Z"/>
      </g>
    </g>
    <g id="Group_1041" data-name="Group 1041" transform="translate(986.448 614.646)">
      <g id="Group_1040" data-name="Group 1040" transform="translate(0 0)">
        <path id="Path_1517" data-name="Path 1517" class="cls-4" d="M0,5.068,7.087,0" transform="translate(0 1.568) rotate(-3)"/>
        <g id="Ellipse_115" data-name="Ellipse 115" class="cls-5" transform="translate(0)">
          <circle class="cls-6" cx="1.684" cy="1.684" r="1.684"/>
          <circle class="cls-1" cx="1.684" cy="1.684" r="1.184"/>
        </g>
        <g id="Ellipse_116" data-name="Ellipse 116" class="cls-5" transform="translate(3.974 4.561)">
          <circle class="cls-6" cx="1.684" cy="1.684" r="1.684"/>
          <circle class="cls-1" cx="1.684" cy="1.684" r="1.184"/>
        </g>
      </g>
    </g>
  </g>
</svg>
