<svg xmlns="http://www.w3.org/2000/svg" xmlns:xlink="http://www.w3.org/1999/xlink" width="20" height="20" viewBox="0 0 20 20">
  <defs>
    <clipPath id="clip-path">
      <rect id="Rectangle_977" data-name="Rectangle 977" width="20" height="20" transform="translate(788 544)" fill="#fff" stroke="#707070" stroke-width="1"/>
    </clipPath>
  </defs>
  <g id="Remuneração" transform="translate(-788 -544)" clip-path="url(#clip-path)">
    <g id="money" transform="translate(788 544)">
      <g id="Group_890" data-name="Group 890">
        <g id="Group_889" data-name="Group 889">
          <path id="Path_4633" data-name="Path 4633" d="M10,12.383a.586.586,0,0,1-.228-1.126.8.8,0,0,1,.862.26.586.586,0,0,0,.815-.842,2.3,2.3,0,0,0-.863-.54V9.453a.586.586,0,0,0-1.172,0v.686c-.033.012-.066.024-.1.038A1.758,1.758,0,0,0,10,13.555a.586.586,0,0,1,.2,1.137.9.9,0,0,1-.961-.408.586.586,0,1,0-.9.754,2.435,2.435,0,0,0,1.072.766v.681a.586.586,0,1,0,1.172,0V15.8l.016-.005a1.758,1.758,0,0,0-.6-3.41Z"/>
        </g>
      </g>
      <g id="Group_892" data-name="Group 892">
        <g id="Group_891" data-name="Group 891">
          <path id="Path_4634" data-name="Path 4634" d="M15.427,8.8a8.308,8.308,0,0,0-2.366-2.03,1.761,1.761,0,0,0-.87-2.833l1.5-2.608a.586.586,0,0,0-.345-.854,12.018,12.018,0,0,0-6.683,0,.586.586,0,0,0-.345.854l1.5,2.608A1.76,1.76,0,0,0,6.94,6.769,8.308,8.308,0,0,0,4.574,8.8a9.61,9.61,0,0,0-2.191,5.927C2.383,18.988,5.783,20,10,20s7.617-1.014,7.617-5.273A9.61,9.61,0,0,0,15.427,8.8ZM7.715,1.415a10.872,10.872,0,0,1,4.571,0l-1.29,2.25a7.187,7.187,0,0,0-1.99,0ZM8.1,5.074a6.058,6.058,0,0,1,3.089-.188h0a6.185,6.185,0,0,1,.711.187.586.586,0,0,1-.119,1.14,5.9,5.9,0,0,0-3.561,0A.585.585,0,0,1,8.1,5.074ZM10,18.836c-4.578,0-6.445-1.2-6.445-4.109A8.539,8.539,0,0,1,5.483,9.538,5.918,5.918,0,0,1,10,7.109a5.96,5.96,0,0,1,4.517,2.429,8.539,8.539,0,0,1,1.928,5.188C16.445,17.64,14.578,18.836,10,18.836Z"/>
        </g>
      </g>
    </g>
  </g>
</svg>
