<svg xmlns="http://www.w3.org/2000/svg" xmlns:xlink="http://www.w3.org/1999/xlink" width="20" height="20" viewBox="0 0 20 20">
  <defs>
    <clipPath id="clip-path">
      <rect id="Rectangle_988" data-name="Rectangle 988" width="20" height="20" transform="translate(861 541)" fill="#fff" stroke="#707070" stroke-width="1"/>
    </clipPath>
  </defs>
  <g id="_Responsável" data-name=" Responsável" transform="translate(-861 -541)" clip-path="url(#clip-path)">
    <g id="support_1_" data-name="support (1)" transform="translate(861 541)">
      <g id="Group_912" data-name="Group 912">
        <g id="Group_911" data-name="Group 911">
          <path id="Path_4663" data-name="Path 4663" d="M19.374,9.867a1.757,1.757,0,0,0-2.419.146l-1.722,1.849a1.761,1.761,0,0,0-1.679-1.237H10.481c-.233,0-.311-.089-.716-.4a4.11,4.11,0,0,0-5.4.013l-1.13.994a1.751,1.751,0,0,0-1.611-.02l-1.3.648a.586.586,0,0,0-.262.786l3.515,7.031a.586.586,0,0,0,.786.262l1.3-.648a1.756,1.756,0,0,0,.971-1.634h6.924a4.121,4.121,0,0,0,3.281-1.641l2.813-3.751A1.753,1.753,0,0,0,19.374,9.867ZM5.135,18.242l-.771.386L1.372,12.645l.772-.386a.586.586,0,0,1,.786.262L5.4,17.456A.586.586,0,0,1,5.135,18.242Zm13.575-6.68L15.9,15.312a2.943,2.943,0,0,1-2.344,1.172H6.221l-2.2-4.392,1.109-.976a2.937,2.937,0,0,1,3.871,0,2.074,2.074,0,0,0,1.475.68h3.073a.586.586,0,1,1,0,1.172H10.562a.586.586,0,1,0,0,1.172h3.385a1.763,1.763,0,0,0,1.286-.56l2.58-2.769a.586.586,0,0,1,.9.75Z"/>
        </g>
      </g>
      <g id="Group_914" data-name="Group 914">
        <g id="Group_913" data-name="Group 913">
          <path id="Path_4664" data-name="Path 4664" d="M12.32,4a2.334,2.334,0,0,0,.648-1.616A2.376,2.376,0,0,0,10.625,0,2.414,2.414,0,0,0,8.242,2.383,2.3,2.3,0,0,0,8.912,4,3.574,3.574,0,0,0,7.07,7.109V7.7a.586.586,0,0,0,.586.586h5.9A.586.586,0,0,0,14.14,7.7V7.109A3.572,3.572,0,0,0,12.32,4Zm-1.7-2.826A1.208,1.208,0,0,1,11.8,2.383a1.173,1.173,0,0,1-1.172,1.172A1.208,1.208,0,0,1,9.414,2.383,1.243,1.243,0,0,1,10.625,1.172ZM8.242,7.109a2.414,2.414,0,0,1,2.383-2.383,2.366,2.366,0,0,1,2.344,2.383Z"/>
        </g>
      </g>
    </g>
  </g>
</svg>
