<svg xmlns="http://www.w3.org/2000/svg" width="24.861" height="20.289" viewBox="0 0 24.861 20.289">
  <g id="select_menu_lateral" data-name="select menu lateral" transform="translate(1 1)">
    <g id="Component_53_1" data-name="Component 53 – 1">
      <path id="Icon_awesome-user-clock" data-name="Icon awesome-user-clock" d="M17.718,8a5.144,5.144,0,1,0,5.144,5.144A5.141,5.141,0,0,0,17.718,8Zm-6.287,5.144a6.265,6.265,0,0,1,.65-2.768,4.76,4.76,0,0,0-.879-.089h-.6a6.218,6.218,0,0,1-5.208,0H4.8a4.8,4.8,0,0,0-4.8,4.8v1.486a1.715,1.715,0,0,0,1.715,1.715h12.4A6.287,6.287,0,0,1,11.431,13.145ZM8,9.145A4.572,4.572,0,1,0,3.429,4.572,4.572,4.572,0,0,0,8,9.145Z" fill="none" stroke="#2cabe0" stroke-width="2"/>
      <line id="Line_32" data-name="Line 32" y2="3" transform="translate(17.058 13.886) rotate(-90)" fill="none" stroke="#2cabe0" stroke-linecap="round" stroke-width="2"/>
      <line id="Line_33" data-name="Line 33" y1="3" transform="translate(17.058 10.886)" fill="none" stroke="#2cabe0" stroke-linecap="round" stroke-width="2"/>
    </g>
  </g>
</svg>
