<svg xmlns="http://www.w3.org/2000/svg" viewBox="0 0 35.18 35.17"><g id="Camada_2" data-name="Camada 2"><g id="Camada_1-2" data-name="Camada 1"><path d="M28,30.89l-2.53,2.17-1.93,1.65a1.6,1.6,0,0,1-2.24,0q-2-1.76-4.09-3.5l-.38-.33L14,33.3l-1.62,1.39a1.56,1.56,0,0,1-1.79.32,1.6,1.6,0,0,1-1-1.59V19.19H2c-1.34,0-1.93-.6-1.93-2C0,13.63,0,10,0,6.39A6.19,6.19,0,0,1,3.82.57,6.05,6.05,0,0,1,6.47,0H28.73a6.41,6.41,0,0,1,6.36,5.36,6.83,6.83,0,0,1,.09,1.11V33.38a1.62,1.62,0,0,1-2.75,1.31l-4.24-3.63Zm4-.82V6.51a3.82,3.82,0,0,0-.12-.89,3.18,3.18,0,0,0-3.24-2.41H11.94a8.06,8.06,0,0,1,.87,4.57q0,10.89,0,21.78v.5l.34-.28c.85-.73,1.7-1.47,2.56-2.19a1.57,1.57,0,0,1,2.17,0c.73.61,1.44,1.23,2.16,1.85l2.34,2,.25-.19,4.21-3.6a1.59,1.59,0,0,1,2.23,0l1,.82ZM9.56,16a.35.35,0,0,0,0-.13c0-3.22,0-6.45,0-9.68A3.13,3.13,0,0,0,6,3.26,3.16,3.16,0,0,0,3.23,6.52c0,3,0,6.06,0,9.09,0,.11,0,.22,0,.34Z"/><path d="M22.43,12.79H27.1a1.6,1.6,0,0,1,1.68,1.58A1.61,1.61,0,0,1,27.1,16q-4.71,0-9.43,0a1.61,1.61,0,1,1,0-3.21Z"/><path d="M22.37,22.37H17.65a1.6,1.6,0,1,1,0-3.2q4.77,0,9.54,0a1.6,1.6,0,1,1,0,3.2Z"/><path d="M22.39,6.39h4.67a1.59,1.59,0,0,1,1.69,1.88,1.54,1.54,0,0,1-1.28,1.29,3.43,3.43,0,0,1-.56,0h-9a1.89,1.89,0,0,1-1.2-.31,1.63,1.63,0,0,1-.61-1.72,1.51,1.51,0,0,1,1.33-1.15c.9,0,1.82,0,2.73,0Z"/></g></g></svg>