<svg xmlns="http://www.w3.org/2000/svg" width="15" height="14.991" viewBox="0 0 15 14.991">
  <g id="Camada_2" data-name="Camada 2" transform="translate(0.001 0.001)">
    <g id="Camada_1" data-name="Camada 1" transform="translate(-0.001 -0.001)">
      <path id="Path_65643" data-name="Path 65643" d="M11.935,13.167l-1.078.925-.823.7a.682.682,0,0,1-.955,0q-.853-.75-1.743-1.492l-.162-.141L5.967,14.195l-.691.593a.665.665,0,0,1-.763.136.682.682,0,0,1-.426-.678V8.18H.852c-.571,0-.823-.256-.823-.853C0,5.81,0,4.262,0,2.724A2.639,2.639,0,0,1,1.628.243,2.579,2.579,0,0,1,2.758,0h9.489a2.732,2.732,0,0,1,2.711,2.285A2.912,2.912,0,0,1,15,2.758V14.229a.691.691,0,0,1-1.172.558L12.016,13.24Zm1.705-.35V2.775a1.628,1.628,0,0,0-.051-.379,1.356,1.356,0,0,0-1.381-1.027H5.089A3.436,3.436,0,0,1,5.46,3.316q0,4.642,0,9.284v.213l.145-.119c.362-.311.725-.627,1.091-.934a.669.669,0,0,1,.925,0c.311.26.614.524.921.789l1,.853.107-.081,1.795-1.535a.678.678,0,0,1,.951,0l.426.35Zm-9.566-6a.149.149,0,0,0,0-.055V2.638a1.351,1.351,0,0,0-2.7.141c0,1.279,0,2.583,0,3.875V6.8Z" transform="translate(0.001 0.001)" fill="#a5b5bb"/>
      <path id="Path_65644" data-name="Path 65644" d="M18.7,12.787h1.991a.685.685,0,1,1,0,1.368h-4.02a.686.686,0,1,1,0-1.368Z" transform="translate(-9.141 -7.335)" fill="#a5b5bb"/>
      <path id="Path_65645" data-name="Path 65645" d="M18.744,20.534H16.732a.682.682,0,0,1,0-1.364H20.8a.682.682,0,0,1,0,1.364Z" transform="translate(-9.208 -10.998)" fill="#a5b5bb"/>
      <path id="Path_65646" data-name="Path 65646" d="M18.751,6.384h1.991a.678.678,0,0,1,.72.8.656.656,0,0,1-.546.55,1.462,1.462,0,0,1-.239,0H16.842A.806.806,0,0,1,16.33,7.6a.7.7,0,0,1-.26-.733.644.644,0,0,1,.567-.49H17.8Z" transform="translate(-9.207 -3.66)" fill="#a5b5bb"/>
    </g>
  </g>
</svg>
