<svg id="Icon_awesome-tags" data-name="Icon awesome-tags" xmlns="http://www.w3.org/2000/svg" width="30" height="24" viewBox="0 0 30 24">
  <path id="Icon_awesome-tags-2" data-name="Icon awesome-tags" d="M23.341,10.591,13.409.659A2.25,2.25,0,0,0,11.818,0H2.25A2.25,2.25,0,0,0,0,2.25v9.568a2.25,2.25,0,0,0,.659,1.591l9.932,9.932a2.25,2.25,0,0,0,3.182,0l9.568-9.568a2.25,2.25,0,0,0,0-3.182ZM5.25,7.5A2.25,2.25,0,1,1,7.5,5.25,2.25,2.25,0,0,1,5.25,7.5Zm24.091,6.273-9.568,9.568a2.25,2.25,0,0,1-3.182,0l-.017-.017,8.159-8.159a4.219,4.219,0,0,0,0-5.966L15.534,0h2.284a2.25,2.25,0,0,1,1.591.659l9.932,9.932a2.25,2.25,0,0,1,0,3.182Z" fill="#a5b5bb"/>
</svg>
