<svg xmlns="http://www.w3.org/2000/svg" width="20.599" height="20.599" viewBox="0 0 20.599 20.599">
  <path id="Icon_awesome-history" data-name="Icon awesome-history" d="M21.161,10.842A10.3,10.3,0,0,1,4.4,18.881,1,1,0,0,1,4.322,17.4l.468-.468a1,1,0,0,1,1.324-.082A7.642,7.642,0,1,0,5.626,5.294L7.734,7.4a.664.664,0,0,1-.47,1.134H1.227a.664.664,0,0,1-.664-.664V1.834A.664.664,0,0,1,1.7,1.365l2.05,2.05a10.3,10.3,0,0,1,17.414,7.427Zm-7.513,3.272.408-.525a1,1,0,0,0-.175-1.4l-1.69-1.315V6.543a1,1,0,0,0-1-1H10.53a1,1,0,0,0-1,1v5.634l2.716,2.113a1,1,0,0,0,1.4-.175Z" transform="translate(-0.563 -0.563)" fill="#2cabe0"/>
</svg>
