<svg xmlns="http://www.w3.org/2000/svg" xmlns:xlink="http://www.w3.org/1999/xlink" width="20" height="20" viewBox="0 0 20 20">
  <defs>
    <clipPath id="clip-path">
      <rect id="Rectangle_997" data-name="Rectangle 997" width="20" height="20" transform="translate(905 568)" fill="#fff" stroke="#707070" stroke-width="1"/>
    </clipPath>
  </defs>
  <g id="_Valor" data-name=" Valor" transform="translate(-905 -568)" clip-path="url(#clip-path)">
    <g id="payment" transform="translate(905 568)">
      <g id="Group_938" data-name="Group 938">
        <g id="Group_937" data-name="Group 937">
          <path id="Path_4678" data-name="Path 4678" d="M19.375,11a1.757,1.757,0,0,0-2.419.145l-1.722,1.849a1.762,1.762,0,0,0-1.526-1.23,6.617,6.617,0,0,0,.866-.723,6.377,6.377,0,0,0,1.911-4.557,6.465,6.465,0,1,0-12.929,0,6.416,6.416,0,0,0,1.656,4.31,4.077,4.077,0,0,0-.806.538,1.756,1.756,0,0,0-1.436-.746H.586A.586.586,0,0,0,0,11.172v8.242A.586.586,0,0,0,.586,20H2.969a1.76,1.76,0,0,0,1.66-1.181.589.589,0,0,0,.1.009h8.828a4.123,4.123,0,0,0,3.283-1.643L19.649,13.4A1.756,1.756,0,0,0,19.375,11ZM3.555,18.242a.587.587,0,0,1-.586.586h-1.8v-7.07h1.8a.587.587,0,0,1,.586.586ZM4.726,6.484a5.293,5.293,0,1,1,5.606,5.263.585.585,0,0,1-.277-.135L9.78,11.37A4.1,4.1,0,0,0,6.467,10.4,5.254,5.254,0,0,1,4.726,6.484ZM18.709,12.7,15.9,16.484a2.944,2.944,0,0,1-2.344,1.172H4.726V12.609l.408-.359a2.936,2.936,0,0,1,3.871,0c.2.175.739.68.994.68h3.555a.586.586,0,1,1,0,1.172h-4.2a.586.586,0,0,0,0,1.172h4.6a1.763,1.763,0,0,0,1.286-.56l2.58-2.769a.586.586,0,0,1,.9.752Z"/>
        </g>
      </g>
      <g id="Group_940" data-name="Group 940">
        <g id="Group_939" data-name="Group 939">
          <path id="Path_4679" data-name="Path 4679" d="M10,5.9a.586.586,0,0,1-.2-1.137.9.9,0,0,1,.961.408.586.586,0,0,0,.9-.754,2.436,2.436,0,0,0-1.072-.767V2.969a.586.586,0,0,0-1.172,0v.686L9.4,3.661A1.758,1.758,0,0,0,10,7.07.586.586,0,0,1,10.228,8.2a.8.8,0,0,1-.862-.26.586.586,0,1,0-.815.842,2.3,2.3,0,0,0,.863.54V10a.586.586,0,1,0,1.172,0V9.314c.033-.012.066-.024.1-.038A1.758,1.758,0,0,0,10,5.9Z"/>
        </g>
      </g>
    </g>
  </g>
</svg>
