<svg xmlns="http://www.w3.org/2000/svg" xmlns:xlink="http://www.w3.org/1999/xlink" width="20" height="20" viewBox="0 0 20 20">
  <defs>
    <clipPath id="clip-path">
      <rect id="Rectangle_994" data-name="Rectangle 994" width="20" height="20" transform="translate(905 436)" fill="#fff" stroke="#707070" stroke-width="1"/>
    </clipPath>
  </defs>
  <g id="Visualizar" transform="translate(-905 -436)" clip-path="url(#clip-path)">
    <g id="eye" transform="translate(905 436)">
      <g id="Group_932" data-name="Group 932">
        <g id="Group_931" data-name="Group 931">
          <path id="Path_4674" data-name="Path 4674" d="M10,8.242A1.758,1.758,0,1,0,11.758,10,1.76,1.76,0,0,0,10,8.242Zm0,2.344A.586.586,0,1,1,10.586,10,.587.587,0,0,1,10,10.586Z"/>
        </g>
      </g>
      <g id="Group_934" data-name="Group 934">
        <g id="Group_933" data-name="Group 933">
          <path id="Path_4675" data-name="Path 4675" d="M19.889,9.657a19.508,19.508,0,0,0-2.859-3.031A11.181,11.181,0,0,0,10,3.554,11.181,11.181,0,0,0,2.969,6.626,19.51,19.51,0,0,0,.111,9.657a.588.588,0,0,0,0,.687,19.51,19.51,0,0,0,2.859,3.031A11.181,11.181,0,0,0,10,16.446,10.925,10.925,0,0,0,16.758,13.6a18.4,18.4,0,0,0,3.131-3.256A.587.587,0,0,0,19.889,9.657ZM3.632,7.6C5.268,6.177,7.536,4.726,10,4.726c2.487,0,4.77,1.507,6.248,2.772.172.147.337.294.5.44A17.682,17.682,0,0,0,10,6.484,17.677,17.677,0,0,0,3.263,7.936Q3.441,7.771,3.632,7.6Zm9.3,2.4A2.93,2.93,0,1,1,8.072,7.794a13.549,13.549,0,0,1,3.856,0A2.913,2.913,0,0,1,12.93,10Zm3.164,2.63A9.948,9.948,0,0,1,10,15.274c-2.487,0-4.77-1.507-6.248-2.772a19.436,19.436,0,0,1-2.3-2.351,18.977,18.977,0,0,1,4.9-2.017,4.1,4.1,0,1,0,7.31,0,18.977,18.977,0,0,1,4.9,2.016A19.473,19.473,0,0,1,16.094,12.63Z"/>
        </g>
      </g>
    </g>
  </g>
</svg>
