<svg xmlns="http://www.w3.org/2000/svg" width="20.704" height="18.257" viewBox="0 0 20.704 18.257">
  <path id="work" d="M19.616,2.368h-5.37V1.776A1.778,1.778,0,0,0,12.47,0H7.735A1.778,1.778,0,0,0,5.959,1.776v.592H.592A.593.593,0,0,0,0,2.96V15.982a1.778,1.778,0,0,0,1.776,1.776H18.429A1.778,1.778,0,0,0,20.2,15.982V2.97a.575.575,0,0,0-.588-.6ZM7.143,1.776a.593.593,0,0,1,.592-.592H12.47a.593.593,0,0,1,.592.592v.592H7.143ZM18.791,3.551,16.953,9.066a.591.591,0,0,1-.561.4h-3.33V8.879a.592.592,0,0,0-.592-.592H7.735a.592.592,0,0,0-.592.592v.592H3.813a.591.591,0,0,1-.561-.4L1.413,3.551ZM11.878,9.471v1.184H8.327V9.471Zm7.142,6.511a.593.593,0,0,1-.592.592H1.776a.593.593,0,0,1-.592-.592V6.607L2.129,9.44a1.773,1.773,0,0,0,1.684,1.214h3.33v.592a.592.592,0,0,0,.592.592H12.47a.592.592,0,0,0,.592-.592v-.592h3.33A1.773,1.773,0,0,0,18.076,9.44l.944-2.833Zm0,0" transform="translate(0.25 0.25)" fill="#2cabe0" stroke="#2cabe0" stroke-width="0.5"/>
</svg>
