<svg xmlns="http://www.w3.org/2000/svg" width="1143.162" height="1276.654" viewBox="0 0 1143.162 1276.654">
  <g id="bg2" transform="translate(-1097.838 -549)">
    <path id="Path_77388" data-name="Path 77388" d="M1084.324,442.178c0,244.214-174.525,442.213-389.976,442.213H254.265C113.825,884.391,0,1013.452,0,1172.654V288.281C0,129.149,113.825,0,254.265,0H694.348C909.729,0,1084.324,197.964,1084.324,442.178Z" transform="translate(2241 1721.654) rotate(180)" fill="#f2f6ff"/>
    <path id="Path_77242" data-name="Path 77242" d="M1084.324,442.178c0,244.214-174.525,442.213-389.976,442.213H254.265C113.825,884.391,0,1013.452,0,1172.654V288.281C0,129.149,113.825,0,254.265,0H694.348C909.729,0,1084.324,197.964,1084.324,442.178Z" transform="translate(2185.162 1822.654) rotate(180)" fill="none" stroke="#05acdd" stroke-width="6"/>
    <path id="Path_77241" data-name="Path 77241" d="M373.257,506.74V622.049C373.257,717.584,304.947,795,220.7,795H0C0,635.8,113.825,506.74,254.265,506.74Z" transform="translate(2185.162 1445.004) rotate(180)" fill="none" stroke="#05acdd" stroke-width="6"/>
  </g>
</svg>
