<svg id="Camada_2" data-name="Camada 2" xmlns="http://www.w3.org/2000/svg" width="19.638" height="23.067" viewBox="0 0 19.638 23.067">
  <g id="Camada_1" data-name="Camada 1">
    <path id="Path_77230" data-name="Path 77230" d="M6.539,23.047a5.3,5.3,0,0,1-.868-.207,6.72,6.72,0,0,1-1.335-.668,25.173,25.173,0,0,1-2-1.6,4.508,4.508,0,0,1-.583-6.351q2.822-3.538,5.659-7.063A3.383,3.383,0,0,1,12.343,6.6,3.947,3.947,0,0,1,13.8,8.44a3.2,3.2,0,0,1-.445,3.082c-1.01,1.335-2.078,2.621-3.115,3.93-.378.474-.75.957-1.142,1.42a1.253,1.253,0,1,1-1.934-1.593c.465-.59.937-1.173,1.406-1.758l2.619-3.276a.924.924,0,0,0-.174-1.486L10.8,8.576a.914.914,0,0,0-1.442.167l-1.435,1.78L3.744,15.734a2.015,2.015,0,0,0-.312,2.274,1.932,1.932,0,0,0,.474.619c.61.521,1.224,1.044,1.876,1.509a2,2,0,0,0,2.857-.445l7.108-8.872c.3-.376.608-.745.9-1.126a2.023,2.023,0,0,0-.316-2.94q-2.343-1.9-4.709-3.783a2.023,2.023,0,0,0-2.98.381Q6.172,6.437,3.7,9.53c-.478.6-.95,1.2-1.438,1.791A1.246,1.246,0,0,1,.086,11a1.239,1.239,0,0,1,.24-1.264L1.761,7.941q2.43-3.031,4.856-6.064A4.673,4.673,0,0,1,9.082.162a4.415,4.415,0,0,1,4.07.83q2.408,1.9,4.78,3.83a4.538,4.538,0,0,1,.67,6.44q-3.981,4.974-7.967,9.947a4.6,4.6,0,0,1-3.115,1.78,1.045,1.045,0,0,0-.129.038Z" transform="translate(-0.007 0.021)" fill="#a5b5bb"/>
  </g>
</svg>
