<svg xmlns="http://www.w3.org/2000/svg" xmlns:xlink="http://www.w3.org/1999/xlink" width="34.72" height="51.836" viewBox="0 0 34.72 51.836">
  <defs>
    <linearGradient id="linear-gradient" x1="0.029" y1="0.842" x2="0.96" y2="0.16" gradientUnits="objectBoundingBox">
      <stop offset="0" stop-color="#00ebcc"/>
      <stop offset="0.49" stop-color="#10b2d3"/>
      <stop offset="0.721" stop-color="#02abe0"/>
      <stop offset="1" stop-color="#07f"/>
    </linearGradient>
  </defs>
  <g id="Camada_2" data-name="Camada 2" transform="translate(-0.001 0.438)">
    <g id="Camada_1" data-name="Camada 1" transform="translate(0.001 -0.438)">
      <path id="Path_77389" data-name="Path 77389" d="M59.408,246.672c-.623-.135-1.254-.235-1.866-.405a10.673,10.673,0,1,1,4.784.222c-.3.054-.589.119-.884.178Zm.03-10.8c-.3-.326-.549-.63-.835-.888a1.505,1.505,0,0,0-2.1.055,1.486,1.486,0,0,0-.011,2.095q.955,1.009,1.965,1.965a1.458,1.458,0,0,0,2.13-.027c1.28-1.339,2.535-2.7,3.79-4.065a1.415,1.415,0,0,0,.343-1.362,1.431,1.431,0,0,0-1.074-1.1,1.473,1.473,0,0,0-1.52.442c-.872.932-1.739,1.87-2.685,2.885Z" transform="translate(-43.057 -194.836)" fill="url(#linear-gradient)"/>
      <path id="Path_77390" data-name="Path 77390" d="M3.675,40.323c-.486-.47-.907-.824-1.268-1.232a9.206,9.206,0,0,1-2.376-7.03C.6,24.618,4.375,19.468,11.248,16.577a1.06,1.06,0,0,0,.135-.069.4.4,0,0,0,.066-.061,9.512,9.512,0,1,1,11.821.009c.541.239,1.089.446,1.6.713,6.269,3.265,9.594,8.43,9.84,15.494a9.051,9.051,0,0,1-3.208,7.246c-.1.091-.208.172-.316.253-.022.016-.062.007-.127.014A13.64,13.64,0,0,0,25.839,30a13.273,13.273,0,0,0-8.52-2.946,13.324,13.324,0,0,0-6.661,1.757A13.639,13.639,0,0,0,5.693,33.6,13.8,13.8,0,0,0,3.675,40.323Z" transform="translate(-0.001 0.438)" fill="url(#linear-gradient)"/>
    </g>
  </g>
</svg>
