<svg id="Camada_2" data-name="Camada 2" xmlns="http://www.w3.org/2000/svg" width="20.459" height="19.991" viewBox="0 0 20.459 19.991">
  <g id="Camada_1" data-name="Camada 1">
    <path id="Path_77231" data-name="Path 77231" d="M20.459,31.227V43.712a.823.823,0,0,1-.83.811H.832A.823.823,0,0,1,0,43.71V31.218a.809.809,0,0,1,.816-.8H19.633a.817.817,0,0,1,.826.807Zm-10.234,11.5a5.275,5.275,0,1,0,.02-10.546,5.275,5.275,0,1,0-.02,10.546Z" transform="translate(0 -24.531)" fill="#a5b5bb"/>
    <path id="Path_77232" data-name="Path 77232" d="M20.5,1.742v2.4a.588.588,0,0,1-.594.581H.634A.587.587,0,0,1,.05,4.145v-2.4a.587.587,0,0,1,.584-.581H3.1A.587.587,0,0,0,3.685.581h0A.588.588,0,0,1,4.279,0H4.3A.588.588,0,0,1,4.9.581h0a.587.587,0,0,0,.584.581H9.092A.587.587,0,0,0,9.676.581h0A.588.588,0,0,1,10.27.01H10.3a.587.587,0,0,1,.584.581V.581a.588.588,0,0,0,.594.581h3.613a.588.588,0,0,0,.594-.581h0A.588.588,0,0,1,16.282.01h0a.588.588,0,0,1,.594.581V.61a.588.588,0,0,0,.594.581h2.464a.588.588,0,0,1,.564.552Z" transform="translate(-0.04)" fill="#a5b5bb"/>
    <path id="Path_77233" data-name="Path 77233" d="M34.641,53.754a4.1,4.1,0,1,1,4.2-4.09A4.15,4.15,0,0,1,34.641,53.754Zm0-3.529h2.4a.588.588,0,0,0,.594-.581h0a.588.588,0,0,0-.594-.581H35.832a.588.588,0,0,1-.594-.581V47.31a.588.588,0,0,0-.594-.581h0a.588.588,0,0,0-.594.581v2.337a.574.574,0,0,0,.177.411.6.6,0,0,0,.423.167Z" transform="translate(-24.419 -36.732)" fill="#a5b5bb"/>
  </g>
</svg>
