<svg id="Component_61_3" data-name="Component 61 – 3" xmlns="http://www.w3.org/2000/svg" xmlns:xlink="http://www.w3.org/1999/xlink" width="268.601" height="88.484" viewBox="0 0 268.601 88.484">
  <defs>
    <linearGradient id="linear-gradient" x1="2.785" y1="0.926" x2="0.395" y2="0.074" gradientUnits="objectBoundingBox">
      <stop offset="0" stop-color="#00ebcc"/>
      <stop offset="0.597" stop-color="#10b2d3"/>
      <stop offset="0.839" stop-color="#02abe0"/>
      <stop offset="1" stop-color="#07f"/>
    </linearGradient>
    <linearGradient id="linear-gradient-10" x1="1" y1="0.032" x2="0" y2="1.085" gradientUnits="objectBoundingBox">
      <stop offset="0" stop-color="#00ebcc"/>
      <stop offset="0.49" stop-color="#10b2d3"/>
      <stop offset="0.721" stop-color="#02abe0"/>
      <stop offset="1" stop-color="#07f"/>
    </linearGradient>
    <linearGradient id="linear-gradient-11" x1="0.029" y1="0.842" x2="0.96" y2="0.16" xlink:href="#linear-gradient-10"/>
  </defs>
  <g id="Group_3435" data-name="Group 3435" transform="translate(96.532 0.918)">
    <g id="Group_3431" data-name="Group 3431" transform="translate(0 0)">
      <g id="Camada_2" data-name="Camada 2" transform="translate(0.239)">
        <g id="Camada_1" data-name="Camada 1" transform="translate(0 0)">
          <path id="Path_77238" data-name="Path 77238" d="M3.792-6.473H8.144v-8.277h5.4c6.062,0,9.054-3.381,9.054-9.365,0-6.023-2.992-8.976-9.054-8.976H3.792ZM8.144-18.519v-10.8h5.362c3.186,0,4.663,1.554,4.663,5.207s-1.477,5.6-4.663,5.6Zm24.4,12.473c6.684,0,8.665-3.808,8.665-10.258,0-6.295-2.137-10.025-8.665-10.025-6.489,0-8.665,3.73-8.665,10.025C23.882-9.853,25.9-6.045,32.547-6.045Zm0-3.614c-3.575,0-4.352-2.137-4.352-6.645,0-4.469.971-6.412,4.352-6.412,3.419,0,4.352,1.943,4.352,6.412C36.9-11.8,36.161-9.659,32.547-9.659Zm11.5,3.186h4.236V-20.034a32.552,32.552,0,0,1,6.567-2.021v-4.274a21.981,21.981,0,0,0-6.567,2.72V-25.9H44.049Zm19.312.427a24.6,24.6,0,0,0,3.964-.505L67.13-9.97c-.933.078-2.409.155-3.186.155-2.021,0-2.1-1.01-2.1-3.925v-8.549h5.324V-25.9H61.846v-5.634H57.61V-25.9H55.123v3.614H57.61v9.015C57.61-7.677,58.97-6.045,63.361-6.045Zm10.453,0A16.876,16.876,0,0,0,80.07-7.483a5.3,5.3,0,0,0,2.021,1.049,9.146,9.146,0,0,0,3.147.389l.117-3.225a1.718,1.718,0,0,1-1.71-1.787v-8.86c0-4.43-1.943-6.412-6.684-6.412a39.4,39.4,0,0,0-7.81,1.01l.155,3.031c2.021-.155,5.4-.389,7.305-.389s2.8.661,2.8,2.759v1.4l-4.974.427c-4.158.35-6.412,1.749-6.412,5.868C68.024-8.182,69.967-6.045,73.814-6.045ZM74.669-9.5C73-9.5,72.3-10.63,72.3-12.34c0-1.749.894-2.565,2.642-2.759l4.469-.389v5.09A16.864,16.864,0,0,1,74.669-9.5ZM87.842-6.473h4.236V-33.984H87.842Zm21.916.427a13.368,13.368,0,0,0,5.207-1.438v1.01h4.2V-33.984h-4.236v8.16a32.157,32.157,0,0,0-4.43-.505c-5.557,0-8.082,3.147-8.082,10.181C102.413-8.687,104.745-6.045,109.757-6.045Zm.661-3.808c-2.37,0-3.692-1.36-3.692-6.295,0-4.43,1.2-6.489,4.08-6.489a30.339,30.339,0,0,1,4.119.389v11.463A13.936,13.936,0,0,1,110.418-9.853Zm20.245,3.808c6.684,0,8.665-3.808,8.665-10.258,0-6.295-2.137-10.025-8.665-10.025C124.174-26.329,122-22.6,122-16.3,122-9.853,124.018-6.045,130.663-6.045Zm0-3.614c-3.575,0-4.352-2.137-4.352-6.645,0-4.469.971-6.412,4.352-6.412,3.419,0,4.352,1.943,4.352,6.412C135.015-11.8,134.277-9.659,130.663-9.659ZM3.792,21.052H8.144V10.988h10.1V7.179H8.144V-1.758H20.307V-5.566H3.792Zm25.763.427c6.684,0,8.665-3.808,8.665-10.258C38.22,4.926,36.083,1.2,29.555,1.2c-6.489,0-8.665,3.73-8.665,10.025C20.889,17.671,22.91,21.479,29.555,21.479Zm0-3.614c-3.575,0-4.352-2.137-4.352-6.645,0-4.469.971-6.412,4.352-6.412,3.419,0,4.352,1.943,4.352,6.412C33.907,15.728,33.169,17.865,29.555,17.865Zm11.5,3.186h4.236V7.49A32.551,32.551,0,0,1,51.859,5.47V1.2a21.981,21.981,0,0,0-6.567,2.72V1.623H41.057Zm12.668,0H57.96V6.014A11.085,11.085,0,0,1,62.351,5c2.953,0,3.419,1.9,3.419,5.751v10.3h4.236V10.638c0-6.373-1.321-9.442-6.722-9.442A12.271,12.271,0,0,0,57.96,2.827v-1.2H53.724Zm27.006.427a46.009,46.009,0,0,0,7.888-.894L88.541,17.4c-1.749.155-4.935.35-7.189.35-3.225,0-4.391-1.515-4.391-4.624H88.968l.272-3.031c0-6.062-2.72-8.9-8.16-8.9-5.362,0-8.432,3.225-8.432,10.336C72.648,18.371,74.9,21.479,80.731,21.479ZM76.922,9.861c.039-3.692,1.282-5.168,4.158-5.168,2.837,0,3.964,1.321,3.964,5.168ZM99.149,21.479a41.269,41.269,0,0,0,5.906-.7l-.117-3.42c-1.321.117-3.458.311-4.546.311-4.2,0-4.974-1.632-4.974-6.606,0-4.43.894-6.062,4.935-6.062,1.088,0,3.225.194,4.546.311l.155-3.381A39.21,39.21,0,0,0,99.227,1.2c-5.79,0-8.121,2.914-8.121,9.87C91.106,18.526,93.165,21.479,99.149,21.479Zm15.582,0a46.008,46.008,0,0,0,7.888-.894l-.078-3.186c-1.749.155-4.935.35-7.189.35-3.225,0-4.391-1.515-4.391-4.624h12.007l.272-3.031c0-6.062-2.72-8.9-8.16-8.9-5.362,0-8.432,3.225-8.432,10.336C106.649,18.371,108.9,21.479,114.731,21.479ZM110.923,9.861c.039-3.692,1.282-5.168,4.158-5.168,2.837,0,3.964,1.321,3.964,5.168Zm21.488,11.619a13.368,13.368,0,0,0,5.207-1.438v1.01h4.2V-6.46H137.58V1.7a32.158,32.158,0,0,0-4.43-.505c-5.557,0-8.082,3.147-8.082,10.181C125.067,18.837,127.4,21.479,132.411,21.479Zm.661-3.808c-2.37,0-3.691-1.36-3.691-6.295,0-4.43,1.2-6.489,4.08-6.489a30.339,30.339,0,0,1,4.119.389V16.739A13.936,13.936,0,0,1,133.072,17.671Zm20.245,3.808c6.684,0,8.665-3.808,8.665-10.258,0-6.295-2.137-10.025-8.665-10.025-6.489,0-8.665,3.73-8.665,10.025C144.652,17.671,146.672,21.479,153.317,21.479Zm0-3.614c-3.575,0-4.352-2.137-4.352-6.645,0-4.469.971-6.412,4.352-6.412,3.419,0,4.352,1.943,4.352,6.412C157.669,15.728,156.931,17.865,153.317,17.865Zm11.5,3.186h4.236V7.49a32.552,32.552,0,0,1,6.567-2.021V1.2a21.981,21.981,0,0,0-6.567,2.72V1.623h-4.236Z" transform="translate(-3.792 33.984)" fill="#1a1a1a"/>
        </g>
      </g>
      <g id="Group_3373" data-name="Group 3373" transform="translate(0 65.395)">
        <path id="Path_4632" data-name="Path 4632" d="M697.214,178.536h-5.9V157.855q3.77-.183,5.436-.184a7.52,7.52,0,0,1,4.744,1.32,4.52,4.52,0,0,1,1.68,3.776,3.826,3.826,0,0,1-1.073,2.626,4.577,4.577,0,0,1-2.373,1.482,6.406,6.406,0,0,1,3.579,1.962,5.707,5.707,0,0,1,1.123,3.727,5.316,5.316,0,0,1-2,4.348A8.016,8.016,0,0,1,697.214,178.536Zm-3.078-18.423v5.943q.889.085,2.2.085,4.01,0,4.01-3.261,0-2.866-3.686-2.866Q695.252,160.015,694.137,160.113Zm0,8.132v7.892q1.453.141,2.231.141a6.112,6.112,0,0,0,3.876-1,3.854,3.854,0,0,0,1.221-3.169,3.635,3.635,0,0,0-1.165-2.979,6.16,6.16,0,0,0-3.89-.96Z" transform="translate(-691.312 -157.219)" stroke="rgba(0,0,0,0)" stroke-width="1" fill="url(#linear-gradient)"/>
        <path id="Path_4633" data-name="Path 4633" d="M831.719,170.055v-17.04H834.4V169.6a2.585,2.585,0,0,0,.7,1.913,2.475,2.475,0,0,0,1.829.7v2.4Q831.719,174.614,831.719,170.055Z" transform="translate(-818.1 -153.015)" stroke="rgba(0,0,0,0)" stroke-width="1" fill="url(#linear-gradient)"/>
        <path id="Path_4634" data-name="Path 4634" d="M892.613,216.91v9.642q0,3.5,3.036,3.5a4.177,4.177,0,0,0,2.429-.762,3.656,3.656,0,0,0,1.454-1.765V216.91h2.683v15.119h-2.683V229.94a4.174,4.174,0,0,1-1.815,1.631,5.552,5.552,0,0,1-2.662.741,4.928,4.928,0,0,1-3.805-1.426,5.743,5.743,0,0,1-1.321-4.052V216.91Z" transform="translate(-870.664 -210.712)" stroke="rgba(0,0,0,0)" stroke-width="1" fill="url(#linear-gradient)"/>
        <path id="Path_4635" data-name="Path 4635" d="M1033.241,222.1h-10.9a5.456,5.456,0,0,0,1.454,4.08,4.557,4.557,0,0,0,3.3,1.242,5.637,5.637,0,0,0,3.841-1.341l1.13,1.934a5.052,5.052,0,0,1-1.907,1.073,10.306,10.306,0,0,1-3.587.593,6.69,6.69,0,0,1-4.843-1.934,7.579,7.579,0,0,1-2.217-5.731,8.081,8.081,0,0,1,2.274-6A6.6,6.6,0,0,1,1026.6,214a6.88,6.88,0,0,1,5.069,1.821,6.22,6.22,0,0,1,1.779,4.645A5.99,5.99,0,0,1,1033.241,222.1Zm-6.51-5.844a4.239,4.239,0,0,0-4.32,3.9h8.373a3.815,3.815,0,0,0-1.016-2.711A3.969,3.969,0,0,0,1026.731,216.257Z" transform="translate(-987.681 -208.083)" stroke="rgba(0,0,0,0)" stroke-width="1" fill="url(#linear-gradient)"/>
        <path id="Path_4636" data-name="Path 4636" d="M1155.3,176.016l1.031-2.6a7.032,7.032,0,0,0,1.969.967,6.836,6.836,0,0,0,2.111.388,3.812,3.812,0,0,0,2.655-.9,2.961,2.961,0,0,0,1-2.3,3.609,3.609,0,0,0-.558-1.941,6.805,6.805,0,0,0-2.8-1.955l-1.666-.776a6.65,6.65,0,0,1-2.958-2.343,6.067,6.067,0,0,1-.84-3.261,5.025,5.025,0,0,1,1.638-3.84,5.93,5.93,0,0,1,4.208-1.525q3.431,0,4.773,1.115l-.833,2.456a6.508,6.508,0,0,0-1.722-.791,6.907,6.907,0,0,0-2.147-.381,3.079,3.079,0,0,0-2.267.819,2.832,2.832,0,0,0-.826,2.1,3.422,3.422,0,0,0,.3,1.44,3.012,3.012,0,0,0,.826,1.087,12.331,12.331,0,0,0,2.168,1.228l1.695.8a6.73,6.73,0,0,1,2.972,2.393,6.659,6.659,0,0,1,.854,3.536,5.045,5.045,0,0,1-1.871,3.953,7.369,7.369,0,0,1-5.005,1.624A8.286,8.286,0,0,1,1155.3,176.016Z" transform="translate(-1110.243 -155.645)" stroke="rgba(0,0,0,0)" stroke-width="1" fill="url(#linear-gradient)"/>
        <path id="Path_4637" data-name="Path 4637" d="M1287.645,174.332v-9.5a3.97,3.97,0,0,0-.833-2.668,2.915,2.915,0,0,0-2.344-.974,3.857,3.857,0,0,0-1.955.572,4.559,4.559,0,0,0-1.5,1.334v11.237h-2.682V153.015h2.682v7.863a4,4,0,0,1,1.73-1.39,5.758,5.758,0,0,1,2.464-.558,4.7,4.7,0,0,1,3.763,1.581,6.4,6.4,0,0,1,1.362,4.32v9.5Z" transform="translate(-1221.388 -153.015)" stroke="rgba(0,0,0,0)" stroke-width="1" fill="url(#linear-gradient)"/>
        <path id="Path_4638" data-name="Path 4638" d="M1406.977,178.8v-12.86H1404.9v-2.259h4.758V178.8Zm1.468-20.837a1.608,1.608,0,0,1,1.179.487,1.59,1.59,0,0,1,.487,1.165,1.662,1.662,0,0,1-1.666,1.666,1.59,1.59,0,0,1-1.165-.487,1.652,1.652,0,0,1,1.165-2.83Z" transform="translate(-1335.685 -157.485)" stroke="rgba(0,0,0,0)" stroke-width="1" fill="url(#linear-gradient)"/>
        <path id="Path_4639" data-name="Path 4639" d="M1466.744,155.415a4.694,4.694,0,0,0-1.525-.283,2.551,2.551,0,0,0-2.026.932,3.5,3.5,0,0,0-.8,2.358,4.647,4.647,0,0,0,.071.791h3.078v2.259h-3.078v12.86h-2.682v-12.86h-2.2v-2.259h2.2a6.728,6.728,0,0,1,1.426-4.546,4.736,4.736,0,0,1,3.77-1.652,8.373,8.373,0,0,1,2.514.423Z" transform="translate(-1383.254 -153.015)" stroke="rgba(0,0,0,0)" stroke-width="1" fill="url(#linear-gradient)"/>
        <path id="Path_4640" data-name="Path 4640" d="M1546.182,179.993h-1.751v-2.117h1.751v-3.162l2.683-1.031v4.193h4.151v2.117h-4.151v7.51a4.409,4.409,0,0,0,.642,2.711,2.49,2.49,0,0,0,2.068.8,4.97,4.97,0,0,0,2.133-.522l.395,2.357a14.821,14.821,0,0,1-3.657.423,3.969,3.969,0,0,1-3.029-1.334,4.76,4.76,0,0,1-1.235-3.367Z" transform="translate(-1461.68 -171.678)" stroke="rgba(0,0,0,0)" stroke-width="1" fill="url(#linear-gradient)"/>
      </g>
    </g>
  </g>
  <g id="Camada_2-2" data-name="Camada 2" transform="translate(0 0)">
    <g id="graphics">
      <path id="Path_77234" data-name="Path 77234" d="M27.74,506.74v8.57c0,7.1-5.077,12.854-11.338,12.854H0c0-11.832,8.459-21.424,18.9-21.424Z" transform="translate(0.001 -441.012)" fill="url(#linear-gradient-10)"/>
      <path id="Exclusion_1" data-name="Exclusion 1" d="M0,86.781H0V21.427A22.812,22.812,0,0,1,5.534,6.277,17.732,17.732,0,0,1,18.9,0H51.6A27.193,27.193,0,0,1,72.1,9.625a34.99,34.99,0,0,1,8.489,23.239A34.984,34.984,0,0,1,72.1,56.1a27.188,27.188,0,0,1-20.5,9.627H18.9C8.654,65.729.179,75.173,0,86.781ZM37.791,27.868A13.357,13.357,0,0,0,24.481,41.55V53.989H59.31V41.55c0-7.8-5.595-13.683-13.017-13.683a13.116,13.116,0,0,1-4.188.99,14.415,14.415,0,0,1-4.313-.99Zm4.4-19.359a9.083,9.083,0,1,0,9.086,9.081A9.093,9.093,0,0,0,42.188,8.509Z" fill="url(#linear-gradient-11)"/>
      <path id="Path_77236" data-name="Path 77236" d="M740.272,228.626c.283,0,.545-.576.184-.576C740.173,228.05,739.911,228.626,740.272,228.626Z" transform="translate(-644.1 -198.47)" fill="#fff"/>
      <path id="Path_12" data-name="Path 12" d="M294.31,374.45c3.986,1.923,7.936,1.321,11.881-.26a76.955,76.955,0,0,1,8.352-3.264,12.243,12.243,0,0,1,11.3,2.654l.406.341-.671-.142c-4.683-1.247-9.169.142-13.623,1.967a48.227,48.227,0,0,1-7.6,2.73c-3.824.851-7.29-.024-10.176-3.788l-.247-.416Z" transform="translate(-268.191 -332.515)" fill-rule="evenodd" fill="url(#linear-gradient-11)"/>
    </g>
  </g>
</svg>
