<svg id="Camada_2" data-name="Camada 2" xmlns="http://www.w3.org/2000/svg" width="15.422" height="19.968" viewBox="0 0 15.422 19.968">
  <g id="Camada_1" data-name="Camada 1" transform="translate(0 0)">
    <path id="Path_77229" data-name="Path 77229" d="M0,10.251V1.472A1.36,1.36,0,0,1,.989.063,1.759,1.759,0,0,1,1.473,0H13.939a1.365,1.365,0,0,1,1.473,1.473c0,5.89,0,11.759.011,17.639a.717.717,0,0,1-1.113.675c-.286-.177-.61-.3-.9-.465a.478.478,0,0,0-.513,0c-.33.181-.669.339-1.006.507a1.155,1.155,0,0,1-1.1,0c-.36-.183-.717-.372-1.085-.534a.482.482,0,0,0-.351,0c-.349.154-.688.328-1.027.507a1.229,1.229,0,0,1-1.216,0c-.32-.168-.648-.318-.963-.492a.465.465,0,0,0-.494,0c-.33.179-.671.337-1,.507a1.161,1.161,0,0,1-1.119,0c-.36-.185-.717-.372-1.085-.536a.454.454,0,0,0-.332,0,9.134,9.134,0,0,0-1.01.515A.711.711,0,0,1,0,19.124C.019,16.166,0,13.208,0,10.251ZM8.162,3.807c0-.221.011-.421,0-.631a.452.452,0,1,0-.9,0,4.72,4.72,0,0,0,0,.488.182.182,0,0,1-.154.21,2.354,2.354,0,0,0-1.168.658A1.584,1.584,0,0,0,6.09,6.958a3.423,3.423,0,0,0,.728.421c.45.21.919.366,1.372.564a2.674,2.674,0,0,1,.6.345.677.677,0,0,1,.08,1.031,1.4,1.4,0,0,1-.753.45,2.278,2.278,0,0,1-1.893-.438.458.458,0,0,0-.69.074.468.468,0,0,0,.181.673,3.692,3.692,0,0,0,1.548.631c0,.21,0,.389,0,.581a.456.456,0,1,0,.911,0v-.421c0-.137.021-.185.16-.21a2.325,2.325,0,0,0,1.092-.585,1.611,1.611,0,0,0-.172-2.56A3.787,3.787,0,0,0,8.6,7.152c-.389-.17-.791-.309-1.178-.48a4.026,4.026,0,0,1-.732-.381.7.7,0,0,1-.065-1.159,1.527,1.527,0,0,1,.911-.421A2.409,2.409,0,0,1,9.22,5.2a.456.456,0,0,0,.667-.067.467.467,0,0,0-.162-.677,3.65,3.65,0,0,0-1.563-.646ZM7.708,14.98H4.249a1.249,1.249,0,0,0-.295.027.444.444,0,0,0,0,.858,1.25,1.25,0,0,0,.295.027h7.068a.456.456,0,1,0,0-.911h-.189Zm.017-1.809H4.182a.482.482,0,0,0-.507.271c-.145.324.095.631.492.631h7.089a.484.484,0,0,0,.465-.236.451.451,0,0,0-.452-.669C10.1,13.168,8.907,13.173,7.724,13.17Z" transform="translate(0 0)" fill="#a5b5bb"/>
  </g>
</svg>
