<svg xmlns="http://www.w3.org/2000/svg" xmlns:xlink="http://www.w3.org/1999/xlink" width="42.126" height="42.098" viewBox="0 0 42.126 42.098">
  <defs>
    <linearGradient id="linear-gradient" x1="0.029" y1="0.842" x2="0.96" y2="0.16" gradientUnits="objectBoundingBox">
      <stop offset="0" stop-color="#00ebcc"/>
      <stop offset="0.49" stop-color="#10b2d3"/>
      <stop offset="0.721" stop-color="#02abe0"/>
      <stop offset="1" stop-color="#07f"/>
    </linearGradient>
  </defs>
  <g id="tecnica" transform="translate(-0.013 -0.059)">
    <g id="Camada_1" data-name="Camada 1" transform="translate(0.013 0.059)">
      <path id="Path_77391" data-name="Path 77391" d="M104.858,182.469c-.388-.077-.782-.132-1.162-.235a5.581,5.581,0,0,1-4.191-5.444,9.953,9.953,0,0,1,5.728-9.179c.11-.057.22-.11.376-.18a5.674,5.674,0,0,1-1.539-5.224,5.486,5.486,0,0,1,2.171-3.381,5.68,5.68,0,0,1,7.433.561,5.746,5.746,0,0,1,0,8.041l.429.22a9.928,9.928,0,0,1,5.651,9.224,5.606,5.606,0,0,1-5.032,5.526,2.917,2.917,0,0,0-.317.071Z" transform="translate(-88.569 -140.371)" fill="url(#linear-gradient)"/>
      <path id="Path_77392" data-name="Path 77392" d="M282.617,74.826c-.536.808-1.084,1.609-1.6,2.427a1.471,1.471,0,0,0-.22.676c-.046.779-.053,1.561-.075,2.342a1.245,1.245,0,0,1-1.7,1.252,17.382,17.382,0,0,1-1.688-.511,2.524,2.524,0,0,0-1.9.018c-.538.2-1.1.339-1.649.495a1.245,1.245,0,0,1-1.7-1.257c-.021-.808-.036-1.617-.076-2.418a1.092,1.092,0,0,0-.173-.525c-.44-.675-.913-1.333-1.364-2a1.232,1.232,0,0,1,.665-2c.746-.269,1.5-.521,2.24-.806a1.276,1.276,0,0,0,.511-.373c.5-.618.971-1.257,1.458-1.885a1.236,1.236,0,0,1,2.106,0c.48.616.942,1.246,1.437,1.851a1.474,1.474,0,0,0,.572.418c.66.263,1.33.508,2.009.719a1.588,1.588,0,0,1,1.146,1.013Z" transform="translate(-240.492 -62.02)" fill="url(#linear-gradient)"/>
      <path id="Path_77393" data-name="Path 77393" d="M9.135,81.538a10.845,10.845,0,0,1-1.352-.4A3.722,3.722,0,0,0,4.7,81.135a7.873,7.873,0,0,1-1.139.345,1.238,1.238,0,0,1-1.649-1.235c-.026-.822-.037-1.649-.077-2.467a1.1,1.1,0,0,0-.18-.524c-.44-.675-.913-1.333-1.365-2a1.225,1.225,0,0,1,.636-1.979c.733-.267,1.475-.509,2.2-.8a1.659,1.659,0,0,0,.636-.465c.5-.6.952-1.237,1.433-1.852a1.23,1.23,0,0,1,2.057.005c.507.647,1,1.309,1.509,1.951a1.109,1.109,0,0,0,.447.33c.743.279,1.5.528,2.243.8a1.251,1.251,0,0,1,.674,2.053c-.44.66-.9,1.306-1.34,1.971a1.09,1.09,0,0,0-.171.525c-.04.834-.049,1.671-.08,2.507A1.263,1.263,0,0,1,9.135,81.538Z" transform="translate(-0.013 -61.959)" fill="url(#linear-gradient)"/>
      <path id="Path_77394" data-name="Path 77394" d="M144.2,11.984c-.536-.156-1.224-.3-1.869-.55a2.631,2.631,0,0,0-2.018.008,16.388,16.388,0,0,1-1.614.481,1.223,1.223,0,0,1-1.677-1.187c-.038-.794-.031-1.591-.075-2.383a1.449,1.449,0,0,0-.214-.678c-.429-.668-.9-1.312-1.339-1.971a1.229,1.229,0,0,1,.638-1.979c.668-.243,1.333-.5,2.013-.708a1.739,1.739,0,0,0,.962-.707c.4-.557.824-1.094,1.244-1.634a1.25,1.25,0,0,1,2.162.01c.478.618.941,1.248,1.429,1.854a1.283,1.283,0,0,0,.513.368c.753.289,1.521.54,2.278.821a1.228,1.228,0,0,1,.639,1.954c-.456.684-.938,1.351-1.387,2.039a1.2,1.2,0,0,0-.181.564c-.042.863-.037,1.727-.087,2.589A1.224,1.224,0,0,1,144.2,11.984Z" transform="translate(-120.269 -0.059)" fill="url(#linear-gradient)"/>
    </g>
  </g>
</svg>
