<svg xmlns="http://www.w3.org/2000/svg" xmlns:xlink="http://www.w3.org/1999/xlink" width="31.596" height="36.948" viewBox="0 0 31.596 36.948">
  <defs>
    <linearGradient id="linear-gradient" x1="0.029" y1="0.842" x2="0.96" y2="0.16" gradientUnits="objectBoundingBox">
      <stop offset="0" stop-color="#00ebcc"/>
      <stop offset="0.49" stop-color="#10b2d3"/>
      <stop offset="0.721" stop-color="#02abe0"/>
      <stop offset="1" stop-color="#07f"/>
    </linearGradient>
  </defs>
  <path id="Path_77250" data-name="Path 77250" d="M10.174,35.886a8.258,8.258,0,0,1-1.351-.322,10.461,10.461,0,0,1-2.078-1.039,39.186,39.186,0,0,1-3.117-2.484,7.018,7.018,0,0,1-.908-9.886q4.392-5.508,8.809-10.994a5.266,5.266,0,0,1,7.679-.88,6.143,6.143,0,0,1,2.272,2.868,4.973,4.973,0,0,1-.693,4.8c-1.573,2.078-3.235,4.08-4.849,6.117-.589.738-1.167,1.489-1.777,2.21a1.95,1.95,0,1,1-3.01-2.48c.724-.918,1.458-1.825,2.189-2.736l4.077-5.1a1.439,1.439,0,0,0-.27-2.314L16.8,13.36a1.423,1.423,0,0,0-2.245.26l-2.234,2.771L5.824,24.5a3.136,3.136,0,0,0-.485,3.54,3.007,3.007,0,0,0,.738.963c.949.811,1.905,1.625,2.92,2.348a3.109,3.109,0,0,0,4.448-.693l11.063-13.81c.468-.585.946-1.16,1.4-1.753a3.149,3.149,0,0,0-.492-4.576q-3.647-2.958-7.329-5.889a3.149,3.149,0,0,0-4.638.592q-3.848,4.8-7.69,9.619c-.745.932-1.479,1.87-2.238,2.788a1.94,1.94,0,0,1-3.395-.506A1.929,1.929,0,0,1,.5,15.162l2.234-2.788Q6.52,7.655,10.3,2.934A7.274,7.274,0,0,1,14.134.264a6.872,6.872,0,0,1,6.335,1.292q3.748,2.951,7.44,5.961a7.064,7.064,0,0,1,1.043,10.024q-6.2,7.742-12.4,15.483A7.16,7.16,0,0,1,11.7,35.8a1.626,1.626,0,0,0-.2.059Z" transform="translate(0.517 0.562)" stroke="rgba(0,0,0,0)" stroke-width="1" fill="url(#linear-gradient)"/>
</svg>
