<svg xmlns="http://www.w3.org/2000/svg" width="77.908" height="91.512" viewBox="0 0 77.908 91.512">
  <path id="Path_77249" data-name="Path 77249" d="M25.92,91.492a21.045,21.045,0,0,1-3.443-.821,26.661,26.661,0,0,1-5.3-2.648,99.869,99.869,0,0,1-7.945-6.33A17.886,17.886,0,0,1,6.922,56.5q11.194-14.037,22.45-28.02c5.058-6.409,13.136-7.23,19.572-2.242,2.534,2.013,4.758,4.14,5.791,7.31,1.421,4.361,1.042,8.563-1.766,12.227-4.008,5.3-8.245,10.4-12.359,15.59-1.5,1.88-2.975,3.8-4.529,5.632a4.97,4.97,0,1,1-7.672-6.321c1.845-2.339,3.717-4.652,5.579-6.974L44.38,40.7c1.766-2.233,1.563-4.087-.689-5.9l-.883-.724c-2.092-1.669-4.034-1.439-5.721.662l-5.694,7.062L14.832,62.483c-2.2,2.746-2.8,5.756-1.236,9.022a7.663,7.663,0,0,0,1.88,2.454c2.419,2.066,4.855,4.14,7.442,5.985,3.849,2.746,8.351,1.986,11.335-1.766l28.2-35.2c1.192-1.492,2.41-2.957,3.575-4.467a8.025,8.025,0,0,0-1.254-11.662q-9.3-7.539-18.68-15.008c-3.884-3.081-8.66-2.437-11.821,1.51Q24.463,25.6,14.673,37.87c-1.9,2.375-3.77,4.767-5.7,7.107C6.322,48.146,1.7,47.44.319,43.688a4.917,4.917,0,0,1,.953-5.014l5.694-7.107Q16.606,19.543,26.229,7.51A18.539,18.539,0,0,1,36.011.7,17.515,17.515,0,0,1,52.157,4Q61.709,11.518,71.12,19.19a18,18,0,0,1,2.657,25.548Q57.984,64.469,42.173,84.2a18.248,18.248,0,0,1-12.359,7.062,4.144,4.144,0,0,0-.512.15Z" transform="translate(-0.007 0.021)" fill="#a5b5bb" opacity="0.2"/>
</svg>
