<svg id="Camada_2" data-name="Camada 2" xmlns="http://www.w3.org/2000/svg" xmlns:xlink="http://www.w3.org/1999/xlink" width="41.832" height="39.451" viewBox="0 0 41.832 39.451">
  <defs>
    <linearGradient id="linear-gradient" x1="0.029" y1="0.842" x2="0.96" y2="0.16" gradientUnits="objectBoundingBox">
      <stop offset="0" stop-color="#00ebcc"/>
      <stop offset="0.49" stop-color="#10b2d3"/>
      <stop offset="0.721" stop-color="#02abe0"/>
      <stop offset="1" stop-color="#07f"/>
    </linearGradient>
  </defs>
  <g id="Camada_1" data-name="Camada 1" transform="translate(0)">
    <path id="Path_77231" data-name="Path 77231" d="M41.832,32.013V56.65a1.655,1.655,0,0,1-1.7,1.6H1.7a1.655,1.655,0,0,1-1.7-1.6V31.994A1.627,1.627,0,0,1,1.669,30.42H40.143a1.643,1.643,0,0,1,1.689,1.593Zm-20.926,22.7c6.09.006,11.033-4.643,11.044-10.387s-4.914-10.411-11-10.425S9.906,38.524,9.886,44.268s4.921,10.426,11.02,10.441Z" transform="translate(0 -18.799)" fill="url(#linear-gradient)"/>
    <path id="Path_77232" data-name="Path 77232" d="M41.861,3.438V8.179a1.182,1.182,0,0,1-1.215,1.146H1.245A1.181,1.181,0,0,1,.05,8.179V3.438A1.181,1.181,0,0,1,1.245,2.292H6.283a1.181,1.181,0,0,0,1.2-1.146h0A1.182,1.182,0,0,1,8.7,0h.049A1.182,1.182,0,0,1,9.96,1.146h0a1.181,1.181,0,0,0,1.195,1.146h7.383a1.181,1.181,0,0,0,1.195-1.146h0A1.183,1.183,0,0,1,20.948.019h.065a1.181,1.181,0,0,1,1.195,1.146V1.146a1.182,1.182,0,0,0,1.215,1.146h7.387a1.182,1.182,0,0,0,1.215-1.146h0A1.183,1.183,0,0,1,33.239.019h0a1.182,1.182,0,0,1,1.215,1.146V1.2a1.182,1.182,0,0,0,1.215,1.146h5.038a1.182,1.182,0,0,1,1.154,1.089Z" transform="translate(-0.03 0)" fill="url(#linear-gradient)"/>
    <path id="Path_77233" data-name="Path 77233" d="M39.02,61.74a8.109,8.109,0,1,1,.032-16.19,8.109,8.109,0,1,1-.032,16.19Zm0-6.964h4.913a1.182,1.182,0,0,0,1.215-1.146h0a1.182,1.182,0,0,0-1.215-1.146H41.454a1.182,1.182,0,0,1-1.215-1.146V49.023a1.182,1.182,0,0,0-1.215-1.146h0a1.182,1.182,0,0,0-1.215,1.146v4.611a1.115,1.115,0,0,0,.362.812,1.254,1.254,0,0,0,.866.33Z" transform="translate(-18.118 -28.149)" fill="url(#linear-gradient)"/>
  </g>
</svg>
