<svg xmlns="http://www.w3.org/2000/svg" width="88.145" height="83.129" viewBox="0 0 88.145 83.129">
  <g id="Camada_2" data-name="Camada 2" opacity="0.3">
    <g id="Camada_1" data-name="Camada 1">
      <path id="Path_77231" data-name="Path 77231" d="M88.145,33.777V85.689a3.487,3.487,0,0,1-3.576,3.373H3.584A3.487,3.487,0,0,1,0,85.681V33.736A3.429,3.429,0,0,1,3.516,30.42h81.07a3.462,3.462,0,0,1,3.559,3.357ZM44.051,81.6c12.832.013,23.248-9.783,23.271-21.887S56.968,37.776,44.136,37.745,20.873,47.5,20.831,59.6c-.024,12.122,10.37,21.969,23.22,22Z" transform="translate(0 -5.933)" fill="#a5b5bb"/>
      <path id="Path_77232" data-name="Path 77232" d="M88.152,7.245v9.99a2.491,2.491,0,0,1-2.56,2.415H2.567A2.488,2.488,0,0,1,.05,17.234V7.245A2.488,2.488,0,0,1,2.568,4.83H13.183a2.488,2.488,0,0,0,2.526-2.415h0A2.491,2.491,0,0,1,18.269,0h.1a2.491,2.491,0,0,1,2.56,2.415h0A2.488,2.488,0,0,0,23.45,4.83H39.006a2.488,2.488,0,0,0,2.517-2.415h0A2.494,2.494,0,0,1,44.084.04h.137a2.488,2.488,0,0,1,2.517,2.415v-.04A2.491,2.491,0,0,0,49.3,4.83H64.863a2.491,2.491,0,0,0,2.56-2.415h0A2.494,2.494,0,0,1,69.984.04h0a2.491,2.491,0,0,1,2.56,2.415v.08A2.491,2.491,0,0,0,75.1,4.951H85.72a2.491,2.491,0,0,1,2.432,2.294Z" transform="translate(-0.007 0)" fill="#a5b5bb"/>
      <path id="Path_77233" data-name="Path 77233" d="M48.507,79.665C38.517,79.651,30.431,72,30.45,62.575S38.585,45.528,48.576,45.55s18.068,7.682,18.04,17.106C66.569,72.059,58.477,79.66,48.507,79.665Zm0-14.675H58.859a2.491,2.491,0,0,0,2.56-2.415h0a2.491,2.491,0,0,0-2.56-2.415H53.636a2.491,2.491,0,0,1-2.56-2.415V52.867a2.491,2.491,0,0,0-2.56-2.415h0a2.491,2.491,0,0,0-2.56,2.415v9.716a2.349,2.349,0,0,0,.762,1.711,2.643,2.643,0,0,0,1.824.7Z" transform="translate(-4.465 -8.884)" fill="#a5b5bb"/>
    </g>
  </g>
</svg>
