<svg xmlns="http://www.w3.org/2000/svg" width="79.993" height="103.574" viewBox="0 0 79.993 103.574">
  <g id="Camada_2" data-name="Camada 2" opacity="0.3">
    <g id="Camada_1" data-name="Camada 1">
      <path id="Path_77229" data-name="Path 77229" d="M0,53.172V7.638C0,3.928,1.92,1.222,5.128.327A9.122,9.122,0,0,1,7.638,0H72.3c4.714,0,7.638,2.913,7.638,7.638,0,30.553,0,61,.055,91.494,0,3.437-3.077,5.161-5.772,3.5-1.484-.917-3.164-1.539-4.692-2.411a2.477,2.477,0,0,0-2.662,0c-1.713.938-3.47,1.757-5.216,2.63a5.991,5.991,0,0,1-5.7,0c-1.866-.949-3.721-1.931-5.63-2.772a2.5,2.5,0,0,0-1.822,0c-1.811.8-3.568,1.7-5.325,2.63a6.372,6.372,0,0,1-6.307,0c-1.659-.873-3.361-1.648-5-2.553a2.412,2.412,0,0,0-2.564,0c-1.713.927-3.481,1.746-5.2,2.63a6.023,6.023,0,0,1-5.8,0c-1.866-.96-3.721-1.931-5.63-2.782a2.357,2.357,0,0,0-1.724,0,47.382,47.382,0,0,0-5.238,2.673C3,104.294,0,102.57,0,99.2.1,83.856,0,68.514,0,53.172ZM42.337,19.75c0-1.146.055-2.182,0-3.273a2.346,2.346,0,1,0-4.692,0,24.485,24.485,0,0,0,0,2.532.944.944,0,0,1-.8,1.091,12.21,12.21,0,0,0-6.056,3.415,8.216,8.216,0,0,0,.8,12.581,17.753,17.753,0,0,0,3.775,2.182c2.335,1.091,4.768,1.9,7.114,2.924a13.868,13.868,0,0,1,3.132,1.79,3.514,3.514,0,0,1,.415,5.347,7.278,7.278,0,0,1-3.906,2.335c-3.655.884-6.874-.229-9.82-2.27-1.4-.96-2.782-.8-3.579.382s-.426,2.521.938,3.492a19.15,19.15,0,0,0,8.031,3.273c0,1.091,0,2.019,0,3.012a2.368,2.368,0,1,0,4.725,0V56.381c0-.709.109-.96.829-1.091a12.057,12.057,0,0,0,5.663-3.033,8.358,8.358,0,0,0-.895-13.279A19.641,19.641,0,0,0,44.618,37.1c-2.019-.884-4.1-1.6-6.111-2.488a20.885,20.885,0,0,1-3.8-1.975c-2.281-1.626-2.368-4.059-.338-6.012A7.922,7.922,0,0,1,39.1,24.442a12.494,12.494,0,0,1,8.729,2.521,2.368,2.368,0,0,0,3.459-.349,2.422,2.422,0,0,0-.84-3.514,18.932,18.932,0,0,0-8.107-3.35ZM39.98,77.7H22.042a6.481,6.481,0,0,0-1.528.142,2.3,2.3,0,0,0,0,4.452,6.481,6.481,0,0,0,1.528.142H58.7a2.368,2.368,0,1,0,0-4.725h-.982Zm.087-9.384H21.692a2.5,2.5,0,0,0-2.63,1.408C18.31,71.406,19.554,73,21.616,73H58.388A2.51,2.51,0,0,0,60.8,71.777c.938-1.669-.251-3.459-2.346-3.47C52.376,68.307,46.2,68.329,40.068,68.318Z" transform="translate(0 0)" fill="#a5b5bb"/>
    </g>
  </g>
</svg>
