<svg xmlns="http://www.w3.org/2000/svg" xmlns:xlink="http://www.w3.org/1999/xlink" width="30.05" height="38.909" viewBox="0 0 30.05 38.909">
  <defs>
    <linearGradient id="linear-gradient" x1="0.029" y1="0.842" x2="0.96" y2="0.16" gradientUnits="objectBoundingBox">
      <stop offset="0" stop-color="#00ebcc"/>
      <stop offset="0.49" stop-color="#10b2d3"/>
      <stop offset="0.721" stop-color="#02abe0"/>
      <stop offset="1" stop-color="#07f"/>
    </linearGradient>
  </defs>
  <path id="Path_77229" data-name="Path 77229" d="M0,19.975V2.869A2.65,2.65,0,0,1,1.927.123,3.427,3.427,0,0,1,2.869,0H27.16A2.659,2.659,0,0,1,30.03,2.869c0,11.477,0,22.914.021,34.371a1.4,1.4,0,0,1-2.168,1.316c-.557-.344-1.189-.578-1.763-.906a.93.93,0,0,0-1,0c-.644.353-1.3.66-1.959.988a2.25,2.25,0,0,1-2.14,0c-.7-.357-1.4-.726-2.115-1.041a.939.939,0,0,0-.685,0c-.68.3-1.34.639-2,.988a2.394,2.394,0,0,1-2.369,0c-.623-.328-1.263-.619-1.877-.959a.906.906,0,0,0-.963,0c-.644.348-1.308.656-1.955.988a2.263,2.263,0,0,1-2.181,0c-.7-.361-1.4-.726-2.115-1.045a.885.885,0,0,0-.648,0,17.8,17.8,0,0,0-1.968,1A1.386,1.386,0,0,1,0,37.264C.037,31.5,0,25.738,0,19.975ZM15.9,7.419c0-.43.02-.82,0-1.23a.881.881,0,0,0-1.763,0,9.2,9.2,0,0,0,0,.951.355.355,0,0,1-.3.41,4.587,4.587,0,0,0-2.275,1.283,3.087,3.087,0,0,0,.3,4.726,6.669,6.669,0,0,0,1.418.82c.877.41,1.791.713,2.673,1.1a5.21,5.21,0,0,1,1.176.672,1.32,1.32,0,0,1,.156,2.009,2.734,2.734,0,0,1-1.467.877,4.44,4.44,0,0,1-3.689-.853.892.892,0,0,0-1.344.143.913.913,0,0,0,.353,1.312,7.194,7.194,0,0,0,3.017,1.23c0,.41,0,.758,0,1.131a.889.889,0,1,0,1.775,0v-.82c0-.266.041-.361.312-.41a4.529,4.529,0,0,0,2.127-1.14,3.14,3.14,0,0,0-.336-4.989,7.378,7.378,0,0,0-1.275-.705c-.758-.332-1.541-.6-2.3-.935a7.846,7.846,0,0,1-1.426-.742A1.355,1.355,0,0,1,12.912,10a2.976,2.976,0,0,1,1.775-.82,4.693,4.693,0,0,1,3.279.947.89.89,0,0,0,1.3-.131.91.91,0,0,0-.316-1.32A7.112,7.112,0,0,0,15.9,7.419Zm-.885,21.77H8.28a2.435,2.435,0,0,0-.574.053.865.865,0,0,0,0,1.672,2.435,2.435,0,0,0,.574.053H22.053a.889.889,0,1,0,0-1.775h-.369Zm.033-3.525h-6.9a.939.939,0,0,0-.988.529c-.283.631.184,1.23.959,1.23H21.934a.943.943,0,0,0,.906-.459.88.88,0,0,0-.881-1.3C19.676,25.66,17.355,25.668,15.052,25.664Z" transform="translate(0 0)" fill="url(#linear-gradient)"/>
</svg>
