<svg id="Camada_2" data-name="Camada 2" xmlns="http://www.w3.org/2000/svg" xmlns:xlink="http://www.w3.org/1999/xlink" width="29.746" height="36.65" viewBox="0 0 29.746 36.65">
  <defs>
    <linearGradient id="linear-gradient" x1="0.029" y1="0.842" x2="0.96" y2="0.16" gradientUnits="objectBoundingBox">
      <stop offset="0" stop-color="#00ebcc"/>
      <stop offset="0.49" stop-color="#10b2d3"/>
      <stop offset="0.721" stop-color="#02abe0"/>
      <stop offset="1" stop-color="#07f"/>
    </linearGradient>
  </defs>
  <g id="Camada_1" data-name="Camada 1" transform="translate(0)">
    <path id="Path_77227" data-name="Path 77227" d="M14.9,70.744H4.191A3.4,3.4,0,0,1,.571,68.45a6.519,6.519,0,0,1-.5-2c-.148-2.155-.181-4.314.953-6.306A8.8,8.8,0,0,1,6.886,55.8a4.583,4.583,0,0,1,3.164.388,10.275,10.275,0,0,0,9.623,0,5,5,0,0,1,3.887-.225A8.587,8.587,0,0,1,29.722,64.1a10.928,10.928,0,0,1-.3,3.756,3.612,3.612,0,0,1-2.465,2.713,5.209,5.209,0,0,1-1.368.171C22.035,70.748,18.489,70.744,14.9,70.744Z" transform="translate(0 -34.095)" fill="url(#linear-gradient)"/>
    <path id="Path_77228" data-name="Path 77228" d="M21.482,19.378a10.294,10.294,0,0,1-9.5-6.005A9.3,9.3,0,0,1,14.259,2.8,10.731,10.731,0,0,1,25.491.767a9.688,9.688,0,0,1,6.263,9.026c-.061,5.31-4.642,9.585-10.272,9.585Z" transform="translate(-6.604 0.001)" fill="url(#linear-gradient)"/>
  </g>
</svg>
