<svg xmlns="http://www.w3.org/2000/svg" width="76.759" height="94.574" viewBox="0 0 76.759 94.574">
  <g id="Camada_2" data-name="Camada 2" transform="translate(0 0)" opacity="0.3">
    <g id="Camada_1" data-name="Camada 1" transform="translate(0)">
      <path id="Path_77227" data-name="Path 77227" d="M38.445,94.564H10.815c-4.814,0-7.613-1.69-9.341-5.921A16.823,16.823,0,0,1,.191,83.483c-.382-5.561-.467-11.131,2.46-16.272A22.706,22.706,0,0,1,17.77,56a11.826,11.826,0,0,1,8.164,1,26.515,26.515,0,0,0,24.831,0,12.9,12.9,0,0,1,10.03-.58c9.542,3.07,15.745,11.151,15.9,21,.064,3.24.276,6.521-.785,9.691s-2.629,6-6.361,7a13.441,13.441,0,0,1-3.531.44C56.861,94.574,47.711,94.564,38.445,94.564Z" transform="translate(0 0.007)" fill="#a5b5bb"/>
      <path id="Path_77228" data-name="Path 77228" d="M37.716,50.006c-10.745,0-20.428-6.121-24.514-15.5A23.985,23.985,0,0,1,19.077,7.227,27.69,27.69,0,0,1,48.06,1.982c9.895,3.955,16.279,13.155,16.163,23.291-.157,13.7-11.978,24.734-26.506,24.733Z" transform="translate(0.676 0.001)" fill="#a5b5bb"/>
    </g>
  </g>
</svg>
